<svg width="161" height="27" viewBox="0 0 161 27" fill="none" xmlns="http://www.w3.org/2000/svg">
<path fill-rule="evenodd" clip-rule="evenodd" d="M99.0965 6.70386C102.771 6.70386 105.611 8.73399 105.611 13.3018C105.611 13.5251 105.588 13.7483 105.566 13.9591C105.546 14.1477 105.527 14.3263 105.527 14.486H97.0921C97.4261 15.7549 98.5119 16.4316 100.266 16.4316C101.686 16.4316 103.105 16.1778 104.442 15.5011L105.11 18.5463C103.356 19.4768 101.936 19.8997 99.3471 19.8997C94.5865 19.8997 92.415 17.3621 92.415 13.3018C92.415 9.57988 95.0041 6.70386 99.0965 6.70386ZM98.5119 12.8789L101.017 12.2867C101.017 12.033 101.017 11.8638 100.934 11.6946C100.767 11.1025 100.516 10.4258 99.8482 10.172C99.2635 9.91824 98.5119 9.91824 97.9272 10.2566C97.4261 10.5949 97.0921 11.2717 96.925 11.8638C96.758 12.3713 96.758 12.7943 96.758 13.3018L98.5119 12.8789Z" fill="#B8B8B8" fill-opacity="0.5"/>
<path fill-rule="evenodd" clip-rule="evenodd" d="M60.3338 6.70386C64.0086 6.70386 66.8482 8.73399 66.8482 13.3018C66.8482 13.7247 66.8482 14.1477 66.7647 14.5706H58.3294C58.6634 15.8395 59.7492 16.5162 61.5031 16.5162C62.9229 16.5162 64.3427 16.2624 65.679 15.5857L66.3471 18.5463C64.5932 19.4768 63.1734 19.8997 60.5844 19.8997C55.8238 19.8997 53.6523 17.3621 53.6523 13.3018C53.6523 9.57988 56.2414 6.70386 60.3338 6.70386ZM59.8327 12.8789L62.3382 12.2867C62.3382 12.033 62.3382 11.8638 62.2547 11.6946C62.0877 11.1025 61.8371 10.4258 61.169 10.172C60.5844 9.91824 59.8327 9.91824 59.2481 10.2566C58.747 10.5949 58.4129 11.2717 58.2458 11.8638C58.0788 12.3713 58.0788 12.7943 58.0788 13.3018L59.8327 12.8789Z" fill="#B8B8B8" fill-opacity="0.5"/>
<rect x="47.0547" y="2.58015" width="4.12371" height="16.4948" fill="#B8B8B8" fill-opacity="0.5"/>
<path d="M106.436 7.03375H110.984L111.927 9.83788C112.528 8.43582 113.901 6.70386 116.218 6.70386C119.479 6.70386 121.281 8.27087 121.281 12.3946V19.075H116.733C116.733 17.6729 116.733 16.2709 116.733 14.8688C116.733 14.209 116.733 13.5492 116.733 12.9719C116.733 12.3946 116.819 11.7348 116.475 11.2399C116.218 10.91 115.875 10.5801 115.532 10.4152C114.759 10.0028 113.815 10.0853 113.043 10.4152C112.871 10.4977 111.927 10.9925 111.927 11.2399V19.075H107.379V10.2502L106.436 7.03375Z" fill="#B8B8B8" fill-opacity="0.5"/>
<path d="M124.189 10.4588H122.105V7.26006H124.189V5.23977L128.79 4.22963V7.26006H133.391V10.4588H128.79V14.0785C128.79 15.5096 129.485 16.183 130.527 16.183C131.395 16.183 132.35 16.0146 133.131 15.7621L133.652 19.1292C132.263 19.6343 130.787 19.971 129.311 19.8868C126.012 19.8868 124.189 18.3716 124.189 15.3412V10.4588Z" fill="#B8B8B8" fill-opacity="0.5"/>
<path fill-rule="evenodd" clip-rule="evenodd" d="M149.322 13.3864C149.322 9.32611 146.11 6.70386 141.856 6.70386C137.515 6.70386 134.477 9.4107 134.477 13.3864C134.477 17.3621 137.515 19.8997 141.856 19.8997C146.197 19.8997 149.322 17.4467 149.322 13.3864ZM144.547 13.3018C144.547 15.1628 143.505 16.347 141.856 16.347C140.206 16.347 139.251 15.1628 139.338 13.3864C139.338 11.4408 140.293 10.3412 141.943 10.3412C143.592 10.3412 144.547 11.4408 144.547 13.3018Z" fill="#B8B8B8" fill-opacity="0.5"/>
<path d="M87.5866 7.07907C86.8336 6.73489 85.9132 6.64885 85.0765 6.73489C84.6581 6.82094 84.2398 6.90698 83.8214 7.16512C82.7337 7.68138 81.897 8.97205 81.4786 10.0906C81.1439 8.79997 80.3072 7.68138 79.0522 7.16512C78.2991 6.82094 77.3787 6.73489 76.542 6.82094C76.1237 6.90698 75.7053 6.99303 75.2869 7.25116C74.1992 7.76743 73.3625 9.0581 72.9441 10.0906V10.0046L72.1074 7.16512H67.6729L68.5932 10.5209V19.7276H72.9441V11.5534C72.9441 11.4674 73.1952 11.3813 73.1952 11.3813C73.6972 10.9511 74.2829 10.6929 74.9523 10.6069C75.6216 10.6069 76.2073 10.865 76.6257 11.4674C76.7094 11.5534 76.7094 11.5534 76.7094 11.6394C77.044 12.1557 76.9604 12.8441 76.9604 13.4464C76.9604 14.1347 76.9604 14.8231 76.9604 15.4254C76.9604 16.8882 76.9604 18.3509 76.9604 19.8137H81.4786V11.6394C81.4786 11.5534 81.7296 11.4674 81.7296 11.4674C82.2317 11.0371 82.8174 10.779 83.4867 10.6929C84.1561 10.6929 84.7418 10.9511 85.1602 11.5534C85.2438 11.6394 85.2438 11.6394 85.2438 11.7255C85.5785 12.2418 85.4949 12.9301 85.4949 13.5324C85.4949 14.2208 85.4949 14.9091 85.4949 15.5115C85.4949 16.9742 85.4949 18.437 85.4949 19.8997H89.9294V12.9301C90.0131 10.6929 89.6784 8.02556 87.5866 7.07907Z" fill="#B8B8B8" fill-opacity="0.5"/>
<path d="M159.55 5.96651C157.24 5.96651 156.003 7.8017 155.426 9.28733L154.519 6.31607H150.147L151.055 9.72428V19.075H155.426V10.4234C156.086 10.336 159.385 10.9477 160.044 11.2099V5.87912C159.797 6.0539 159.714 5.96651 159.55 5.96651Z" fill="#B8B8B8" fill-opacity="0.5"/>
<path fill-rule="evenodd" clip-rule="evenodd" d="M38.8904 6.70386C42.5652 6.70386 45.4049 8.73399 45.4049 13.3018C45.4049 13.7247 45.4049 14.1477 45.3213 14.5706H36.886C37.2201 15.8395 38.3058 16.5162 40.0597 16.5162C41.4795 16.5162 42.8993 16.2624 44.2356 15.5857L44.9038 18.5463C43.1499 19.4768 41.7301 19.8997 39.141 19.8997C34.3805 19.8997 32.209 17.3621 32.209 13.3018C32.209 9.57988 34.798 6.70386 38.8904 6.70386ZM38.3893 12.8789L40.8949 12.2867C40.8949 12.033 40.8949 11.8638 40.8114 11.6946C40.6443 11.1025 40.3938 10.4258 39.7256 10.172C39.141 9.91824 38.3893 9.91824 37.8047 10.2566C37.3036 10.5949 36.9695 11.2717 36.8025 11.8638C36.6354 12.3713 36.6354 12.7943 36.6354 13.3018L38.3893 12.8789Z" fill="#B8B8B8" fill-opacity="0.5"/>
<path d="M12.8699 0.930664C5.82039 0.930664 0.129804 6.62145 0.0448703 13.6712C-0.0400638 20.721 5.73545 26.4118 12.785 26.4967C19.8345 26.5817 25.5251 20.806 25.61 13.7562C25.695 6.62145 19.9194 0.930664 12.8699 0.930664Z" fill="#B8B8B8" fill-opacity="0.5"/>
<rect x="7.4668" y="7.52859" width="2.47423" height="10.7216" fill="white"/>
<rect x="11.5908" y="15.6008" width="6.59794" height="2.47423" fill="white"/>
<rect x="11.5908" y="11.6523" width="6.59794" height="2.47423" fill="white"/>
<rect x="11.5908" y="7.52859" width="6.59794" height="2.47423" fill="white"/>
</svg>
