<svg width="964" height="917" viewBox="0 0 964 917" fill="none" xmlns="http://www.w3.org/2000/svg">
<g clip-path="url(#clip0_15_10)">
<rect width="1111" height="926" transform="translate(-147)" fill="white"/>
<path d="M969.374 748.265C969.374 748.265 671.528 609.658 638.296 511.029C604.741 412.65 618.707 277.598 550.663 205.834C482.296 134.32 314.577 112.388 251.408 63.9517C221.001 40.6368 186.213 -5.01323 186.213 -5.01323L964.427 -0.0954479L969.374 748.265Z" fill="#2667FF" fill-opacity="0.26"/>
<path d="M969.822 816.052C969.822 816.052 634.908 672.708 599.464 567.502C563.674 462.564 578.579 318.503 505.999 241.956C433.074 165.676 273.529 156.242 186.786 90.6249C137.512 53.0503 105.558 -5.52275 105.558 -5.52275L964.434 1.00772L969.822 816.052Z" fill="#2667FF" fill-opacity="0.26"/>
<path d="M970.27 850.101C970.27 850.101 610.833 717.484 573.027 605.251C534.853 493.303 550.766 339.616 473.34 257.959C395.546 176.586 235.508 206.559 142.972 136.564C82.3718 90.3552 37.3672 -5.95374 37.3672 -5.95374L964.427 -0.0954149L970.27 850.101Z" fill="#2667FF" fill-opacity="0.26"/>
<path d="M970.602 900.191C970.602 900.191 605.298 756.247 560.887 644.613C516.119 533.286 550.898 383.348 468.147 304.66C385.039 226.278 212.502 224.742 115.128 158.619C64.8836 124.216 -5.17341 -6.70444 -5.17341 -6.70444L964.65 -0.0938503L970.602 900.191Z" fill="#8EA6DE" fill-opacity="0.26"/>
</g>
<defs>
<clipPath id="clip0_15_10">
<rect width="1111" height="926" fill="white" transform="translate(-147)"/>
</clipPath>
</defs>
</svg>
