<svg width="161" height="34" viewBox="0 0 161 34" fill="none" xmlns="http://www.w3.org/2000/svg">
<path fill-rule="evenodd" clip-rule="evenodd" d="M5.02742 0.935414C19.7856 0.930097 34.5437 0.937186 49.3019 0.931869C50.5819 0.903512 51.8636 1.37671 52.808 2.23627C53.8898 3.19686 54.5057 4.63241 54.4754 6.07151C54.47 11.6879 54.4861 17.3023 54.4682 22.9189C54.4575 25.4566 52.2243 27.7216 49.6697 27.7907C44.2873 27.814 38.9032 27.7927 33.5208 27.8016C34.2438 29.5701 34.9758 31.3371 35.6988 33.1078C32.4926 31.355 29.3185 29.54 26.0944 27.8244C19.0144 27.7626 11.929 27.8297 4.84712 27.789C2.29608 27.7183 0.071737 25.4549 0.0574555 22.9223C0.0360332 17.4248 0.0574555 11.9254 0.0467444 6.42597C0.0271073 5.60008 0.105656 4.75647 0.446627 3.99261C1.19284 2.19906 3.0655 0.931869 5.02742 0.935414Z" fill="#B8B8B8" fill-opacity="0.5"/>
<path fill-rule="evenodd" clip-rule="evenodd" d="M21.9773 4.74748C22.7846 3.88324 24.3163 4.16363 24.912 5.14144C25.2346 5.6543 25.2628 6.3393 25.0037 6.88588C23.8809 9.10947 23.4121 11.5868 22.9802 14.0216C22.4691 17.1964 22.0443 20.4118 22.21 23.6346C22.2558 24.4561 21.861 25.4536 20.985 25.6453C20.1566 25.8314 19.4022 25.2848 18.8822 24.6957C16.5028 22.1189 15.1562 18.7809 14.185 15.4501C13.2032 17.4004 12.218 19.3506 11.2662 21.3168C10.5999 22.646 9.89665 24.0018 8.83206 25.0579C8.3826 25.5068 7.62293 25.9131 7.04304 25.4517C6.17075 24.6833 5.95571 23.4588 5.5854 22.4066C4.18063 17.528 3.38394 12.5007 2.56787 7.49635C2.38104 6.66228 2.72827 5.66318 3.55491 5.32955C4.22293 5.07756 5.07778 5.04206 5.64709 5.53718C6.04384 5.89387 6.15294 6.44578 6.22697 6.94977C6.79981 10.8237 7.48192 14.6853 8.41098 18.4899C10.0026 15.4519 11.5852 12.4085 13.1715 9.36678C13.4077 8.92136 13.6897 8.47416 14.1233 8.19732C14.7032 7.82287 15.5633 7.84949 16.048 8.373C16.4552 8.80246 16.5909 9.4005 16.7037 9.96483C17.1778 12.4794 17.8194 14.9692 18.7518 17.3525C19.1537 13.7607 19.6454 10.1245 20.948 6.73326C21.2423 6.05004 21.5014 5.32777 21.9773 4.74748ZM30.9241 6.67115C32.6374 6.45997 34.4863 7.03317 35.6531 8.34461C36.6049 9.42889 37.139 10.8362 37.3188 12.2594C37.6096 14.6942 37.1742 17.2247 36.0109 19.3844C35.3535 20.6158 34.4934 21.796 33.2807 22.52C31.504 23.6061 29.121 23.473 27.4043 22.3266C26.033 21.3807 25.2628 19.7695 24.949 18.1633C24.318 14.5291 25.3967 10.4777 28.1305 7.94C28.9148 7.25855 29.893 6.79715 30.9241 6.67115ZM31.2819 10.4103C30.4588 10.6853 29.9389 11.4448 29.4965 12.1511C28.3878 13.9488 28.067 16.3197 28.9589 18.2751C29.1933 18.7898 29.5705 19.331 30.1645 19.4393C30.7955 19.544 31.3824 19.1804 31.8424 18.7846C32.8559 17.9096 33.36 16.5948 33.605 15.3046C33.88 13.8352 33.739 12.2079 32.8824 10.9497C32.5387 10.4369 31.8636 10.2044 31.2819 10.4103ZM44.6704 6.6747C46.3449 6.4653 48.1621 6.98526 49.3342 8.24346C50.3829 9.38258 50.9505 10.9071 51.1109 12.4386C51.3576 14.7918 50.9276 17.2247 49.8189 19.3168C49.1527 20.5821 48.2731 21.7997 47.0252 22.5362C45.3191 23.5652 43.0665 23.4712 41.3762 22.4561C40.2341 21.764 39.4744 20.5821 39.0373 19.3401C37.8387 15.5406 38.8504 11.0704 41.6124 8.20264C42.4408 7.38969 43.516 6.82022 44.6704 6.6747ZM45.0335 10.4156C44.1346 10.7386 43.5953 11.6028 43.1282 12.3872C42.1165 14.1831 41.868 16.4954 42.7827 18.3818C43.0295 18.9034 43.4666 19.4286 44.0853 19.457C44.7586 19.4821 45.3385 19.0526 45.8055 18.6088C46.8225 17.599 47.2879 16.1564 47.45 14.7563C47.6175 13.4448 47.4007 12.0358 46.6428 10.9355C46.2955 10.4227 45.6134 10.2044 45.0335 10.4156Z" fill="white"/>
<path fill-rule="evenodd" clip-rule="evenodd" d="M63.5184 6.94112C64.9902 6.62032 66.5384 6.66414 68.0031 7.00072C68.0084 8.18402 68.0031 9.36732 68.0067 10.5506C66.8047 10.2649 65.4607 9.99666 64.2943 10.5524C62.9006 11.2255 62.1389 12.777 62.1247 14.2671C62.0466 15.7519 62.5472 17.4048 63.8788 18.2393C65.1021 19.0386 66.6644 18.8686 68.0067 18.4884C68.0031 19.6715 68.0067 20.855 68.0031 22.0381C66.2277 22.5465 64.2872 22.4834 62.5543 21.847C60.4735 21.0758 58.8171 19.3018 58.1833 17.1999C57.7039 15.6046 57.6418 13.8761 58.0306 12.2546C58.6573 9.65307 60.8819 7.52138 63.5184 6.94112ZM74.3343 6.76582C76.1452 6.56597 78.1159 6.8412 79.5789 7.98768C80.9903 9.06931 81.6952 10.8136 81.9402 12.5175C82.1887 14.3828 82.1335 16.3234 81.5496 18.1253C81.0525 19.6559 80.0121 21.0704 78.5136 21.7664C76.9903 22.4748 75.2149 22.5219 73.5939 22.161C72.0919 21.8277 70.7692 20.8443 70.0235 19.5172C68.992 17.7274 68.8038 15.6029 68.8837 13.5834C68.9689 11.8409 69.4146 10.0247 70.6006 8.68189C71.5309 7.58974 72.9086 6.92534 74.3343 6.76582ZM74.8918 10.1597C74.1141 10.3543 73.6738 11.1116 73.4785 11.8251C73.0933 13.2363 73.1589 14.7211 73.2566 16.1656C73.3507 16.9457 73.4359 17.808 73.9987 18.4163C74.7462 19.2562 76.2482 19.1421 76.9353 18.2831C77.3898 17.7326 77.507 17.007 77.6117 16.3269C77.7573 15.1103 77.7946 13.8726 77.6064 12.6595C77.475 11.932 77.2708 11.1642 76.7293 10.6207C76.2642 10.1439 75.5291 9.99841 74.8918 10.1597ZM145.916 7.00248C147.453 6.60454 149.083 6.66239 150.629 6.98845C150.665 8.17526 150.636 9.36382 150.645 10.5506C149.468 10.2719 148.169 10.0107 147.016 10.5121C145.692 11.1081 144.889 12.5105 144.786 13.9112C144.623 15.4819 145.062 17.2875 146.464 18.2059C147.693 19.0404 149.285 18.8775 150.645 18.4884C150.629 19.6803 150.681 20.8742 150.617 22.0644C148.724 22.55 146.663 22.4851 144.859 21.7122C142.878 20.86 141.342 19.0932 140.772 17.0386C140.335 15.4609 140.286 13.7639 140.689 12.1739C141.319 9.68813 143.412 7.64759 145.916 7.00248H145.916ZM84.3299 7.11993C86.0414 7.11625 87.7547 7.11643 89.4678 7.11993C90.0876 9.86168 90.677 12.6122 91.1917 15.375C91.6819 12.5999 92.3406 9.85817 93.0028 7.11993C94.7587 7.11625 96.5145 7.11818 98.2723 7.11818C98.9541 12.081 99.6323 17.0439 100.309 22.0065C98.9647 22.0083 97.6223 22.0085 96.2783 22.0065C95.9057 18.6074 95.5753 15.2049 95.1811 11.8075C94.3664 15.2119 93.5071 18.6056 92.6762 22.0065C91.7601 22.01 90.842 22.0085 89.9259 22.0065C89.0472 18.6021 88.1826 15.1927 87.2966 11.79C86.9504 15.1962 86.6078 18.6021 86.258 22.0085C84.9744 22.0065 83.6888 22.01 82.4053 22.0065C83.0445 17.0439 83.6888 12.0828 84.3299 7.11993ZM102.759 7.11818C104.472 7.11993 106.185 7.11467 107.9 7.11993C108.518 9.85817 109.102 12.6034 109.621 15.3627C110.118 12.5929 110.769 9.85291 111.433 7.11818C113.182 7.11818 114.933 7.11818 116.681 7.11818C117.362 12.081 118.04 17.0439 118.716 22.0065C117.374 22.01 116.032 22.0048 114.689 22.01C114.317 18.6091 113.969 15.2084 113.601 11.8075C112.763 15.2067 111.941 18.6091 111.103 22.0085C110.187 22.0065 109.273 22.0085 108.358 22.0085C107.48 18.6004 106.606 15.1909 105.729 11.7813C105.378 15.1892 105.038 18.5986 104.689 22.0065C103.403 22.0083 102.119 22.0085 100.834 22.0065C101.475 17.0439 102.118 12.081 102.759 7.11818ZM119.863 7.16709C122.613 7.10591 125.367 7.1585 128.119 7.14097C128.124 8.19805 128.115 9.25337 128.124 10.3105C126.736 10.3262 125.347 10.3122 123.959 10.3192C123.957 11.2273 123.957 12.1354 123.959 13.0434C125.161 13.0469 126.363 13.0434 127.565 13.0452C127.565 14.0742 127.567 15.1015 127.565 16.1288C126.363 16.1305 125.161 16.127 123.959 16.1305C123.957 17.0386 123.957 17.9483 123.959 18.8563C125.353 18.8598 126.748 18.8563 128.142 18.8581C128.142 19.9152 128.144 20.9722 128.142 22.0293C125.39 22.0311 122.638 22.0311 119.888 22.0293C119.87 17.0754 119.918 12.1196 119.863 7.16726L119.863 7.16709ZM129.308 7.11818C131.031 7.12519 132.753 7.10415 134.475 7.1287C136.098 7.17953 137.818 7.57923 139.029 8.71344C140.123 9.71793 140.501 11.357 140.076 12.7542C139.741 13.8902 138.878 14.8122 137.8 15.3101C138.878 17.5451 139.966 19.7732 141.044 22.0065C139.611 22.0083 138.178 22.0065 136.747 22.0085C135.624 19.7295 134.535 17.4311 133.397 15.1593C133.369 17.4416 133.394 19.7243 133.385 22.0065C132.025 22.0083 130.666 22.0085 129.308 22.0065C129.307 17.0439 129.307 12.081 129.308 7.11818ZM133.365 9.98088C133.362 11.1642 133.362 12.3492 133.365 13.5343C134.102 13.4834 134.903 13.4554 135.529 13.0154C136.25 12.5017 136.172 11.4026 135.718 10.7399C135.155 10.0598 134.176 10.0457 133.365 9.98088H133.365ZM160.027 7.11818C160.028 8.17684 160.027 9.23584 160.027 10.2947C158.633 10.2964 157.239 10.2947 155.846 10.2964C155.844 11.2027 155.844 12.1091 155.844 13.0171C157.046 13.0206 158.248 13.0154 159.45 13.0189C159.45 14.0479 159.451 15.0787 159.45 16.1077C158.248 16.1077 157.047 16.1077 155.847 16.1077C155.842 17.0158 155.844 17.9237 155.846 18.8337C157.245 18.837 158.644 18.8337 160.044 18.8355C160.044 19.8924 160.044 20.9496 160.043 22.0085C157.293 22.0083 154.541 22.0085 151.79 22.0065C151.785 17.0456 151.79 12.0828 151.787 7.12168C154.534 7.11467 157.28 7.12168 160.027 7.11818Z" fill="#B8B8B8" fill-opacity="0.5"/>
</svg>
