<svg width="69" height="28" viewBox="0 0 69 28" fill="none" xmlns="http://www.w3.org/2000/svg">
<path fill-rule="evenodd" clip-rule="evenodd" d="M15.0439 15.3541C15.0439 11.4426 17.0476 7.93066 22.0543 7.93066C26.873 7.93066 29.0322 11.1338 29.0439 15.5925C29.053 19.2535 27.0907 22.9307 22.0543 22.9307C17.0178 22.9307 15.0439 19.4173 15.0439 15.3541ZM24.2731 12.2214C22.9887 10.3456 19.1421 10.3456 19.0202 15.5749C19.0695 18.5275 20.3824 19.7085 22.0543 19.7275C25.6845 19.7708 25.4396 13.9307 24.2731 12.2214Z" fill="#B8B8B8" fill-opacity="0.5"/>
<path d="M65.218 19.1923V11.3958H67.869V8.01686H65.218V3.93066H61.1223V8.01686H59.0439V11.3986H61.1223V18.7565C61.1223 22.9332 63.8952 25.4169 66.8219 25.9307L68.0439 22.464C66.3381 22.2371 65.2339 20.8978 65.218 19.1923Z" fill="#B8B8B8" fill-opacity="0.5"/>
<path fill-rule="evenodd" clip-rule="evenodd" d="M44.2441 12.7472V18.2816C44.2441 19.0605 44.4695 20.1387 44.7331 21.3993C44.8346 21.8849 44.9418 22.3976 45.0439 22.9307H40.9958L40.2938 21.2931C35.5642 24.6235 31.0439 22.376 31.0439 18.881C31.0439 14.2846 35.6499 13.7274 39.9769 13.7274C39.9769 13.6382 39.9789 13.5456 39.9808 13.4509C39.9917 12.9328 40.0039 12.3546 39.7048 11.9647C39.6925 11.9487 39.6793 11.9343 39.666 11.9196C39.6617 11.9149 39.6574 11.9102 39.6532 11.9054C38.9621 11.1545 36.9802 10.7619 33.6679 12.2848L31.6302 9.99785C36.7163 8.27866 43.2824 8.26812 43.6469 12.7472C43.8459 12.7569 44.0452 12.7569 44.2441 12.7472ZM36.753 16.9853C33.6312 18.4673 36.6796 21.8636 40.0096 18.2552V16.6691C38.92 16.6691 37.6726 16.6823 36.753 16.9853Z" fill="#B8B8B8" fill-opacity="0.5"/>
<path d="M50.0482 12.1828C50.0482 10.7922 52.461 10.1412 56.2647 11.7453L57.5801 8.79222C52.461 7.36135 45.4698 7.23785 45.4233 12.1828C45.403 14.5533 47.0483 15.8285 49.4189 16.6419C51.0599 17.2057 53.4305 17.497 53.4232 18.705C53.4145 20.2822 49.7401 20.5238 46.3957 18.4017L45.0439 21.6017C49.6049 23.6983 58.0888 23.7574 58.0438 18.5023C58.006 13.3077 50.0482 14.1976 50.0482 12.1828Z" fill="#B8B8B8" fill-opacity="0.5"/>
<path d="M13.399 0.930664L7.30381 17.9517L4.38544 8.76064H0.0439453L4.90381 21.3127C4.35959 22.7134 3.45619 23.9117 1.25347 24.2099V27.9307C5.54326 27.9307 7.86299 25.2796 9.93238 19.4673L18.0439 0.930664H13.399Z" fill="#CECECE"/>
</svg>
