<svg width="232" height="26" viewBox="0 0 232 26" fill="none" xmlns="http://www.w3.org/2000/svg">
<path fill-rule="evenodd" clip-rule="evenodd" d="M0 24.9925C1.22342 24.3438 2.50082 23.8025 3.81783 23.3747C10.5201 21.8094 17.2317 20.2228 23.9865 18.9038C28.2765 18.0729 32.6586 17.7327 36.9926 17.0905C39.9964 16.637 42.963 15.9888 45.971 15.576C51.4405 14.806 56.9199 14.0908 62.4091 13.4302C68.1265 12.755 73.8557 12.1077 79.5832 11.5645C85.6586 10.9662 91.7483 10.5009 97.8295 9.98309C103.472 9.51262 109.106 8.93219 114.756 8.57003C122.084 8.10042 129.42 7.81952 136.755 7.43543C142.971 7.12569 149.184 6.73311 155.398 6.46235C160.659 6.22711 165.921 6.10018 171.238 5.74572C169.623 5.64495 168.007 5.52825 166.387 5.45711C159.97 5.14494 153.549 4.80989 147.131 4.60004C137.896 4.29037 128.662 4.00688 119.431 3.83766C115.241 3.76575 111.05 4.02637 106.859 4.12956C100.884 4.29202 94.9094 4.4037 88.9399 4.62794C81.5861 4.90805 74.2348 5.53414 66.8742 5.57139C59.1184 5.60016 51.487 7.23737 43.7084 6.90319C37.3962 6.65019 31.0695 6.91584 24.748 6.81264C23.4458 6.78812 21.7282 7.25262 20.8532 5.32264C21.2543 5.10343 21.6309 4.71423 22.0032 4.72021C25.3868 4.732 28.7765 4.83441 32.1594 4.84541C33.7129 4.85555 35.2707 4.7261 36.8225 4.61191C42.8919 4.15746 48.9511 3.65918 55.0129 3.23775C56.9235 3.12442 58.8569 3.32829 60.765 3.17519C64.5574 2.90019 68.3329 2.36456 72.1338 2.14206C81.7443 1.57602 91.3616 1.10217 100.979 0.628315C105.39 0.408328 109.813 0.173092 114.227 0.152818C124.134 0.0800375 134.044 0.161222 143.954 0.146839C146.772 0.14606 149.596 -0.0773064 152.408 0.0283982C159.962 0.333036 167.514 0.759493 175.065 1.1182C180.157 1.3653 185.261 1.48374 190.353 1.81455C196.214 2.19959 202.076 2.7081 207.924 3.26825C212.419 3.71841 216.777 5.07437 220.734 7.25435C223.172 8.56327 226.053 9.04214 228.714 9.96359C229.617 10.2741 230.463 10.7556 232 11.479C227.101 11.4688 223.02 11.4672 218.746 11.4562C218.64 11.2405 218.348 10.6853 218.095 10.2006C217.824 10.168 217.552 10.1533 217.28 10.1565C216.213 10.4494 215.123 10.6487 214.022 10.7522C204.618 10.8156 195.214 10.6693 185.812 10.8689C179.141 10.9985 172.483 11.633 165.814 11.963C157.913 12.3328 150.01 12.5908 142.107 12.9453C138.982 13.0858 135.852 13.4023 132.723 13.569C126.064 13.9158 119.399 14.1714 112.744 14.5623C100.877 15.2604 89.0096 16.0047 77.1413 16.7952C70.2605 17.2521 63.3745 17.7091 56.5182 18.4045C51.6915 18.8739 46.8954 19.6174 42.1532 20.6315C40.4364 20.9996 38.871 19.7161 37.0527 20.9446C35.8258 21.7899 33.7976 21.421 32.145 21.6816C25.6602 22.6715 19.1821 23.7081 12.704 24.6972C9.68327 25.1668 6.66083 25.6465 3.61646 25.9901C2.47048 26.0259 1.32351 25.9648 0.187829 25.8073C0.124405 25.5382 0.0626271 25.2666 0 24.9925Z" fill="url(#paint0_linear_0_9264)" fill-opacity="0.6"/>
<defs>
<linearGradient id="paint0_linear_0_9264" x1="32.9493" y1="-63.8975" x2="27.1191" y2="28.1997" gradientUnits="userSpaceOnUse">
<stop stop-color="#7CC6A5"/>
<stop offset="1" stop-color="#3966CC"/>
</linearGradient>
</defs>
</svg>
