<svg width="166" height="80" viewBox="0 0 166 80" fill="none" xmlns="http://www.w3.org/2000/svg">
<path fill-rule="evenodd" clip-rule="evenodd" d="M20.9948 62.9671C24.509 59.4743 28.3096 56.282 32.3566 53.4237C50.9117 41.001 70.2123 29.9611 91.5193 22.8985C99.6234 20.3292 107.97 18.5976 116.427 17.7306C130.73 16.0476 145.114 15.1344 159.515 14.9952C160.959 14.9845 161.783 14.5739 162.351 13.2228C162.859 12.0165 163.748 10.9806 164.326 9.79624C164.856 8.70612 165.197 2.52321 165.664 1.2513C161.736 0.692761 157.858 1.05884 154.005 1.38353C140.974 2.48044 127.898 2.76052 114.938 4.91599C98.3337 7.67537 83.0328 13.8114 68.2815 21.5475C60.4968 25.6309 52.9122 30.0889 45.4112 34.6989C34.4064 41.4669 19.5915 51.3907 15.3741 58.3415C17.8967 54.2683 21.2566 50.8934 24.1643 47.1443C27.0311 43.4571 29.6862 39.6058 32.971 36.2501C36.2579 32.8869 39.3982 29.4011 41.0889 24.8668C39.7704 25.3089 38.6212 26.1488 37.7994 27.2709C26.3474 41.0452 14.9547 54.8644 5.27415 69.9821C4.01572 71.945 2.83341 73.9676 1.74753 76.0342C1.27065 76.9481 0.366981 78.1882 1.26347 79.0345C2.00897 79.7395 3.1737 78.8318 4.02391 78.3779C7.76856 76.3045 11.703 74.5942 15.7735 73.2705C17.2035 72.9374 18.6516 72.6875 20.1106 72.5218C23.3319 71.9148 26.3802 70.7273 29.5407 69.9287C39.4361 67.4263 49.5828 66.203 59.5457 63.9773C64.5126 62.868 67.8431 60.4886 70.3096 56.3806C71.0605 55.1387 72.6575 53.6987 71.8155 52.4765C71.0156 51.3235 69.0634 52.1937 67.6496 52.4522C57.8488 54.2462 47.9814 55.7161 38.2773 58.0541C32.4622 59.4538 26.7822 61.292 20.9948 62.9671Z" fill="#4D71D9"/>
</svg>
