<svg width="202" height="91" viewBox="0 0 202 91" fill="none" xmlns="http://www.w3.org/2000/svg">
<path fill-rule="evenodd" clip-rule="evenodd" d="M1.92568 74.502C10.5796 73.8287 26.0103 66.3168 35.9115 63.0815C35.7209 62.8978 35.5384 62.7117 35.3536 62.5265C28.9335 63.4113 21.2826 64.0993 16.3208 67.9781C14.9145 67.365 14.5118 66.9269 13.7521 64.754C13.2047 64.5604 12.6615 64.37 12.1215 64.1741C11.3772 64.4165 10.6358 64.6594 9.88677 64.9013C9.7991 64.3148 9.70523 63.7286 9.62048 63.1432C10.8515 57.7738 23.3706 57.2885 28.3996 52.9789C54.7567 43.7875 81.1179 34.5985 107.483 25.4119C112.973 23.874 118.468 22.3335 123.966 20.7905C139.132 17.9638 153.394 9.61634 169.334 6.40653C177.118 4.84102 184.444 0.0978321 190.084 0.767643C193.059 5.6172 193.664 12.3149 190.332 15.449C192.321 17.1499 196.14 14.6597 198.133 14.3902C199.274 13.7439 199.844 14.3964 201.156 14.8851C203.472 24.793 193.262 28.3185 184.612 31.3406C183.997 39.6376 156.747 46.3789 146.189 48.2622C134.214 51.9104 122.24 55.5574 110.266 59.2033C99.6915 60.4075 87.6103 67.5057 74.8903 70.7084C70.3597 72.3029 65.8313 73.899 61.3049 75.4968C52.7789 80.2633 34.2103 88.9874 26.908 90.7432C26.8315 90.52 26.7545 90.3001 26.6717 90.0783C23.5118 86.6703 24.4951 83.9211 24.3305 80.508C17.3148 82.3338 10.7123 85.4828 4.87782 89.7856C3.45243 88.773 2.02677 87.7603 0.600831 86.7473C0.850409 82.709 0.704462 79.6968 1.92568 74.502Z" fill="#89D99D" fill-opacity="0.6"/>
</svg>
