<svg width="271" height="61" viewBox="0 0 271 61" fill="none" xmlns="http://www.w3.org/2000/svg">
<path id="Shape" fill-rule="evenodd" clip-rule="evenodd" d="M258.718 16.1534C259.017 14.2974 259.316 12.4408 259.616 10.5836C259.644 8.65938 259.481 8.27434 257.443 7.91177C257.958 7.51674 258.477 7.11849 258.994 6.72099C257.152 4.02519 254.663 1.83515 251.755 0.351591C239.348 3.47458 220.509 2.16409 201.446 5.61056C177.815 7.58196 81.4842 14.6838 57.8478 16.6536C52.0729 17.1103 46.2967 17.5665 40.5192 18.0221C35.797 18.0315 31.0746 18.0413 26.3519 18.0516C22.4303 17.6074 21.1808 14.9428 15.7534 16.6984C15.3621 20.043 12.0297 23.8295 14.3972 28.5883C13.602 28.8369 12.8071 29.0856 12.0124 29.3345C11.3213 29.1401 10.6373 28.9403 9.95355 28.7435C9.79086 28.2355 9.62402 27.7292 9.46092 27.2226C5.37847 27.4238 5.44229 27.4046 2.25952 28.6848C-1.14094 38.2595 -0.931623 39.5926 6.47871 46.0556C11.3144 45.7797 13.698 45.8692 16.9165 44.5478C17.0619 44.711 17.2063 44.871 17.3515 45.0318C10.9501 51.937 16.1815 58.7598 24.721 60.8014C32.1884 59.8853 36.2518 55.0474 42.054 52.3722C45.6321 50.7195 55.8922 48.956 59.2205 48.1413C72.8211 44.8218 172.591 40.7182 183.236 41.5619C200.964 42.9672 221.664 39.3682 239.713 38.0662C242.847 42.4137 242.754 44.8232 252.402 40.53C254.034 36.8103 254.878 33.4303 251.817 30.1321C257.468 30.4302 256.903 33.2069 260.593 35.0518C261.686 35.3006 262.778 35.5471 263.87 35.7913C268.619 33.2382 270.129 28.9813 270.996 25.7115C265.104 24.3339 267.12 18.1587 258.718 16.1534ZM46.5267 43.8839C46.6739 43.5946 46.8237 43.3002 46.9689 43.0052C47.1342 42.9917 47.2987 42.9719 47.4641 42.9544C47.1334 43.8625 47.5421 43.4609 46.5267 43.8839ZM182.699 40.0073C183.031 40.1163 183.356 40.2256 183.685 40.3334C182.714 40.154 183.303 40.3767 182.699 40.0073ZM192.44 20.2015C184.508 19.9026 175.558 22.0932 166.241 21.8929C150.288 21.5494 60.4519 28.3006 43.5895 29.18C43.5826 29.0996 43.5791 29.0153 43.5758 28.9318C48.4611 24.8191 62.5053 26.9611 69.2533 25.2828C71.5773 24.7047 74.4384 23.728 77.2036 22.7808C89.0525 22.5136 173.53 17.1146 185.375 16.8452C191.268 16.1269 197.16 15.4095 203.051 14.6932C209.908 14.9905 215.327 17.2252 222.239 17.9229C221.327 19.1714 196.986 20.374 192.44 20.2015ZM226.52 17.9833C226.606 17.8358 226.694 17.6896 226.78 17.5422C227.353 17.5549 227.923 17.569 228.497 17.5832C227.837 17.7169 227.178 17.8486 226.52 17.9833ZM265.967 18.74C265.866 18.8889 265.766 19.0364 265.666 19.1839C265.886 19.2321 266.105 19.2819 266.322 19.3304C266.202 19.1347 266.085 18.9378 265.967 18.74Z" fill="url(#paint0_linear_0_1761)" fill-opacity="0.6"/>
<defs>
<linearGradient id="paint0_linear_0_1761" x1="-472.394" y1="16.7338" x2="-446.979" y2="165.972" gradientUnits="userSpaceOnUse">
<stop stop-color="#7CC6A5"/>
<stop offset="1" stop-color="#3966CC"/>
</linearGradient>
</defs>
</svg>
