<svg width="18" height="23" viewBox="0 0 18 23" fill="none" xmlns="http://www.w3.org/2000/svg">
<path fill-rule="evenodd" clip-rule="evenodd" d="M6.86797 17.743C6.78216 16.9149 6.66522 16.1214 6.12735 15.4448C5.76068 14.9824 5.54795 14.3957 5.18266 13.9318C4.14347 12.61 3.07308 11.3139 1.98711 10.0333C1.67036 9.70884 1.46293 9.29241 1.39413 8.84288C1.9424 8.43614 2.11833 8.41885 2.55532 8.87732C3.43991 9.79791 4.33136 10.717 5.15567 11.6949C5.84324 12.4967 6.46924 13.35 7.02827 14.2473C7.47223 14.9724 7.89004 15.7417 8.05738 16.7494C8.14325 16.5614 8.21925 16.3689 8.28509 16.1728C9.02933 13.3479 9.8697 10.553 11.1921 7.93933C11.66 7.02454 12.1744 6.13461 12.7333 5.27307C13.3298 4.34504 14.1038 3.51305 14.5945 2.53519C15.0333 1.70956 15.6058 0.963297 16.2885 0.32707C16.4521 0.146009 16.6748 0.0299666 16.9162 0C17.3737 0.0144593 17.588 0.479778 17.3637 0.886515C17.2381 1.07745 17.1005 1.26007 16.9516 1.43324C17.7624 1.67022 17.9787 1.8713 17.9985 2.37087C18.0257 3.09187 17.6858 3.84703 17.1439 3.99974C16.7695 4.10391 16.6579 4.32939 16.5296 4.622C15.8926 6.08525 15.2614 7.54982 14.5974 9.00149C13.7668 10.8199 12.9121 12.6257 12.0544 14.4299C11.2522 16.1186 10.4224 17.7971 9.63083 19.4933C9.44955 19.9117 9.31718 20.3498 9.23638 20.7989C9.14924 21.3579 8.85628 21.8635 8.41571 22.2151C7.81911 22.6934 7.1361 22.5747 6.99704 21.8195C6.73031 20.3767 6.11531 19.0562 5.62302 17.6959C5.377 17.0149 4.91308 16.4097 4.50937 15.796C4.19075 15.3279 3.84894 14.8763 3.48522 14.4428C2.43684 13.1281 1.38539 11.8183 0.330862 10.5132C0.223718 10.3803 0.0442654 10.2661 0.0144152 10.1176C-0.0249638 9.93163 0.0172182 9.7376 0.13017 9.58515C0.22518 9.49803 0.503184 9.52372 0.644385 9.59805C0.836134 9.72301 1.00404 9.88158 1.14011 10.0662C2.40486 11.5264 3.70648 12.9597 4.91084 14.4669C5.48904 15.1922 5.88408 16.0644 6.35996 16.8735C6.52951 17.1604 6.6984 17.4531 6.86797 17.743ZM14.7994 5.44546C14.6163 5.36871 14.5034 5.40777 14.3839 5.60226C13.369 7.23746 12.57 9.00695 12.0082 10.8633C11.9941 10.9771 11.9982 11.0926 12.0206 11.205C12.0617 11.2215 12.1045 11.2351 12.1458 11.25C13.0277 9.31665 13.9067 7.37983 14.7828 5.43953C14.8559 5.1262 14.9282 4.81302 15 4.5C14.6424 4.77389 14.507 5.08257 14.7994 5.44546ZM15.75 3.98201C15.667 3.90285 15.586 3.8241 15.5002 3.75C15.3339 3.93452 15.1662 4.11906 15 4.30168C15.0821 4.36692 15.1606 4.42984 15.2424 4.5C15.4124 4.32432 15.5809 4.15316 15.75 3.98201Z" fill="#2D56D2" fill-opacity="0.7"/>
</svg>
