<svg width="255" height="255" viewBox="0 0 255 255" fill="none" xmlns="http://www.w3.org/2000/svg">
<g filter="url(#filter0_d_54_161)">
<rect x="10" y="6" width="235" height="235" rx="7" fill="url(#paint0_linear_54_161)"/>
</g>
<path d="M66.1334 57H187.866C191.806 57 195 60.1762 195 64.0943V147.906C195 151.824 191.806 155 187.866 155H66.1338C62.1939 155 59 151.824 59 147.906V64.0939C59 60.1761 62.1938 57 66.1334 57Z" fill="white" fill-opacity="0.01"/>
<path d="M59 78V63.8126C59 60.0501 62.0516 57 65.8159 57H188.184C189.992 57 191.726 57.7178 193.004 58.9954C194.282 60.273 195 62.0058 195 63.8126V78H59Z" fill="#6C98E3"/>
<path d="M109 157H66.3629C61.1946 156.994 57.0065 152.837 57 147.708V64.2921C57.0065 59.1629 61.1946 55.0065 66.3629 55H84.2367V60.1938H66.3629C64.0835 60.197 62.2366 62.03 62.2334 64.2921V147.708C62.2367 149.97 64.0836 151.803 66.3629 151.806H109V157Z" fill="white"/>
<path d="M187.657 157H148.888V151.806H187.657C189.932 151.804 191.776 149.971 191.78 147.708V64.2921C191.776 62.0289 189.932 60.1956 187.657 60.1938H108V55H187.657C192.814 55.005 196.993 59.1617 197 64.2921V147.708C196.993 152.838 192.814 156.995 187.657 157V157Z" fill="white"/>
<rect x="88" y="55" width="12" height="5" fill="white"/>
<rect x="59" y="76" width="136" height="6" fill="white"/>
<rect x="75" y="66" width="5" height="6" fill="white"/>
<rect x="88" y="66" width="5" height="6" fill="white"/>
<rect x="100" y="66" width="6" height="6" fill="white"/>
<path d="M130 174H124.922V152.889C124.919 150.333 122.905 148.262 120.419 148.259H82.9837C78.5761 148.255 75.0041 144.582 75 140.05V139.465C75.0041 134.933 78.5761 131.26 82.9837 131.256H119.953C122.283 131.254 124.172 129.313 124.175 126.918V120H129.253V126.918C129.246 132.196 125.086 136.472 119.953 136.477H82.9837C81.3793 136.478 80.0789 137.815 80.0778 139.465V140.05C80.0789 141.699 81.3793 143.037 82.9837 143.038H120.419C125.708 143.044 129.994 147.451 130 152.889V174Z" fill="white"/>
<path d="M141 104.5C141 109.555 137.833 114.113 132.975 116.048C128.117 117.983 122.526 116.914 118.808 113.339C115.09 109.764 113.978 104.387 115.99 99.7165C118.002 95.0456 122.742 92.0001 128 92C135.18 92 141 97.5962 141 104.5Z" fill="#E8F7EC" fill-opacity="0.01"/>
<path fill-rule="evenodd" clip-rule="evenodd" d="M112 104.5C112 112.508 118.94 119 127.5 119C136.057 118.991 142.991 112.504 143 104.5C143 96.4917 136.06 89.9999 127.5 90C118.939 90.0001 112 96.492 112 104.5ZM117.8 100.864C119.425 97.3145 123.254 94.9999 127.5 95C133.297 95.0057 137.994 99.2555 138 104.5C138 108.342 135.442 111.806 131.518 113.277C127.595 114.747 123.079 113.934 120.076 111.217C117.073 108.5 116.174 104.414 117.8 100.864Z" fill="#97B9F2"/>
<path d="M160 133.5C160 134.881 158.657 136 157 136C155.343 136 154 134.881 154 133.5C154 132.119 155.343 131 157 131C157.796 131 158.559 131.263 159.121 131.732C159.684 132.201 160 132.837 160 133.5Z" fill="#E8F7EC"/>
<path d="M98 122C98 123.657 96.6569 125 95 125C93.3431 125 92 123.657 92 122C92 120.343 93.3431 119 95 119C95.7957 119 96.5587 119.316 97.1213 119.879C97.6839 120.441 98 121.204 98 122Z" fill="#E8F7EC"/>
<path d="M169 109.5C169 110.916 168.025 112.192 166.531 112.733C165.036 113.275 163.316 112.976 162.172 111.975C161.028 110.974 160.685 109.468 161.305 108.161C161.924 106.853 163.382 106 165 106C167.209 106 169 107.567 169 109.5Z" fill="#E8F7EC"/>
<ellipse cx="85" cy="90.5" rx="4" ry="3.5" fill="#E8F7EC"/>
<ellipse cx="179" cy="126.5" rx="6" ry="6.5" fill="#E8F7EC"/>
<path d="M77 111.5C77.0001 113.724 75.5383 115.73 73.2963 116.581C71.0544 117.432 68.4737 116.962 66.7576 115.389C65.0416 113.816 64.5282 111.451 65.4568 109.395C66.3854 107.34 68.5732 106 70.9999 106C74.3135 106 76.9998 108.462 77 111.5V111.5Z" fill="#E8F7EC"/>
<rect x="124" y="79" width="5" height="8" fill="#97B9F2"/>
<path d="M136.006 88.0104L139.542 81.9691L142.994 83.9896L139.458 90.0309L136.006 88.0104Z" fill="#97B9F2"/>
<path d="M143.224 93.0403L149.322 89.6037L151.777 93.9597L145.678 97.3963L143.224 93.0403Z" fill="#97B9F2"/>
<path d="M145.961 107.944L146.04 102.945L153.039 103.056L152.96 108.055L145.961 107.944Z" fill="#97B9F2"/>
<path d="M142.211 116.825L144.801 112.548L150.789 116.175L148.198 120.452L142.211 116.825Z" fill="#97B9F2"/>
<path d="M134.633 121.617L139.027 119.231L142.367 125.383L137.972 127.769L134.633 121.617Z" fill="#97B9F2"/>
<path d="M111.945 124.901L115.666 118.972L119.054 121.099L115.333 127.028L111.945 124.901Z" fill="#97B9F2"/>
<path d="M104.24 113.906L110.444 110.663L112.76 115.094L106.557 118.337L104.24 113.906Z" fill="#97B9F2"/>
<path d="M101.885 106.83L102.123 101.836L109.115 102.17L108.877 107.164L101.885 106.83Z" fill="#97B9F2"/>
<path d="M105.203 92.6901L107.927 88.497L113.797 92.3101L111.073 96.5031L105.203 92.6901Z" fill="#97B9F2"/>
<path d="M113.695 83.4948L118.163 81.2502L121.305 87.5052L116.837 89.7498L113.695 83.4948Z" fill="#97B9F2"/>
<path d="M143 170.66V187.34C143 195.989 136.06 203 127.5 203C118.94 203 112 195.989 112 187.34V170.66C112 162.011 118.94 155 127.5 155C136.06 155 143 162.011 143 170.66Z" fill="white" fill-opacity="0.01"/>
<path fill-rule="evenodd" clip-rule="evenodd" d="M110 186.793C110.012 196.845 118.065 204.989 128.002 205C137.937 204.988 145.988 196.843 146 186.793V170.209C146 160.152 137.941 152 128 152C118.059 152 110 160.152 110 170.209V186.793ZM115 170.102C115.009 162.869 120.825 157.008 128.002 157C135.177 157.009 140.991 162.87 141 170.102V186.897C141 194.133 135.18 200 128 200C120.82 200 115 194.133 115 186.897V170.102Z" fill="white"/>
<defs>
<filter id="filter0_d_54_161" x="0" y="0" width="255" height="255" filterUnits="userSpaceOnUse" color-interpolation-filters="sRGB">
<feFlood flood-opacity="0" result="BackgroundImageFix"/>
<feColorMatrix in="SourceAlpha" type="matrix" values="0 0 0 0 0 0 0 0 0 0 0 0 0 0 0 0 0 0 127 0" result="hardAlpha"/>
<feMorphology radius="1" operator="dilate" in="SourceAlpha" result="effect1_dropShadow_54_161"/>
<feOffset dy="4"/>
<feGaussianBlur stdDeviation="4.5"/>
<feColorMatrix type="matrix" values="0 0 0 0 0.176471 0 0 0 0 0.337255 0 0 0 0 0.823529 0 0 0 0.2 0"/>
<feBlend mode="normal" in2="BackgroundImageFix" result="effect1_dropShadow_54_161"/>
<feBlend mode="normal" in="SourceGraphic" in2="effect1_dropShadow_54_161" result="shape"/>
</filter>
<linearGradient id="paint0_linear_54_161" x1="-167.698" y1="3.10398" x2="67.302" y2="358.5" gradientUnits="userSpaceOnUse">
<stop stop-color="#7CC6A5"/>
<stop offset="1" stop-color="#3966CC"/>
</linearGradient>
</defs>
</svg>
