<svg width="255" height="255" viewBox="0 0 255 255" fill="none" xmlns="http://www.w3.org/2000/svg">
<g filter="url(#filter0_d_54_123)">
<rect x="10" y="6" width="235" height="235" rx="7" fill="url(#paint0_linear_54_123)"/>
</g>
<path d="M69.1013 62H188.255C192.354 62 195.678 65.3202 195.678 69.4158V151.584C195.678 155.68 192.354 159 188.254 159H69.1009C65.0012 159 61.6777 155.68 61.6777 151.584V69.4161C61.6777 65.3203 65.0014 62 69.1013 62Z" fill="white" fill-opacity="0.01"/>
<path d="M61.6777 83V68.8122C61.6778 65.05 64.6843 62.0001 68.393 62H188.962C192.671 62.0001 195.678 65.05 195.678 68.8122V83H61.6777Z" fill="#6C98E3"/>
<rect x="61.6777" y="81" width="134" height="5" fill="white"/>
<rect x="76.6777" y="71" width="5" height="5" fill="white"/>
<rect x="88.6777" y="71" width="5" height="5" fill="white"/>
<rect x="101.678" y="71" width="4" height="5" fill="white"/>
<path d="M144.678 50.4995C144.678 51.5107 144.069 52.4224 143.135 52.8095C142.201 53.1966 141.125 52.9828 140.41 52.2679C139.695 51.5529 139.481 50.4776 139.868 49.5434C140.255 48.6091 141.167 48 142.178 48C143.558 48 144.677 49.119 144.678 50.4995Z" fill="#E8F7EC"/>
<path d="M187.825 162H185.078V156.477H187.825C190.239 156.473 192.194 154.502 192.198 152.07V68.9304C192.194 66.4979 190.239 64.5268 187.825 64.5234H166.678V59H187.825C193.264 59.0068 197.671 63.4488 197.678 68.9304V152.07C197.671 157.551 193.264 161.993 187.825 162V162Z" fill="white"/>
<rect x="141.678" y="59" width="17" height="5" fill="white"/>
<path d="M69.8237 162H67.6931C62.1646 161.993 57.6846 157.551 57.6777 152.07V68.9304C57.6846 63.4488 62.1646 59.0068 67.6931 59H138.678V64.5234H67.6931C65.2398 64.5268 63.2518 66.4979 63.2484 68.9304V152.07C63.2518 154.502 65.2398 156.473 67.6931 156.477H69.8237V162Z" fill="white"/>
<path d="M186.678 193C186.678 160.415 160.486 134 128.178 134C95.8691 134 69.6777 160.415 69.6777 193H186.678Z" fill="#6C98E3"/>
<path d="M188.678 193H183.19C183.19 162.342 158.336 137.488 127.678 137.488C97.0194 137.488 72.1659 162.342 72.1659 193H66.6777C66.6777 159.311 93.9884 132 127.678 132C161.367 132 188.678 159.311 188.678 193Z" fill="white"/>
<path d="M128.678 37C128.678 38.6569 127.335 40 125.678 40C124.021 40 122.678 38.6569 122.678 37C122.678 35.3431 124.021 34 125.678 34C126.473 34 127.236 34.316 127.799 34.8786C128.362 35.4413 128.678 36.2043 128.678 37Z" fill="#E8F7EC"/>
<circle cx="106.678" cy="50" r="5" fill="#E8F7EC"/>
<path d="M172.678 42.4998C172.678 45.5374 170.215 47.9999 167.178 48C164.14 48.0001 161.678 45.5378 161.678 42.5002C161.678 39.4626 164.14 37.0001 167.178 37C170.215 37 172.677 39.4623 172.678 42.4998V42.4998Z" fill="#E8F7EC"/>
<path d="M177.678 193C177.603 165.916 155.463 144 128.178 144C100.892 144 78.752 165.916 78.6777 193H177.678Z" fill="#5B8BD2"/>
<path d="M154.678 193C154.713 183.366 149.669 174.448 141.456 169.621C133.242 164.793 123.113 164.793 114.9 169.621C106.686 174.448 101.643 183.366 101.678 193H154.678Z" fill="white"/>
<path d="M134.678 193C134.678 189.134 131.991 186 128.678 186C125.364 186 122.678 189.134 122.678 193H134.678Z" fill="#97B9F2"/>
<path d="M180.678 193H175.144C175.071 167.291 154.065 146.488 128.178 146.488C102.29 146.488 81.284 167.291 81.2114 193H75.6777C75.7545 164.259 99.237 141 128.178 141C157.118 141 180.601 164.259 180.678 193V193Z" fill="white"/>
<path d="M126.116 152.469L126.24 142.469L131.24 142.531L131.116 152.531L126.116 152.469Z" fill="white"/>
<path d="M144.055 154.905L148.144 148.029L153.301 151.095L149.212 157.971L144.055 154.905Z" fill="white"/>
<path d="M161.094 170.764L169.817 165.875L172.262 170.236L163.538 175.125L161.094 170.764Z" fill="white"/>
<path d="M83.603 170.588L86.1626 166.293L94.753 171.412L92.1934 175.707L83.603 170.588Z" fill="white"/>
<path d="M102.864 151.035L108.102 148.108L112.491 155.965L107.254 158.892L102.864 151.035Z" fill="white"/>
<path d="M127.678 188.183L150.165 168L151.678 169.483L131.564 192L127.678 188.183V188.183Z" fill="#97B9F2"/>
<rect x="125.678" y="123" width="5" height="11" fill="white"/>
<path d="M118.666 117H136.689C138.34 117 139.678 118.355 139.678 120.026V125.974C139.678 127.645 138.34 129 136.689 129H118.666C117.016 129 115.678 127.645 115.678 125.974V120.026C115.678 118.355 117.016 117 118.666 117V117Z" fill="#6C98E3"/>
<path fill-rule="evenodd" clip-rule="evenodd" d="M119.666 131H137.334C140.462 130.996 142.996 128.327 143 125.033V118.968C142.997 115.673 140.462 113.004 137.334 113H119.666C116.538 113.004 114.003 115.673 114 118.968V125.033C114.004 128.327 116.538 130.996 119.666 131ZM120 125.779L120.193 119L138 119.221V125.779C138 125.901 137.913 126 137.807 126L120 125.779Z" fill="white"/>
<path d="M157.08 140.964L161.08 134.036L166.276 137.036L162.276 143.964L157.08 140.964Z" fill="white"/>
<path d="M160.62 127.326L171.738 133.747C173.211 134.598 173.817 136.306 173.091 137.562L171.717 139.941C170.992 141.197 169.209 141.525 167.736 140.674L156.618 134.253C155.145 133.402 154.539 131.694 155.264 130.438L156.638 128.059C156.987 127.456 157.602 127.04 158.349 126.902C159.095 126.765 159.912 126.917 160.62 127.326L160.62 127.326Z" fill="#6C98E3"/>
<path fill-rule="evenodd" clip-rule="evenodd" d="M166.155 143.246C166.996 143.741 167.952 144.001 168.925 144C170.915 144.003 172.754 142.929 173.75 141.183L175.252 138.544C175.991 137.249 176.192 135.709 175.811 134.263C175.43 132.817 174.498 131.584 173.22 130.836L162.845 124.759C161.569 124.009 160.05 123.805 158.625 124.191C157.2 124.578 155.985 125.523 155.248 126.82L153.743 129.462C152.213 132.16 153.122 135.605 155.777 137.166L166.155 143.246ZM169.409 138.994C169.361 139.007 169.309 138.999 169.267 138.973L159 132.686L160.733 130L171 136.285L169.522 138.903C169.498 138.947 169.457 138.98 169.409 138.994Z" fill="white"/>
<path d="M88.8296 136.103L94.0258 133.103L98.5257 140.897L93.3295 143.897L88.8296 136.103Z" fill="white"/>
<path d="M98.7372 134.253L87.6191 140.675C86.1461 141.526 84.3639 141.197 83.6385 139.941L82.2642 137.562C81.5388 136.306 82.1449 134.598 83.6179 133.747L94.7364 127.325C96.2094 126.475 97.9916 126.803 98.717 128.059L100.091 130.438C100.44 131.041 100.493 131.782 100.239 132.497C99.9848 133.213 99.4447 133.844 98.7372 134.253Z" fill="#6C98E3"/>
<path fill-rule="evenodd" clip-rule="evenodd" d="M81.3495 141.186C82.3907 142.93 84.3096 144.003 86.3843 144C87.3988 144 88.3955 143.74 89.2736 143.246L100.103 137.166C102.873 135.604 103.821 132.159 102.225 129.462L100.655 126.816C99.8846 125.521 98.6172 124.577 97.1311 124.191C95.645 123.805 94.062 124.009 92.7304 124.757L81.8968 130.837C80.5651 131.586 79.5939 132.818 79.1967 134.263C78.7995 135.707 79.009 137.246 79.779 138.54L81.3495 141.186ZM85 135.827L96.4563 130L98 132.818L86.8259 138.713L88.2716 141L86.5452 138.645L85 135.827Z" fill="white"/>
<defs>
<filter id="filter0_d_54_123" x="0" y="0" width="255" height="255" filterUnits="userSpaceOnUse" color-interpolation-filters="sRGB">
<feFlood flood-opacity="0" result="BackgroundImageFix"/>
<feColorMatrix in="SourceAlpha" type="matrix" values="0 0 0 0 0 0 0 0 0 0 0 0 0 0 0 0 0 0 127 0" result="hardAlpha"/>
<feMorphology radius="1" operator="dilate" in="SourceAlpha" result="effect1_dropShadow_54_123"/>
<feOffset dy="4"/>
<feGaussianBlur stdDeviation="4.5"/>
<feColorMatrix type="matrix" values="0 0 0 0 0.176471 0 0 0 0 0.337255 0 0 0 0 0.823529 0 0 0 0.2 0"/>
<feBlend mode="normal" in2="BackgroundImageFix" result="effect1_dropShadow_54_123"/>
<feBlend mode="normal" in="SourceGraphic" in2="effect1_dropShadow_54_123" result="shape"/>
</filter>
<linearGradient id="paint0_linear_54_123" x1="-167.698" y1="3.10398" x2="67.302" y2="358.5" gradientUnits="userSpaceOnUse">
<stop stop-color="#7CC6A5"/>
<stop offset="1" stop-color="#3966CC"/>
</linearGradient>
</defs>
</svg>
