<svg width="219" height="15" viewBox="0 0 219 15" fill="none" xmlns="http://www.w3.org/2000/svg">
<path fill-rule="evenodd" clip-rule="evenodd" d="M32.3072 9.32953C29.4181 9.37429 26.5184 9.31244 23.6618 9.48156C19.2264 9.74732 14.8334 10.1625 9.92899 10.5554C10.1749 10.1008 10.1665 9.58921 10.5667 9.45793C11.9687 8.95689 13.4922 8.56208 15.0944 8.28461C19.2756 7.67048 23.5105 7.1835 28.2939 6.56996C25.9533 6.0541 24.2746 6.80338 22.5316 6.78488C20.7337 6.79619 18.9384 6.8623 17.1543 6.98288C15.2646 7.08298 13.3847 7.24131 11.501 7.36258C9.71263 7.47998 7.92649 7.60801 6.13206 7.68815C4.23935 7.78379 2.34497 7.82309 0.457506 7.88577C-0.289113 6.73316 -0.264169 6.64752 1.61501 6.45377C5.57678 6.05048 9.54615 5.65285 13.5367 5.33395C17.7422 5.00042 21.9877 4.78046 26.2067 4.47911C30.652 4.15654 35.0744 3.77584 39.5235 3.46448C44.5739 3.11162 49.6299 2.78609 54.6914 2.48791C60.8062 2.10941 66.9113 1.65544 73.0314 1.43139C80.5874 1.142 88.1691 1.01973 95.7357 0.879322C102.894 0.742544 110.055 0.562465 117.211 0.597472C123.72 0.626978 130.217 0.888074 136.717 1.10824C141.407 1.26207 146.08 1.5152 150.765 1.7295C157.804 2.05202 164.844 2.38822 171.883 2.70687C175.452 2.86928 179.052 2.91645 182.6 3.16634C190 3.68486 197.404 4.23956 204.769 4.89686C209.058 5.2784 213.281 5.87565 217.526 6.39271C218.046 6.50839 218.541 6.65545 219 6.83105C214.148 6.73845 209.709 6.74395 205.291 6.55145C199.271 6.29403 193.286 5.85002 187.272 5.55212C183.253 5.35287 179.209 5.31299 175.195 5.11541C168.413 4.79184 161.652 4.34275 154.86 4.07148C144.166 3.6301 133.46 3.16067 122.738 2.94579C112.023 2.73008 101.284 2.6281 90.5763 3.16288C89.8388 3.24515 89.1171 3.36388 88.4202 3.51758C86.0592 3.20014 84.6551 3.23939 82.8637 3.88528C84.7104 3.7455 86.5537 3.60401 88.3937 3.46081C91.8389 3.51941 95.2969 3.62747 98.7474 3.62197C111.857 3.60405 124.95 3.75525 137.996 4.5735C141.337 4.78088 144.728 4.76033 148.075 4.93512C154.516 5.27615 160.951 5.68436 167.383 6.04681C171.183 6.25518 174.996 6.37788 178.78 6.62897C184.345 6.99546 189.885 7.44581 195.44 7.8461C197.538 8.00034 199.677 8.02513 201.747 8.24676C204.493 8.54303 207.183 8.97446 209.889 9.35191C210.214 9.39892 210.642 9.4323 210.82 9.55195C212.855 11.0138 216.107 11.3978 218.871 12.0594C218.884 14.3741 217.629 14.8507 213.844 14.4803C206.909 13.7913 199.935 13.1979 192.963 12.6365C185.649 12.0472 178.326 11.502 170.993 11.0008C167.548 10.7701 164.066 10.706 160.597 10.5643C154.57 10.3144 148.55 10.0116 142.51 9.82709C136.707 9.63926 130.895 9.51898 125.075 9.46627C116.799 9.40442 108.517 9.47564 100.244 9.4083C95.7886 9.37104 91.3827 9.69502 86.9428 9.76583C84.7308 9.79817 82.4983 9.71415 80.2863 9.77825C78.0546 9.85005 75.8418 10.0595 73.6261 10.1771C62.3579 10.7768 51.0814 11.3282 39.8306 11.9886C29.5694 12.5895 19.3301 13.3225 9.07788 13.971C7.89623 13.9979 6.71252 13.9788 5.53596 13.914C5.45803 12.4981 7.06638 12.1214 8.71324 11.9347C13.9604 11.3264 19.2362 10.7996 24.4933 10.2233C27.0979 9.93899 29.6897 9.59917 32.2807 9.29006C33.4238 9.36129 34.5525 9.43476 35.6903 9.50452C34.579 9.3224 33.4389 8.49727 32.3072 9.32953Z" fill="url(#paint0_linear_0_12466)" fill-opacity="0.6"/>
<defs>
<linearGradient id="paint0_linear_0_12466" x1="31.103" y1="-33.8133" x2="29.3074" y2="15.9114" gradientUnits="userSpaceOnUse">
<stop stop-color="#7CC6A5"/>
<stop offset="1" stop-color="#3966CC"/>
</linearGradient>
</defs>
</svg>
