<svg width="138" height="65" viewBox="0 0 138 65" fill="none" xmlns="http://www.w3.org/2000/svg">
<path fill-rule="evenodd" clip-rule="evenodd" d="M120.609 50.4486C117.715 47.4723 114.577 44.7434 111.228 42.2904C95.8612 31.6151 79.8502 22.0862 62.1012 15.8572C55.3486 13.586 48.3813 12.0123 41.3083 11.1609C29.3495 9.53949 17.3124 8.56142 5.24909 8.23095C4.03997 8.20054 3.3549 7.84461 2.89875 6.70509C2.49045 5.68767 1.76079 4.80727 1.29317 3.80714C0.865334 2.88668 0.596049 1.89131 0.223528 0.81959C3.52198 0.410339 6.7662 0.774418 9.98904 1.10345C20.8905 2.21528 31.8415 2.64397 42.6683 4.64094C56.5392 7.1976 69.2698 12.5617 81.5169 19.2571C87.9801 22.7912 94.2702 26.636 100.488 30.6066C109.61 36.436 117.364 43.9176 125.528 50.9054C127.6 52.679 129.789 54.3379 131.164 56.8202C131.328 56.6939 131.495 56.5703 131.66 56.4442C129.561 53.189 127.369 49.9853 125.385 46.6596C123.33 43.2123 120.563 40.337 118.181 37.1552C115.833 34.0259 113.664 30.7623 110.96 27.9042C108.255 25.0398 105.674 22.0751 104.323 18.254C105.421 18.6437 106.372 19.3639 107.044 20.3155C116.44 32.0169 125.786 43.755 133.679 56.5547C134.705 58.2167 135.666 59.9274 136.546 61.6736C136.933 62.4459 137.672 63.4974 136.909 64.1926C136.274 64.7717 135.311 63.9945 134.605 63.6019C131.498 61.8105 128.226 60.3203 124.835 59.1517C123.642 58.8516 122.432 58.6208 121.212 58.4605C118.522 57.9044 115.986 56.8651 113.349 56.1496C105.095 53.9077 96.612 52.7329 88.2972 50.7216C84.152 49.7192 81.396 47.6778 79.3887 44.2021C78.7775 43.1513 77.4603 41.9221 78.1832 40.9114C78.87 39.958 80.493 40.7155 81.6737 40.9529C89.8589 42.6003 98.1045 43.9775 106.201 46.0789C111.052 47.337 115.785 48.9602 120.609 50.4486Z" fill="#375AB6"/>
</svg>
