<svg width="255" height="255" viewBox="0 0 255 255" fill="none" xmlns="http://www.w3.org/2000/svg">
<g filter="url(#filter0_d_54_43)">
<rect x="10" y="6" width="235" height="235" rx="7" fill="url(#paint0_linear_54_43)"/>
</g>
<path d="M170 126.53C170 127.91 168.881 129.03 167.5 129.03C166.119 129.03 165 127.91 165 126.53C165 125.149 166.119 124.03 167.5 124.03C168.163 124.03 168.799 124.293 169.268 124.762C169.737 125.231 170 125.867 170 126.53Z" fill="#5FB0E5"/>
<path d="M175 107.029C175 108.647 174.147 110.106 172.84 110.725C171.532 111.344 170.026 111.002 169.025 109.858C168.024 108.714 167.725 106.994 168.266 105.499C168.808 104.004 170.084 103.03 171.5 103.03C173.433 103.03 175 104.82 175 107.029Z" fill="#5FB0E5"/>
<circle cx="148.5" cy="126.53" r="2.5" fill="#5FB0E5"/>
<path d="M194 97.5297C194 98.3581 193.328 99.0296 192.5 99.0296C191.672 99.0296 191 98.3581 191 97.5297C191 96.7013 191.671 96.0297 192.5 96.0296C192.898 96.0296 193.279 96.1876 193.561 96.469C193.842 96.7503 194 97.1319 194 97.5297Z" fill="#5FB0E5"/>
<ellipse cx="193" cy="134.53" rx="5" ry="4.5" fill="#5FB0E5"/>
<path d="M170.703 148.139H168.61C170.511 148.152 172.274 147.142 173.229 145.492C174.184 143.842 174.184 141.805 173.229 140.155C172.274 138.505 170.511 137.495 168.61 137.508H135.692C135.692 137.508 140.062 126.471 140.059 121.248C140.057 118.858 140.603 114.032 139.136 111.732C137.449 110.806 135.41 110.795 133.714 111.704C133.714 111.704 129.692 124.224 127.028 127.882C125.516 129.959 119.711 137.508 119.711 137.508H110.716L106 171.805H117.519C118.668 171.805 119.768 172.269 120.572 173.093L125.846 178.502C126.799 179.479 128.104 180.03 129.466 180.03H159.586C162.512 180.03 164.883 177.65 164.883 174.714C164.883 171.779 162.512 169.399 159.586 169.399H165.145C168.07 169.399 170.441 167.02 170.441 164.084C170.441 161.149 168.07 158.769 165.145 158.769H170.703C173.629 158.769 176 156.389 176 153.454C176 150.518 173.629 148.139 170.703 148.139Z" fill="white" fill-opacity="0.01"/>
<path d="M135 133.03H136.785C138.413 129.136 139.459 125.06 139.898 120.912C139.897 119.47 140.101 117.163 139.935 115.03C139.915 115.547 139.898 116.036 139.898 116.44C139.901 121.768 135 133.03 135 133.03Z" fill="#F1F2F2"/>
<path d="M129.513 174.12C128.04 174.061 126.687 173.293 125.885 172.06L120.601 164.767C119.925 163.727 118.784 163.079 117.542 163.03H106.604L106 171.727H117.542C118.784 171.777 119.925 172.425 120.601 173.465L125.885 177.97C126.687 179.203 128.04 179.971 129.513 180.03H159.692C162.611 180.03 165 176.804 165 172.863C165 171.858 164.835 170.86 164.512 169.908C163.972 172.194 162.036 173.886 159.692 174.12H129.513Z" fill="#6C98E3" fill-opacity="0.5"/>
<path d="M169.783 161.029H161V156.781H169.783C170.901 156.792 171.938 156.175 172.5 155.164C173.062 154.154 173.062 152.906 172.5 151.895C171.938 150.885 170.901 150.267 169.783 150.278H161V146.03H169.783C172.356 146.013 174.74 147.439 176.032 149.766C177.323 152.094 177.323 154.966 176.032 157.293C174.74 159.62 172.356 161.046 169.783 161.029Z" fill="white"/>
<path d="M164.644 171.029H152V167.064H164.644C165.783 167.074 166.84 166.498 167.413 165.555C167.986 164.612 167.986 163.447 167.413 162.504C166.84 161.561 165.783 160.985 164.644 160.995H152V157.03H164.644C167.266 157.014 169.697 158.345 171.013 160.517C172.329 162.689 172.329 165.37 171.013 167.542C169.697 169.714 167.266 171.045 164.644 171.029Z" fill="white"/>
<path d="M128.494 182.03C126.567 182.024 124.722 181.238 123.37 179.846L118.09 174.375C117.68 173.951 117.119 173.712 116.533 173.711H105V169.462H116.533C118.246 169.467 119.885 170.166 121.086 171.404L126.366 176.874C126.927 177.453 127.693 177.779 128.494 177.781H158.647C160.407 177.764 161.825 176.314 161.825 174.53C161.825 172.746 160.407 171.295 158.647 171.278H153.649V167.03H158.647C162.715 167.055 166 170.405 166 174.53C166 178.654 162.715 182.004 158.647 182.03H128.494Z" fill="white"/>
<path d="M167.682 150.03H151.496V145.865H167.682C169.434 145.849 170.845 144.427 170.845 142.678C170.845 140.93 169.434 139.508 167.682 139.492H131.812L132.945 136.641C135.011 131.729 136.425 126.569 137.151 121.291C137.151 120.812 137.17 120.237 137.194 119.605C137.401 117.507 137.249 115.388 136.746 113.34C136.045 113.22 135.329 113.207 134.623 113.3C132.958 118.786 130.717 124.08 127.935 129.094C126.422 131.163 120.612 138.681 120.612 138.681L119.984 139.492H110V135.327H117.934C119.469 133.341 123.37 128.273 124.568 126.638C127.187 121.708 129.317 116.533 130.927 111.189L131.166 110.687C131.875 109.61 133.415 109.145 135.62 109.077C137.287 108.846 138.959 109.468 140.07 110.731C141.321 113.564 141.768 116.686 141.362 119.756C141.341 120.329 141.322 120.851 141.322 121.286C140.828 126.102 139.673 130.826 137.89 135.327H167.682C171.731 135.352 175 138.636 175 142.678C175 146.721 171.731 150.005 167.682 150.03Z" fill="white"/>
<path d="M114 132.03L114 177.03H79V132.03H114Z" fill="#6C98E3"/>
<path d="M116 179.03H84.7183C80.4574 179.024 77.0048 175.558 77 171.282V137.777C77.0049 133.501 80.4574 130.035 84.7183 130.03H90.4565V134.194H84.7183C82.7482 134.197 81.1521 135.8 81.1496 137.777V171.282C81.1521 173.26 82.7482 174.862 84.7183 174.865H111.85V134.194H103.157V130.03H116V179.03Z" fill="white"/>
<rect x="92" y="130.03" width="7" height="4" fill="white"/>
<path d="M159.934 66.0296H93.0665C91.7228 66.0295 90.4342 66.5685 89.484 67.5279C88.5338 68.4873 88 69.7885 88 71.1453V98.5322C88 101.358 90.2684 103.648 93.0665 103.648H148.72L158.466 114.845C158.614 115.015 158.85 115.074 159.059 114.995C159.268 114.915 159.407 114.713 159.407 114.487V103.648H159.934C161.277 103.648 162.566 103.109 163.516 102.15C164.466 101.19 165 99.889 165 98.5322V71.1453C165 69.7885 164.466 68.4873 163.516 67.5279C162.566 66.5685 161.277 66.0296 159.934 66.0296Z" fill="#D2E9F7" fill-opacity="0.01"/>
<rect x="106" y="64.0296" width="8" height="4" fill="white"/>
<path d="M158.78 117.03C158.028 117.028 157.313 116.7 156.819 116.129L147.721 105.697H93.1466C89.2016 105.692 86.0046 102.471 86 98.4956V71.2307C86.0046 67.2555 89.2016 64.0341 93.1466 64.0296H99.3665V68.2465H93.1466C91.5118 68.2486 90.1871 69.5834 90.1849 71.2307V98.4956C90.1871 100.143 91.5118 101.478 93.1466 101.48H149.612L157.235 110.22V101.48H159.854C161.488 101.478 162.813 100.143 162.815 98.4956V71.2307C162.813 69.5835 161.488 68.2486 159.854 68.2465H117.722V64.0296H159.854C163.799 64.0342 166.995 67.2556 167 71.2307V98.4956C166.996 101.863 164.68 104.78 161.42 105.522V114.378C161.426 115.481 160.747 116.471 159.72 116.855C159.42 116.97 159.101 117.029 158.78 117.03Z" fill="white"/>
<path fill-rule="evenodd" clip-rule="evenodd" d="M101 85.4991C100.999 88.5365 103.461 90.9992 106.499 91C109.536 90.998 111.997 88.537 112 85.5C112 82.4626 109.538 80.0003 106.5 80C103.463 79.9997 101.001 82.4617 101 85.4991ZM105.086 85.501C105.086 84.7205 105.718 84.0872 106.498 84.0864C106.874 84.0861 107.234 84.2349 107.499 84.5C107.764 84.7651 107.913 85.1249 107.914 85.5C107.914 86.2805 107.281 86.9133 106.5 86.9136C105.72 86.9139 105.087 86.2815 105.086 85.501Z" fill="white"/>
<path fill-rule="evenodd" clip-rule="evenodd" d="M119 85.4991C118.999 88.5365 121.461 90.9992 124.499 91C127.536 90.998 129.997 88.537 130 85.5C130 82.4626 127.538 80.0003 124.5 80C121.463 79.9997 119.001 82.4617 119 85.4991ZM123.086 85.501C123.086 84.7205 123.718 84.0872 124.499 84.0864C124.874 84.0862 125.233 84.235 125.499 84.5001C125.764 84.7652 125.913 85.1249 125.914 85.5C125.914 86.2805 125.281 86.9133 124.5 86.9136C123.72 86.9139 123.087 86.2815 123.086 85.501Z" fill="white"/>
<path fill-rule="evenodd" clip-rule="evenodd" d="M137 85.4993C137 88.5367 139.461 90.9994 142.499 91C145.536 90.9978 147.997 88.5369 148 85.5C148 82.4626 145.538 80.0002 142.5 80C139.463 79.9998 137 82.4618 137 85.4993ZM141.086 85.5008C141.086 84.7202 141.718 84.0871 142.499 84.0864C142.874 84.0862 143.234 84.235 143.499 84.5001C143.764 84.7652 143.913 85.1249 143.914 85.5C143.914 86.2806 143.281 86.9134 142.5 86.9136C141.72 86.9138 141.087 86.2814 141.086 85.5008Z" fill="white"/>
<defs>
<filter id="filter0_d_54_43" x="0" y="0" width="255" height="255" filterUnits="userSpaceOnUse" color-interpolation-filters="sRGB">
<feFlood flood-opacity="0" result="BackgroundImageFix"/>
<feColorMatrix in="SourceAlpha" type="matrix" values="0 0 0 0 0 0 0 0 0 0 0 0 0 0 0 0 0 0 127 0" result="hardAlpha"/>
<feMorphology radius="1" operator="dilate" in="SourceAlpha" result="effect1_dropShadow_54_43"/>
<feOffset dy="4"/>
<feGaussianBlur stdDeviation="4.5"/>
<feColorMatrix type="matrix" values="0 0 0 0 0.176471 0 0 0 0 0.337255 0 0 0 0 0.823529 0 0 0 0.2 0"/>
<feBlend mode="normal" in2="BackgroundImageFix" result="effect1_dropShadow_54_43"/>
<feBlend mode="normal" in="SourceGraphic" in2="effect1_dropShadow_54_43" result="shape"/>
</filter>
<linearGradient id="paint0_linear_54_43" x1="-167.698" y1="3.10398" x2="67.302" y2="358.5" gradientUnits="userSpaceOnUse">
<stop stop-color="#7CC6A5"/>
<stop offset="1" stop-color="#3966CC"/>
</linearGradient>
</defs>
</svg>
