<svg width="42" height="45" viewBox="0 0 42 45" fill="none" xmlns="http://www.w3.org/2000/svg">
<path fill-rule="evenodd" clip-rule="evenodd" d="M17.3837 44.5773C15.4404 44.4589 13.4771 44.4775 11.5649 44.1662C10.5163 44.0145 9.55093 43.5075 8.82891 42.7294C6.53401 39.7844 3.63521 37.3159 1.94633 33.8872C1.03074 32.0618 0.517826 30.0598 0.442528 28.0176C0.398978 26.8407 0.029516 25.6778 0.00711254 24.506C-0.102738 18.7124 1.04876 13.1677 4.23465 8.30259C6.67647 4.52801 10.3389 1.71244 14.6059 0.329358C15.6556 -0.0172227 16.8568 0.0307915 17.9905 0.0120903C22.1229 -0.0545816 26.2254 0.0813282 29.9104 2.34335C30.2215 2.53492 30.5444 2.71076 30.8435 2.92482C33.1255 4.55022 35.4139 6.17091 37.6813 7.8167C40.4463 9.82647 41.6708 12.6075 41.9262 15.9828C42.3143 20.9491 41.1652 25.9145 38.6357 30.2006C36.3537 34.1373 34.2518 38.3123 30.2519 40.9693C27.1877 43.0055 23.7409 44.957 17.3837 44.5773ZM6.125 23.6399C6.23849 24.973 6.30002 26.9434 6.59408 28.8789C7.22773 33.0578 9.07387 36.5642 12.7542 38.9012C15.8048 40.8392 19.2138 40.6517 22.1742 38.5771C25.6146 36.1639 28.3517 33.0995 30.8682 29.7811C35.0879 24.2197 36.1007 18.1538 33.7905 11.6132C32.9817 9.32293 31.6176 7.17095 29.4065 6.02797C25.9287 4.22777 22.1842 3.78665 18.4423 5.26016C9.90669 8.63043 6.27057 14.1361 6.125 23.6399ZM16.625 3.5C19.3507 3.28249 21.845 3.08329 24.5 2.87204C21.5272 1.20992 19.2624 1.37421 16.625 3.5Z" fill="#2D56D2" fill-opacity="0.7"/>
<path fill-rule="evenodd" clip-rule="evenodd" d="M16.017 16.9302C16.9177 18.1984 17.6212 19.604 18.1021 21.0963C18.6047 22.5635 18.834 24.1048 19.2587 25.8053C20.0439 24.134 20.7671 22.6355 21.454 21.1203C22.129 19.6316 22.7687 18.1262 23.4179 16.6262C23.5221 16.3837 23.5492 16.0178 23.8187 15.9833C24.7922 15.8647 24.9399 14.9844 25.2849 14.322C25.7198 13.4891 26.2088 12.7309 26.9917 12.2085C27.259 12.0313 27.5456 11.8912 27.8198 12.1172C28.1137 12.3631 27.9921 12.6968 27.8483 12.97C24.9736 18.4241 23.6123 24.5112 21.1286 30.1285C21.0215 30.3725 20.9554 30.6362 20.8285 30.8655C20.6096 31.2606 20.6663 32.1655 20.1835 31.9736C19.5847 31.7331 18.7063 31.8437 18.403 30.8588C17.9848 29.5022 17.6027 28.1378 17.2569 26.7655C16.4364 23.4964 15.6767 20.2059 14.1216 17.1941C14.0569 17.0789 14.0169 16.9507 14.0041 16.8182C13.9877 16.6895 14.0208 16.5593 14.0964 16.4557C14.2516 16.3219 14.4132 16.4199 14.5225 16.571C15.241 17.5652 15.9972 18.5348 16.4889 19.6789C16.9164 20.6712 17.312 21.6786 17.7802 22.6548C17.6027 20.6145 16.4725 18.888 16.017 16.9302ZM20.5554 26.3298C20.0271 26.737 20.0124 27.2649 20 28C20.3875 27.3443 20.5979 26.8576 20.526 26.3099C20.893 25.9514 21.0593 25.4728 20.981 25C20.6797 25.4073 20.3762 25.8146 20.5554 26.3298Z" fill="#2D56D2" fill-opacity="0.7"/>
</svg>
