<svg width="255" height="255" viewBox="0 0 255 255" fill="none" xmlns="http://www.w3.org/2000/svg">
<g filter="url(#filter0_d_54_239)">
<rect x="10" y="6" width="235" height="235" rx="7" fill="url(#paint0_linear_54_239)"/>
</g>
<path d="M190.084 63C193.904 63 197 66.1273 197 69.9851V157.015C197 160.872 193.904 164 190.084 164H65.916C62.0964 164 59 160.872 59 157.015V69.9851C59 66.1273 62.0962 63 65.9156 63L190.084 63Z" fill="white" fill-opacity="0.01"/>
<path d="M59 85V70.1368C59 68.244 59.7286 66.4287 61.0256 65.0903C62.3226 63.7519 64.0817 63 65.916 63H190.084C191.918 63 193.677 63.7519 194.974 65.0903C196.271 66.4287 197 68.244 197 70.1368V85H59Z" fill="#6C98E3"/>
<path d="M80.1018 167H65.5455C60.2765 166.995 56.0061 162.72 56 157.444V70.5567C56.006 65.2807 60.2764 61.0053 65.5455 61H84V66.1686H65.5455C63.1259 66.1707 61.1646 68.1339 61.1618 70.5567V157.444C61.1648 159.866 63.126 161.829 65.5455 161.831H80.1018V167Z" fill="white"/>
<path d="M189.557 167H174.38V161.831H189.557C191.951 161.829 193.891 159.866 193.894 157.444V70.5567C193.891 68.1339 191.951 66.1707 189.557 66.1686H108V61H189.557C194.77 61.0053 198.994 65.2807 199 70.5567V157.444C198.994 162.72 194.77 166.995 189.557 167Z" fill="white"/>
<rect x="90" y="61" width="9" height="5" fill="white"/>
<rect x="59" y="83" width="138" height="5" fill="white"/>
<rect x="75" y="72" width="5" height="5" fill="white"/>
<rect x="87" y="72" width="5" height="5" fill="white"/>
<rect x="101" y="72" width="5" height="5" fill="white"/>
<path d="M62 182.5C61.9999 184.433 60.4329 186 58.4999 186C56.567 186 55 184.433 55 182.5C55 180.567 56.5669 179 58.4998 179C59.4282 179 60.3185 179.369 60.9749 180.025C61.6313 180.682 62.0001 181.572 62 182.5Z" fill="#E8F7EC"/>
<circle cx="79.5" cy="174.5" r="2.5" fill="#E8F7EC"/>
<path d="M186 193C186 195.762 183.761 198 181 198C178.238 198 176 195.761 176 193C176 190.238 178.239 188 181 188C182.326 188 183.598 188.527 184.536 189.465C185.473 190.402 186 191.674 186 193Z" fill="#E8F7EC"/>
<circle cx="182" cy="175" r="2" fill="#E8F7EC"/>
<circle cx="87" cy="193" r="3" fill="#E8F7EC"/>
<path d="M158 142H147.413V120.792C147.413 110.145 138.721 101.514 128 101.514C117.279 101.514 108.587 110.145 108.587 120.792V142H98V120.792C98 110.149 103.718 100.313 113 94.9914C122.282 89.6695 133.718 89.6695 143 94.9914C152.282 100.313 158 110.149 158 120.792V142Z" fill="#97B9F2"/>
<path fill-rule="evenodd" clip-rule="evenodd" d="M144.522 145H160V121.282C160 103.453 145.673 89 128 89C110.327 89 96 103.453 96 121.282V145H111.477V121.282C111.477 112.076 118.874 104.614 127.999 104.614C137.124 104.614 144.522 112.076 144.522 121.282V145ZM154.919 139.875H149.602V121.282C149.602 109.246 139.93 99.4885 127.999 99.4885C116.068 99.4885 106.396 109.246 106.396 121.282V139.875H101.081V121.282C101.081 106.284 113.133 94.1253 128 94.1253C142.867 94.1253 154.919 106.284 154.919 121.282V139.875Z" fill="white"/>
<circle cx="127.5" cy="161.5" r="38.5" fill="#B8D0F2"/>
<circle cx="128" cy="162" r="22" fill="#97B9F2"/>
<path d="M137 161.5C137 165.342 134.686 168.806 131.136 170.277C127.586 171.747 123.5 170.934 120.783 168.217C118.066 165.5 117.253 161.414 118.723 157.864C120.194 154.314 123.658 152 127.5 152C130.02 152 132.436 153.001 134.218 154.782C135.999 156.564 137 158.98 137 161.5Z" fill="#97B9F2"/>
<circle cx="128" cy="162" r="3" fill="#6C98E3"/>
<path fill-rule="evenodd" clip-rule="evenodd" d="M116.914 166.592C118.771 171.076 123.147 174 128 174C134.624 173.992 139.992 168.624 140 162C140 157.147 137.076 152.771 132.592 150.914C128.108 149.056 122.947 150.083 119.515 153.515C116.083 156.947 115.056 162.108 116.914 166.592ZM121.282 162C121.282 158.289 124.29 155.281 128 155.282C131.709 155.286 134.714 158.292 134.719 162C134.719 165.711 131.711 168.719 128 168.719C124.289 168.719 121.281 165.711 121.282 162Z" fill="#6C98E3"/>
<path d="M127.956 203C110.2 202.981 94.4742 191.533 88.9998 174.64C83.5255 157.748 89.5472 139.251 103.917 128.82C118.287 118.388 137.738 118.394 152.102 128.833C166.466 139.273 172.477 157.773 166.993 174.663L162.108 173.071C167.869 155.415 159.23 136.278 142.179 128.92C125.128 121.563 105.279 128.408 96.3882 144.713C87.4968 161.018 92.4908 181.412 107.909 191.764C123.328 202.115 144.093 199.014 155.816 184.61L159.798 187.853C152.016 197.452 140.313 203.02 127.956 203Z" fill="white"/>
<path d="M162.329 184L158 181.295C158.438 180.644 159.526 178.683 160.144 177.573L160.463 177L165 179.369L164.687 179.926C164.011 181.139 162.807 183.288 162.329 184Z" fill="white"/>
<rect x="126" y="145" width="5" height="5" fill="#6C98E3"/>
<path d="M131.766 150.084L134.238 145.799L138.686 148.37L136.214 152.655L131.766 150.084Z" fill="#6C98E3"/>
<path d="M137.079 153.62L141.36 151.144L143.929 155.597L139.647 158.072L137.079 153.62Z" fill="#6C98E3"/>
<rect x="140" y="160" width="5" height="5" fill="#6C98E3"/>
<path d="M136.947 170.167L139.514 165.714L143.798 168.188L141.231 172.641L136.947 170.167Z" fill="#6C98E3"/>
<path d="M131.538 173.605L135.984 171.032L138.459 175.317L134.012 177.89L131.538 173.605Z" fill="#6C98E3"/>
<rect x="126" y="174" width="5" height="5" fill="#6C98E3"/>
<path d="M116.985 175.198L119.453 170.906L123.905 173.47L121.437 177.762L116.985 175.198Z" fill="#6C98E3"/>
<path d="M111.735 167.97L116.015 165.49L118.591 169.942L114.31 172.423L111.735 167.97Z" fill="#6C98E3"/>
<rect x="111" y="160" width="5" height="5" fill="#6C98E3"/>
<path d="M111.861 155.377L114.426 150.924L118.712 153.398L116.147 157.85L111.861 155.377Z" fill="#6C98E3"/>
<path d="M117.194 148.245L121.643 145.669L124.12 149.954L119.671 152.53L117.194 148.245Z" fill="#6C98E3"/>
<defs>
<filter id="filter0_d_54_239" x="0" y="0" width="255" height="255" filterUnits="userSpaceOnUse" color-interpolation-filters="sRGB">
<feFlood flood-opacity="0" result="BackgroundImageFix"/>
<feColorMatrix in="SourceAlpha" type="matrix" values="0 0 0 0 0 0 0 0 0 0 0 0 0 0 0 0 0 0 127 0" result="hardAlpha"/>
<feMorphology radius="1" operator="dilate" in="SourceAlpha" result="effect1_dropShadow_54_239"/>
<feOffset dy="4"/>
<feGaussianBlur stdDeviation="4.5"/>
<feColorMatrix type="matrix" values="0 0 0 0 0.176471 0 0 0 0 0.337255 0 0 0 0 0.823529 0 0 0 0.2 0"/>
<feBlend mode="normal" in2="BackgroundImageFix" result="effect1_dropShadow_54_239"/>
<feBlend mode="normal" in="SourceGraphic" in2="effect1_dropShadow_54_239" result="shape"/>
</filter>
<linearGradient id="paint0_linear_54_239" x1="-167.698" y1="3.10398" x2="67.302" y2="358.5" gradientUnits="userSpaceOnUse">
<stop stop-color="#7CC6A5"/>
<stop offset="1" stop-color="#3966CC"/>
</linearGradient>
</defs>
</svg>
