<svg width="206" height="40" viewBox="0 0 206 40" fill="none" xmlns="http://www.w3.org/2000/svg">
<path fill-rule="evenodd" clip-rule="evenodd" d="M204.186 5.47894C198.76 -2.40907 188.225 4.01696 184.847 10.7577C183.025 9.58256 182.971 5.72561 181.214 4.37704C178.883 2.58702 176.11 3.52498 173.386 2.15919C171.903 3.54708 170.42 4.93653 168.935 6.32755C168.587 6.54459 168.238 6.76125 167.889 6.9812C166.616 -1.12446 161.262 1.78151 156.947 0.22268C154.76 3.38881 152.573 6.55496 150.386 9.72112C150.04 9.83756 149.691 9.94997 149.338 10.0663C149.989 3.36974 146.773 1.08654 141.279 0.425242C140.339 1.1996 139.687 0.346973 138.668 0.82201C136.655 3.98317 134.644 7.14377 132.635 10.3038C132.194 10.7315 131.757 11.1571 131.32 11.5841C131.134 6.54105 129.66 4.06001 126.394 1.84543C124.443 2.88686 122.552 2.95837 120.118 2.97798C118.544 5.7134 116.97 8.44743 115.397 11.1801C115.221 11.2885 115.047 11.3973 114.873 11.5075C113.895 4.79157 109.394 6.06023 104.706 5.9602C102.782 9.11761 100.858 12.2753 98.9338 15.4333C98.76 15.5421 98.5853 15.6527 98.4088 15.7612C97.9862 12.5743 97.5619 9.38981 97.136 6.20767C94.3996 4.11826 91.4989 4.7819 87.9999 5.57923C86.7754 7.9919 85.5481 10.4042 84.3181 12.8163C84.1443 12.9264 83.9723 13.0346 83.7975 13.1429C83.2683 11.0195 83.1871 8.80881 83.559 6.65239C82.6643 5.3271 81.0258 4.92439 80.4333 3.35276C74.8497 4.22303 71.0716 12.9947 69.4195 18.2581C69.2438 18.3656 69.0682 18.4763 68.8963 18.585C68.7217 18.4871 68.5489 18.3891 68.3763 18.2926C68.7288 15.4958 69.0854 12.6988 69.4459 9.90163C68.5587 4.73545 64.7231 5.6125 61.3641 7.07165C59.9573 10.831 58.5519 14.5912 57.1477 18.352C56.9721 18.4627 56.7973 18.5697 56.6235 18.6785C56.5511 14.5534 56.4788 10.4288 56.4064 6.30464C55.3646 5.82467 54.3172 5.34226 53.2772 4.86266C47.1848 6.15827 46.4676 13.813 43.3087 18.4973C43.2225 18.7057 43.1329 18.9162 43.0494 19.124C42.9734 15.4709 43.3357 11.822 44.1284 8.25595C42.9132 7.36724 41.6973 6.47899 40.4809 5.59122C35.8889 6.97852 31.5363 13.7552 30.5136 18.9163C30.3388 19.0241 30.166 19.1346 29.9922 19.2434C29.7442 15.1248 29.4961 11.0064 29.2476 6.88849C27.7034 6.5173 26.1345 6.25806 24.5532 6.11277C22.8102 10.4813 18.6527 17.2918 15.3662 20.0316C15.0196 20.2508 14.6701 20.4684 14.3215 20.6851C14.9448 15.4844 15.5476 12.3778 16.4531 7.61734C14.1371 5.38702 7.33073 8.6837 5.4732 10.7621C3.22332 13.2873 3.49339 18.8431 1.00349 21.1227C0.783615 23.8298 1.66226 24.6054 2.8138 26.3236C3.59752 26.1952 4.37848 26.0662 5.1649 25.9372C5.77901 24.0599 6.39531 22.1824 7.0138 20.3048C7.4468 19.8803 7.88585 19.4514 8.32058 19.0258C8.31093 21.7068 8.30164 24.3893 8.29271 27.0733C8.26414 30.8626 9.86123 32.2221 12.1906 33.1347C17.6313 32.4234 19.2965 21.38 22.9461 18.5446C23.1192 18.3339 23.2968 18.1225 23.467 17.9097C23.3186 22.8546 23.5804 27.5892 23.4247 31.8364C24.7199 33.1651 26.0379 34.7405 27.8479 35.4061C29.8638 32.3486 31.876 29.2907 33.8846 26.2327C34.9918 27.1565 34.7857 31.4027 35.4272 33.6101C36.1133 35.9717 38.2915 37.6711 39.8477 39.0365C42.8299 37.5145 46.8042 29.8994 47.9831 26.3888C48.156 26.281 48.3316 26.1704 48.5064 26.0643C48.8136 31.9965 49.5396 37.3387 53.9461 39.1913C56.6326 37.4832 59.4894 30.9829 60.5117 27.5255C60.6874 27.4176 60.8619 27.3089 61.035 27.1992C62.0567 31.8572 63.528 33.7506 66.7502 35.6749C69.8189 31.8394 71.664 26.9709 74.6266 23.3489C74.6241 23.1424 74.6225 22.9364 74.6253 22.7287C75.355 24.5071 74.5411 26.557 74.0862 27.6991C74.8572 30.7703 75.638 33.8379 76.4088 36.9074C77.4477 37.6988 78.489 38.49 79.5327 39.2808C87.4535 37.4293 85.5701 26.0809 88.9873 22.5679C89.0734 22.3572 89.1614 22.1496 89.2504 21.9424C91.4251 28.9239 89.8057 34.2504 95.7328 36.5835C96.5384 37.2208 97.2369 36.7949 98.0787 36.8146C101.017 33.8915 106.058 24.3758 106.49 19.208C106.581 19.1032 106.666 18.9958 106.753 18.8898C108.192 21.1982 108.064 24.7675 109.6 26.8445C114.347 33.2618 119.85 25.128 121.636 18.71C121.902 18.4954 122.161 18.2811 122.422 18.0677C123.313 21.3443 123.796 24.6764 126.313 25.9847C127.737 27.966 127.148 26.8143 128.925 25.9001C128.75 26.4217 128.573 26.9444 128.397 27.4643C133.162 28.0127 137.748 21.9996 138.873 17.5274C139.135 17.3107 139.399 17.0962 139.659 16.8814C139.745 17.0863 139.83 17.289 139.917 17.4937C142.123 21.0235 141.759 24.1217 145.11 26.2964C150.432 29.2476 156.539 18.7516 157.941 14.7353C158.291 14.4134 158.64 14.0934 158.99 13.7738C160.235 16.9626 161.326 19.8495 164.445 21.6396C168.57 20.702 171.561 19.5037 174.389 14.8138C174.651 14.7036 174.912 14.5917 175.174 14.4778C175.764 18.178 177.147 19.4943 178.286 22.1132C183.097 26.3312 190.75 18.8089 192.676 12.047C193.459 11.1972 194.245 10.3461 195.036 9.49357C196.485 14.9999 196.705 16.5406 199.96 19.5469C204.931 18.5719 207.399 10.1494 204.186 5.47894ZM116.925 9.47784C116.928 9.74684 116.927 10.0172 116.932 10.2837C116.838 10.2869 116.745 10.2894 116.653 10.2918C116.832 9.61705 117.016 8.94087 117.199 8.267C117.246 9.31673 117.499 8.54544 116.925 9.47784ZM131.924 11.3275C132.02 11.1058 132.111 10.8816 132.211 10.6577C132.078 11.028 132.442 10.9004 131.924 11.3275ZM150.568 10.5237C151.262 9.48654 151.952 8.44899 152.639 7.41105C152.898 7.51503 153.164 7.6175 153.425 7.71734C152.479 8.65332 151.526 9.58877 150.568 10.5237ZM187.97 8.39534C187.879 8.17958 187.788 7.96148 187.696 7.74478C187.883 7.7389 188.071 7.73344 188.251 7.72638C188.157 7.94995 188.066 8.17332 187.97 8.39534ZM195.459 7.57855C194.958 8.07023 195.153 8.34801 194.493 7.93667C194.576 7.71572 194.651 7.49279 194.732 7.27048C194.975 7.26313 195.214 7.2564 195.458 7.24801C195.46 7.35948 195.458 7.46852 195.459 7.57855ZM194.564 8.0432C194.653 7.82243 194.749 7.59731 194.84 7.37694C195.028 7.36997 195.212 7.36376 195.399 7.35934C195.122 7.58808 194.842 7.81641 194.564 8.0432Z" fill="#89D99D" fill-opacity="0.195258"/>
</svg>
