<svg width="255" height="255" viewBox="0 0 255 255" fill="none" xmlns="http://www.w3.org/2000/svg">
<g filter="url(#filter0_d_54_81)">
<rect x="10" y="6" width="235" height="235" rx="7" fill="url(#paint0_linear_54_81)"/>
</g>
<circle cx="108" cy="54.0616" r="2" fill="#E8F7EC"/>
<path d="M101 49.0614C101 50.6793 100.026 52.1379 98.5308 52.757C97.0362 53.3762 95.3157 53.034 94.1717 51.89C93.0277 50.746 92.6855 49.0255 93.3046 47.5308C93.9238 46.0361 95.3824 45.0616 97.0002 45.0616C99.2092 45.0618 101 46.8525 101 49.0614Z" fill="#E8F7EC"/>
<ellipse cx="88" cy="57.5616" rx="2" ry="1.5" fill="#E8F7EC"/>
<path d="M134.747 49.0614C134.748 50.0265 133.965 50.8089 133 50.809C132.035 50.8092 131.253 50.0269 131.253 49.0618C131.252 48.0968 132.035 47.3144 133 47.3142C133.463 47.3142 133.908 47.4982 134.236 47.8259C134.563 48.1535 134.747 48.598 134.747 49.0614Z" fill="#E8F7EC"/>
<path d="M75 49.0613C75.0001 50.2747 74.3911 51.3687 73.4569 51.8331C72.5228 52.2975 71.4474 52.041 70.7324 51.183C70.0174 50.3251 69.8034 49.0347 70.1903 47.9136C70.5773 46.7926 71.4889 46.0616 72.5 46.0616C73.8806 46.0617 74.9998 47.4046 75 49.0613Z" fill="#E8F7EC"/>
<path d="M68.3339 69.0616H186.666C190.164 69.0616 193 71.9732 193 75.5647V149.062H62V75.5647C62 71.9732 64.8358 69.0616 68.3339 69.0616Z" fill="#6C98E3" fill-opacity="0.01"/>
<path d="M195 151.062H60V74.1481C60.0052 69.1321 63.8923 65.0671 68.689 65.0616H80.1401V70.066H68.689C66.534 70.0683 64.7876 71.8946 64.7854 74.1481V146.057H190.215V74.1481C190.213 71.895 188.467 70.0688 186.312 70.066H100.591V65.0616H186.312C191.109 65.0677 194.995 69.1325 195 74.1481V151.062Z" fill="white"/>
<rect x="84" y="65.0616" width="10" height="6" fill="white"/>
<rect x="70" y="74.0616" width="116" height="65" fill="white"/>
<rect x="108" y="161.062" width="39" height="24" fill="#5B8BD2"/>
<rect x="108" y="161.062" width="39" height="12" fill="#6C98E3"/>
<path fill-rule="evenodd" clip-rule="evenodd" d="M105 188H150V159H105V188ZM144 184H109V165H144V184Z" fill="white"/>
<path d="M62 145.062H193V157.168C193 160.975 190.126 164.062 186.582 164.062H68.4183C64.8736 164.062 62 160.975 62 157.168L62 145.062Z" fill="white" fill-opacity="0.01"/>
<path fill-rule="evenodd" clip-rule="evenodd" d="M68.7716 167H186.228C191.071 166.994 194.995 162.784 195 157.589V143H60V157.589C60.0054 162.784 63.9294 166.994 68.7716 167ZM66 158.64V149H191V158.64C190.997 161.047 189.22 162.997 187.027 163H69.9726C67.7796 162.997 66.0024 161.047 66 158.64Z" fill="white"/>
<rect x="101" y="183.062" width="54" height="5" fill="white"/>
<path fill-rule="evenodd" clip-rule="evenodd" d="M84.5417 131L81 127.364L113.862 96.8546L134.4 116.774L172.671 85L176 88.82L134.129 123.588L113.783 103.852L84.5417 131L99 135Z" fill="#5B8BD2"/>
<path fill-rule="evenodd" clip-rule="evenodd" d="M119 99.5C119 102.538 116.537 105 113.502 105C110.463 105 108 102.538 108 99.5C108 96.4625 110.463 94 113.502 94C116.537 94 119 96.4625 119 99.5Z" fill="#97B9F2"/>
<path fill-rule="evenodd" clip-rule="evenodd" d="M113.498 96C112.122 96 111 97.3461 111 99C111 100.654 112.122 102 113.498 102C114.881 102 116 100.654 116 99C116 97.3461 114.881 96 113.498 96ZM113.498 107C109.363 107 106 103.411 106 99C106 94.5894 109.363 91 113.498 91C117.637 91 121 94.5894 121 99C121 103.411 117.637 107 113.498 107Z" fill="#5B8BD2"/>
<path fill-rule="evenodd" clip-rule="evenodd" d="M178 85.5C178 88.5375 175.537 91 172.502 91C169.463 91 167 88.5375 167 85.5C167 82.4625 169.463 80 172.502 80C175.537 80 178 82.4625 178 85.5Z" fill="#97B9F2"/>
<path fill-rule="evenodd" clip-rule="evenodd" d="M88 129.5C88 132.538 85.5375 135 82.5 135C79.4625 135 77 132.538 77 129.5C77 126.462 79.4625 124 82.5 124C85.5375 124 88 126.462 88 129.5Z" fill="#97B9F2"/>
<path fill-rule="evenodd" clip-rule="evenodd" d="M172.498 83C171.122 83 170 84.3461 170 86C170 87.6539 171.122 89 172.498 89C173.881 89 175 87.6539 175 86C175 84.3461 173.881 83 172.498 83ZM172.498 94C168.363 94 165 90.4106 165 86C165 81.5894 168.363 78 172.498 78C176.637 78 180 81.5894 180 86C180 90.4106 176.637 94 172.498 94Z" fill="#5B8BD2"/>
<path fill-rule="evenodd" clip-rule="evenodd" d="M82.5015 127C81.1224 127 80 128.122 80 129.502C80 130.881 81.1224 132 82.5015 132C83.8806 132 85 130.881 85 129.502C85 128.122 83.8806 127 82.5015 127ZM82.5016 137C78.3658 137 75 133.637 75 129.502C75 125.366 78.3658 122 82.5016 122C86.6374 122 90 125.366 90 129.502C90 133.637 86.6374 137 82.5016 137Z" fill="#5B8BD2"/>
<path fill-rule="evenodd" clip-rule="evenodd" d="M138 118.502C138 121.54 135.764 124 133.002 124C130.239 124 128 121.54 128 118.502C128 115.463 130.239 113 133.002 113C135.764 113 138 115.463 138 118.502Z" fill="#97B9F2"/>
<path fill-rule="evenodd" clip-rule="evenodd" d="M133 116C131.346 116 130 117.122 130 118.502C130 119.878 131.346 121 133 121C134.654 121 136 119.878 136 118.502C136 117.122 134.654 116 133 116ZM133 126C128.589 126 125 122.637 125 118.502C125 114.366 128.589 111 133 111C137.411 111 141 114.366 141 118.502C141 122.637 137.411 126 133 126Z" fill="#5B8BD2"/>
<defs>
<filter id="filter0_d_54_81" x="0" y="0" width="255" height="255" filterUnits="userSpaceOnUse" color-interpolation-filters="sRGB">
<feFlood flood-opacity="0" result="BackgroundImageFix"/>
<feColorMatrix in="SourceAlpha" type="matrix" values="0 0 0 0 0 0 0 0 0 0 0 0 0 0 0 0 0 0 127 0" result="hardAlpha"/>
<feMorphology radius="1" operator="dilate" in="SourceAlpha" result="effect1_dropShadow_54_81"/>
<feOffset dy="4"/>
<feGaussianBlur stdDeviation="4.5"/>
<feColorMatrix type="matrix" values="0 0 0 0 0.176471 0 0 0 0 0.337255 0 0 0 0 0.823529 0 0 0 0.2 0"/>
<feBlend mode="normal" in2="BackgroundImageFix" result="effect1_dropShadow_54_81"/>
<feBlend mode="normal" in="SourceGraphic" in2="effect1_dropShadow_54_81" result="shape"/>
</filter>
<linearGradient id="paint0_linear_54_81" x1="-167.698" y1="3.10398" x2="67.302" y2="358.5" gradientUnits="userSpaceOnUse">
<stop stop-color="#7CC6A5"/>
<stop offset="1" stop-color="#3966CC"/>
</linearGradient>
</defs>
</svg>
