<svg width="160" height="141" viewBox="0 0 160 141" fill="none" xmlns="http://www.w3.org/2000/svg">
<path fill-rule="evenodd" clip-rule="evenodd" d="M14.9394 0.491025C13.5141 0.743857 12.2824 1.36268 11.3626 2.288C7.48959 5.33797 4.66517 9.37387 3.10037 14.0941C-0.554345 24.099 -0.330395 35.1697 1.89755 46.7516C4.2114 58.8138 8.72953 70.9531 15.2507 82.6287C23.7265 97.8401 34.5392 111.712 49.4819 122.922C66.0737 135.373 83.5233 141.658 101.701 140.288C119.155 138.969 131.501 131.184 139.497 118.211C143.849 111.145 146.006 102.998 147.315 94.4458C147.478 93.3859 147.653 92.3302 147.917 90.662C148.589 92.4533 149.03 94.2593 149.23 96.037C151.4 107.278 152.898 118.461 153.718 129.531C153.771 131.65 154.08 133.818 154.643 135.997C155.156 137.7 156.491 138.784 157.941 138.809C159.269 138.829 159.893 137.957 159.673 136.272C158.335 126.088 157.727 116.002 155.863 105.744C154.399 97.6689 152.893 89.5909 151.109 81.4914C150.978 80.8991 150.86 80.3069 150.697 79.7145C150.05 77.3554 149.324 76.4226 147.876 76.0605C146.368 75.6844 143.694 76.474 143.386 77.7612C141.374 86.0884 134.69 90.8632 129.218 96.5594C127.45 98.4057 125.488 100.083 123.656 101.873C123.076 102.417 122.59 103.044 122.208 103.741C121.716 104.633 122.085 105.902 123.089 106.773C123.949 107.596 125.144 107.958 126.092 107.683C127.104 107.39 127.991 106.896 128.705 106.229C132.291 103.551 135.515 100.503 138.337 97.1224C138.877 96.4767 139.485 95.882 140.03 95.2966C140.604 95.6675 140.55 95.9443 140.504 96.1962C138.032 109.671 132.267 120.925 120.551 128.108C100.747 140.249 72.6325 135.713 49.4483 116.679C38.8518 107.867 29.8786 97.4689 23.135 86.1886C13.8285 71.2075 7.86105 55.2908 5.68172 39.636C4.41646 31.2599 4.80177 23.1376 6.81869 15.6689C8.22839 10.4901 10.7486 5.8548 14.2546 1.99216C14.597 1.6195 15.1778 1.37229 14.9394 0.491025Z" fill="#89D99D"/>
</svg>
