<svg width="777" height="529" viewBox="0 0 777 529" fill="none" xmlns="http://www.w3.org/2000/svg">
<g filter="url(#filter0_d_83_5)">
<rect x="78" y="60" width="627" height="379" rx="5" fill="white"/>
</g>
<path fill-rule="evenodd" clip-rule="evenodd" d="M438.705 119.219C440.693 119.224 442.005 120.62 443.432 121.667C447.044 124.299 449.221 128.069 451.061 132.017C451.87 133.757 452.945 135.46 452.911 137.497C454.294 139.102 454.255 141.236 454.881 143.102C455.614 145.514 456.14 147.984 456.453 150.485C456.965 153.28 457.118 156.129 456.91 158.962C456.671 161.255 456.91 163.591 456.692 165.883C456.437 168.579 456.124 171.273 454.705 173.718C454.24 174.527 454.221 175.579 453.898 176.481C452.287 181.021 450.111 185.223 446.624 188.647C445.946 189.306 445.416 190.12 444.732 190.776C443.845 191.609 442.881 191.078 442.007 190.697C441.175 190.336 441.277 189.501 441.382 188.815C441.428 188.057 441.667 187.323 442.075 186.683C443.97 184.454 445.339 181.902 446.814 179.412C447.242 178.694 447.532 177.892 447.917 177.149C450.115 172.875 450.92 168.28 451.405 163.545C451.906 158.654 451.372 153.854 450.711 149.058C450.329 146.329 449.334 143.688 448.784 140.968C448.1 137.583 446.372 134.625 444.96 131.569C443.772 129.012 442.001 126.699 440.306 124.41C439.687 123.575 438.556 123.105 437.622 122.523C436.81 122.011 435.741 121.703 436.057 120.405C436.251 119.613 437.287 119.19 438.705 119.219Z" fill="#0B1460"/>
<path fill-rule="evenodd" clip-rule="evenodd" d="M328 167.765C328.064 166.804 328.117 165.781 328.201 164.758C328.417 162.013 328.52 159.254 328.905 156.54C329.262 153.75 329.822 150.99 330.581 148.285C331.559 145.136 332.698 142.041 333.993 139.013C335.308 135.826 337.495 133.229 339.869 130.831C341.1 129.691 342.397 128.628 343.752 127.647C343.994 127.459 344.303 127.195 344.564 127.219C345.026 127.254 345.651 127.349 345.869 127.671C346.052 128.118 346.021 128.629 345.783 129.049C345.381 129.624 344.908 130.143 344.374 130.592C339.038 135.62 335.37 142.231 333.886 149.5C332.662 154.92 332.094 160.475 332.195 166.037C332.282 168.783 332.071 171.526 332.605 174.28C333.721 180.363 336.34 186.05 340.214 190.801C341.377 192.228 342.468 193.725 343.688 195.106C344.381 195.834 345.15 196.481 345.982 197.036C346.663 197.524 347.142 198.081 346.962 198.948C346.772 199.918 346.116 200.724 345.219 201.091C344.46 201.42 343.935 201.067 343.392 200.505C341.401 198.471 339.24 196.588 337.395 194.419C336.045 192.797 334.935 190.98 334.101 189.027C333.28 187.175 332.161 185.453 331.178 183.676C331.024 183.473 330.899 183.248 330.808 183.008C329.965 179.086 327.925 175.463 328.117 171.285C328.169 170.134 328.046 168.976 328 167.765Z" fill="#0B1460"/>
<defs>
<filter id="filter0_d_83_5" x="0" y="0" width="777" height="529" filterUnits="userSpaceOnUse" color-interpolation-filters="sRGB">
<feFlood flood-opacity="0" result="BackgroundImageFix"/>
<feColorMatrix in="SourceAlpha" type="matrix" values="0 0 0 0 0 0 0 0 0 0 0 0 0 0 0 0 0 0 127 0" result="hardAlpha"/>
<feOffset dx="-3" dy="15"/>
<feGaussianBlur stdDeviation="37.5"/>
<feColorMatrix type="matrix" values="0 0 0 0 0.886275 0 0 0 0 0.909804 0 0 0 0 0.968627 0 0 0 0.67335 0"/>
<feBlend mode="normal" in2="BackgroundImageFix" result="effect1_dropShadow_83_5"/>
<feBlend mode="normal" in="SourceGraphic" in2="effect1_dropShadow_83_5" result="shape"/>
</filter>
</defs>
</svg>
