<svg width="366" height="48" viewBox="0 0 366 48" fill="none" xmlns="http://www.w3.org/2000/svg">
<path id="Path" fill-rule="evenodd" clip-rule="evenodd" d="M296.861 1.05507C298.805 1.60206 300.749 2.14682 302.693 2.68933C301.852 3.71004 301.013 4.72954 300.175 5.74781C297.435 6.00637 267.615 10.7777 266.204 11.7398C266.456 11.7915 266.709 11.845 266.958 11.8983C268.801 12.9722 298.452 15.6222 303.395 15.2219C309.294 14.7416 312.744 17.1414 316.216 17.1397C331.51 17.1217 346.785 18.222 361.919 20.4318C362.998 23.3118 367.393 28.6483 363.574 32.7576C360.278 35.3007 323.995 34.345 318.185 32.7325C310.074 30.4844 290.269 30.7729 279.065 31.2333C259.674 30.0592 240.28 28.8824 220.883 27.7028C201.028 27.8879 181.168 28.0736 161.304 28.2598C160.711 29.654 160.637 28.6183 160.896 29.7706C161.301 30.8796 161.214 30.2209 161.995 31.6067C163.137 31.3117 164.274 31.0248 165.417 30.728C165.217 31.0898 165.025 31.4416 164.826 31.8069C170.061 30.4645 171.944 32.8426 177.88 31.7719C177.761 31.2165 177.651 30.6579 177.529 30.1026C178.224 30.1159 178.919 30.1287 179.612 30.1409C178.974 31.6151 178.967 31.5685 179.19 32.4522C179.695 32.2922 180.202 32.1332 180.711 31.9753C180.168 31.0748 180.668 31.7386 179.781 31.375C181.027 30.1093 180.186 30.6311 181.69 30.1842C184.683 29.9942 184.437 32.4273 187.504 32.6156C187.572 32.4906 187.634 32.379 187.702 32.2538C186.71 31.515 185.714 30.7696 184.715 30.0292C187.162 30.9397 189.597 31.8603 192.042 32.7709C192.558 32.082 193.075 31.3932 193.595 30.7046C194.033 30.9313 194.468 31.1549 194.907 31.3849C194.841 31.5051 194.774 31.6267 194.712 31.7386C194.134 32.0221 193.568 32.2972 192.989 32.5774C194.371 32.8709 195.753 33.1634 197.135 33.4546C198.507 31.957 197.28 32.6841 199.048 32.2622C197.908 35.0539 205.507 32.674 207.76 31.7085C208.338 33.2195 212.257 35.5225 214.529 33.9398C216.46 33.6497 215.163 34.0716 216.635 32.3906C217.247 35.2107 220.479 34.5853 223.203 34.9822C223.826 33.7098 223.885 33.2861 226.278 32.4389C226.464 32.6075 226.649 32.7842 226.838 32.956C226.055 33.3529 225.343 33.875 224.728 34.5018C225.295 34.4936 225.862 34.4801 226.43 34.4653C227.668 34.8871 227.124 34.8204 228.507 34.5119C228.14 33.9015 227.775 33.2878 227.408 32.6775C228.788 32.9726 230.169 33.2612 231.553 33.5562C231.49 33.6731 231.423 33.7948 231.359 33.9132C230.657 34.165 229.962 34.4118 229.26 34.6703C229.632 35.0122 230.002 35.3573 230.378 35.7009C232.044 34.3935 233.4 34.0766 233.013 36.258C234.607 35.6339 236.265 35.1832 237.956 34.9137C237.94 36.9733 238.251 36.7715 240.757 36.6998C240.875 35.6842 240.496 35.9844 241.169 35.1922C242.937 37.4353 245.143 36.4564 248.698 36.7882C248.62 37.4387 248.55 38.0857 248.47 38.7394C248.659 38.646 248.853 38.5526 249.045 38.4525C249.245 37.8373 249.446 37.2102 249.65 36.5898C251.699 37.3536 253.916 37.5489 256.066 37.155C256.585 36.4614 257.105 35.7693 257.624 35.0788C257.746 35.1056 257.872 35.134 257.997 35.1589C257.531 36.2646 257.068 37.3653 256.607 38.4609C257.139 38.1173 262.769 37.3402 264.58 36.9566C263.59 37.7859 262.849 38.8734 262.439 40.0986C263.994 40.0651 263.205 40.2719 264.34 39.7033C263.976 39.0629 264.672 37.6988 266.285 36.9149C266.413 36.9416 266.538 36.9684 266.664 36.995C266.275 37.4436 265.887 37.8972 265.503 38.3475C266.194 38.3625 266.887 38.3725 267.58 38.3926C268.031 37.8188 268.482 37.2519 268.935 36.6765C269.238 37.4136 269.541 38.1373 269.839 38.8728C271.714 39.0547 272.213 39.2113 273.634 38.0823C272.281 37.6305 272.947 38.3808 272.327 37.3986C272.714 36.9484 273.102 36.4981 273.49 36.0478C275.055 36.508 276.621 36.9768 278.191 37.4402C276.506 37.2722 274.852 37.9749 273.803 39.3047C273.929 39.3315 274.056 39.3581 274.181 39.3865C276.888 39.5632 279.595 39.7395 282.302 39.9152C282.369 39.7917 282.437 39.6667 282.498 39.5516C282.001 39.1829 281.502 38.8095 281.003 38.4392C281.074 38.3175 281.137 38.2008 281.203 38.0791C282.573 38.6209 289.799 42.1531 292.683 40.914C292.914 38.8661 294.166 38.806 296.888 38.6076C295.257 40.0506 293.713 41.5892 292.264 43.2155C291.631 41.3794 284.728 41.6195 284.728 41.6195C282.648 41.6027 283.535 41.2342 282.06 42.6584C286.722 43.1637 288.61 43.4306 292.816 43.7391C293.586 43.1004 294.353 42.4667 295.125 41.8297C294.415 41.2026 294.624 41.9781 294.759 40.9507C295.071 41.1526 295.386 41.3493 295.698 41.5512C295.481 43.1388 295.067 43.1571 296.405 44.0925C296.466 43.9792 296.533 43.8559 296.597 43.7408C296.501 42.7683 296.872 41.8079 297.596 41.1526C298.602 41.3676 299.606 41.5805 300.609 41.7913C300.542 42.1748 300.466 42.5618 300.397 42.9453C299.762 43.0821 299.134 43.2054 298.497 43.3454C298.434 43.4605 298.367 43.584 298.304 43.6991C299.369 43.7958 300.441 43.8842 301.509 43.9843C301.727 42.0764 301.923 42.4667 303.657 40.8356C303.53 40.809 303.402 40.7806 303.281 40.7555C302.645 40.894 302.011 41.0225 301.376 41.1575C301.749 39.7767 301.795 40.4272 301.405 39.5682C301.473 39.4449 301.54 39.3231 301.603 39.2097C307.009 39.8201 312.419 40.4343 317.832 41.0525C317.328 41.795 316.584 42.3409 315.725 42.5983C316.229 40.5872 310.258 40.6273 308.562 41.0826C308.24 41.6779 307.913 42.2732 307.586 42.8686C307.712 42.8953 307.835 42.9202 307.96 42.9469C310.951 41.8462 313.977 44.2293 319.113 43.3171C319.236 43.6089 319.352 43.9025 319.477 44.1844C319.342 44.4312 319.212 44.6696 319.082 44.9081C316.343 45.1532 316.351 45.0832 316.006 47.448C315.63 47.3679 315.256 47.2878 314.879 47.2079C315.219 46.2123 315.368 46.9827 314.713 45.9755C312.415 47.5631 312.486 45.7003 311.339 44.4645C309.448 46.6609 307.797 45.3018 304.693 45.8487C304.956 45.3718 305.214 44.8965 305.475 44.4162C306.357 44.6708 307.302 44.5882 308.126 44.1844C308.006 43.8941 307.89 43.599 307.762 43.3072C306.102 43.4156 306.186 43.7075 305.129 42.7501C307.291 42.5917 306.733 42.4233 308.186 41.0025C308.254 40.8824 308.32 40.759 308.384 40.6456C306.86 40.0574 305.141 40.2955 303.833 41.2759C304.075 41.858 304.316 42.4433 304.554 43.0269C303.165 43.9892 301.789 44.1977 301.48 45.5752C302.241 45.4635 302.995 45.3617 303.758 45.255C303.306 45.8236 302.855 46.394 302.396 46.9676C301.217 46.3139 300.033 45.6636 298.844 45.0166C298.776 45.3967 298.703 45.782 298.63 46.1705C294.995 43.5022 283.568 46.8727 279.56 44.918C279.496 44.7763 279.439 44.6247 279.376 44.4829C278.602 45.1199 277.838 45.7553 277.066 46.3908C276.943 46.364 276.821 46.3373 276.694 46.3107C276.566 46.284 276.439 46.2589 276.317 46.2323C276.739 44.4662 276.673 45.1465 275.795 44.1209C275.204 44.9315 274.621 45.7435 274.044 46.5458C272.073 45.6316 269.809 45.5881 267.805 46.4258C267.487 46.2306 267.177 46.0272 266.865 45.8337C267.927 44.6964 267.517 44.7497 269.178 43.9192C269.24 43.8024 269.308 43.6824 269.373 43.5606C265.458 44.0792 264.622 44.5946 260.859 43.7541C259.491 44.9848 259.788 45.4285 257.979 45.9404C258.298 45.6151 258.622 45.2767 258.941 44.9481C255.237 45.1916 252.995 45.9237 250.054 45.06C249.495 44.5463 248.937 44.0242 248.379 43.5123C246.967 43.494 245.028 45.0815 242.862 45.1383C242.496 44.5229 242.128 43.9225 241.766 43.3038C239.235 45.4368 233.916 43.8174 232.497 43.3388C232.179 44.8014 232.933 44.0627 231.513 45.1332C231.274 44.5478 231.034 43.9626 230.796 43.3821C224.325 45.8071 219.247 42.8485 211.506 43.2872C197.061 44.1076 180.907 41.6145 163.696 41.5477C132.429 41.4294 98.0178 41.5295 69.1219 42.285C67.623 41.6996 66.1172 41.1191 64.6175 40.5339C57.7396 40.8107 50.8635 41.0842 43.9891 41.3543C31.1213 42.9153 14.4861 38.4343 0.665592 42.1647C-1.00323 37.5203 1.28605 33.0159 4.51131 29.0035C5.20579 29.0102 5.89703 29.0302 6.59065 29.0402C7.14613 30.1709 37.7135 26.9774 43.9174 25.3631C41.1477 17.7968 47.9039 16.0674 51.0068 10.8943C59.361 13.3326 71.6735 10.1622 79.2157 9.27678C79.9661 9.69858 80.7123 10.1255 81.4625 10.5507C95.0366 9.29829 108.614 8.04758 122.196 6.79857C122.264 5.67115 121.75 6.45669 122.605 5.2859C123.046 5.24594 123.484 5.20922 123.928 5.17097C123.544 5.61958 123.153 6.06648 122.769 6.51509C130.596 7.73575 141.346 5.48109 148.143 4.70221C163.784 2.91954 180.114 5.221 194.166 1.27521C195.198 1.96565 196.338 2.47699 197.54 2.78771C204.305 3.16611 211.091 2.86163 217.796 1.87888C235.164 -1.48153 252.08 3.15469 277.016 0.447998C277.004 0.978408 276.993 1.51206 276.985 2.03735C283.743 -1.00954 289.46 2.25918 296.861 1.05507Z" fill="url(#paint0_linear_0_460)" fill-opacity="0.6"/>
<defs>
<linearGradient id="paint0_linear_0_460" x1="-577.968" y1="-36.3908" x2="-567.351" y2="113.495" gradientUnits="userSpaceOnUse">
<stop stop-color="#7CC6A5"/>
<stop offset="1" stop-color="#3966CC"/>
</linearGradient>
</defs>
</svg>
