<svg width="21" height="73" viewBox="0 0 21 73" fill="none" xmlns="http://www.w3.org/2000/svg">
<path fill-rule="evenodd" clip-rule="evenodd" d="M2.70529 0.21917C4.69295 0.22373 6.0046 1.62049 7.43153 2.66729C11.0441 5.29852 13.2207 9.06893 15.0609 13.0172C15.8703 14.7571 16.9449 16.4598 16.9114 18.4974C18.2938 20.1021 18.2548 22.2364 18.8807 24.1016C19.6137 26.5135 20.1396 28.9837 20.4527 31.4851C20.9648 34.2799 21.1184 37.1287 20.9099 39.9624C20.6715 42.2548 20.9099 44.5909 20.6922 46.8832C20.4374 49.5791 20.1235 52.2733 18.7046 54.7181C18.2396 55.5268 18.2207 56.5794 17.8982 57.4814C16.2872 62.0214 14.1106 66.2226 10.6236 69.6468C9.9458 70.306 9.41552 71.1198 8.73164 71.7756C7.84534 72.6089 6.88111 72.0776 6.00704 71.6966C5.17505 71.3358 5.27747 70.5012 5.38226 69.8152C5.42821 69.057 5.66676 68.3231 6.07533 67.683C7.96974 65.4539 9.33931 62.9017 10.8144 60.4124C11.2422 59.6938 11.5318 58.8915 11.917 58.1494C14.1149 53.8747 14.9201 49.2804 15.4047 44.5446C15.9063 39.6538 15.3723 34.8545 14.711 30.0585C14.3294 27.3288 13.3341 24.6878 12.7843 21.9679C12.1004 18.5831 10.3718 15.6249 8.95958 12.5694C7.77163 10.0121 6.00098 7.69904 4.30587 5.41046C3.68664 4.57524 2.55593 4.10522 1.62214 3.52294C0.809684 3.0105 -0.259422 2.70334 0.0568972 1.40453C0.25077 0.613291 1.28691 0.190184 2.70529 0.21917Z" fill="#0B1460"/>
</svg>
