<svg width="19" height="75" viewBox="0 0 19 75" fill="none" xmlns="http://www.w3.org/2000/svg">
<path fill-rule="evenodd" clip-rule="evenodd" d="M0 40.7654C0.0639492 39.8036 0.116624 38.7808 0.201304 37.7585C0.416731 35.0125 0.519777 32.2542 0.904502 29.5401C1.26185 26.7496 1.82222 23.9904 2.58095 21.2854C3.55878 18.1356 4.69768 15.0407 5.99292 12.0135C7.30761 8.8256 9.49546 6.2291 11.8685 3.8311C13.0997 2.69093 14.3966 1.62753 15.7524 0.646658C15.9938 0.459017 16.3029 0.195338 16.5639 0.219298C17.0256 0.253871 17.6507 0.349027 17.8686 0.670556C18.0524 1.11842 18.0207 1.62865 17.7827 2.04897C17.381 2.62406 16.9075 3.14291 16.3745 3.59231C11.0376 8.61993 7.37009 15.2311 5.88575 22.4998C4.66158 27.9204 4.09359 33.4748 4.19458 39.0375C4.28157 41.7828 4.07087 44.5263 4.60537 47.2804C5.72088 53.3625 8.34036 59.0503 12.2137 63.8005C13.3768 65.228 14.4678 66.7249 15.6884 68.1055C16.381 68.8338 17.1503 69.4812 17.9822 70.0358C18.6629 70.5235 19.1418 71.0815 18.9619 71.9477C18.7719 72.9179 18.1161 73.7242 17.2186 74.0911C16.4603 74.4202 15.9346 74.0669 15.3924 73.5046C13.4011 71.4709 11.2399 69.5882 9.39483 67.419C8.04464 65.7966 6.93471 63.9797 6.10063 62.0266C5.2802 60.1751 4.16143 58.453 3.17758 56.676C3.02385 56.4726 2.89947 56.2476 2.80825 56.008C1.96527 52.0864 -0.075163 48.4633 0.11723 44.2851C0.168753 43.1336 0.0455827 41.9761 0 40.7654Z" fill="#0B1460"/>
</svg>
