<svg width="40" height="14" viewBox="0 0 40 14" fill="none" xmlns="http://www.w3.org/2000/svg">
<path fill-rule="evenodd" clip-rule="evenodd" d="M29.5404 9.34467C29.7131 9.44485 29.8867 9.54554 30.0824 9.65894C29.8463 9.86683 29.5 9.62537 29.2409 9.87559C29.7187 10.1258 30.2315 10.052 30.7073 10.0721C31.9022 10.122 33.0895 10.2925 34.2885 10.2905C34.531 10.2896 34.9967 10.2507 34.8913 10.7852C34.8722 10.8806 34.9605 10.886 35.0225 10.8997C35.0929 10.9165 35.1643 10.8763 35.1863 10.8074C35.3845 10.157 35.8566 10.3529 36.3198 10.4033C36.3728 10.6819 35.8466 10.9022 36.2911 11.173C36.4064 11.2438 36.2322 11.3599 36.1314 11.3923C35.5585 11.549 34.9655 11.6205 34.3714 11.6045C32.9811 11.6147 31.5977 11.4556 30.2103 11.3934C28.1638 11.3001 26.1279 11.0595 24.0767 11.0063C22.6301 10.9695 21.1771 10.9095 19.7314 10.8879C18.0438 10.8612 16.373 10.6887 14.6939 10.5907C13.7229 10.5333 12.7544 10.4271 11.7067 10.3366C12.0204 10.8347 12.4029 11.286 12.8428 11.6771C13.1028 11.9343 13.3856 12.1674 13.6411 12.4284C13.8906 12.6959 14.0809 13.0129 14.1996 13.3587C14.2858 13.5837 14.1645 13.7083 14.0416 13.8345C13.9252 13.9541 13.7984 13.8853 13.6729 13.8097C12.2809 12.972 10.7394 12.4675 9.25492 11.839C8.04014 11.324 6.81854 10.8241 5.58382 10.3608C5.01376 10.1482 4.47845 9.84212 3.86638 9.73418C3.51041 9.65406 3.17096 9.51266 2.86323 9.31631C2.1397 8.90054 1.40429 8.48596 0.550685 8.38393C0.309635 8.37685 0.108999 8.19591 0.0771714 7.95691C0.049114 7.70211 0.264554 7.56346 0.497296 7.50353C1.73052 7.18881 2.75224 6.44234 3.8525 5.86301C4.79727 5.36466 5.69205 4.7771 6.62117 4.25065C7.47799 3.76571 8.18326 3.07631 8.99295 2.53042C9.79811 1.98938 10.5394 1.35127 11.3943 0.883555C11.9089 0.600826 12.3266 0.138451 12.9857 0.0465691C12.9247 0.454667 12.6754 0.841901 12.8912 1.27111C12.9325 1.3575 12.7813 1.54531 12.663 1.66739C12.3045 2.03894 12.0527 2.49777 11.6484 2.84624C11.4012 3.01038 11.2441 3.27965 11.2227 3.57574C11.2031 3.73682 11.1098 3.87952 10.9701 3.96205C10.0532 4.40932 9.70786 5.40266 8.88636 6.01946C9.58143 6.27495 10.1693 6.50442 10.8537 6.1639C11.1338 6.02454 11.5288 6.08125 11.8673 6.10625C12.8702 6.17765 13.8737 6.09974 14.8756 6.13071C16.1938 6.1681 17.5058 6.27148 18.8214 6.34524C20.0263 6.41361 21.2208 6.58833 22.4344 6.56477C23.4699 6.54435 24.5064 6.63919 25.5435 6.66487C26.2679 6.68338 26.9954 6.65148 27.7193 6.64597C28.5106 6.64202 29.3077 6.67044 30.1011 6.65355C30.9188 6.63731 31.7361 6.71266 32.5545 6.62927C33.0512 6.6057 33.5489 6.6076 34.0455 6.63495C35.6883 6.63517 37.3284 6.64971 38.9682 6.56593C39.2871 6.51863 39.6125 6.54069 39.9224 6.63059C39.4305 7.16718 38.9883 7.67036 38.5195 8.1474C38.3332 8.28429 38.1022 8.34613 37.8721 8.32068C36.9695 8.3532 36.0676 8.42814 35.1689 8.46979C33.7889 8.53259 32.4019 8.56053 31.0181 8.60131C30.0455 8.63231 29.0754 8.69671 28.0974 8.73149C28.8857 8.97129 29.7031 8.87493 30.5038 8.94633C31.304 9.01794 32.1114 9.01245 32.9154 9.04027C32.9143 9.08599 32.9142 9.13057 32.9147 9.17548C31.7905 9.24122 30.6677 9.30688 29.5461 9.37243C29.1709 9.30865 28.7856 9.34884 28.4322 9.48865C28.7719 9.56757 29.1242 9.57564 29.4669 9.51236C29.541 9.49405 29.5432 9.41249 29.5404 9.34467ZM10.232 9.33733C10.8824 9.57812 11.5478 9.58172 12.2072 9.69071C12.3152 9.70991 12.4438 9.78453 12.5039 9.54045C11.7275 9.44712 10.9755 9.35668 10.2235 9.2676C10.0374 9.15203 9.86054 9.16545 9.62862 9.24468C9.80984 9.38207 10.0425 9.41779 10.232 9.33733ZM7.84025 5.73106C9.11777 6.21578 8.92117 5.28849 9.45375 4.96807C8.40952 4.76251 8.18989 5.26215 7.84025 5.73106ZM7.49029 10.0374C7.25535 9.71782 6.89725 9.74047 6.62863 9.6202C6.17952 9.41798 6.17842 9.42147 5.74031 9.60012C6.29771 9.80061 6.88297 9.94684 7.49029 10.0374ZM27.058 8.94996C26.7235 8.9434 26.3973 8.81372 25.9157 9.0499C26.3547 9.20344 26.7211 8.97438 27.058 8.94996ZM3.3035 8.13127C3.30858 8.37435 3.39083 8.42185 3.50415 8.39098C3.74871 8.32216 3.85865 8.68844 4.17523 8.35377C4.22744 8.28291 4.25284 8.2014 4.24374 8.13388C4.18189 7.83401 3.89902 7.92167 3.64441 7.97752C3.53053 8.01543 3.41608 8.06704 3.3035 8.13127ZM25.4364 8.94996C24.9196 8.63973 24.9196 8.63973 24.2941 9.0499C24.7538 9.04621 25.071 9.30392 25.4364 8.94996ZM25.4364 8.94996C24.985 8.76048 24.6757 8.70206 24.2941 9.0499C24.7065 9.17455 25.0051 9.28596 25.4364 8.94996Z" fill="#2D56D2"/>
</svg>
