<svg width="40" height="15" viewBox="0 0 40 15" fill="none" xmlns="http://www.w3.org/2000/svg">
<path fill-rule="evenodd" clip-rule="evenodd" d="M10.4596 5.41217C10.2869 5.31199 10.1133 5.21129 9.91758 5.0979C10.1537 4.89 10.5 5.13147 10.7591 4.88124C10.2813 4.63104 9.76853 4.70481 9.29272 4.68471C8.09778 4.63487 6.91048 4.4643 5.71152 4.46633C5.46903 4.46729 5.00333 4.50614 5.10865 3.97165C5.12784 3.87628 5.03954 3.87087 4.97746 3.85712C4.90706 3.84034 4.83572 3.88055 4.81375 3.94939C4.61549 4.5998 4.14343 4.40397 3.68024 4.35358C3.62723 4.07493 4.15336 3.85459 3.70892 3.58387C3.59361 3.51299 3.76783 3.39692 3.8686 3.36458C4.44147 3.20783 5.03448 3.1363 5.62856 3.1523C7.01889 3.14216 8.40226 3.30125 9.78966 3.36344C11.8362 3.45673 13.8721 3.69732 15.9233 3.75049C17.3699 3.7873 18.8229 3.84736 20.2686 3.86895C21.9562 3.89562 23.627 4.06814 25.3061 4.16616C26.2771 4.22355 27.2456 4.32971 28.2933 4.4202C27.9796 3.92218 27.5971 3.47087 27.1572 3.07969C26.8972 2.82257 26.6144 2.58943 26.3589 2.3284C26.1094 2.06092 25.9191 1.74394 25.8004 1.39817C25.7142 1.17318 25.8355 1.04855 25.9584 0.922338C26.0748 0.802748 26.2016 0.871511 26.3271 0.947086C27.7191 1.78486 29.2606 2.28931 30.7451 2.91786C31.9599 3.43282 33.1815 3.93273 34.4162 4.39606C34.9862 4.60864 35.5215 4.91471 36.1336 5.02265C36.4896 5.10278 36.829 5.24418 37.1368 5.44053C37.8603 5.8563 38.5957 6.27088 39.4493 6.37291C39.6904 6.37999 39.891 6.56092 39.9228 6.79993C39.9509 7.05472 39.7354 7.19338 39.5027 7.25331C38.2695 7.56803 37.2478 8.3145 36.1475 8.89383C35.2027 9.39217 34.308 9.97973 33.3788 10.5062C32.522 10.9911 31.8167 11.6805 31.0071 12.2264C30.2019 12.7675 29.4606 13.4056 28.6057 13.8733C28.0911 14.156 27.6734 14.6184 27.0143 14.7103C27.0753 14.3022 27.3246 13.9149 27.1088 13.4857C27.0675 13.3993 27.2187 13.2115 27.337 13.0894C27.6955 12.7179 27.9473 12.2591 28.3516 11.9106C28.5988 11.7465 28.7559 11.4772 28.7773 11.1811C28.7969 11.02 28.8902 10.8773 29.0299 10.7948C29.9468 10.3475 30.2921 9.35418 31.1136 8.73738C30.4186 8.48189 29.8307 8.25242 29.1463 8.59294C28.8662 8.7323 28.4712 8.67559 28.1327 8.65058C27.1298 8.57918 26.1263 8.65709 25.1244 8.62613C23.8062 8.58873 22.4942 8.48536 21.1786 8.4116C19.9737 8.34322 18.7792 8.16851 17.5656 8.19206C16.5301 8.21249 15.4936 8.11765 14.4565 8.09196C13.7321 8.07345 13.0046 8.10536 12.2807 8.11087C11.4894 8.11482 10.6923 8.0864 9.89892 8.10329C9.08117 8.11952 8.26392 8.04418 7.44551 8.12757C6.94879 8.15114 6.45114 8.14924 5.95452 8.12189C4.31169 8.12166 2.67157 8.10713 1.03176 8.19091C0.712918 8.23821 0.387471 8.21615 0.0776395 8.12624C0.569486 7.58965 1.01173 7.08648 1.48053 6.60944C1.66676 6.47255 1.8978 6.4107 2.12785 6.43616C3.0305 6.40363 3.93243 6.3287 4.83107 6.28705C6.21113 6.22424 7.59809 6.19631 8.98194 6.15553C9.95455 6.12452 10.9246 6.06013 11.9026 6.02535C11.1143 5.78554 10.2969 5.8819 9.49619 5.8105C8.69596 5.7389 7.88863 5.74439 7.08463 5.71657C7.0857 5.67085 7.08584 5.62626 7.08526 5.58136C8.20946 5.51561 9.33235 5.44996 10.4539 5.3844C10.8291 5.44819 11.2144 5.408 11.5678 5.26819C11.2281 5.18927 10.8758 5.18119 10.5331 5.24447C10.459 5.26278 10.4568 5.34435 10.4596 5.41217ZM29.768 5.41951C29.1176 5.17871 28.4522 5.17511 27.7928 5.06613C27.6848 5.04693 27.5562 4.97231 27.4961 5.21639C28.2725 5.30972 29.0245 5.40016 29.7765 5.48923C29.9626 5.60481 30.1395 5.59139 30.3714 5.51215C30.1902 5.37477 29.9575 5.33905 29.768 5.41951ZM32.1598 9.02578C30.8822 8.54106 31.0788 9.46835 30.5463 9.78876C31.5905 9.99433 31.8101 9.49469 32.1598 9.02578ZM32.5097 4.71947C32.7446 5.03901 33.1028 5.01637 33.3714 5.13663C33.8205 5.33885 33.8216 5.33537 34.2597 5.15672C33.7023 4.95623 33.117 4.81 32.5097 4.71947ZM12.942 5.80688C13.2765 5.81344 13.6027 5.94311 14.0843 5.70694C13.6453 5.55339 13.2789 5.78246 12.942 5.80688ZM36.6965 6.62557C36.6914 6.38249 36.6092 6.33499 36.4958 6.36585C36.2513 6.43468 36.1414 6.0684 35.8248 6.40306C35.7726 6.47393 35.7472 6.55544 35.7563 6.62295C35.8181 6.92282 36.101 6.83516 36.3556 6.77932C36.4695 6.74141 36.5839 6.68979 36.6965 6.62557ZM14.5636 5.80688C15.0804 6.11711 15.0804 6.11711 15.7059 5.70694C15.2462 5.71063 14.929 5.45292 14.5636 5.80688ZM14.5636 5.80688C15.015 5.99635 15.3243 6.05477 15.7059 5.70694C15.2935 5.58229 14.9949 5.47088 14.5636 5.80688Z" fill="#2D56D2"/>
</svg>
