<svg width="83" height="86" viewBox="0 0 83 86" fill="none" xmlns="http://www.w3.org/2000/svg">
<path d="M33.8909 13.2071C30.7557 13.767 27.8662 15.2551 25.6044 17.4745C24.6796 18.4389 24.01 19.6143 23.6551 20.8964C23.2808 22.4495 23.9846 25.1556 22.3607 26.1044L27.1161 26.2248C28.4624 22.5135 29.0466 18.5738 28.8345 14.6364C28.9332 11.6323 29.4187 4.61334 33.3653 3.56952L31.9608 1.54006C25.1864 4.35694 23.5486 10.3536 23.3027 17.1164C23.3102 19.0508 23.1581 20.9827 22.8479 22.8927C22.4972 24.6125 21.5148 26.0876 21.1173 27.7695C20.3983 30.8125 23.21 32.8119 23.4426 35.6941C25.4423 35.1641 27.4421 34.6341 29.4419 34.1041C28.1195 27.6673 28.1609 21.0292 29.5637 14.6091C27.5807 14.9179 25.5977 15.2268 23.6145 15.5358C22.5685 25.6697 24.7732 35.8722 29.9162 44.6974C31.612 48.4537 34.9636 51.227 39.0008 52.2145C40.9933 52.5555 43.0387 52.4328 44.975 51.8563C46.0976 51.5276 47.1731 51.0584 48.1755 50.46C48.5462 50.2413 49.0982 49.6941 49.5093 49.6108C50.1513 49.4803 49.2816 49.3998 49.9029 50.1948L51.6177 48.2362C45.5166 50.6214 37.2203 53.0453 33.0763 46.0914C32.2192 44.6532 26.7172 45.9442 27.077 47.6816C27.7426 50.8946 28.4083 54.1076 29.074 57.3207C29.3788 58.7923 33.1854 57.4681 33.8543 57.1093C36.3428 55.7741 38.8313 54.4389 41.3199 53.1037C42.4886 52.4766 43.1256 51.4649 41.4416 51.1512C37.7527 50.5318 33.9869 51.6975 31.313 54.2867C30.3023 55.2738 32.1889 55.5683 32.8119 55.5622C34.2822 55.5571 35.7009 55.0253 36.8053 54.0651C36.8278 53.5972 37.1049 53.5384 37.6365 53.8888C37.6771 53.238 37.7177 52.5871 37.7584 51.9361C35.2697 53.2714 32.7812 54.6066 30.2928 55.9418L35.0731 55.7305C34.4075 52.5175 33.7419 49.3045 33.0763 46.0914C31.0766 46.6214 29.0768 47.1515 27.077 47.6816C32.6981 57.1134 45.682 53.1905 53.8085 50.0136C54.4614 49.7584 56.2497 48.9845 55.5235 48.055C53.3248 45.241 48.3651 47.0077 45.8905 48.4547C44.6321 49.1903 44.1026 49.6927 42.5875 49.3884C41.7126 49.1565 40.8926 48.7558 40.1746 48.2094C38.2715 46.7599 36.7425 44.8851 35.7128 42.7386C31.1811 34.2825 28.2478 24.2039 29.5637 14.6091C29.8137 12.7861 23.9639 13.9329 23.6145 15.5358C22.1525 22.1716 22.094 29.0348 23.4426 35.6941C23.7611 37.2662 29.5835 35.8583 29.4419 34.1041C29.2564 31.8084 27.2687 30.2252 27.0083 27.9975C27.1313 26.4662 27.5912 24.98 28.3558 23.643C28.7889 22.2548 29.0494 20.8196 29.1316 19.3691C29.5177 14.6874 28.561 5.642 34.1516 3.31743C34.7242 3.07926 36.4591 2.37355 35.9612 1.49623C35.4753 0.640417 33.4034 1.1143 32.7473 1.28796C28.1438 2.33737 24.5442 5.88516 23.4667 10.4351C22.1257 15.9753 23.5942 21.8247 21.167 27.1515C20.4111 28.8103 25.4599 27.5422 25.9224 27.2719C27.8205 26.4207 29.1347 24.6545 29.3922 22.6088C29.6485 19.8808 29.9839 17.3085 32.8154 15.9958C35.4565 14.7715 39.3614 15.2229 42.1822 15.3693C45.6657 15.5525 49.1305 15.9936 52.5474 16.6888C53.9895 16.9525 55.4793 16.7126 56.7623 16.0101C57.2619 15.7373 58.8465 14.4543 57.4157 14.1641C49.925 12.645 41.4534 11.5174 33.8909 13.2071Z" fill="#C3DDF9"/>
<path fill-rule="evenodd" clip-rule="evenodd" d="M43.5084 1.3373C47.2509 1.64396 51.0034 1.95144 54.6426 1.25041C54.7689 1.22609 54.8881 1.22256 54.9993 1.23625C55.5565 1.18787 56.109 1.5101 56.0249 2.20808C55.991 3.06492 55.8982 3.91597 55.7482 4.75558C55.9218 4.73886 56.1074 4.76441 56.2967 4.84566C59.5935 6.29667 61.8193 9.41693 62.0935 12.9721C62.2665 14.9701 61.8879 16.9247 61.5093 18.8799C61.1569 20.6998 60.8043 22.5202 60.8965 24.3763C61.8036 24.4595 62.5838 25.0757 62.8553 25.9525C63.5254 27.8891 63.4027 30.0077 62.5132 31.856C62.2347 32.5318 61.9174 33.1892 61.6 33.8468C61.4367 34.185 61.2734 34.5234 61.1153 34.8644C60.9287 35.2669 60.7805 35.6852 60.6325 36.1033L60.6324 36.1034C60.4661 36.573 60.2999 37.0422 60.0795 37.4882C59.6937 38.3678 58.8372 38.956 57.8681 39.0067C57.5552 39.0082 57.2536 38.9493 56.9762 38.84C56.03 41.443 54.7787 43.9256 53.2492 46.2377C53.9733 46.1744 54.7095 46.2602 55.4097 46.4975C56.5362 46.9892 57.2255 48.1301 57.1289 49.343C57.0959 50.2546 56.9773 51.1727 56.8593 52.086L56.8593 52.0861C56.8056 52.502 56.752 52.9169 56.7066 53.3297L56.2452 57.5344C56.2444 57.5682 56.242 57.6015 56.2381 57.6344C56.5789 57.6312 56.9198 57.6277 57.2607 57.6242C58.8291 57.6081 60.3979 57.5919 61.9656 57.6068C63.6567 57.4904 65.3425 57.897 66.789 58.7702C68.0463 59.8357 68.7521 61.3954 68.7267 63.0199C71.8916 63.821 74.652 65.746 76.476 68.433C77.4537 69.9439 78.3314 71.5158 79.1036 73.1387L81.8769 78.5242C82.482 79.6992 80.6906 80.7358 80.0846 79.5592C79.6196 78.6562 79.1671 77.7402 78.7137 76.8222L78.7136 76.8221L78.7135 76.8219L78.7132 76.8212C77.5888 74.545 76.4582 72.2562 75.114 70.1213C73.671 67.7377 71.3934 65.9746 68.7299 65.1531C68.719 66.8448 68.6316 68.5403 68.5216 70.2234C68.2073 74.9454 67.5413 79.638 66.5287 84.2632C66.2477 85.555 64.247 85.005 64.527 83.7182C65.4485 79.5159 66.0722 75.2552 66.3938 70.9672C66.5455 68.9004 66.6274 66.8316 66.6394 64.7608C66.6401 64.6358 66.6417 64.5086 66.6433 64.3799L66.6433 64.3783C66.6643 62.6896 66.6885 60.7423 64.8319 60.0408C63.1125 59.6055 61.3277 59.4795 59.563 59.669C57.356 59.6816 55.1491 59.694 52.9423 59.7063L43.0795 59.7621C43.03 59.771 42.9792 59.7765 42.9274 59.7783L41.5653 59.7706L40.2105 59.7783C40.1589 59.7765 40.1083 59.7711 40.0589 59.7621L29.9409 59.7049L23.5749 59.669C21.8101 59.4795 20.0253 59.6055 18.3058 60.0408C16.4493 60.7425 16.4734 62.6754 16.4945 64.3632C16.4962 64.4976 16.4978 64.6303 16.4985 64.7608C16.5107 66.9163 16.5986 69.0677 16.7621 71.215C17.0892 75.4194 17.7068 79.5969 18.6107 83.7182C18.8913 85.0072 16.8896 85.5529 16.6089 84.2632C15.5966 79.638 14.9305 74.9454 14.6161 70.2234C14.5052 68.5257 14.4207 66.8164 14.4102 65.1108C11.6864 65.9129 9.35404 67.6959 7.88581 70.1213C6.54133 72.2567 5.41057 74.5458 4.28598 76.8225C3.83258 77.7404 3.38018 78.6562 2.91519 79.5592C2.30863 80.7371 0.518415 79.698 1.1229 78.5242L3.9658 73.004C4.71772 71.4274 5.57219 69.9005 6.52384 68.433C8.37409 65.7072 11.188 63.7656 14.4103 62.9859C14.3938 61.3734 15.0987 59.8274 16.3486 58.7702C17.7955 57.8978 19.4811 57.4913 21.1721 57.6068C22.7372 57.5892 24.3038 57.6062 25.8699 57.6233H25.8703H25.8707H25.8711H25.8715H25.872H25.8724C26.3869 57.6289 26.9014 57.6345 27.4157 57.6388C27.2188 57.4531 27.0937 57.1937 27.0855 56.9051L26.6239 52.7006C26.5785 52.2865 26.5247 51.8704 26.4709 51.4534L26.4708 51.4533L26.4708 51.4533L26.4708 51.4532L26.4708 51.4532L26.4708 51.4532L26.4708 51.4531L26.4708 51.4531L26.4708 51.4531L26.4708 51.453C26.353 50.5409 26.2345 49.6242 26.2016 48.7138C26.1051 47.501 26.7944 46.3601 27.9209 45.8683C28.4121 45.7017 28.9212 45.6097 29.4314 45.5915C28.1164 43.3842 27.0394 41.0448 26.2192 38.6118C25.8348 38.8656 25.374 39.0098 24.8858 39.0067C23.918 38.9523 23.0633 38.3653 22.6744 37.4882C22.4538 37.0421 22.2875 36.5726 22.1211 36.1027C21.9731 35.6848 21.8249 35.2666 21.6385 34.8644C21.4797 34.5215 21.3155 34.1814 21.1514 33.8413L21.1513 33.8412C20.8348 33.1855 20.5184 32.53 20.2406 31.856C19.3513 30.0076 19.2286 27.889 19.8987 25.9525C20.1694 25.0716 20.9547 24.4534 21.8663 24.3751C21.8028 22.9364 21.6302 21.5026 21.4578 20.0702V20.0701V20.0701C21.1198 17.2623 20.7824 14.4595 21.2678 11.6347C21.923 7.94177 24.3019 4.77002 27.6873 3.07552C32.6901 0.450874 38.0887 0.893226 43.5084 1.3373ZM54.1693 57.5344C54.1696 57.5731 54.172 57.6112 54.1764 57.6487L41.5689 57.7199L28.8348 57.648C29.0344 57.4613 29.1595 57.1977 29.1614 56.9051L28.4031 49.9976C28.3899 49.8774 28.3668 49.7407 28.3422 49.595C28.2338 48.9541 28.0962 48.1395 28.6445 47.7958C29.313 47.3765 30.2239 47.6769 30.9504 47.9325C31.0521 48.0768 31.1548 48.2203 31.2586 48.3632C33.5816 51.3906 37.0808 53.3169 40.9053 53.6779C40.9436 53.6835 40.9826 53.687 41.0222 53.6884C41.0853 53.6917 41.1455 53.6903 41.2027 53.6846C45.1542 53.5758 48.8708 51.7911 51.3987 48.7813C51.4309 48.7409 51.463 48.7005 51.495 48.66C51.6759 48.7147 51.8739 48.7216 52.0698 48.6702C52.0998 48.66 52.1301 48.6495 52.1608 48.6389L52.2361 48.6126L52.2988 48.5906L52.3012 48.5897L52.3018 48.5895C53.0289 48.3343 53.9158 48.0229 54.6244 48.389C55.243 48.7086 55.0991 49.5648 54.9875 50.2288C54.9632 50.3731 54.9405 50.5083 54.9274 50.6269L54.1693 57.5344ZM55.4611 36.8601C53.0472 43.1895 49.2187 51.8582 41.0222 51.6377C37.6252 51.278 34.5497 49.4905 32.5816 46.7319C30.429 43.6216 28.7979 40.1889 27.7511 36.5658C27.5086 35.8758 26.7791 35.7353 26.2561 35.9624C25.7892 35.9344 25.3479 36.2223 25.2027 36.6802C25.107 37.0268 24.8268 37.0096 24.6252 36.7448C24.3737 36.297 24.1857 35.8172 24.0664 35.3188C23.7676 34.5262 23.3985 33.7652 23.0294 33.004C22.7847 32.4995 22.54 31.9949 22.3157 31.4809C21.7741 30.3678 21.5066 29.144 21.5351 27.9093C21.5613 27.5198 21.6381 26.6933 21.9762 26.4116L21.9823 26.4123C22.0728 26.4221 22.1595 26.4536 22.2349 26.5041C22.4893 26.7154 22.6972 26.9761 22.8456 27.2699C23.5666 28.3758 25.3642 27.3488 24.6379 26.2349C24.4676 25.8814 24.2386 25.5652 23.9648 25.2967C23.9656 25.2853 23.9662 25.2738 23.9666 25.2622C23.9499 23.5711 23.7318 21.8759 23.5136 20.1797C23.1793 17.5811 22.8447 14.9803 23.2338 12.3889C23.7976 8.7137 26.33 5.62742 29.8531 4.32192C33.8278 2.99911 38.0648 2.63289 42.2116 3.25372C46.0554 3.77256 49.9473 3.82157 53.7998 3.40094C53.4407 6.0903 52.8458 8.92579 50.7965 10.8357C48.9033 12.2735 46.6489 13.1353 44.3055 13.3468C43.9476 13.3424 43.5899 13.3348 43.2323 13.323C43.0695 13.3176 42.9265 13.3433 42.8034 13.3928C42.4436 13.3824 42.0832 13.3567 41.723 13.3154C38.2654 12.8925 34.7688 12.8837 31.3091 13.2891C28.3956 13.6623 26.2019 16.0928 26.1593 18.9948C26.2448 20.3051 28.3213 20.3146 28.2351 18.9948C27.9678 14.9034 33.6658 14.9432 36.4439 15.0636C38.5882 15.3146 40.7471 15.3982 42.9008 15.3148C43.0003 15.349 43.1108 15.3696 43.2323 15.3737C44.8531 15.4273 46.474 15.4075 48.0948 15.3878C49.5551 15.37 51.0154 15.3521 52.4757 15.388C53.0052 15.4011 53.5377 15.4184 54.0645 15.4766C54.2337 15.492 54.4015 15.5192 54.5669 15.5578C54.6137 15.5684 54.66 15.5809 54.7062 15.5934C54.7385 15.6021 54.7708 15.6108 54.8033 15.6189C54.8319 15.626 54.8546 15.6292 54.8716 15.63C54.8764 15.6334 54.8811 15.6372 54.8854 15.6413L54.8855 15.6415C54.9418 15.7435 54.9273 15.6807 54.8854 15.6413L54.8794 15.6302C54.8868 15.6303 54.8928 15.6298 54.8975 15.6289C54.9309 15.6713 54.9822 15.742 55.022 15.7968L55.022 15.7968C55.0469 15.8311 55.0672 15.8592 55.0759 15.8701C55.2669 16.1199 55.4278 16.3907 55.5554 16.6773C55.8749 17.4067 56.0092 18.2022 55.9469 18.9945C55.8697 20.3129 57.9457 20.3084 58.0227 18.9945C58.1676 17.2103 57.5395 15.449 56.2946 14.1484C55.4694 13.5901 54.4794 13.3193 53.481 13.3788C52.6317 13.3253 51.7811 13.302 50.9296 13.2955C51.95 12.6056 52.8516 11.7406 53.5864 10.7299C54.3233 9.43415 54.9004 8.06179 55.3092 6.64221C58.3411 7.95147 60.2345 10.9847 60.0529 14.2532C60.0131 15.7991 59.7216 17.3151 59.4303 18.8299C59.0511 20.8012 58.6724 22.7704 58.8495 24.8006C58.8611 24.9328 58.8928 25.0518 58.9403 25.1574C58.5991 25.4535 58.3168 25.8182 58.1159 26.2349C57.3904 27.3476 59.1865 28.377 59.9082 27.2699C60.0489 27.012 60.2296 26.7774 60.4436 26.5747C60.501 26.5289 60.5779 26.4975 60.6413 26.4717C60.7332 26.4342 60.7967 26.4083 60.7307 26.367C61.0861 26.5899 61.1795 27.4423 61.2127 27.8069C61.2652 29.076 60.9992 30.3381 60.4382 31.4809C60.2138 31.9948 59.9694 32.4995 59.725 33.004C59.3726 33.7314 59.0203 34.4588 58.7283 35.2136C58.5897 35.7167 58.4027 36.2056 58.1701 36.6737C57.9868 36.962 57.6651 37.0926 57.5511 36.6802C57.3838 36.1526 56.8234 35.8507 56.2837 35.9976C55.9578 36.0864 55.7103 36.3195 55.594 36.6088C55.5419 36.6825 55.497 36.7661 55.4611 36.8601ZM54.8705 15.6131C54.8553 15.5821 54.8642 15.5884 54.8851 15.6137C54.8808 15.6133 54.876 15.6131 54.8705 15.6131ZM39.349 32.3029C40.2602 29.5307 40.6841 26.6248 40.6022 23.7113C40.6219 23.1591 41.0808 22.7215 41.6401 22.7215C42.1995 22.7215 42.6584 23.1591 42.6781 23.7113C42.7528 26.2059 42.4777 28.6986 41.8604 31.1186C41.8021 31.3454 41.6941 31.6559 41.569 32.0154L41.569 32.0155L41.569 32.0155C40.9881 33.6847 40.0395 36.4105 41.9972 36.7311C43.3141 36.9466 42.7522 38.9225 41.4454 38.7086C40.1921 38.4479 39.2039 37.4957 38.9087 36.2646C38.6679 34.9296 38.8207 33.5544 39.349 32.3029ZM53.5964 23.3865C51.3535 22.8275 49.0317 22.6432 46.7272 22.8414C46.159 22.8531 45.7011 23.3054 45.6893 23.8668C45.6956 24.4305 46.1566 24.8859 46.7272 24.8921C48.8449 24.6938 50.9813 24.8533 53.0446 25.364C53.5974 25.5145 54.169 25.1938 54.3214 24.6478C54.4738 24.1017 54.1492 23.537 53.5964 23.3865ZM29.7435 25.364C31.8069 24.8534 33.9432 24.6938 36.0609 24.8921C36.6332 24.89 37.0967 24.4322 37.0988 23.8668C37.0845 23.3064 36.6281 22.8555 36.0609 22.8414C33.7564 22.6432 31.4346 22.8275 29.1917 23.3865C28.6427 23.5417 28.3204 24.1024 28.4668 24.6477C28.6285 25.1864 29.1922 25.5027 29.7435 25.364ZM32.2924 27.6874C31.9927 27.7369 31.695 27.7943 31.3987 27.8629C30.8476 28.001 30.2843 27.6851 30.1219 27.1468C29.9747 26.6014 30.2974 26.0401 30.847 25.8855C32.3659 25.5264 33.936 25.4276 35.4888 25.5934C36.0553 25.6091 36.5108 26.0591 36.5267 26.6188C36.5253 27.1845 36.0614 27.6428 35.4888 27.6441C35.1524 27.6061 34.8147 27.5813 34.4766 27.5698C34.4539 27.6742 34.4153 27.7755 34.3612 27.8701L34.3586 27.8745L34.3526 27.8964C34.3524 27.9102 34.3524 27.9241 34.3527 27.9379L34.3571 27.9548L34.3618 27.9713L34.3651 27.9828L34.3771 28.0032C34.3895 28.0155 34.4021 28.0275 34.4149 28.0393C34.6097 28.2315 34.7191 28.4923 34.7191 28.7643C34.7191 29.0363 34.6097 29.2971 34.4149 29.4893C34.214 29.672 33.954 29.7785 33.6811 29.7897C33.4069 29.7846 33.1447 29.6773 32.9471 29.4893C32.8371 29.3813 32.7377 29.2631 32.6505 29.1364C32.6108 29.0836 32.5758 29.0276 32.5456 28.9691C32.4405 28.7779 32.3662 28.5717 32.3254 28.358C32.2965 28.2062 32.28 28.0524 32.2762 27.898C32.2791 27.8276 32.2845 27.7573 32.2924 27.6874ZM47.2993 25.5934C48.8521 25.4276 50.4222 25.5264 51.9411 25.8855C52.4939 26.036 52.8185 26.6007 52.6661 27.1467C52.5137 27.6928 51.9421 28.0134 51.3894 27.8629C51.0388 27.7815 50.6863 27.7186 50.3311 27.6609L50.2934 27.6555L50.2489 27.6501C50.226 27.7261 50.1944 27.8 50.1542 27.8701L50.1517 27.8745L50.1457 27.8962L50.1455 27.9114L50.1457 27.9377C50.1497 27.9529 50.1539 27.9681 50.1583 27.9831L50.1702 28.0032C50.1825 28.0155 50.1951 28.0275 50.208 28.0393C50.4027 28.2315 50.5121 28.4923 50.5121 28.7643C50.5121 29.0363 50.4027 29.2971 50.208 29.4893C50.007 29.672 49.7471 29.7785 49.4742 29.7897C49.1999 29.7846 48.9378 29.6773 48.7402 29.4893C48.6302 29.3812 48.5308 29.2631 48.4435 29.1364C48.4039 29.0836 48.3688 29.0276 48.3387 28.9691C48.2336 28.7779 48.1593 28.5717 48.1187 28.358C48.0897 28.2062 48.0731 28.0524 48.0693 27.898C48.0737 27.7911 48.0839 27.6845 48.0998 27.5787C47.8325 27.5922 47.5655 27.614 47.2993 27.6441C46.7216 27.7087 46.2842 27.1228 46.2614 26.6188C46.2632 26.3472 46.3723 26.0871 46.5655 25.8939C46.7652 25.7092 47.026 25.6025 47.2993 25.5934ZM44.8951 42.3159C44.6559 42.6197 44.3838 42.8966 44.0836 43.1417C44.0352 43.1664 43.9985 43.1988 44.0009 43.2015L43.9836 43.2158C43.9007 43.2738 43.8162 43.3295 43.7299 43.3829C43.5577 43.4898 43.3796 43.5871 43.1964 43.6745C43.1638 43.6901 43.131 43.7055 43.0981 43.7204C43.0886 43.7239 43.0656 43.7333 43.0417 43.743C43.0156 43.7536 42.9884 43.7647 42.9772 43.7688L42.8497 43.8141C42.6576 43.8801 42.4619 43.9352 42.2635 43.9794C42.1645 44.0013 42.0648 44.0205 41.9644 44.0371L41.9486 44.0396C41.9307 44.0416 41.9136 44.0436 41.9048 44.0444C41.6913 44.0651 41.4767 44.0732 41.2621 44.0684C40.6889 44.0684 40.2242 44.5275 40.2242 45.0938C40.2242 45.6601 40.6889 46.1191 41.2621 46.1191C43.2381 46.1507 45.119 45.2829 46.3629 43.766C46.5496 43.5685 46.6576 43.311 46.667 43.041C46.6671 42.6263 46.4142 42.2523 46.0263 42.0936C45.6384 41.9348 45.1919 42.0226 44.8951 42.3159ZM44.0772 43.1469L44.0697 43.153C44.0226 43.1912 44.0026 43.2033 44.0009 43.2015C44.0253 43.1819 44.0508 43.1637 44.0772 43.1469ZM44.0772 43.1469L44.0932 43.137L44.0836 43.1417L44.0772 43.1469ZM36.9153 77.0713C37.2305 76.2185 37.8747 75.5237 38.707 75.1387C39.579 74.7739 40.5142 74.5822 41.4594 74.5733C41.4402 74.5334 41.4658 74.5006 41.553 74.4759C41.7958 74.4154 42.0409 74.4429 42.2531 74.5386C43.0834 74.5519 43.9948 74.7517 44.5732 75.0586C45.4652 75.532 46.1161 76.3523 46.3683 77.3211C46.7954 79.0992 46.0006 80.9449 44.4075 81.874C42.7738 82.7901 40.7661 82.7606 39.1607 81.7969C37.3785 80.9412 36.443 78.9724 36.9153 77.0713ZM42.7137 75.2912C42.8829 75.4071 43.0104 75.5298 43.0442 75.656L42.7374 75.8236C42.7535 75.7519 42.7619 75.6774 42.7619 75.6009C42.7619 75.493 42.745 75.3889 42.7137 75.2912ZM41.2705 76.6366C41.0279 76.6483 40.7857 76.67 40.5447 76.7015C40.3491 76.7345 40.1558 76.7799 39.9662 76.8377C39.8947 76.8584 39.8242 76.8819 39.7547 76.9084C39.7529 76.9095 39.7487 76.9118 39.743 76.9146C39.7313 76.9206 39.7133 76.9293 39.6968 76.9373L39.6955 76.9379C39.6784 76.9462 39.6632 76.9536 39.6587 76.956C39.5653 77.0083 39.4736 77.0602 39.3814 77.1145C39.3767 77.1173 39.3604 77.1286 39.343 77.1406L39.3429 77.1407C39.3209 77.1559 39.2972 77.1723 39.2929 77.1742C39.2396 77.219 39.1886 77.2665 39.1402 77.3165C39.1377 77.3191 39.1312 77.3262 39.1225 77.3357L39.1095 77.35C39.0791 77.3835 39.0371 77.4297 39.0326 77.4319C38.9139 77.6011 38.8413 77.7979 38.8222 78.0033C38.8071 78.4756 38.9766 78.9356 39.2957 79.2877C39.4774 79.4936 39.6824 79.6783 39.9066 79.8383L39.9347 79.8562C40.0589 79.9353 40.1823 80.014 40.3124 80.0839C40.3224 80.0893 40.3443 80.1003 40.372 80.114C40.3979 80.1269 40.4287 80.1421 40.4595 80.1572L40.4598 80.1574L40.4611 80.158L40.4612 80.158C40.5469 80.2002 40.6311 80.2416 40.6033 80.2301C40.787 80.3039 40.976 80.364 41.1687 80.41C41.2233 80.4236 41.2782 80.4351 41.3332 80.4467L41.4004 80.4611L41.4063 80.4622L41.431 80.4664L41.4312 80.4664L41.4327 80.4667C41.464 80.472 41.5076 80.4795 41.5157 80.4817C41.7613 80.5063 42.0086 80.5093 42.2548 80.4907C42.2552 80.4903 42.2592 80.4894 42.2659 80.4881C42.2723 80.4868 42.2813 80.4852 42.2919 80.4833C42.3152 80.4792 42.3463 80.474 42.375 80.4693L42.4229 80.4612C42.4375 80.4587 42.4484 80.4568 42.4524 80.4559C42.5201 80.4414 42.5878 80.4252 42.6546 80.4069C42.7689 80.377 42.8814 80.3408 42.9916 80.2985C42.9931 80.2976 42.9966 80.2958 43.0014 80.2934C43.0112 80.2886 43.0264 80.2814 43.0414 80.2743L43.0416 80.2742L43.0649 80.2632C43.0749 80.2584 43.083 80.2545 43.0866 80.2525C43.0943 80.2484 43.102 80.2443 43.1097 80.2402C43.1151 80.2373 43.1206 80.2344 43.1261 80.2315L43.1635 80.2122L43.1971 80.1948C43.2216 80.1821 43.246 80.1691 43.2701 80.1555C43.3779 80.0959 43.482 80.03 43.5819 79.9584C43.5545 79.976 43.67 79.8789 43.7123 79.8435L43.7272 79.8309C43.7776 79.7845 43.8267 79.7361 43.874 79.6869C43.9213 79.6377 43.9674 79.5864 44.0114 79.5344C43.9809 79.5704 43.9265 79.6664 44.0359 79.4974C44.1114 79.3808 44.1831 79.2645 44.2474 79.1412C44.2518 79.1329 44.2659 79.0977 44.2764 79.0718L44.2874 79.0446C44.3051 78.9943 44.3212 78.9432 44.336 78.8921C44.361 78.807 44.3796 78.7206 44.3983 78.6341C44.4012 78.621 44.4035 78.6107 44.4054 78.6026L44.4064 78.5915C44.4191 78.4505 44.422 78.3089 44.4149 78.1676C44.4146 78.1606 44.4123 78.1363 44.4097 78.1087L44.4095 78.1064L44.4095 78.1058L44.4038 78.0432C44.4017 78.0331 44.3993 78.0213 44.3968 78.0089C44.3944 77.9968 44.392 77.9843 44.3896 77.9724L44.3896 77.9721C44.3874 77.9611 44.3854 77.9507 44.3836 77.942C44.3813 77.9302 44.3795 77.9213 44.3786 77.9176C44.3622 77.8471 44.3053 77.6633 44.2878 77.6071C44.2802 77.5949 44.2535 77.5421 44.2306 77.4969L44.2303 77.4963C44.2141 77.4642 44.1999 77.4361 44.1959 77.4293C44.1608 77.3686 44.1231 77.3083 44.0828 77.2507C44.1234 77.3089 44.0765 77.2556 44.0204 77.1916L44.0202 77.1914L44.0202 77.1914C43.9805 77.1461 43.9361 77.0956 43.9149 77.0756C43.8825 77.0443 43.849 77.0142 43.8143 76.9854C43.808 76.9823 43.787 76.9688 43.767 76.9559L43.7668 76.9558C43.7581 76.9501 43.7495 76.9446 43.7425 76.9401C43.736 76.936 43.7308 76.9328 43.7278 76.9312L43.6912 76.9118C43.6134 76.8708 43.4489 76.7841 43.4858 76.7941C43.3424 76.741 43.1947 76.7 43.0442 76.6714C43.1673 76.6977 43.0587 76.6863 42.9533 76.6752L42.9532 76.6752C42.8966 76.6693 42.841 76.6635 42.8225 76.6636C42.763 76.6642 42.703 76.667 42.6437 76.6721L42.6046 76.6837C42.5785 76.6915 42.5526 76.6992 42.5268 76.7067L42.5265 76.7068L42.5264 76.7069C42.4245 76.7368 42.3242 76.7663 42.2245 76.8063C42.1205 76.8337 42.0274 76.8637 41.9435 76.8906C41.585 77.0058 41.3975 77.066 41.2705 76.6366ZM42.706 76.6555C42.7008 76.6575 42.6778 76.6642 42.6541 76.669C42.699 76.656 42.711 76.6535 42.706 76.6555ZM64.9702 56.0411C65.2655 56.5077 65.8724 56.6714 66.3655 56.422L66.4324 56.3953L66.4329 56.395C66.4678 56.3811 66.5007 56.3679 66.5119 56.3637C66.6209 56.3233 66.7308 56.2854 66.8416 56.2501C67.0315 56.1894 67.2236 56.1362 67.4178 56.0906C67.6141 56.0446 67.8126 56.0057 68.0122 55.9758C67.9529 55.9847 68.0146 55.9774 68.0797 55.9697L68.08 55.9697C68.1186 55.9651 68.1582 55.9604 68.1745 55.9589C68.2185 55.9549 68.2626 55.9509 68.3067 55.9475C68.2952 55.9913 68.2844 56.0354 68.2751 56.0799C68.1474 56.5472 68.2225 57.046 68.4825 57.4563C68.7936 57.8704 69.2624 58.1379 69.7769 58.1994C69.5413 58.5201 69.5014 58.9584 69.7075 59.3255C70.0009 59.8091 70.6317 59.9725 71.1276 59.6934C71.6788 59.3759 72.0918 58.8685 72.2876 58.2686C72.4628 57.5555 72.1364 56.8144 71.4888 56.455C71.1751 56.2929 70.8283 56.2033 70.4745 56.1931C70.4609 56.1921 70.4473 56.1912 70.4336 56.1905C70.4207 56.1897 70.4077 56.1891 70.3948 56.1885C70.5852 55.6061 70.4678 54.9672 70.0803 54.4877C69.6922 54.0889 69.1515 53.8709 68.5917 53.8875C67.4669 53.9066 66.3593 54.1626 65.3426 54.6383C64.849 54.9251 64.6825 55.5519 64.9702 56.0411ZM70.5457 58.269L70.5059 58.251C70.5252 58.2557 70.5406 58.2617 70.5457 58.269ZM17.6952 12.3382C17.7545 10.3732 18.2645 8.44703 19.1869 6.70502C19.4762 6.21603 20.112 6.05131 20.607 6.33711C21.102 6.62292 21.2688 7.25101 20.9795 7.74C20.879 7.9303 20.7824 8.12245 20.6921 8.31767C20.6871 8.32854 20.6694 8.36953 20.6499 8.41477C20.6064 8.51549 20.5538 8.63729 20.6118 8.49465C20.6074 8.50553 20.6029 8.51641 20.5985 8.52729C20.5683 8.60169 20.538 8.67602 20.509 8.75098C20.3539 9.15193 20.2212 9.56105 20.1117 9.97647C20.0035 10.3921 19.9171 10.813 19.8529 11.2374C19.8745 11.0981 19.8677 11.146 19.8579 11.2151C19.8517 11.2586 19.8443 11.3105 19.8421 11.3295C19.828 11.4513 19.8159 11.5733 19.806 11.6956C19.7883 11.9094 19.7775 12.1237 19.7711 12.3382C19.7601 12.9 19.3018 13.3528 18.7332 13.3636C18.162 13.3587 17.7001 12.9025 17.6952 12.3382Z" fill="url(#paint0_linear_0_2293)"/>
<defs>
<linearGradient id="paint0_linear_0_2293" x1="29.7231" y1="-31.9309" x2="-36.6709" y2="49.7238" gradientUnits="userSpaceOnUse">
<stop stop-color="#192572"/>
<stop offset="1" stop-color="#3AADE9"/>
</linearGradient>
</defs>
</svg>
