<svg width="98" height="86" viewBox="0 0 98 86" fill="none" xmlns="http://www.w3.org/2000/svg">
<path d="M46.4443 81.2406C46.5215 81.1348 46.602 81.0339 46.6811 80.9299C46.6256 81.0031 46.3167 81.2664 46.6507 80.9727C46.7513 80.8844 47.3202 80.4974 46.9526 80.7024C46.5345 80.9355 47.3062 80.5699 47.3189 80.5039C47.3119 80.5396 46.5702 80.8341 47.1067 80.6084C47.2314 80.556 47.3548 80.5011 47.4805 80.4511C47.7536 80.3422 48.5945 80.1702 47.5813 80.3962C47.8173 80.3438 48.0498 80.2587 48.2834 80.1971C48.785 80.0643 49.2915 79.9493 49.7987 79.8372C52.4458 79.3844 54.9403 78.3386 57.0742 76.7869C57.9029 76.118 59.0928 74.9023 58.9943 73.7828C58.8347 71.9737 56.0977 72.2235 54.7242 72.2255C51.8809 72.2299 49.0286 72.1713 46.1862 72.2408C43.9513 72.2952 40.7219 73.0273 40.1642 75.4574C39.913 77.0043 39.8764 78.5758 40.0553 80.1318C40.0814 80.5597 40.7099 80.833 41.0542 80.9447C41.6678 81.1325 42.3189 81.1831 42.9565 81.0924C43.5658 81.0104 44.1623 80.8589 44.7332 80.6414C45.4456 80.3959 46.066 79.957 46.5169 79.3796C46.6414 79.1519 46.7804 78.9316 46.933 78.7198C47.0098 78.6149 47.1004 78.5181 47.1752 78.4124C47.0615 78.5736 46.9464 78.6335 47.1482 78.4458C47.2681 78.3343 47.7059 78.0686 47.7483 77.9298C47.7142 78.0417 47.2709 78.2253 47.6369 78.0188C47.782 77.9371 47.9284 77.8542 48.0714 77.7694C48.4142 77.5664 47.4815 77.9996 47.865 77.8791C47.9812 77.8424 48.4485 77.6801 47.901 77.8437C47.1071 78.0813 48.8076 77.6628 47.9896 77.8147C47.1793 77.965 48.8369 77.752 48.1194 77.8092C47.6175 77.8492 48.0963 77.8354 48.2029 77.8302C48.5768 77.8118 47.5121 77.7233 48.1595 77.8197C49.2664 76.6173 50.3731 75.4149 51.4798 74.2124C51.3057 74.1975 51.1318 74.1796 50.9576 74.165C51.2482 74.1892 51.1682 74.1929 50.9254 74.1604C50.5789 74.1143 50.2332 74.0647 49.8889 74.0072C49.157 73.8848 48.4314 73.7336 47.7121 73.5535C47.3737 73.4689 47.0374 73.3782 46.703 73.2812C46.5358 73.2327 46.3692 73.1827 46.203 73.1311C45.7893 73.0019 46.4846 73.2294 46.0755 73.088C45.3767 72.8466 44.6889 72.5803 44.0122 72.2893C42.4265 71.7558 40.6675 71.968 39.2735 72.861C38.4233 73.4025 37.2099 74.7686 38.71 75.4121C41.9374 76.7804 45.3852 77.6231 48.9084 77.9047C50.4715 77.9985 52.0007 77.4449 53.0996 76.3874C53.4871 76.0506 53.6155 75.5223 53.4223 75.0589C53.2292 74.5954 52.7546 74.2927 52.2287 74.2976C47.5679 73.4878 42.8512 75.4174 40.2772 79.1871C42.4312 78.9364 44.585 78.6857 46.7388 78.4349C46.6572 77.1563 46.7031 75.8733 46.8758 74.6029C47.2725 73.5151 46.3946 73.9499 44.2421 75.9073C43.7373 75.9283 43.6944 75.9359 44.1134 75.9301C44.4887 75.9403 44.8662 75.929 45.2417 75.9283L47.4985 75.925C49.003 75.9226 50.5074 75.9203 52.0119 75.918L53.1402 75.9165L53.7046 75.9156C52.8727 74.7021 52.3902 74.4322 52.2571 75.1062C52.3468 74.8957 52.332 74.8963 52.2128 75.1077C52.1433 75.2111 52.0694 75.3113 51.9909 75.4084C51.7178 75.7928 52.3055 75.1363 51.8355 75.5441C51.293 76.0144 52.2518 75.3381 51.7561 75.6224C51.6477 75.6912 51.5375 75.7571 51.4254 75.8201C51.123 75.981 51.1995 75.9475 51.6549 75.7196C51.3987 75.7966 51.1523 75.9003 50.9203 76.0288C50.0106 76.3732 51.4351 75.9014 50.8319 76.0658C49.7809 76.3523 48.7144 76.5688 47.6579 76.8343C44.7256 77.3592 42.0846 78.8523 40.2046 81.0481C39.315 82.2697 40.968 82.9773 42.0388 82.9906C43.7144 83.0867 45.342 82.4402 46.4443 81.2406Z" fill="#C3DDF9"/>
<path d="M22.556 3.50062C20.3731 4.09585 17.8058 2.98428 15.5538 3.00321C13.3948 2.9504 11.2692 3.55085 9.44838 4.72794C5.56543 7.43447 5.63065 12.8308 5.13849 17.1235C3.88514 28.2172 3.66605 39.406 4.48414 50.5414C4.8374 55.4634 4.72149 61.4789 6.89838 65.9954C8.80542 69.9521 12.9643 71.3284 17.0468 71.6011C27.9532 72.3298 39.0699 71.8329 49.9987 71.8548C63.1151 71.8808 76.2313 71.8443 89.3475 71.7452C93.3238 71.7159 94.7726 66.5803 89.9934 66.6157C77.2749 66.7101 64.5561 66.7473 51.8369 66.7275C45.875 66.7174 39.9131 66.6943 33.951 66.6582C30.7714 66.639 27.5918 66.6162 24.4122 66.5896C21.7195 66.8495 19.0028 66.6428 16.3786 65.9785C13.6858 64.9359 13.0717 62.2525 12.6535 59.6423C12.1652 56.5954 11.8978 53.4917 11.6456 50.4171C11.1523 44.2983 10.9903 38.1566 11.1605 32.0199C11.3279 25.6588 11.84 19.3119 12.6944 13.0078C12.6806 11.5927 12.9153 10.1864 13.3876 8.8547C14.0892 7.83014 14.3127 8.11719 15.6331 8.28405C18.3332 8.85966 21.1216 8.863 23.823 8.29388C28.1443 7.11572 26.8967 2.3168 22.556 3.50062Z" fill="#C3DDF9"/>
<path fill-rule="evenodd" clip-rule="evenodd" d="M89.2665 3.54838C90.5209 3.37011 91.7968 3.42823 93.0307 3.71985C93.1247 3.74298 93.2173 3.76996 93.3099 3.79695L93.3105 3.79711C93.3455 3.80732 93.3806 3.81752 93.4157 3.82753C93.2269 4.07958 93.0731 4.35734 92.9589 4.65301C92.6522 5.45092 92.9297 6.3588 93.6269 6.83824C93.9633 7.04029 94.3529 7.13138 94.7421 7.09901C94.7942 7.09483 94.8459 7.08774 94.8977 7.08065C94.9553 7.07276 95.013 7.06486 95.0711 7.06098C95.1203 7.05699 95.1697 7.05553 95.2191 7.05659L95.262 7.06589C95.2885 7.07199 95.3083 7.07573 95.3227 7.07769C95.3321 7.08412 95.3433 7.09152 95.3567 7.09999C95.3875 7.11741 95.4178 7.13578 95.4475 7.15507C95.4475 7.15895 95.4722 7.18343 95.5214 7.22853L95.5285 7.23663C95.5355 7.24983 95.552 7.27665 95.578 7.31709L95.5798 7.32073C95.586 7.34869 95.5912 7.37045 95.5952 7.38604L95.5949 7.40532V7.40563C95.5944 7.43736 95.5939 7.46796 95.5946 7.48699L95.585 7.51989C95.5745 7.55557 95.5639 7.59191 95.5563 7.62013C95.5072 7.6768 95.3834 7.87723 95.5397 7.69609C95.5083 7.73301 95.4754 7.76846 95.4409 7.80233C95.4272 7.81116 95.4094 7.82284 95.3875 7.83739C95.0161 8.05856 94.7887 8.46477 94.791 8.90301C94.7934 9.34126 95.025 9.74495 95.3987 9.96202C95.7725 10.1791 96.2315 10.1766 96.6029 9.95541C97.6896 9.28323 98.2208 7.96918 97.9139 6.7124C97.6138 5.66602 96.7765 4.89481 95.7633 4.67156C95.9241 4.3671 96.0129 4.02805 96.0218 3.68158C96.0276 2.30023 94.7489 1.61214 93.6016 1.33788C92.1824 0.993867 90.7142 0.911698 89.2665 1.09527C88.6086 1.11248 88.0793 1.65167 88.0624 2.32182C88.0884 2.91621 88.5973 3.63571 89.2665 3.54838ZM94.6328 4.65326C94.6395 4.64758 94.6492 4.64601 94.661 4.64769C94.6516 4.64932 94.6422 4.65118 94.6328 4.65326ZM94.9599 4.85993C94.9627 4.86353 94.9591 4.86137 94.9471 4.85122L94.9599 4.85993ZM25.6746 6.50499C25.1213 6.51592 24.5681 6.52764 24.0148 6.54019C23.9371 6.53745 23.8613 6.52725 23.7881 6.51029L23.4576 6.51124C21.3136 6.51729 19.1697 6.524 17.0257 6.53136C14.9334 6.42904 12.8366 6.4866 10.7528 6.70357C9.11613 6.75916 7.67178 7.80897 7.08778 9.3674C6.75255 10.9998 6.66098 12.6744 6.81614 14.3347C6.83653 18.422 6.85708 22.5094 6.87779 26.5971L7.00109 51.1213C7.00986 53.5415 7.02071 55.9618 7.03363 58.382C12.8854 58.2799 18.7373 58.1982 24.5894 58.1367C46.5255 57.9086 68.4598 57.962 90.3923 58.2969C90.3953 56.6201 90.361 54.9431 90.2895 53.2673L90.4207 27.2101L90.4855 14.3347C90.7617 12.4094 90.5651 10.4443 89.9133 8.61527C89.001 7.3595 87.5541 6.62396 86.0206 6.63635C83.0386 6.31802 79.9589 6.3785 76.9097 6.43837C75.5367 6.46534 74.1698 6.49218 72.8208 6.48426L72.4365 6.48184L72.431 6.48205C62.1021 6.43048 51.7729 6.45002 41.4438 6.46956L38.9689 6.4742C34.5375 6.48254 30.1061 6.4928 25.6746 6.50499ZM90.3614 60.7495C84.2636 60.6558 78.1656 60.584 72.0673 60.5341C50.3917 60.3595 28.7184 60.4598 7.04743 60.8349C7.05186 61.5822 7.05648 62.3295 7.06129 63.0768C6.91711 64.6908 7.15357 66.3165 7.75098 67.8186C8.60857 69.1331 10.0919 69.8786 11.6377 69.772C15.5778 70.029 19.5559 70.0175 23.519 70.006H23.5192H23.5193H23.5194H23.5196H23.5197H23.5198H23.5199H23.5201H23.5202H23.5203H23.5204H23.5206H23.5207H23.5208H23.5209H23.5211H23.5212H23.5213H23.5214H23.5216H23.5217H23.5218H23.5219H23.5221H23.5222H23.5223H23.5224H23.5226H23.5227H23.5228H23.5229H23.5231C24.8958 70.0021 26.2666 69.9981 27.6335 70.0053C32.5759 70.0313 37.5185 70.0347 42.461 70.0381C48.5165 70.0423 54.5719 70.0465 60.6271 70.0921C63.0424 70.0805 65.4576 70.0658 67.8728 70.048C73.0477 70.01 78.223 69.9619 83.3967 69.8451C84.8616 69.9359 86.3312 69.785 87.7489 69.3982C89.225 68.7223 90.1665 67.2183 90.1455 65.5699C90.2517 63.9645 90.3237 62.3574 90.3614 60.7495ZM72.4622 4.03045L78.8207 4.06598C79.4687 4.06966 80.1764 4.04833 80.9185 4.02596C85.1799 3.89754 90.5762 3.73491 92.3125 8.07535C92.8669 9.90063 93.0653 11.8188 92.8965 13.7217L92.8628 20.4658L92.7949 33.9542L92.6591 60.931C92.6572 61.312 92.6611 61.7061 92.6652 62.1087C92.6951 65.0824 92.7297 68.5219 90.4315 70.5997C88.5763 72.2772 85.914 72.2929 83.5061 72.307H83.5045C83.1598 72.309 82.8202 72.311 82.489 72.3179C76.8294 72.4349 71.1681 72.4817 65.5073 72.5171C64.9875 72.5204 64.4678 72.5237 63.948 72.5268C63.857 72.5528 63.7615 72.5683 63.6629 72.5718C62.6325 72.5615 61.602 72.5526 60.5716 72.5449L59.4256 72.5501L59.1472 81.6635C59.1472 81.8113 59.1215 81.9529 59.0745 82.0841C62.4901 82.1894 65.9046 82.3428 69.317 82.5444C70.8601 82.6354 70.8652 85.089 69.317 84.9975C55.8988 84.2047 42.4482 84.157 29.025 84.8545C27.4734 84.9352 27.4828 82.4816 29.025 82.4014C31.9446 82.2497 34.8655 82.1332 37.787 82.052C37.8037 78.8897 37.8206 75.7272 37.8375 72.5647C34.5252 72.5547 31.2129 72.5389 27.9006 72.5176C27.7864 72.5135 27.6764 72.4934 27.5726 72.4594C25.4127 72.4477 23.2529 72.4316 21.093 72.4091C18.4263 72.3812 15.7593 72.3463 13.0932 72.2791C10.2547 72.2077 7.17472 71.8788 5.6718 69.0567C4.44009 66.7444 4.52285 63.7867 4.59851 61.0826C4.61767 60.3979 4.63638 59.7293 4.63317 59.0917C4.61141 54.8001 4.58982 50.5083 4.56839 46.2163L4.43883 20.4658L4.4049 13.7217C4.30388 12.1191 4.40397 10.51 4.70276 8.9332C5.54223 6.17769 8.02276 4.28201 10.8546 4.23181C15.2855 3.91308 19.7307 3.85435 24.1682 4.05592L25.6746 4.05169C36.3323 3.83872 46.9982 3.89487 57.6585 3.95099L57.6594 3.95099C59.2152 3.95918 60.7709 3.96737 62.3264 3.97473C65.1992 3.99036 68.072 4.00614 70.9447 4.02204C71.4401 4.02418 71.9355 4.02648 72.431 4.02894C72.4414 4.02931 72.4518 4.02982 72.4622 4.03045ZM56.739 81.6635C56.739 81.7878 56.7572 81.9078 56.791 82.0209C51.2601 81.8853 45.7269 81.876 40.1955 81.9931L40.2457 72.5711C45.8361 72.5834 51.4266 72.5796 57.0171 72.5597L56.739 81.6635ZM40.9513 24.8529C39.4881 26.2686 38.0248 27.6841 36.5615 29.0995L34.3665 31.2226L34.283 31.3032C33.6701 31.8941 33.0752 32.4676 33.1282 33.4079C33.2607 34.2357 33.7393 34.9642 34.4401 35.4045C35.1573 35.9817 35.8559 36.5805 36.5278 37.2117C37.8953 38.4899 39.1538 39.8842 40.2895 41.3795C40.6386 41.946 41.3598 42.1387 41.9369 41.8196C42.5075 41.4749 42.7 40.727 42.3689 40.1414C41.3855 38.823 40.3177 37.5722 39.1726 36.397C38.6178 35.834 38.0443 35.2911 37.4522 34.7684C37.1565 34.5071 36.8564 34.2512 36.5518 34.0005C36.4909 33.9505 36.4071 33.8687 36.3125 33.7763C36.1333 33.6013 35.9156 33.3888 35.743 33.2847C35.7827 33.2436 35.8218 33.2018 35.8602 33.1594C36.174 32.8562 36.4876 32.5529 36.8011 32.2495L38.6824 30.4296C40.0063 29.149 41.3303 27.8683 42.6543 26.5875C43.7804 25.4983 42.0754 23.7657 40.9513 24.8529ZM61.096 32.8558L54.7509 40.0337C53.7161 41.2041 55.4138 42.9443 56.4537 41.7683L63.6157 33.6664C64.0736 33.1823 64.0736 32.416 63.6157 31.9318C61.3299 29.6401 59.138 27.2577 57.0401 24.7845C56.025 23.5878 54.328 25.3295 55.3373 26.5191C57.4318 28.9888 58.8132 30.5669 61.096 32.8558ZM14.9051 19.7276C15.1057 19.7835 15.3168 19.7859 15.5183 19.7348C15.6971 19.7209 15.8767 19.7215 16.0554 19.7364C16.2173 19.7671 16.377 19.8097 16.533 19.864C16.6883 19.9149 16.8541 19.9224 17.0132 19.8858C17.1724 19.8788 17.327 19.8286 17.4608 19.7404C17.723 19.5686 17.9185 19.3096 18.0142 19.0074C18.0987 18.6884 18.055 18.3483 17.8929 18.0622L17.7045 17.8139C17.5573 17.6637 17.3742 17.555 17.1733 17.4985C16.4411 17.2562 15.6602 17.2093 14.9051 17.3621C14.6083 17.4595 14.3539 17.6587 14.1853 17.9258C14.0987 18.0622 14.0494 18.2196 14.0425 18.3818C14.0066 18.5439 14.014 18.7128 14.0639 18.871C14.1488 19.1788 14.3471 19.4414 14.6173 19.604L14.9051 19.7276ZM16.5364 27.1456L15.1045 26.8748C14.8006 26.7918 14.5417 26.5891 14.3849 26.3113C14.2225 26.0252 14.1788 25.685 14.2636 25.3661C14.3591 25.0638 14.5547 24.8047 14.8169 24.6331C14.9507 24.5448 15.1052 24.4945 15.2644 24.4874C15.4235 24.4509 15.5893 24.4585 15.7446 24.5095L17.1767 24.78C17.4805 24.8632 17.7394 25.066 17.8962 25.3438C18.0584 25.6299 18.1021 25.97 18.0176 26.2889C17.9219 26.5911 17.7263 26.8501 17.4642 27.0219C17.3304 27.1101 17.1758 27.1603 17.0165 27.1674C16.8574 27.204 16.6916 27.1964 16.5364 27.1456ZM15.5509 34.105H16.6584C17.316 34.0871 17.8449 33.5483 17.8625 32.8785L17.8194 32.5525C17.7639 32.3478 17.6572 32.1613 17.5097 32.0113L17.266 31.8195C17.0817 31.7095 16.872 31.6517 16.6584 31.6519H15.5509C14.8934 31.67 14.3646 32.2087 14.3469 32.8785L14.39 33.2045C14.4455 33.4092 14.5522 33.5958 14.6997 33.7459L14.9434 33.9377C15.1277 34.0476 15.3374 34.1054 15.5509 34.105ZM16.3346 41.9582C16.0084 41.8991 15.6925 41.7918 15.3968 41.6398C15.2182 41.5332 15.0694 41.3817 14.9648 41.1997L14.8434 40.9068C14.7585 40.5878 14.8022 40.2476 14.9648 39.9616C15.2189 39.5453 15.6869 39.3169 16.1645 39.376C16.3088 39.3825 16.4492 39.4243 16.5738 39.4976C16.6563 39.525 16.7402 39.5478 16.825 39.5659C16.9087 39.5711 16.9925 39.5718 17.0762 39.5679C17.2593 39.5314 17.4487 39.5384 17.6294 39.5887L17.917 39.7124C18.1873 39.875 18.3855 40.1377 18.4703 40.4456C18.5203 40.6037 18.5277 40.7725 18.4918 40.9345C18.4849 41.0968 18.4356 41.2542 18.349 41.3905C18.1803 41.6576 17.926 41.8568 17.6294 41.9543C17.4136 41.9934 17.1954 42.0167 16.9763 42.0242C16.7611 42.018 16.5466 41.996 16.3346 41.9582ZM15.8963 49.1017L15.9245 49.1038C16.076 49.1335 16.2251 49.1751 16.3703 49.2282C16.3942 49.24 16.4179 49.2521 16.4415 49.2645C16.5753 49.3529 16.7298 49.4032 16.8891 49.4102C17.3668 49.4694 17.8348 49.241 18.0889 48.8247L18.2103 48.5315C18.2676 48.3181 18.2676 48.0929 18.2103 47.8795L18.0889 47.5866C17.9842 47.4047 17.8355 47.2531 17.6569 47.1465C17.4772 47.0516 17.2882 46.9733 17.1006 46.897C17.0024 46.8571 16.9022 46.8227 16.8003 46.794C16.4982 46.7129 16.1887 46.6637 15.8768 46.6473C15.219 46.6648 14.6899 47.2038 14.6727 47.8739L14.7156 48.1999C14.7711 48.4045 14.8778 48.591 15.0252 48.741L15.269 48.9329C15.4533 49.0428 15.6631 49.1007 15.8768 49.1004L15.8963 49.1017ZM38.9364 19.9393L22.2603 19.5603C21.6115 19.5374 21.0972 18.995 21.0972 18.3338C21.0972 17.6725 21.6115 17.1301 22.2603 17.1072L38.9364 17.4862C39.5851 17.5091 40.0995 18.0515 40.0995 18.7128C40.0995 19.374 39.5851 19.9164 38.9364 19.9393ZM43.8194 19.6408C44.5986 19.7283 45.3849 19.7283 46.1642 19.6408C46.4808 19.6272 46.7824 19.4999 47.0157 19.2814C47.4858 18.8023 47.4858 18.0259 47.0157 17.5468C46.7924 17.3129 46.4844 17.183 46.1642 17.1877C45.3849 17.2752 44.5986 17.2752 43.8194 17.1877C43.5 17.1875 43.1936 17.3167 42.9678 17.5468C42.4978 18.0259 42.4978 18.8023 42.9678 19.2814L43.2116 19.4732C43.3959 19.5832 43.6057 19.641 43.8194 19.6408ZM60.9494 19.5189L51.2451 19.2269C50.5966 19.2037 50.0827 18.6614 50.0827 18.0004C50.0827 17.3394 50.5966 16.7971 51.2451 16.7738L60.9494 17.0657C61.5979 17.089 62.1118 17.6313 62.1118 18.2923C62.1118 18.9533 61.5979 19.4956 60.9494 19.5189ZM65.313 19.5306C68.7245 19.4848 72.1323 19.6012 75.5365 19.8797C76.1992 19.8741 76.7351 19.3282 76.7406 18.6532C76.7278 17.9812 76.1961 17.4396 75.5365 17.4266C72.1355 17.1482 68.7276 17.0318 65.313 17.0775C64.6642 17.1004 64.1499 17.6428 64.1499 18.3041C64.1499 18.9653 64.6642 19.5077 65.313 19.5306ZM82.3787 19.5081L80.4901 19.5743C80.0031 19.5743 79.5641 19.2755 79.3777 18.8172C79.1913 18.3589 79.2942 17.8314 79.6385 17.4806C79.8676 17.2555 80.1718 17.1271 80.4901 17.1212L82.3787 17.055C82.8657 17.055 83.3047 17.3538 83.4911 17.812C83.6775 18.2703 83.5745 18.7979 83.2303 19.1487C83.0012 19.3738 82.697 19.5022 82.3787 19.5081ZM22.3901 26.9569L24.0835 26.968C24.4021 26.9642 24.707 26.8356 24.935 26.6088C25.1493 26.3711 25.2742 26.0639 25.2875 25.7414C25.2861 25.4164 25.1595 25.1049 24.935 24.874C24.7059 24.6489 24.4017 24.5206 24.0835 24.5149L22.3901 24.5038C22.0714 24.5075 21.7665 24.6361 21.5385 24.863C21.3241 25.1006 21.1992 25.4079 21.186 25.7304C21.1874 26.0553 21.314 26.3667 21.5385 26.5975C21.7676 26.8227 22.0718 26.9511 22.3901 26.9569ZM32.2846 26.8931C31.1454 27.1118 29.9744 27.0918 28.8429 26.8345C28.5404 26.7485 28.2824 26.5465 28.1231 26.2708C27.9619 25.9899 27.9168 25.6553 27.9979 25.3405C28.0789 25.0258 28.2793 24.7568 28.5551 24.5926C28.8378 24.4328 29.1695 24.3886 29.483 24.469C29.6346 24.5038 29.7872 24.5336 29.9406 24.5586C30.4494 24.6143 30.9626 24.6141 31.4713 24.5577C31.5291 24.5483 31.5867 24.5383 31.6443 24.5276C31.9582 24.4554 32.287 24.4993 32.5722 24.6513C32.8479 24.8154 33.0484 25.0844 33.1294 25.3992C33.2105 25.7139 33.1654 26.0485 33.0042 26.3294C32.845 26.6052 32.5871 26.8073 32.2846 26.8931ZM21.9337 34.3656C22.6068 34.2986 23.2798 34.2318 23.9527 34.1651C24.2693 34.1517 24.571 34.0244 24.8042 33.8058C25.2743 33.3267 25.2743 32.5502 24.8042 32.0712C24.5804 31.8381 24.2728 31.7084 23.9527 31.712L21.9337 31.9125C21.6172 31.9257 21.3155 32.053 21.0824 32.2716C20.8566 32.5016 20.7297 32.8136 20.7297 33.1389C20.7297 33.4642 20.8566 33.7762 21.0824 34.0062C21.3062 34.2392 21.6137 34.369 21.9337 34.3656ZM31.8384 41.9962C28.6701 42.1979 25.4916 42.1669 22.3277 41.9032C21.6681 41.89 21.1366 41.3485 21.1236 40.6767C21.129 40.0015 21.6649 39.4556 22.3277 39.4501C25.4916 39.7138 28.6701 39.7448 31.8384 39.5431C32.5011 39.5488 33.0369 40.0946 33.0425 40.7697C33.0278 41.4407 32.4972 41.9812 31.8384 41.9962ZM22.5208 49.1593C27.5985 49.4323 32.687 49.424 37.7639 49.1345C39.3048 49.0467 39.3147 46.5928 37.7639 46.6814C32.687 46.9709 27.5985 46.9792 22.5208 46.7062C20.9721 46.623 20.9765 49.0764 22.5208 49.1593ZM45.9036 49.0339H43.9496C43.6313 49.0289 43.3268 48.9005 43.0981 48.6748C42.6281 48.1957 42.6281 47.4193 43.0981 46.9402C43.3262 46.7136 43.6311 46.585 43.9496 46.5808H45.9036C46.222 46.5859 46.5265 46.7145 46.7551 46.9402C47.2252 47.4193 47.2252 48.1957 46.7551 48.6748C46.527 48.9013 46.2222 49.0299 45.9036 49.0339ZM51.5702 49.1497L67.5932 49.1453C68.242 49.1224 68.7563 48.58 68.7563 47.9188C68.7563 47.2575 68.242 46.7151 67.5932 46.6922L51.5702 46.6966C50.9214 46.7195 50.4071 47.2619 50.4071 47.9232C50.4071 48.5844 50.9214 49.1268 51.5702 49.1497ZM68.0481 41.9805L65.7683 42.1108C65.4489 42.1108 65.1426 41.9815 64.9168 41.7514C64.4468 41.2723 64.4468 40.4958 64.9168 40.0168C65.1466 39.7929 65.4504 39.6648 65.7683 39.6577L68.0481 39.5274C68.3675 39.5271 68.6739 39.6563 68.8997 39.8865C69.3697 40.3656 69.3697 41.1421 68.8997 41.6211C68.6699 41.8451 68.3661 41.9733 68.0481 41.9805ZM73.3251 34.105C73.9115 34.1494 74.4977 34.1937 75.0838 34.2378C75.4004 34.2245 75.7021 34.0973 75.9353 33.8786C76.4054 33.3996 76.4054 32.6231 75.9353 32.144L75.6916 31.9522C75.5072 31.8422 75.2974 31.7844 75.0838 31.7846L73.3251 31.6519C73.0085 31.6654 72.7069 31.7928 72.4738 32.0113C72.2479 32.2413 72.121 32.5533 72.121 32.8786C72.121 33.2039 72.2479 33.5159 72.4738 33.7459L72.7175 33.9377C72.9018 34.0476 73.1116 34.1054 73.3251 34.105ZM82.6393 34.437H80.9459C80.6275 34.4318 80.323 34.3033 80.0944 34.0776C79.8698 33.8467 79.7432 33.5353 79.7418 33.2104C79.7551 32.8879 79.88 32.5806 80.0944 32.343C80.3225 32.1165 80.6273 31.9879 80.9459 31.9838H82.6393C82.9577 31.9888 83.2622 32.1173 83.4908 32.343C83.7154 32.5738 83.842 32.8853 83.8434 33.2104C83.8303 33.5329 83.7054 33.8401 83.4908 34.0776C83.2627 34.3041 82.9579 34.4328 82.6393 34.437ZM73.3253 41.9638L82.1184 41.9128C82.7834 41.9128 83.3225 41.3637 83.3225 40.6862C83.3225 40.0088 82.7834 39.4597 82.1184 39.4597C79.1875 39.4769 76.2564 39.4939 73.3253 39.5107C72.6603 39.5107 72.1213 40.0599 72.1213 40.7373C72.1213 41.4147 72.6603 41.9638 73.3253 41.9638ZM74.896 49.5086L73.3318 49.2493C73.1309 49.1927 72.9478 49.084 72.8004 48.9338L72.6123 48.6856C72.4499 48.3996 72.4062 48.0594 72.4907 47.7404C72.5864 47.4382 72.782 47.1792 73.0441 47.0074C73.1779 46.9192 73.3325 46.8689 73.4917 46.8617C73.6509 46.8252 73.8167 46.8329 73.9719 46.8838L75.536 47.1431C75.737 47.1995 75.9202 47.3082 76.0675 47.4585L76.2558 47.7068C76.418 47.9929 76.4617 48.333 76.3772 48.652C76.2815 48.9542 76.0859 49.2132 75.8238 49.385C75.6899 49.4731 75.5354 49.5233 75.3761 49.5304C75.217 49.567 75.0512 49.5595 74.896 49.5086ZM79.9036 49.1666L82.1182 49.1004C82.4364 49.0947 82.7407 48.9663 82.9697 48.741C83.314 48.3902 83.4169 47.8627 83.2305 47.4044C83.0442 46.9461 82.6051 46.6473 82.1182 46.6473L79.9036 46.7135C79.5855 46.7193 79.2813 46.8477 79.0524 47.0729C78.7081 47.4237 78.6052 47.9512 78.7915 48.4094C78.9778 48.8677 79.4167 49.1665 79.9036 49.1666ZM82.7055 27.1041C77.0356 27.2846 71.3687 27.2471 65.705 26.9918C64.159 26.9221 64.1556 24.469 65.705 24.5387C71.3721 24.7939 77.0389 24.8313 82.7055 24.651C84.2583 24.6017 84.2516 27.0551 82.7055 27.1041ZM2.22575 71.8498C0.640055 70.0079 -0.153045 67.5943 0.0244929 65.1511C0.0408951 64.4807 0.570487 63.9413 1.22856 63.9246C1.89246 63.9272 2.42999 64.4748 2.43263 65.1511C2.39416 65.6583 2.3981 66.168 2.44441 66.6745C2.44667 66.6939 2.44856 66.7103 2.4501 66.7238C2.45509 66.7561 2.46026 66.7885 2.4656 66.8207C2.48647 66.9463 2.51039 67.0712 2.53736 67.1953C2.58785 67.4286 2.64838 67.6589 2.71894 67.8863C2.75177 67.9926 2.78685 68.098 2.82417 68.2025C2.83318 68.2277 2.86758 68.3245 2.89188 68.3933C2.9816 68.6153 3.08652 68.8306 3.20586 69.0376C3.32683 69.2605 3.45823 69.4767 3.60007 69.6862C3.60702 69.6964 3.62406 69.7214 3.64443 69.7513C3.67275 69.7929 3.70752 69.8439 3.73053 69.8779C3.77673 69.9385 3.82693 69.9969 3.87667 70.0546C3.89408 70.0749 3.91144 70.095 3.92854 70.1152C4.38284 70.6008 4.38284 71.3642 3.92854 71.8498C3.45698 72.3255 2.69732 72.3255 2.22575 71.8498Z" fill="url(#paint0_linear_0_2225)"/>
<defs>
<linearGradient id="paint0_linear_0_2225" x1="34.7514" y1="-31.9309" x2="-28.0442" y2="61.5069" gradientUnits="userSpaceOnUse">
<stop stop-color="#192572"/>
<stop offset="1" stop-color="#3AADE9"/>
</linearGradient>
</defs>
</svg>
