<svg width="184" height="39" viewBox="0 0 184 39" fill="none" xmlns="http://www.w3.org/2000/svg">
<path id="Shape" fill-rule="evenodd" clip-rule="evenodd" d="M176.16 15.0531C174.797 14.9343 174.393 14.1946 173.408 14.1176C172.573 14.0516 164.187 14.6885 161.148 14.9011C161.877 14.0981 162.582 13.928 162.512 12.6451C163.331 12.6679 164.156 12.6914 164.975 12.7165C165.21 12.4869 165.442 12.2581 165.679 12.0292C164.191 12.1282 162.695 12.0264 161.234 11.7266C161.929 10.681 163.757 10.5742 165.087 10.0466C165.177 10.2086 165.266 10.3697 165.355 10.5317C165.031 10.556 164.704 10.581 164.379 10.6052C166.162 11.0171 167.406 10.2559 169.783 10.4568C169.691 10.2539 169.599 10.0493 169.508 9.84301C171.141 10.0568 172.791 10.1041 174.434 9.98418C174.106 9.96656 173.774 9.94976 173.444 9.93061C173.443 9.88872 173.441 9.84686 173.439 9.80342C174.276 9.48996 173.552 9.65643 174.421 9.73068C174.502 9.72441 174.584 9.71976 174.665 9.71273C174.572 9.50896 174.48 9.30487 174.388 9.10047C170.121 9.03729 165.854 8.97456 161.588 8.91229C161.497 8.70683 161.405 8.50388 161.312 8.29762C161.309 8.25587 161.307 8.214 161.305 8.17296C162.506 8.25988 162.511 8.39598 163.253 7.77322C163.263 7.98329 163.274 8.19492 163.285 8.40665C165.12 7.92591 167.005 7.65731 168.902 7.60614C168.812 7.48769 168.726 7.36597 168.639 7.24581C166.891 7.23928 163.728 7.44512 162.216 6.70991C162.908 6.4159 163.656 6.27387 164.409 6.29343C164.649 6.19133 164.888 6.08767 165.129 5.98522C165.114 5.69183 165.099 5.39687 165.085 5.10107C161.974 4.05426 155.074 4.49492 150.301 4.55242C150.298 4.5118 150.295 4.46952 150.294 4.42732C153.551 3.97453 156.809 3.52052 160.067 3.06529C159.734 2.9656 159.4 2.86345 159.066 2.7618C161.948 2.62728 163.1 1.94984 165.441 2.2856C165.791 1.78812 165.713 2.15152 165.409 1.65456C165.568 1.60065 165.73 1.54627 165.892 1.49312C166.139 1.51578 166.385 1.54012 166.632 1.56443C166.477 1.7439 166.324 1.92417 166.169 2.1057C166.171 2.14838 166.172 2.18987 166.175 2.23288C168.646 1.83735 169.711 1.06392 172.76 1.10904C172.592 1.03707 172.425 0.964667 172.257 0.892632C169.32 -0.0230966 149.392 1.97687 142.055 1.99862C131.701 2.02912 71.8175 4.69312 59.4496 5.11118C53.7325 5.49415 48.013 5.87714 42.291 6.26014C40.5122 6.50582 31.3677 7.48874 30.0475 7.42599C26.574 7.25863 20.7172 7.15143 17.0015 7.25373C17.1009 7.58426 17.1996 7.91495 17.2976 8.24583C12.7476 8.54351 7.95203 8.62243 5.83605 10.2406C6.18316 11.7716 7.19666 12.2742 8.92376 12.9247C8.59609 12.9482 8.2673 12.9732 7.94047 12.9975C7.85943 13.0038 7.77724 13.0108 7.69867 13.0162C8.14306 13.7431 8.58938 14.4702 9.03764 15.1976C9.58952 15.6769 13.5117 16.2126 15.4841 16.2394C15.4857 16.2821 15.4888 16.3239 15.4896 16.3665C8.61685 18.531 2.40493 17.5672 0.0315505 22.0794C0.20803 22.778 0.462704 22.9 1.07523 23.2695C2.13792 23.1913 3.19952 23.1123 4.26004 23.0327C4.29666 23.7908 4.33451 24.5481 4.37358 25.3047C5.11259 25.2934 5.84957 25.2797 6.58534 25.2677C6.58775 25.3111 6.59004 25.3522 6.59202 25.3949C2.81748 27.1693 0.199215 27.9826 1.4474 30.7199C8.01298 30.9097 14.5822 31.0971 21.1549 31.2821C28.2174 31.4786 36.3329 29.5027 41.7462 29.8794C44.5414 30.074 45.078 30.5519 48.1545 30.1624C48.2413 30.2405 48.3266 30.318 48.4127 30.3962C46.5422 31.2642 42.5238 30.2936 40.566 30.853C37.943 31.6036 34.3729 31.243 31.7535 31.7624C28.7657 32.3333 25.7168 32.517 22.682 32.309C22.0102 32.2628 16.3285 33.0595 12.3886 33.0759C11.1843 34.0822 8.97165 34.6959 8.59853 36.0211C7.70387 36.1294 6.80467 36.2377 5.90879 36.3468C5.67124 36.4911 5.43039 36.6354 5.19243 36.7797C4.74149 37.2073 5.11139 37.3168 4.99776 37.8086C9.27817 39.2418 19.5024 37.6754 24.6674 37.6135C36.1776 37.477 57.3309 36.0686 69.0512 34.8209C69.0882 34.3047 69.1291 34.4747 68.7675 34.0799C68.7659 34.0365 68.764 33.9946 68.7625 33.9527C69.4632 34.1306 69.5053 34.3667 70.0266 34.6202C70.2621 34.4743 70.5029 34.3307 70.7409 34.1873C70.8305 34.3492 70.9225 34.5112 71.0105 34.6731C71.2601 34.7389 71.5115 34.8053 71.7572 34.8712C72.3047 34.6651 72.8786 34.5374 73.4619 34.4917C73.4595 34.4483 73.4579 34.4081 73.4548 34.3662C73.381 33.6989 74.2823 33.8975 75.6303 33.5686C76.0412 33.6219 76.455 33.6783 76.8691 33.7306C76.0041 34.0197 75.0895 34.1313 74.1802 34.0588C74.1861 34.1843 74.1915 34.3106 74.1989 34.437C74.9359 34.4241 75.6737 34.4121 76.4086 34.3992C76.7258 34.1214 77.0378 33.8453 77.3533 33.5692C77.9212 33.4827 125.05 32.586 125.621 32.5011C125.951 32.5622 126.285 32.6216 126.614 32.6835C125.98 33.1135 78.9462 33.9521 77.3783 34.0738C77.303 34.2475 77.2298 34.4228 77.1562 34.5964C77.9564 34.4133 125.872 33.2217 127.633 33.3673C127.622 33.1146 127.609 32.8627 127.597 32.6084C129.549 32.5888 130.638 32.0929 132.724 31.8463C132.732 32.0579 132.744 32.268 132.754 32.4797C133.007 32.3585 133.273 32.2668 133.547 32.2065C133.524 32.1935 133.5 32.1821 133.476 32.1722C133.58 32.1632 133.678 32.1575 133.779 32.15C136.633 31.4784 143.866 30.8293 148.884 30.339C148.876 30.2303 148.872 30.1217 148.867 30.013C148.948 30.0068 149.029 30.0005 149.11 29.9959C149.048 30.109 148.982 30.2221 148.915 30.3352C151.233 30.1094 153.075 29.9187 153.77 29.776C153.534 29.9187 153.294 30.0638 153.057 30.2074C153.235 30.2259 172.752 28.5546 173.617 28.1721C173.517 27.8412 173.421 27.5102 173.322 27.1792C172.313 26.7304 171.192 26.5931 170.104 26.7851C170.099 26.6595 170.093 26.5331 170.086 26.4076C173.776 26.0581 176.813 25.1616 180.329 24.6298C181.547 23.3882 181.485 23.2515 181.17 21.7797C181.739 21.6957 182.311 21.6115 182.88 21.5259C184.164 17.9205 177.091 17.472 176.16 15.0531ZM165.041 0.992772C165.139 0.983761 165.238 0.978639 165.336 0.968619C165.246 1.13041 165.154 1.29115 165.064 1.45344C165.054 1.29729 165.047 1.1456 165.041 0.992772ZM163.041 1.02944C163.141 1.01988 163.238 1.01329 163.337 1.00526C163.247 1.16646 163.153 1.32732 163.065 1.48659C163.056 1.33441 163.047 1.18075 163.041 1.02944ZM49.1802 30.1686C49.5109 30.1941 49.8489 30.2165 50.1816 30.2381C49.2182 30.2793 49.8853 30.3966 49.1802 30.1686ZM53.1837 30.332C53.2358 30.2227 53.2889 30.1154 53.3402 30.006C53.6176 30.0256 53.8974 30.0422 54.1791 30.0597C53.8446 30.1515 53.5146 30.2413 53.1837 30.332ZM65.2478 33.9023C64.9201 34.0428 64.5937 34.1833 64.2665 34.3258C64.2583 34.1228 64.2515 33.9178 64.2444 33.7138C64.5208 33.6796 64.7984 33.6474 65.0727 33.6153C65.1285 33.6602 65.186 33.7031 65.2411 33.7481C65.2436 33.8008 65.245 33.8496 65.2478 33.9023ZM67.4595 34.709C68.0711 34.9406 67.6765 34.6896 68.0723 35.1242C67.8706 34.9851 67.6646 34.8481 67.4595 34.709ZM68.2967 33.7797C68.5985 33.8615 68.9002 33.9392 69.1999 34.0189C68.3035 33.8861 68.8436 34.0534 68.2967 33.7797ZM160.751 7.35395C159.771 7.56738 160.399 7.55542 159.843 7.11625C160.144 7.19651 160.445 7.27527 160.751 7.35395ZM155.82 8.62354C156.001 8.40546 156.183 8.18743 156.36 7.96942C158.17 8.19981 159.999 8.21376 161.811 8.011C161.163 9.11237 157.316 8.58083 155.82 8.62354ZM166.392 23.6936C166.287 23.4345 166.181 23.1762 166.071 22.9187C167.456 22.8203 168.838 22.7229 170.218 22.6267C170.502 22.7848 170.792 22.9411 171.075 23.0992C169.514 23.297 167.953 23.4952 166.392 23.6936ZM172.138 23.272C172.232 23.1609 172.325 23.0519 172.419 22.9418C172.615 22.9277 172.815 22.9134 173.013 22.8993C172.491 23.2473 173.029 23.0113 172.138 23.272ZM173.046 21.3906C173.093 21.1818 173.142 20.9709 173.191 20.7601C173.359 20.7923 173.528 20.8225 173.698 20.8548C173.813 20.8919 173.926 20.9299 174.039 20.967C173.735 21.2532 173.393 21.3988 173.046 21.3906ZM169.797 7.17278C170.354 7.72274 170.777 7.27479 171.797 7.15547C171.796 7.10268 171.794 7.05391 171.79 7.00316C171.368 6.93632 170.95 6.86841 170.53 6.79954C170.206 7.34337 170.687 7.04003 169.797 7.17278ZM175.399 8.71922C175.311 8.92979 175.221 9.14139 175.135 9.35383C175.495 8.99298 175.667 9.03398 175.399 8.71922ZM133.825 32.9333C133.896 32.9273 133.967 32.9201 134.038 32.913C134.102 32.8055 134.169 32.6949 134.235 32.5863C133.968 32.6125 133.705 32.6386 133.438 32.6656C133.368 32.6865 133.301 32.711 133.238 32.7326C133.516 32.9387 133.218 32.8131 133.825 32.9333ZM135.239 32.7749C133.24 32.7219 131.239 32.6705 129.235 32.6209C130.484 33.2047 132.609 33.0514 135.239 32.7749ZM134.434 32.6326C134.369 32.6914 134.305 32.7492 134.239 32.805C134.242 32.8567 134.244 32.9075 134.246 32.9601C134.448 32.9898 134.651 33.0225 134.849 33.0532L135.238 32.7065C135.1 32.6152 134.963 32.5276 134.826 32.4382C134.694 32.5031 134.565 32.5678 134.434 32.6326ZM136.236 32.5922C136.787 33.3844 136.81 32.8468 138.025 32.8871C138.096 32.7775 138.163 32.6679 138.235 32.5582C137.714 32.5058 137.192 32.4521 136.67 32.3971C136.525 32.463 136.379 32.5281 136.236 32.5922Z" fill="url(#paint0_linear_0_2345)" fill-opacity="0.6"/>
<defs>
<linearGradient id="paint0_linear_0_2345" x1="24.194" y1="-82.8568" x2="13.0508" y2="40.3943" gradientUnits="userSpaceOnUse">
<stop stop-color="#7CC6A5"/>
<stop offset="1" stop-color="#3966CC"/>
</linearGradient>
</defs>
</svg>
