<svg width="87" height="80" viewBox="0 0 87 80" fill="none" xmlns="http://www.w3.org/2000/svg">
<path d="M46.5667 48.9213C48.5546 50.4704 51.4125 50.3373 53.2402 48.6105C54.875 47.2511 55.5892 45.0336 56.9486 43.6253C59.6544 40.8217 63.6127 39.311 65.7648 35.8196C66.2661 34.9128 65.9408 33.7815 65.0291 33.2615C64.1174 32.7416 62.9475 33.0201 62.3837 33.8913C60.7334 36.5683 57.4569 37.9967 54.9991 40.1464C53.6697 41.4249 52.5411 42.8879 51.6498 44.4882C51.3291 45.0825 50.8704 45.5955 50.3104 45.9861C50.2662 46.0107 49.8677 46.1834 50.0563 46.1139C50.0551 46.1143 49.4192 46.2491 49.7117 46.2191C49.7203 46.2184 49.0705 46.2348 49.3898 46.2182C49.2099 46.2276 49.1547 46.0699 49.3356 46.2195C48.5598 45.5004 47.3425 45.5004 46.5667 46.2195C45.8111 46.9692 45.8111 48.1716 46.5667 48.9213Z" fill="#C3DDF9"/>
<path fill-rule="evenodd" clip-rule="evenodd" d="M42.0895 7.8327C41.9332 5.82269 41.904 4.10781 42.1019 2.10146C41.9606 1.58871 42.2508 1.05613 42.7585 0.896863C47.084 -0.202109 51.6043 -0.292375 55.9702 0.633037C56.3963 0.754083 56.6914 1.14159 56.6947 1.58435C56.686 2.10791 56.6892 2.63676 56.6924 3.16726C56.6993 4.2917 56.7062 5.42355 56.5994 6.52817C56.59 7.22039 56.2235 7.85865 55.6303 8.21591C54.9371 8.46514 54.1978 8.55983 53.4641 8.49335C53.4666 8.71458 53.3942 8.92949 53.2613 9.10349C53.1244 10.4688 53.1186 11.8443 53.2442 13.211C58.742 13.9367 63.8681 15.9755 68.2583 19.0391C68.3184 18.9741 68.3881 18.9159 68.4667 18.8668C69.5305 18.0686 70.6692 17.3751 71.8666 16.7961C72.8969 16.1587 74.148 16.0048 75.2933 16.3609L77.0818 14.7074C77.472 14.3334 78.0877 14.3334 78.4778 14.7074C78.8589 15.0945 78.8589 15.7156 78.4778 16.1027L76.8625 17.5959C77.1492 18.0162 77.346 18.4983 77.432 19.0128C77.8256 21.4118 76.2136 23.2316 74.5062 24.664C77.3024 27.8905 79.5129 31.669 80.955 35.8547C85.2232 47.8288 82.2434 61.1888 73.2912 70.2164C64.3389 79.244 51.0007 82.3393 38.9855 78.1773C26.9703 74.0154 18.4075 63.3339 16.9623 50.7047C16.8113 49.4444 18.787 49.4594 18.9362 50.7047C20.4155 63.1191 29.1979 73.4361 41.22 76.8821C53.2421 80.3282 66.1591 76.2313 73.9946 66.4869C81.6765 56.7484 82.9827 43.43 77.3391 32.3855C72.0371 21.9519 61.4628 15.2414 49.7615 14.8846C38.0602 14.5277 27.0964 20.5813 21.168 30.6723C20.8838 31.1223 20.294 31.2663 19.8343 30.9977C19.3747 30.7291 19.2107 30.1448 19.4635 29.6764C25.1055 20.0949 34.9864 13.9949 45.8108 13.0468C45.8992 11.6101 45.9218 10.1701 45.8785 8.73126L43.0765 8.81934C42.5352 8.81017 42.0987 8.37376 42.0895 7.8327ZM47.7917 12.9314C47.8204 12.4454 47.8416 11.959 47.8553 11.4724C48.0147 11.5105 48.1837 11.509 48.3472 11.4639C49.3158 11.2178 50.2647 10.8996 51.186 10.5122L51.1928 10.5102C51.1642 11.3426 51.1841 12.1764 51.2524 13.0073C50.0932 12.9228 48.9384 12.8982 47.7917 12.9314ZM43.3886 2.26594C43.347 2.3223 43.0924 2.29708 42.8204 2.25123C42.9856 2.25933 43.1761 2.26399 43.3886 2.26594ZM44.0153 2.26516C43.8247 4.21237 43.8631 4.88246 44.0132 6.81662L51.9402 6.56744C52.7 6.54475 53.4598 6.52087 54.2195 6.49581C54.2391 6.49512 54.2741 6.49061 54.3161 6.48521C54.4048 6.47377 54.5246 6.45833 54.5953 6.46665C54.6001 6.37218 54.6107 6.27411 54.6213 6.17598C54.6346 6.05349 54.6479 5.9309 54.6499 5.81504C54.6616 5.11464 54.6677 4.6133 54.6738 4.11329V4.113L54.6738 4.1118L54.6739 4.11112L54.6739 4.10819C54.68 3.60676 54.6862 3.10599 54.6979 2.40646C52.336 2.07058 48.8157 2.15674 46.0963 2.22329C45.3228 2.24222 44.6141 2.25956 44.0153 2.26516ZM55.069 2.46445C54.9483 2.50565 54.8277 2.54552 54.7119 2.40845C54.8342 2.42596 54.9533 2.44461 55.069 2.46445ZM43.6486 6.82808C43.7353 6.7952 43.8228 6.77852 43.913 6.81977L43.6486 6.82808ZM43.4048 2.23769C43.3742 2.22985 43.3466 2.21482 43.3236 2.19014C43.2485 2.1098 43.255 1.8215 43.2615 1.52901L43.2634 1.44124C43.377 1.73799 43.4877 2.06404 43.4048 2.23769ZM69.8951 20.2558C71.0589 21.1762 72.1626 22.1726 73.1984 23.2388C73.9548 22.6324 74.6108 21.9083 75.1406 21.0931C75.3949 20.6495 75.5271 20.1465 75.5238 19.6352C75.5217 19.55 75.5161 19.4651 75.507 19.3805C75.5157 19.4677 75.5096 19.4503 75.4887 19.3282C75.4781 19.2928 75.4685 19.2573 75.4589 19.2218L75.4589 19.2217L75.4589 19.2217L75.4589 19.2216L75.4588 19.2215L75.4588 19.2215L75.4588 19.2214L75.4588 19.2213L75.4587 19.2213C75.4406 19.154 75.4225 19.0868 75.3979 19.0209C75.4333 19.0901 75.4245 19.0703 75.3716 18.9613C75.34 18.8976 75.3059 18.8351 75.2693 18.7737C75.2671 18.7699 75.2608 18.7605 75.2524 18.7479L75.2312 18.7165L75.231 18.7161C75.1849 18.648 75.1216 18.5543 75.1781 18.6265C75.0602 18.4698 74.9116 18.3389 74.7413 18.2415C74.6332 18.1903 74.6177 18.1787 74.6949 18.2068C74.6462 18.1875 74.5964 18.1708 74.5459 18.1568C74.4511 18.128 74.353 18.1115 74.2539 18.1075C73.6971 18.1331 73.1558 18.2988 72.6801 18.5892C71.7097 19.0718 70.7786 19.629 69.8951 20.2558ZM69.8561 65.105C64.2982 72.342 54.3129 74.2977 45.6711 73.2834C37.0452 72.2709 28.829 67.6846 25.2753 59.5331C25.2455 59.4962 25.218 59.4568 25.1931 59.4149C23.9294 56.6274 23.0454 53.683 22.5648 50.6605C22.4335 50.1369 22.737 49.6026 23.2541 49.4469C23.7792 49.3061 24.3201 49.6131 24.4681 50.136C24.8856 52.864 25.6494 55.5271 26.7408 58.0609C26.8045 58.1405 26.8589 58.2333 26.9012 58.3403C30.525 67.5065 40.5644 71.5693 49.8454 71.5444C53.9546 71.6223 58.0301 70.7905 61.7798 69.1086C65.4686 67.3253 68.4662 64.3759 70.3086 60.7173C72.3567 56.6993 73.7174 52.3669 74.3343 47.8997C75.0506 43.3962 74.2528 38.7824 72.0658 34.7806C67.8797 27.1116 60.3267 21.8595 51.6779 20.6037C43.1535 19.6499 34.7346 23.1282 29.371 29.8196C28.572 30.8077 27.1837 29.4031 27.9752 28.4241C34.7151 20.1444 45.7125 16.6282 56.0079 19.4614C64.901 22.0945 72.0643 28.7106 75.3923 37.3648C76.8784 42.1462 76.9203 47.2596 75.5125 52.0647C74.5344 56.7509 72.6096 61.1883 69.8561 65.105ZM64.6237 33.156C65.5562 32.2783 64.1756 30.93 63.2277 31.7607L50.6233 42.8086C49.9783 42.3927 49.5427 42.1283 48.7947 42.3986C47.4216 42.4512 46.2323 43.3671 45.8314 44.6809C45.4722 46.0331 45.9823 47.4668 47.1148 48.2886C48.2429 49.078 49.7242 49.1501 50.9236 48.4739C51.5646 48.1168 52.0424 47.5253 52.2566 46.8237C52.4527 45.9445 52.3279 45.0468 51.9385 44.2758C53.2468 43.1345 54.5665 42.005 55.8862 40.8754L55.8867 40.875L55.8868 40.875L55.8869 40.8749L55.887 40.8748L55.887 40.8747L55.8871 40.8747L55.8872 40.8746L55.8873 40.8745L55.8874 40.8745L55.8874 40.8744L55.8875 40.8743L55.8876 40.8743L55.8877 40.8742L55.8878 40.8741L55.8878 40.8741L55.8879 40.874L55.888 40.8739L55.8881 40.8739C58.8426 38.3451 61.7971 35.8164 64.6237 33.156ZM48.3504 43.4369C48.3504 43.1822 48.3932 42.9352 48.546 42.7477C48.4723 42.9185 48.4115 43.1375 48.4013 43.3726C48.3903 43.6255 48.43 43.8934 48.502 44.1063C48.4751 44.0857 48.4495 44.0638 48.4261 44.0405C48.3118 43.9267 48.3261 43.7659 48.3406 43.6022C48.3455 43.5468 48.3504 43.4912 48.3504 43.4369ZM48.6107 44.397C48.6211 44.3943 48.6316 44.3919 48.6421 44.3895L48.0072 46.4524L48.0023 46.4497C47.9968 46.4295 47.989 46.4128 47.9809 46.3997C47.9601 46.3613 47.9303 46.3211 47.9015 46.2822L47.9014 46.2821L47.9014 46.2821C47.8738 46.245 47.8473 46.2092 47.8308 46.1778C47.826 46.1688 47.7964 46.1175 47.7784 46.0863L47.7782 46.0858L47.7779 46.0854C47.7603 46.0547 47.7543 46.0444 47.7957 46.1155C47.8472 46.2041 47.8266 46.1611 47.8032 46.1122L47.8032 46.1121C47.7905 46.0856 47.777 46.0574 47.7737 46.0476C47.7456 45.9638 47.7221 45.8786 47.7033 45.7923L47.6907 45.7302C47.6889 45.7074 47.6874 45.6845 47.6863 45.6616C47.6968 45.5622 47.7001 45.4621 47.696 45.3622L47.6964 45.3604C47.7081 45.3084 47.7196 45.2568 47.7349 45.2054C47.7385 45.193 47.7425 45.1807 47.7466 45.1684L47.7571 45.1375L47.7593 45.1311C47.7649 45.115 47.7704 45.0988 47.7755 45.0825C47.7952 45.054 47.8116 45.0248 47.8278 44.9959C47.8382 44.9774 47.8485 44.9589 47.8596 44.941L47.8675 44.9274L47.8786 44.9073L47.9005 44.8675L47.9007 44.8671C47.9301 44.8133 47.9561 44.7657 47.9111 44.8548C47.87 44.936 47.8872 44.9095 47.9126 44.8704L47.9127 44.8702L47.9128 44.8702C47.9288 44.8455 47.948 44.8159 47.9579 44.805C48.0015 44.7571 48.0471 44.7111 48.0947 44.6671C48.1222 44.647 48.1483 44.625 48.1728 44.6013L48.1877 44.5914L48.2009 44.5828C48.238 44.5586 48.2811 44.5381 48.3243 44.5175L48.3245 44.5174L48.3246 44.5174L48.3247 44.5174L48.3553 44.5027C48.3664 44.4973 48.3774 44.4919 48.3882 44.4863C48.4035 44.4816 48.4291 44.4683 48.4646 44.4414L48.4985 44.4306C48.5356 44.4186 48.5727 44.4067 48.6107 44.397ZM48.4634 44.4418C48.4702 44.437 48.4768 44.432 48.4832 44.4268C48.4767 44.432 48.4705 44.4369 48.4646 44.4414L48.4634 44.4418ZM48.4634 44.4418L48.4498 44.446L48.4261 44.4532C48.3684 44.4703 48.3569 44.496 48.3882 44.4863C48.4148 44.4726 48.4404 44.4581 48.4634 44.4418ZM47.9809 46.3997C47.9901 46.4168 47.9975 46.4336 48.0022 46.4496L47.9731 46.417C47.9151 46.3527 47.9505 46.3511 47.9809 46.3997ZM48.9107 46.9506L48.0072 46.4524L48.0066 46.4545L48.0024 46.4498L48.0049 46.46L48.0066 46.4545C48.0247 46.475 48.043 46.4954 48.0619 46.5153C48.1002 46.5551 48.1399 46.5934 48.1812 46.6305C48.1953 46.6436 48.2096 46.6564 48.2243 46.6689C48.2348 46.6779 48.2455 46.6869 48.2564 46.6956L48.167 46.6266C48.1948 46.6747 48.2781 46.7151 48.3447 46.7474L48.3448 46.7474C48.3661 46.7578 48.3858 46.7673 48.4013 46.7759C48.4572 46.8181 48.5202 46.8498 48.5874 46.8697C48.4578 46.8165 48.4437 46.8093 48.5452 46.848L48.5781 46.859C48.677 46.8927 48.7779 46.9204 48.8801 46.9419L48.8958 46.9466L48.9107 46.9506ZM50.0266 44.8821C50.0432 44.9105 50.0599 44.9385 50.0767 44.9665C50.1221 45.0423 50.1673 45.1178 50.2063 45.1987L50.2215 45.2305L50.2332 45.2566C50.2408 45.278 50.2471 45.3 50.2521 45.3222C50.2821 45.4114 50.3079 45.502 50.3302 45.5934C50.3444 45.6516 50.3571 45.7104 50.3681 45.7694C50.3706 45.7823 50.3744 45.796 50.3788 45.8092C50.4009 45.9302 50.402 46.0542 50.3819 46.1757L50.381 46.2131C50.3732 46.2557 50.3599 46.2973 50.3415 46.3367L50.3327 46.3656C50.3182 46.3936 50.3026 46.4211 50.2858 46.448C50.2758 46.4668 50.2649 46.4852 50.2532 46.503L50.2444 46.5115C50.2265 46.5289 50.2093 46.5469 50.1921 46.5649C50.1713 46.5867 50.1505 46.6085 50.1285 46.6291C50.1153 46.6419 50.1019 46.6543 50.0882 46.6664L50.0824 46.6703C50.0126 46.7166 49.9433 46.7626 49.8691 46.8026L49.7779 46.8483L49.7659 46.8525C49.6671 46.8874 49.5663 46.9161 49.4641 46.9385C49.449 46.9432 49.4338 46.9473 49.4184 46.9508L49.3815 46.9545L49.3119 46.9593C49.2072 46.9649 49.1024 46.9644 48.9978 46.9577L48.9629 46.9555L48.9278 46.9521L48.9107 46.9506L48.6421 44.3895C48.7141 44.485 48.7973 44.5336 48.8853 44.5102L48.9006 44.5038L48.9007 44.5037L48.9008 44.5037L48.9011 44.5036L48.9013 44.5035C48.9427 44.4859 49.0418 44.4438 49.1187 44.4202L49.1614 44.4204L49.1996 44.4209H49.1997C49.2135 44.4212 49.2275 44.4214 49.2415 44.4214L49.267 44.4213L49.2823 44.4209L49.3006 44.42L49.3149 44.419L49.3418 44.4246C49.3675 44.4298 49.3931 44.4349 49.4184 44.4416C49.4252 44.4433 49.4362 44.4454 49.4494 44.448C49.4695 44.452 49.4949 44.457 49.5184 44.463C49.5491 44.4774 49.5794 44.4926 49.6091 44.5086C49.696 44.5459 49.7764 44.5968 49.8472 44.6594C49.8707 44.6941 49.901 44.7271 49.9318 44.7607L49.9566 44.7879C49.9639 44.7985 49.9715 44.8088 49.9794 44.819C49.9616 44.8094 49.9676 44.8435 50.0266 44.8821ZM50.0141 44.8605C50.0246 44.8721 50.0355 44.8833 50.0468 44.8942C50.0395 44.8902 50.0328 44.8861 50.0266 44.8821L50.016 44.8636L50.0141 44.8605ZM50.0141 44.8605C49.9996 44.8359 49.9872 44.8232 49.9794 44.819C49.9904 44.8333 50.002 44.8471 50.0141 44.8605ZM49.0173 46.9667C48.9897 46.9653 48.9622 46.9617 48.9351 46.9562C48.9555 46.9589 48.9829 46.9624 49.0173 46.9667ZM49.2173 44.4084C49.2203 44.4115 49.1722 44.414 49.1329 44.416C49.1749 44.4039 49.2079 44.3988 49.2173 44.4084ZM49.587 44.4933L49.5202 44.4634C49.5523 44.4717 49.5806 44.4817 49.587 44.4933ZM50.2045 45.1894C50.2136 45.2075 50.2218 45.226 50.2289 45.2449L50.2045 45.1894ZM50.2138 46.5577C50.2127 46.5577 50.2173 46.552 50.2247 46.5435L50.2138 46.5577ZM49.3271 46.9646L49.387 46.9571C49.3672 46.9606 49.3472 46.9631 49.3271 46.9646ZM47.6964 45.7932C47.695 45.7802 47.6938 45.7672 47.6926 45.7542L47.6964 45.7932ZM14.5082 35.7179L34.7902 36.1588C35.322 36.1403 35.7436 35.7041 35.7436 35.1721C35.7436 34.6402 35.322 34.2039 34.7902 34.1855L14.5082 33.7447C13.9764 33.7631 13.5549 34.1994 13.5549 34.7313C13.5549 35.2632 13.9764 35.6995 14.5082 35.7179ZM17.6119 41.659C12.3895 41.8441 7.16088 41.7502 1.94847 41.3777C0.686708 41.2875 0.680983 39.3138 1.94847 39.4044C7.16088 39.7769 12.3895 39.8709 17.6119 39.6858C18.8845 39.6408 18.8784 41.6143 17.6119 41.659ZM22.6661 41.7632L29.6675 41.8195C30.2126 41.8195 30.6545 41.3777 30.6545 40.8328C30.6545 40.2879 30.2126 39.8462 29.6675 39.8462L22.6661 39.79C22.121 39.79 21.6791 40.2317 21.6791 40.7766C21.6791 41.3215 22.121 41.7632 22.6661 41.7632ZM25.5518 48.1996L5.55866 47.8289C5.02687 47.8105 4.60528 47.3742 4.60528 46.8422C4.60528 46.3103 5.02687 45.874 5.55866 45.8556L25.5518 46.2264C26.0836 46.2448 26.5052 46.6811 26.5052 47.213C26.5052 47.7449 26.0836 48.1812 25.5518 48.1996ZM33.0596 47.9106C32.1578 47.8736 31.2545 47.9104 30.3589 48.0207C30.1882 48.0667 30.0084 48.0663 29.8379 48.0197L29.6022 47.9202C29.3761 47.7882 29.2118 47.5718 29.1454 47.3186C29.0789 47.0654 29.1159 46.7963 29.248 46.5703C29.3777 46.3478 29.5895 46.185 29.8379 46.1169C30.9042 45.9604 31.9825 45.9003 33.0596 45.9373C33.6 45.9484 34.0355 46.3837 34.0466 46.9239C34.0427 47.4672 33.6031 47.9067 33.0596 47.9106ZM38.5697 9.13802C37.8782 7.18973 38.0079 5.04426 38.929 3.19335C39.1065 2.88807 39.4337 2.70087 39.7869 2.70247C40.1401 2.70407 40.4656 2.89423 40.6403 3.20111C40.8151 3.508 40.8125 3.88483 40.6335 4.18926C40.6298 4.19685 40.6194 4.21928 40.6066 4.24727L40.6006 4.26029C40.5613 4.34569 40.5059 4.46608 40.5344 4.39558C40.4963 4.48904 40.4613 4.58374 40.428 4.67903C40.3608 4.87201 40.3028 5.06756 40.2541 5.26568C40.2085 5.45045 40.1724 5.63677 40.1423 5.82446C40.1567 5.73458 40.1472 5.80966 40.1373 5.88773L40.1372 5.88788C40.1315 5.93311 40.1256 5.97931 40.1242 5.995C40.115 6.09675 40.1082 6.19864 40.1039 6.30066C40.0949 6.50482 40.0954 6.70893 40.1053 6.91296C40.1097 7.00291 40.1173 7.09251 40.1249 7.18212L40.1315 7.26184C40.1333 7.284 40.1346 7.30153 40.1355 7.31516L40.1408 7.34669C40.2109 7.77861 40.3222 8.20282 40.4732 8.61352C40.6156 9.13805 40.3069 9.6789 39.7827 9.82332C39.2586 9.96774 38.7163 9.66137 38.5697 9.13802ZM79.6251 21.0903L78.8712 21.8441C78.5005 22.2354 78.5005 22.8481 78.8712 23.2394L79.0708 23.3937C79.2219 23.4822 79.3939 23.5287 79.569 23.5285L79.8314 23.4931C79.9961 23.4477 80.1463 23.3603 80.267 23.2394L81.0209 22.4856C81.3916 22.0943 81.3916 21.4816 81.0209 21.0903L80.8213 20.936C80.6702 20.8475 80.4982 20.8011 80.3231 20.8014L80.0608 20.8365C79.896 20.882 79.7459 20.9694 79.6251 21.0903ZM83.274 52.4394C83.9701 49.5331 84.187 46.5327 83.9161 43.5565C83.9202 43.0134 84.3597 42.574 84.9031 42.5699C85.4424 42.5837 85.8763 43.0175 85.8901 43.5565C86.1646 46.7103 85.924 49.8877 85.1775 52.9641C84.8796 54.2 82.9767 53.6735 83.274 52.4394Z" fill="url(#paint0_linear_0_2321)"/>
<defs>
<linearGradient id="paint0_linear_0_2321" x1="31.1415" y1="-31.3627" x2="-30.5773" y2="52.2731" gradientUnits="userSpaceOnUse">
<stop stop-color="#192572"/>
<stop offset="1" stop-color="#3AADE9"/>
</linearGradient>
</defs>
</svg>
