<svg width="84" height="81" viewBox="0 0 84 81" fill="none" xmlns="http://www.w3.org/2000/svg">
<path d="M38.148 26.3759C34.9327 26.0211 31.6921 25.9172 28.4588 26.0653C25.2745 26.0967 22.1067 26.5038 19.0286 27.2771C17.3632 27.6547 15.8923 28.5776 14.8756 29.8828C14.2645 31.0388 13.9463 32.3137 13.9463 33.6065L13.0084 42.6212C12.7619 44.9915 18.7079 43.9935 18.9176 41.9773C19.1836 39.42 19.4496 36.8626 19.7157 34.3051C19.8318 33.1898 19.8755 32.0406 20.1052 30.9399C20.1438 30.7542 20.3799 30.1755 20.3759 30.093C20.3779 30.1356 20.0128 30.2558 20.0244 30.2356C20.0435 30.2023 20.8872 30.0302 20.5278 30.1057C22.919 29.6689 25.3441 29.4194 27.7785 29.3598C30.4938 29.2872 33.2111 29.4092 35.907 29.7247C37.3958 29.8588 38.8554 29.2711 39.7865 28.1626C40.5435 26.9737 39.1289 26.4868 38.148 26.3759Z" fill="#C3DDF9"/>
<path d="M49.7292 30.8324C48.4256 31.5554 47.4554 32.9192 47.0752 34.5632C46.8284 36.0057 47.2057 37.4989 48.081 38.5439C48.4925 38.8822 48.9906 39.0404 49.4898 38.9912C50.2034 38.9818 50.9087 38.8092 51.5671 38.4829C52.1274 38.2659 52.6262 37.8697 53.0084 37.3382C53.216 36.9642 53.3428 36.5507 53.0326 36.1776C52.8737 35.9864 52.7321 35.7761 52.6099 35.5502L52.7886 35.8912C52.4709 35.2777 52.3078 34.5696 52.3184 33.8501L52.3076 34.2512C52.3273 33.7045 52.4507 33.17 52.6687 32.6876L52.4766 33.106C52.628 32.7839 52.8167 32.4884 53.037 32.2279L52.686 32.642C52.8241 32.4855 52.9731 32.3429 53.1314 32.2157L52.6436 32.6045C52.7441 32.5278 52.8478 32.4571 52.9542 32.3928C53.4094 32.1435 53.775 31.7106 53.9855 31.1716C54.0635 30.7333 53.8395 30.299 53.4745 30.1809C52.2028 29.7961 50.8538 30.0307 49.7292 30.8324Z" fill="#C3DDF9"/>
<path d="M35.1179 49.6099C31.8055 49.2099 28.4736 49.0065 25.1386 49.0007C23.5936 48.9942 22.0491 49.0321 20.5053 49.1144C18.7435 49.086 17.0135 49.5993 15.5358 50.5886C14.3205 51.507 13.5431 52.9166 13.3993 54.463C13.3573 55.7944 13.4104 57.1271 13.5582 58.4504C13.7026 61.7058 13.5237 64.9679 13.0243 68.1858C12.588 71.0508 18.4055 70.2459 18.7943 67.6947C19.2168 64.9539 19.4101 62.1807 19.3718 59.4058C19.3494 57.9571 19.2005 56.5198 19.1404 55.0744C19.1229 54.6619 19.1376 54.2486 19.1844 53.8385C19.2056 53.6565 19.2789 53.2971 19.2946 53.219C19.3582 52.9037 19.4847 53.1006 19.2472 53.1662C19.093 53.2086 18.913 53.3227 18.7543 53.382C19.36 53.1554 18.4534 53.3611 19.055 53.326C19.7123 53.2876 20.3688 53.2413 21.0269 53.2145C22.2567 53.1642 23.5827 53.138 24.7507 53.1548C27.544 53.2017 30.3331 53.3994 33.1063 53.7472C34.5761 53.9522 36.028 53.2611 36.8297 51.9747C37.4484 50.656 36.2785 49.7528 35.1179 49.6099Z" fill="#C3DDF9"/>
<path fill-rule="evenodd" clip-rule="evenodd" d="M75.6307 3.73602C76.6981 3.27158 77.8471 3.02493 79.0107 3.01045C79.3229 3.00764 79.6348 3.02016 79.9465 3.04802C79.9723 3.05035 79.998 3.05279 80.0237 3.05534C79.7926 3.29563 79.5878 3.56038 79.4129 3.84513C79.0645 4.56133 79.1824 5.41764 79.7113 6.01241C79.8998 6.23794 80.1168 6.43793 80.3568 6.60738C80.4298 6.6619 80.5045 6.71427 80.5792 6.76665L80.5793 6.7667C80.6166 6.79287 80.6539 6.81905 80.691 6.84549C80.7473 6.88487 80.8029 6.92506 80.8578 6.96605C80.7898 6.91615 80.7987 6.92681 80.8842 6.99803C80.5635 7.23888 80.4046 7.65944 80.5149 8.07039C80.6735 8.59628 81.2156 8.90501 81.7474 8.77225C82.3416 8.64058 82.8069 8.17735 82.9426 7.58252C83.0989 6.9542 82.937 6.28898 82.5097 5.80344C82.3206 5.58683 82.1055 5.39461 81.8692 5.23118C81.7982 5.17799 81.7255 5.12689 81.6529 5.07583L81.6181 5.05134C81.5994 5.0381 81.5804 5.025 81.5615 5.01188C81.5301 4.99015 81.4986 4.96838 81.468 4.94586C81.4507 4.93239 81.4244 4.91152 81.4109 4.89883C81.3596 4.85081 81.3093 4.80339 81.261 4.75215C81.2558 4.74673 81.2429 4.72934 81.2303 4.7118C81.9938 4.04175 82.6375 3.07379 82.0828 2.06063C81.5145 1.0224 80.0363 0.991457 79.0107 1.0011C77.6674 1.01177 76.3388 1.2825 75.098 1.79841C74.5761 1.96068 74.2697 2.50163 74.3982 3.03416C74.548 3.567 75.0975 3.87988 75.6307 3.73602ZM81.1925 4.65781C81.1937 4.65975 81.1949 4.66231 81.1961 4.66538C81.1926 4.66075 81.1896 4.65707 81.1871 4.65428C81.1884 4.65283 81.1904 4.65426 81.1925 4.65781ZM33.0254 5.27619L19.5854 5.06541L12.6164 4.9563C10.8286 4.74216 9.01739 4.8406 7.26321 5.24725C4.23448 6.32723 4.40429 9.93191 4.53933 12.7986L4.53933 12.7986C4.56323 13.306 4.58604 13.7902 4.58983 14.2333L4.70707 27.9402C4.78404 36.9119 4.86086 45.8837 4.93753 54.8554C4.97681 59.4243 5.01596 63.9932 5.05497 68.5622C5.0588 69.0108 5.03897 69.5224 5.01778 70.0692C4.9049 72.9813 4.75325 76.8939 7.92955 77.6344C8.98273 77.7995 10.0514 77.8421 11.1144 77.7612L15.0843 77.7365L22.5279 77.69C27.6557 77.6583 32.7836 77.6264 37.9114 77.5944H37.9116C44.5782 77.6356 51.2449 77.6697 57.9116 77.6969C61.287 77.7131 64.6624 77.7303 68.0378 77.7483C68.4683 77.7507 68.9403 77.7753 69.4338 77.801L69.4356 77.8011L69.4359 77.8011H69.436C71.9441 77.9319 75.007 78.0916 75.9986 75.5139C76.4526 73.7332 76.5949 71.887 76.419 70.0575L76.4745 63.5778L76.5876 50.3695C76.6631 41.5638 76.7385 32.7582 76.8138 23.9527L76.878 16.4763C76.8842 15.748 76.9053 15.0142 76.9265 14.2785V14.2783V14.2781V14.2778V14.2776V14.2774V14.2772V14.2769V14.2767V14.2764V14.2762C76.9733 12.6509 77.0203 11.0163 76.9082 9.41062C76.9769 7.88717 76.2254 6.44382 74.9395 5.62943C73.4557 5.14056 71.8782 5.00773 70.3338 5.24163C70.0591 5.25133 69.8135 5.37117 69.6384 5.55793C69.4539 5.63019 69.2913 5.78229 69.1835 6.03391C66.1632 13.0849 63.1452 20.1376 60.2948 27.2597C59.8411 26.6943 59.3021 26.1919 58.6888 25.7733C57.4623 25.0025 56.1325 24.4233 54.7451 24.0502L65.7606 6.81716C66.234 6.0767 65.5889 5.37441 64.9081 5.33794C64.7987 5.29172 64.6794 5.26434 64.554 5.25991C55.9581 5.48335 47.3622 5.42408 38.7664 5.08208C38.1149 5.05611 37.7931 5.55582 37.8 6.06346C37.6989 6.30934 37.6959 6.60095 37.8537 6.90155L47.3262 24.9465C45.6885 25.8914 44.316 27.2759 43.3842 28.9744L34.694 6.31582C34.5229 5.86991 34.1457 5.66275 33.7641 5.64115C33.5875 5.4266 33.3235 5.28654 33.0254 5.27619ZM40.2455 7.14751C47.8505 7.42149 55.4587 7.47399 63.0701 7.30501L52.6245 23.6468C52.4665 23.6288 52.3081 23.6134 52.1493 23.6007C52.0474 23.5745 51.9328 23.5654 51.8054 23.5771C51.7007 23.5702 51.6845 23.5719 51.7237 23.5832C50.8356 23.6525 49.9731 23.8338 49.1525 24.1154L40.2455 7.14751ZM70.8616 7.17035C67.731 14.479 64.6054 21.7905 61.674 29.1824C61.6319 29.2886 61.5781 29.3811 61.5154 29.4607C61.7784 30.2122 61.9226 31.0104 61.9331 31.8277C62.1657 34.0467 61.8365 36.2886 60.976 38.3462C59.9838 40.1954 58.3842 41.6435 56.4485 42.4449C54.4509 43.5228 52.1968 44.0308 49.9314 43.9137C47.7934 43.6007 45.8594 42.4696 44.5353 40.7576C42.3304 38.1243 41.5746 34.6026 42.439 31.3382C42.2251 31.2322 42.0422 31.0484 41.9371 30.7744C38.934 22.9443 35.931 15.1142 32.9281 7.28401L19.0876 7.06692L12.1186 6.95781C11.8516 6.95361 11.5473 6.93416 11.2221 6.91336C9.58539 6.80869 7.4173 6.67003 6.78885 8.27172C6.54766 9.15744 6.47211 10.0803 6.56601 10.9936L6.59168 13.9841L6.62958 18.4215C15.5992 18.7063 24.5707 18.8521 33.544 18.8588C34.0839 18.8775 34.5119 19.3218 34.5119 19.8634C34.5119 20.4051 34.0839 20.8494 33.544 20.8681C24.5757 20.8614 15.6099 20.7159 6.64676 20.4314L6.74958 32.4261L6.9588 56.8491C6.9942 61.0025 7.02974 65.1561 7.06541 69.3099C7.06877 69.6993 7.07053 70.0888 7.07229 70.4784C7.07578 71.252 7.07928 72.0257 7.09527 72.7989C7.0209 73.5667 7.1491 74.3406 7.46702 75.0431C7.9664 75.8124 8.91177 75.7874 9.75155 75.7652C9.87797 75.7618 10.002 75.7585 10.1218 75.758C10.796 75.7552 11.4702 75.7505 12.1444 75.7459C12.4627 75.7437 12.781 75.7416 13.0993 75.7396L37.9116 75.585L37.9119 75.585C44.8457 75.6226 51.7796 75.6581 58.7134 75.6915C61.7628 75.7058 64.8123 75.7213 67.8618 75.738C68.3201 75.7404 68.7785 75.7447 69.2369 75.749H69.2371L69.2385 75.7491C70.1128 75.7572 70.9872 75.7654 71.8613 75.7611C72.8657 75.7562 73.7817 75.7241 74.1819 74.6559C74.3853 73.8885 74.4576 73.092 74.3958 72.3004C74.4522 66.9839 74.4941 61.6673 74.5361 56.3506C74.557 53.6923 74.578 51.034 74.6008 48.3757L74.8056 24.4512L74.8395 20.4939L69.6374 20.5717C69.084 20.5717 68.6354 20.1219 68.6354 19.5671C68.6354 19.0122 69.084 18.5624 69.6374 18.5624L74.8567 18.4843L74.908 12.4887C74.91 12.2582 74.9287 11.9687 74.9497 11.6448L74.9497 11.6446V11.6445C75.0442 10.1853 75.184 8.02777 74.0391 7.41152C73.004 7.12435 71.9246 7.04309 70.8616 7.17035ZM52.6453 25.1635C52.6257 25.1478 52.6066 25.1314 52.5881 25.1145C52.5346 25.1996 52.469 25.2776 52.3913 25.3448C52.4258 25.3293 52.4591 25.3128 52.4907 25.2952C52.5573 25.2579 52.6076 25.213 52.6453 25.1635ZM51.8054 25.5865C48.506 25.8722 45.6772 28.0641 44.5693 31.1933C43.4615 34.3224 44.2788 37.812 46.66 40.1197C47.9143 41.4321 49.6991 42.096 51.5035 41.9215C53.3009 41.6792 55.0279 41.0631 56.5739 40.1126C58.106 39.275 59.2197 37.834 59.6461 36.1373C60.0572 34.422 60.1182 32.641 59.8255 30.9014C59.1856 27.2988 55.0639 25.8009 51.8054 25.5865ZM54.6677 32.6083C54.759 32.8631 54.8287 33.1252 54.8761 33.3918C54.906 33.7114 54.8956 34.0335 54.8451 34.3504C54.7259 34.9913 54.4237 35.5836 53.9751 36.0556C53.0236 36.9875 51.5859 37.2087 50.3995 36.6057C49.2131 36.0027 48.5411 34.7094 48.7282 33.389C48.7195 33.471 48.7252 33.4268 48.7311 33.3808L48.7311 33.3808L48.7311 33.3806C48.7345 33.3547 48.7379 33.3284 48.7388 33.3237C48.7642 33.1951 48.7935 33.0681 48.8308 32.9423C48.8665 32.7906 48.9235 32.6448 48.9999 32.5091C49.1581 32.1824 49.3739 31.887 49.6368 31.6372C50.1445 31.1374 50.8014 30.8178 51.5072 30.7274C51.5291 30.7268 51.5513 30.7254 51.5737 30.7233C52.8915 30.6581 54.1175 31.404 54.6677 32.6083ZM52.7563 29.8673C52.7577 30.0091 52.6426 30.1342 52.4801 30.2419C52.6093 30.1001 52.7043 29.9377 52.7405 29.7693C52.7514 29.802 52.757 29.8347 52.7563 29.8673ZM51.841 29.0253C52.0316 29.1352 52.257 29.267 52.4364 29.4086C52.4128 29.4023 52.3888 29.3963 52.3647 29.3902C52.2359 29.3578 52.1053 29.325 52.0251 29.2633C51.9374 29.1959 51.885 29.1094 51.841 29.0253ZM46.8966 32.411C47.4951 30.3256 49.3404 28.8459 51.5004 28.7184C51.514 28.7167 51.5301 28.7156 51.549 28.7152C53.8368 28.6002 55.921 30.0268 56.6475 32.2048C57.374 34.3829 56.5651 36.7796 54.6687 38.0677C52.8955 39.241 50.5882 39.2127 48.8442 37.9962C47.0783 36.7378 46.2974 34.4985 46.8966 32.411ZM16.1914 48.658C15.0028 48.629 13.8491 49.0622 12.9719 49.8668C12.1982 50.899 11.826 52.1784 11.925 53.4658C11.7586 56.6283 11.6081 59.796 11.649 62.9637C11.6685 64.4695 11.726 65.9771 11.8583 67.4775C11.9599 68.6289 12.1258 69.8275 13.3368 70.3071C14.6188 70.617 15.9423 70.7175 17.2563 70.6047C18.8938 70.6563 20.5314 70.7002 22.1692 70.7363C23.0434 70.7556 23.9237 70.787 24.8068 70.8185C27.1623 70.9026 29.5371 70.9873 31.8657 70.8444C34.5108 70.682 35.6914 68.9502 36.0611 66.4751C36.4714 63.4776 36.685 60.4563 36.7004 57.4308C36.7076 57.0106 36.7194 56.588 36.7312 56.1642C36.767 54.8767 36.8031 53.5781 36.714 52.3041C36.7337 51.0061 36.0285 49.8059 34.8866 49.1941C33.5028 48.6673 32.0147 48.4753 30.543 48.6339C29.8292 48.6561 29.1176 48.7062 28.406 48.7563L28.4059 48.7563L28.4057 48.7563C27.4624 48.8227 26.5192 48.8891 25.5714 48.8905C24.5807 48.8633 23.5833 48.8163 22.5835 48.7691H22.5835H22.5834H22.5833H22.5832H22.5831H22.583H22.5829H22.5828H22.5827H22.5826H22.5825H22.5824H22.5823H22.5822H22.5821H22.582H22.582H22.5819H22.5818H22.5817H22.5817H22.5816H22.5815H22.5815H22.5814H22.5813H22.5813H22.5812H22.5811H22.5811H22.581H22.5809H22.5809H22.5808H22.5808H22.5807H22.5806H22.5806H22.5805H22.5804H22.5804H22.5803H22.5803H22.5802H22.5801H22.5801C20.4472 48.6684 18.3036 48.5673 16.1914 48.658ZM24.2685 49.9874C24.2685 49.8455 24.3433 49.6771 24.4772 49.5215C24.3745 49.6675 24.3116 49.8272 24.3116 49.9874C24.3116 50.0173 24.3112 50.0453 24.3109 50.0717C24.3086 50.252 24.3073 50.3596 24.4243 50.5089C24.5748 50.7008 25.0795 50.8419 25.4151 50.8859C25.1831 50.8678 24.8299 50.8196 24.5921 50.689C24.3395 50.5504 24.2685 50.1811 24.2685 49.9874ZM22.7787 50.8197L22.7798 50.8198L22.7809 50.8198L22.782 50.8198L22.7831 50.8199L22.7842 50.8199L22.7853 50.8199L22.7864 50.82L22.7875 50.82L22.7886 50.82L22.7897 50.8201L22.7908 50.8201L22.7919 50.8201L22.793 50.8202L22.7941 50.8202L22.7952 50.8202L22.7963 50.8203L22.7975 50.8203L22.7987 50.8203L22.7998 50.8204L22.801 50.8204L22.8022 50.8204L22.8034 50.8205C23.7261 50.8475 24.6488 50.8746 25.5714 50.8998C26.5024 50.8985 27.434 50.831 28.3658 50.7635H28.3659H28.3659H28.366H28.3661H28.3662H28.3662H28.3663H28.3664H28.3665H28.3665H28.3666H28.3667H28.3668H28.3668H28.3669H28.367H28.3671H28.3671H28.3672H28.3673H28.3674H28.3674H28.3675H28.3676H28.3676H28.3677H28.3677H28.3678H28.3678H28.3679H28.3679H28.368H28.368H28.3681H28.3681H28.3682H28.3682H28.3683H28.3683H28.3684H28.3684H28.3685H28.3685H28.3686H28.3686H28.3687C29.7885 50.6607 31.2085 50.5578 32.6264 50.689C33.9721 50.8136 34.6631 51.246 34.7236 52.6658C34.7615 53.5493 34.7444 54.4409 34.7274 55.3292C34.721 55.6632 34.7146 55.9967 34.7112 56.3291C34.6861 58.7333 34.6174 61.1398 34.4002 63.5352C33.7395 62.909 33.0751 62.2866 32.3997 61.6763C31.5503 60.8047 30.6016 60.0362 29.5733 59.3865C27.3552 58.1937 25.5969 59.7741 24.1131 61.3006C23.3104 62.2904 21.9732 62.6664 20.7742 62.2396C19.6812 61.8472 18.5457 61.5862 17.3914 61.4619C15.7699 61.4308 14.5897 62.2696 13.6601 63.4007C13.6181 61.1438 13.6794 58.8859 13.7763 56.6309C13.7933 56.2342 13.8037 55.8335 13.8142 55.4314V55.4314C13.8406 54.4137 13.8673 53.3866 14.0022 52.3905C14.2382 50.6482 15.7847 50.6402 17.2212 50.6712C19.0734 50.711 20.9256 50.7653 22.7776 50.8197L22.7787 50.8197ZM33.9781 65.9026C34.0245 65.9468 34.0721 65.9853 34.1205 66.0185C34.0705 66.3188 34.0145 66.6182 33.9527 66.9165C33.7972 68.1301 32.6952 68.9913 31.4835 68.8461C27.5591 68.9677 23.5986 68.8237 19.6609 68.6806H19.6607H19.6605H19.6602H19.66H19.6597H19.6595H19.6593H19.659H19.6588H19.6585H19.6583H19.6581H19.6578H19.6576H19.6573H19.6571H19.6569H19.6566H19.6564H19.6561H19.6559H19.6557H19.6554L19.6534 68.6805L19.6513 68.6804L19.6493 68.6804L19.6472 68.6803L19.6451 68.6802L19.6431 68.6801L19.6411 68.6801L19.6391 68.68L19.6371 68.6799L19.6352 68.6799L19.6332 68.6798L19.6311 68.6797L19.6292 68.6797L19.6272 68.6796L19.6251 68.6795L19.6232 68.6795L19.6212 68.6794L19.6191 68.6793L19.6172 68.6793L19.6152 68.6792L19.6131 68.6791L19.6112 68.679L19.6092 68.679C18.6745 68.645 17.7411 68.611 16.8098 68.5809C16.6522 68.5758 16.4945 68.5709 16.3368 68.5661C15.8991 68.5526 15.4612 68.5392 15.0238 68.52C14.9224 68.5155 14.8297 68.5145 14.7449 68.5136C14.2739 68.5084 14.0443 68.5059 13.9024 67.928C13.8353 67.5106 13.7821 67.0914 13.7428 66.6709C13.8954 66.5915 14.0296 66.4717 14.1278 66.3157C14.5244 65.4792 15.0669 64.7206 15.7298 64.0755C16.6805 63.4034 17.9178 63.2946 18.9706 63.7906C20.6906 64.6328 22.7078 64.6034 24.4027 63.7114C24.772 63.4548 25.1447 63.0582 25.5306 62.6476C26.5011 61.6147 27.5546 60.4935 28.8466 61.2907C29.7764 61.9498 30.6437 62.6933 31.4374 63.5119C32.2891 64.293 33.1256 65.0902 33.9622 65.8874L33.9781 65.9026ZM21.6122 59.1773C20.3734 59.5854 19.011 59.2287 18.1293 58.2655C17.315 57.3396 17.0582 56.0472 17.4565 54.8791C17.5223 54.6628 17.6306 54.5053 17.7725 54.4041C17.7242 54.3888 17.7084 54.3589 17.7387 54.3073C18.6546 52.9831 20.3822 52.5024 21.8477 53.1639C22.5354 53.4125 23.1143 53.895 23.4836 54.5275C23.8042 55.0859 23.942 55.7312 23.8774 56.3723C23.7371 57.6721 22.851 58.7693 21.6122 59.1773ZM18.6842 54.3483C18.7524 54.3738 18.8183 54.4037 18.8808 54.4379C18.8606 54.4729 18.9735 54.5398 19.0781 54.5694C19.1287 54.6104 19.1751 54.6548 19.2162 54.7023C19.2022 54.66 19.1868 54.62 19.1695 54.5841C19.2334 54.5837 19.2679 54.5503 19.2138 54.4551C19.1523 54.3469 18.9348 54.333 18.6842 54.3483ZM19.1695 54.5841C19.1427 54.5843 19.1108 54.5786 19.0781 54.5694C19.0178 54.5206 18.9515 54.4765 18.8808 54.4379C18.8887 54.4242 18.9171 54.4154 18.9744 54.4156C19.0592 54.416 19.1214 54.4842 19.1695 54.5841ZM19.4001 55.3669C19.3969 55.3822 19.3932 55.3977 19.389 55.4132C19.3475 55.5186 19.3139 55.627 19.2882 55.7373L19.2819 55.7656C19.2784 55.7871 19.2736 55.8181 19.2726 55.8358C19.2668 55.9321 19.2706 56.0262 19.2745 56.1216L19.2759 56.1582L19.2819 56.1894C19.2873 56.2176 19.2926 56.2458 19.2992 56.2738C19.3221 56.3697 19.3522 56.4624 19.384 56.5554L19.3852 56.5575C19.3956 56.5761 19.4052 56.5952 19.4148 56.6144L19.4277 56.6399C19.4324 56.649 19.4372 56.6581 19.4421 56.667C19.4661 56.7105 19.4945 56.7518 19.5228 56.7931L19.5491 56.8315C19.557 56.8463 19.5705 56.8685 19.5867 56.89C19.5929 56.9001 19.5988 56.9104 19.6044 56.9207L19.5905 56.8949C19.5957 56.9016 19.6012 56.9082 19.6068 56.9144C19.6345 56.9445 19.6629 56.9743 19.6922 57.003C19.703 57.0136 19.7151 57.0242 19.7277 57.0348C19.7264 57.0406 19.7423 57.0611 19.7738 57.0814C19.7849 57.0888 19.7961 57.0962 19.8074 57.1034C19.8145 57.1104 19.8212 57.1175 19.8273 57.1247L19.8206 57.1167L19.8115 57.1061C19.8674 57.142 19.9245 57.1758 19.9829 57.2074C19.9734 57.2008 19.9999 57.2129 20.0301 57.2267L20.0302 57.2267C20.0559 57.2384 20.0843 57.2514 20.0954 57.255C20.175 57.2805 20.2558 57.3017 20.3377 57.3185L20.3389 57.3187L20.3197 57.3201L20.3346 57.3204L20.3522 57.3211C20.3766 57.3251 20.3994 57.3263 20.4174 57.326C20.4266 57.3269 20.4358 57.328 20.4449 57.3291C20.5283 57.3329 20.6118 57.3325 20.6952 57.3279L20.6854 57.3341L20.6806 57.3374L20.6978 57.3325L20.7038 57.331L20.7171 57.3278L20.7247 57.3261L20.7281 57.3259C20.7585 57.3238 20.7792 57.32 20.7921 57.3159L20.8044 57.3149C20.8866 57.2977 20.9679 57.2764 21.0479 57.251C21.0543 57.2489 21.0626 57.2455 21.0722 57.2411C21.0802 57.2376 21.089 57.2334 21.0983 57.229L21.1058 57.2255C21.1019 57.2342 21.1159 57.2346 21.1573 57.2106C21.1692 57.2037 21.1812 57.1969 21.1931 57.1902C21.2011 57.1881 21.2085 57.1867 21.2149 57.1865C21.2187 57.1863 21.2221 57.1865 21.2251 57.1871C21.2175 57.1856 21.2101 57.1849 21.2028 57.1848L21.2376 57.1654C21.2845 57.1394 21.3312 57.1136 21.3767 57.0846C21.3745 57.0886 21.3736 57.0922 21.3744 57.0952L21.4167 57.0582C21.4692 57.0223 21.4729 57.0151 21.4585 57.0216L21.469 57.0124C21.4785 57.0036 21.4923 56.9919 21.5082 56.9786L21.5082 56.9785C21.5645 56.9311 21.6466 56.8619 21.6533 56.8177C21.5711 56.9286 21.5619 56.9397 21.6259 56.8511L21.6654 56.7918C21.6974 56.7419 21.7275 56.6908 21.7555 56.6385C21.7679 56.6157 21.7792 56.5924 21.7906 56.5691L21.8073 56.5349L21.8111 56.52C21.8168 56.4975 21.8228 56.4752 21.8289 56.4528L21.8452 56.3944L21.8452 56.3944C21.859 56.3449 21.8729 56.2953 21.8852 56.2453L21.8953 56.205C21.895 56.1889 21.8943 56.173 21.8938 56.1592V56.1591L21.8938 56.159V56.159C21.8932 56.1444 21.8927 56.1321 21.8928 56.1243C21.8936 56.0933 21.8924 56.0623 21.8913 56.0313C21.8903 56.0037 21.8893 55.9761 21.8896 55.9485L21.8846 55.9282L21.8846 55.9281L21.8846 55.9281L21.8846 55.928L21.8846 55.9279L21.8846 55.9278L21.8845 55.9278L21.8845 55.9277C21.8658 55.8509 21.8473 55.7749 21.8257 55.6986C21.8316 55.7068 21.8383 55.7157 21.8457 55.7253C21.8417 55.7183 21.8378 55.7113 21.834 55.7043C21.8289 55.6949 21.8239 55.6854 21.8192 55.6758C21.8118 55.6505 21.8024 55.6332 21.7953 55.6244L21.7921 55.6167L21.786 55.6019C21.7648 55.5615 21.7423 55.5215 21.7185 55.4825C21.716 55.4785 21.7099 55.467 21.7025 55.4527L21.6777 55.4047L21.6777 55.4046C21.6554 55.3613 21.6401 55.3316 21.681 55.415C21.7202 55.4953 21.6938 55.4568 21.6604 55.4082L21.6604 55.4082C21.6404 55.3791 21.618 55.3464 21.6056 55.3334C21.5743 55.3005 21.5417 55.2686 21.508 55.2378C21.4939 55.2245 21.4796 55.2115 21.465 55.1987C21.445 55.1856 21.4241 55.1738 21.4026 55.1632C21.3773 55.1477 21.3512 55.1335 21.3252 55.1193L21.3251 55.1193L21.325 55.1192C21.3083 55.1101 21.2916 55.101 21.275 55.0915C21.2529 55.0788 21.2373 55.0695 21.227 55.063C21.154 55.0346 21.0784 55.0131 21.0012 54.9989C20.9299 54.9802 20.8577 54.9645 20.7852 54.9513C20.7561 54.9457 20.727 54.9407 20.698 54.9363L20.7952 54.9507C20.6987 54.9266 20.5986 54.9203 20.4998 54.932C20.3986 54.9294 20.2972 54.9304 20.196 54.9358L20.1701 54.9374L20.1428 54.9392C20.1232 54.9425 20.0874 54.9475 20.0573 54.9517L20.0572 54.9517L20.0568 54.9518L20.0561 54.9519L20.0551 54.952L20.0549 54.952C20.0308 54.9554 20.0108 54.9582 20.0066 54.9591C19.9445 54.9728 19.883 54.9892 19.8223 55.0081C19.7885 55.0183 19.7551 55.0295 19.7221 55.042C19.6924 55.0574 19.6639 55.0749 19.6366 55.0943L19.6311 55.1L19.6025 55.1293C19.5822 55.1503 19.5618 55.1714 19.5411 55.1919C19.5308 55.2119 19.5193 55.2316 19.5078 55.2513L19.5078 55.2514C19.4943 55.2745 19.4808 55.2977 19.4691 55.3214C19.4417 55.3688 19.4194 55.3807 19.4001 55.3669ZM21.7953 55.6244C21.8028 55.6418 21.8107 55.6589 21.8192 55.6758L21.8195 55.6768L21.8257 55.6986C21.7747 55.6273 21.7796 55.6049 21.7953 55.6244ZM21.4585 57.0216L21.4167 57.0582L21.4008 57.0689C21.3928 57.0743 21.3848 57.0795 21.3767 57.0846C21.3887 57.0627 21.4395 57.0302 21.4585 57.0216ZM21.2028 57.1848L21.1931 57.1902C21.1672 57.197 21.1347 57.2119 21.1058 57.2255C21.1114 57.2131 21.1528 57.1842 21.2028 57.1848ZM20.7921 57.3159C20.7695 57.318 20.747 57.3214 20.7247 57.3261L20.6952 57.3279C20.7766 57.2788 20.8413 57.3 20.7921 57.3159ZM20.4174 57.326C20.3957 57.3237 20.374 57.3221 20.3522 57.3211L20.3389 57.3187C20.4381 57.3121 20.465 57.3175 20.4536 57.3219C20.4484 57.3239 20.4353 57.3257 20.4174 57.326ZM19.8115 57.1061L19.8074 57.1034C19.7894 57.0858 19.7687 57.0687 19.7483 57.0519L19.7277 57.0348C19.7293 57.0278 19.7563 57.0426 19.8115 57.1061ZM19.5905 56.8949L19.5867 56.89C19.5748 56.8702 19.5621 56.8508 19.5491 56.8315C19.5459 56.8256 19.5437 56.8208 19.5424 56.8178L19.5418 56.8162C19.5387 56.8069 19.5516 56.8236 19.5905 56.8949ZM19.587 55.1329C19.5993 55.1224 19.612 55.1124 19.6249 55.1028C19.6056 55.1208 19.5874 55.1367 19.587 55.1329ZM19.7263 55.0398C19.7567 55.0242 19.7883 55.0107 19.8209 54.9995L19.7263 55.0398ZM21.5253 55.244L21.4854 55.2127C21.4991 55.2225 21.5124 55.233 21.5253 55.244ZM21.882 56.3017C21.8821 56.3017 21.8889 56.2683 21.8952 56.2351C21.8944 56.2655 21.8912 56.2922 21.882 56.3017ZM42.3265 51.0658L53.9048 50.9991C54.4447 50.9803 54.8727 50.5361 54.8727 49.9944C54.8727 49.4528 54.4447 49.0085 53.9048 48.9897L42.3265 49.0564C41.7866 49.0752 41.3586 49.5195 41.3586 50.0611C41.3586 50.6028 41.7866 51.047 42.3265 51.0658ZM68.0695 57.4282L42.4816 57.6231C41.9417 57.6043 41.5137 57.1601 41.5137 56.6184C41.5137 56.0768 41.9417 55.6325 42.4816 55.6137L68.0695 55.4188C68.6094 55.4376 69.0374 55.8819 69.0374 56.4235C69.0374 56.9652 68.6094 57.4094 68.0695 57.4282ZM42.866 64.179C51.2164 64.4157 59.5663 64.3401 67.9157 63.9521C69.1999 63.8925 69.2073 61.8827 67.9157 61.9428C59.5712 62.3306 51.2212 62.4062 42.866 62.1696C42.3263 62.1887 41.8986 62.6329 41.8986 63.1743C41.8986 63.7158 42.3263 64.1599 42.866 64.179ZM68.2597 70.5804C59.9238 70.8183 51.5881 70.8562 43.2526 70.6941C42.7127 70.6753 42.2847 70.2311 42.2847 69.6894C42.2847 69.1478 42.7127 68.7035 43.2526 68.6847C51.5902 68.8468 59.9259 68.8089 68.2597 68.571C68.7993 68.5901 69.227 69.0342 69.227 69.5757C69.227 70.1171 68.7993 70.5613 68.2597 70.5804ZM13.5202 13.9339L13.1184 14.001C12.944 14.0488 12.7599 14.0488 12.5855 14.001L12.3462 13.8997C12.1977 13.8123 12.0739 13.6882 11.9867 13.5392L11.8857 13.2993C11.8442 13.1698 11.838 13.0314 11.8679 12.8986C11.8736 12.7658 11.9147 12.6368 11.9867 12.5251C12.127 12.3064 12.3387 12.1432 12.5855 12.0634L12.9873 11.9962C13.1617 11.9484 13.3458 11.9484 13.5202 11.9962L13.7595 12.0975C13.9081 12.1849 14.0319 12.309 14.119 12.458L14.22 12.6979C14.2615 12.8275 14.2677 12.9658 14.2378 13.0986C14.232 13.2315 14.191 13.3604 14.119 13.4721C13.9787 13.6908 13.767 13.854 13.5202 13.9339ZM18.7433 14.0681L19.48 13.8667C19.7268 13.7869 19.9384 13.6237 20.0788 13.405C20.1508 13.2933 20.1918 13.1643 20.1976 13.0315C20.2276 12.8987 20.2214 12.7603 20.1798 12.6308L20.0788 12.3909C19.9918 12.2418 19.868 12.1176 19.7192 12.0304L19.48 11.9291C19.3056 11.8813 19.1217 11.8813 18.9473 11.9291L18.2106 12.1305C17.6877 12.2916 17.3808 12.8336 17.5108 13.3664L17.6118 13.6063C17.6989 13.7554 17.8226 13.8795 17.9711 13.9668L18.2106 14.0681C18.385 14.1159 18.5689 14.1159 18.7433 14.0681ZM25.844 13.9204L24.6381 13.9789C24.0848 13.9787 23.6363 13.529 23.6361 12.9742C23.6508 12.4255 24.0909 11.9842 24.6381 11.9695L25.844 11.9111C26.3973 11.9113 26.8458 12.3609 26.846 12.9157C26.8313 13.4644 26.3912 13.9057 25.844 13.9204ZM36.3579 24.6696C31.5832 24.3494 26.7942 24.3026 22.0143 24.5293C19.824 24.57 17.6382 24.7421 15.4685 25.0447C13.827 25.2207 12.5148 26.493 12.2845 28.1321C11.9765 30.3129 11.8113 32.5115 11.7901 34.7139C11.545 36.8809 11.5507 39.069 11.8071 41.2347C12.1947 43.1598 13.7244 43.7465 15.5126 43.8295C17.4724 43.9202 19.4382 43.9477 21.4014 43.9751H21.4017L21.4055 43.9752L21.4093 43.9752L21.413 43.9753C21.8417 43.9813 22.2703 43.9872 22.6986 43.9939C28.2336 44.0795 33.7687 44.0706 39.304 43.9672C39.8439 43.9484 40.2719 43.5041 40.2719 42.9625C40.2719 42.4208 39.8439 41.9766 39.304 41.9578C34.0172 42.0541 28.7299 42.0667 23.4421 41.9956C22.8101 41.9867 22.1769 41.981 21.5431 41.9753C19.532 41.9571 17.5152 41.9389 15.5126 41.8202C15.4428 41.816 15.3734 41.8128 15.3047 41.8096C14.6774 41.7804 14.1074 41.7539 13.8186 41.0554C13.6794 40.5054 13.6391 39.935 13.6995 39.3708C13.6953 38.1451 13.718 36.919 13.7579 35.6939C13.7977 34.4688 13.8579 33.2443 13.9386 32.021C13.9409 30.7811 14.0555 29.5439 14.2809 28.3248C14.5985 27.0959 15.6553 27.0027 16.736 26.9074C16.7968 26.9021 16.8576 26.8967 16.9184 26.8911C18.2102 26.7724 19.5048 26.6787 20.7998 26.6032C25.9824 26.3062 31.1784 26.3315 36.3579 26.6789C37.6453 26.7639 37.6403 24.7544 36.3579 24.6696ZM66.2116 26.974L66.1278 26.9898C64.865 27.2253 64.3287 25.2885 65.5951 25.0522C66.6601 24.747 67.7949 24.7937 68.8314 25.1854C69.8359 25.7515 70.4604 26.8142 70.4675 27.9695C70.6852 30.9028 70.6794 33.8485 70.4502 36.7809C70.3667 38.2697 70.2457 39.7572 70.0779 41.2387C69.9458 42.4067 69.7643 43.6161 68.6031 44.1958C67.3862 44.5838 66.1027 44.7168 64.8323 44.5866L60.4634 44.7066C59.9237 44.6875 59.496 44.2434 59.496 43.7019C59.496 43.1605 59.9237 42.7163 60.4634 42.6973C61.1912 42.6773 61.9228 42.6692 62.6554 42.6612C64.1414 42.6448 65.6318 42.6284 67.1037 42.5124C67.5366 42.4784 67.8202 42.4302 67.9591 41.9807C68.079 41.4561 68.1476 40.921 68.164 40.3831C68.2729 39.2986 68.3602 38.2124 68.4262 37.1245C68.5612 34.8892 68.6059 32.6533 68.5603 30.4169C68.6667 29.4142 68.5916 28.4005 68.3386 27.4246C67.9832 26.6397 66.918 26.8407 66.2116 26.974ZM2.96196 79.7026C1.13837 77.8096 0.527262 75.0513 1.37998 72.5622C1.53859 72.0363 2.08077 71.7276 2.61246 71.8605C3.14425 72.0103 3.45652 72.5616 3.31247 73.0963C3.21702 73.3562 3.14021 73.6227 3.08262 73.8936C3.07517 73.9296 3.06844 73.9657 3.06169 74.0019C3.05719 74.0261 3.05267 74.0504 3.04793 74.0746C3.04127 74.109 3.03695 74.1329 3.03492 74.1436C3.02106 74.2599 3.01233 74.3772 3.00605 74.494C2.99192 74.7552 2.99493 75.017 3.01507 75.2778C3.01917 75.3323 3.02453 75.3868 3.0299 75.4413L3.0319 75.4617C3.03255 75.4684 3.0332 75.4747 3.03384 75.4806C3.03762 75.5023 3.04136 75.5241 3.0451 75.5458C3.06159 75.6417 3.07806 75.7375 3.09866 75.8328C3.15366 76.0888 3.22494 76.341 3.31206 76.5879C3.33495 76.6526 3.35943 76.7167 3.38395 76.7809L3.39206 76.8021C3.37565 76.7592 3.36897 76.7441 3.36975 76.7473C3.37053 76.7505 3.37874 76.7719 3.39206 76.8021C3.39443 76.8075 3.39696 76.8131 3.39964 76.819C3.45094 76.9307 3.50405 77.0414 3.56137 77.1503C3.68311 77.3813 3.82037 77.6037 3.97219 77.816C3.97539 77.8205 3.98855 77.8379 4.00321 77.8573C4.0141 77.8717 4.02582 77.8872 4.03492 77.8993C4.06796 77.9382 4.1311 78.014 4.12851 78.0109C4.20889 78.1042 4.29324 78.1936 4.37901 78.2818C4.63399 78.5352 4.73426 78.9061 4.64184 79.2539C4.54942 79.6018 4.27845 79.8735 3.93152 79.9661C3.58458 80.0588 3.21472 79.9583 2.96196 79.7026ZM3.04192 75.5378C3.04114 75.5365 3.0377 75.5163 3.03387 75.4809C3.0408 75.5215 3.0427 75.5392 3.04192 75.5378Z" fill="url(#paint0_linear_0_2263)"/>
<defs>
<linearGradient id="paint0_linear_0_2263" x1="30.0787" y1="-29.9707" x2="-31.2744" y2="51.2505" gradientUnits="userSpaceOnUse">
<stop stop-color="#192572"/>
<stop offset="1" stop-color="#3AADE9"/>
</linearGradient>
</defs>
</svg>
