<svg width="202" height="91" viewBox="0 0 202 91" fill="none" xmlns="http://www.w3.org/2000/svg">
<path fill-rule="evenodd" clip-rule="evenodd" d="M200.189 74.2163C191.535 73.5431 176.104 66.0312 166.203 62.7958C166.393 62.6122 166.576 62.4261 166.761 62.2408C173.181 63.1257 180.832 63.8137 185.793 67.6925C187.2 67.0794 187.602 66.6413 188.362 64.4684C188.91 64.2747 189.453 64.0843 189.993 63.8885C190.737 64.1309 191.478 64.3737 192.227 64.6157C192.315 64.0292 192.409 63.4429 192.494 62.8575C191.263 57.4882 178.744 57.0028 173.715 52.6933C147.358 43.5018 120.996 34.3128 94.6311 25.1262C89.1409 23.5883 83.6465 22.0479 78.1478 20.5048C62.9822 17.6781 48.7208 9.33069 32.7807 6.12089C24.996 4.55538 17.6706 -0.187812 12.0301 0.481998C9.05479 5.33156 8.4503 12.0292 11.7819 15.1634C9.79363 16.8643 5.97409 14.374 3.98171 14.1045C2.83999 13.4583 2.26995 14.1108 0.958319 14.5994C-1.35766 24.5073 8.85259 28.0329 17.5027 31.0549C18.1171 39.3519 45.3674 46.0932 55.9254 47.9766C67.9003 51.6247 79.8744 55.2718 91.8478 58.9177C102.423 60.1219 114.504 67.22 127.224 70.4228C131.755 72.0173 136.283 73.6134 140.809 75.2111C149.335 79.9777 167.904 88.7017 175.206 90.4575C175.283 90.2344 175.36 90.0145 175.443 89.7927C178.602 86.3847 177.619 83.6355 177.784 80.2223C184.8 82.0482 191.402 85.1971 197.236 89.4999C198.662 88.4874 200.087 87.4746 201.513 86.4616C201.264 82.4233 201.41 79.4112 200.189 74.2163Z" fill="#2667FF" fill-opacity="0.26"/>
</svg>
