<svg width="166" height="79" viewBox="0 0 166 79" fill="none" xmlns="http://www.w3.org/2000/svg">
<path fill-rule="evenodd" clip-rule="evenodd" d="M145.156 62.3446C141.642 58.8518 137.841 55.6595 133.794 52.8011C115.239 40.3785 95.9386 29.3386 74.6316 22.2759C66.5275 19.7067 58.1813 17.975 49.7239 17.1081C35.4206 15.425 21.0372 14.5119 6.6357 14.3726C5.19228 14.3619 4.36751 13.9514 3.79985 12.6003C3.29178 11.394 2.40305 10.3581 1.82455 9.17368C1.29516 8.08357 0.953424 1.90065 0.486936 0.628739C4.41447 0.0702024 8.29315 0.436285 12.1456 0.760976C25.1766 1.85788 38.2529 2.13796 51.2131 4.29343C67.8171 7.05281 83.1181 13.1888 97.8694 20.9249C105.654 25.0083 113.239 29.4664 120.74 34.0763C131.744 40.8444 146.559 50.7682 150.777 57.7189C148.254 53.6457 144.894 50.2708 141.987 46.5217C139.12 42.8346 136.465 38.9833 133.18 35.6275C129.893 32.2643 126.753 28.7785 125.062 24.2442C126.381 24.6864 127.53 25.5263 128.351 26.6484C139.804 40.4227 151.196 54.2419 160.877 69.3596C162.135 71.3225 163.317 73.345 164.403 75.4116C164.88 76.3256 165.784 77.5657 164.887 78.4119C164.142 79.1169 162.977 78.2093 162.127 77.7554C158.382 75.682 154.448 73.9717 150.377 72.6479C148.947 72.3149 147.499 72.0649 146.04 71.8992C142.819 71.2922 139.771 70.1047 136.61 69.3062C126.715 66.8038 116.568 65.5804 106.605 63.3547C101.638 62.2454 98.3078 59.866 95.8413 55.758C95.0904 54.5161 93.4934 53.0762 94.3353 51.8539C95.1353 50.7009 97.0875 51.5711 98.5012 51.8296C108.302 53.6236 118.17 55.0936 127.874 57.4316C133.689 58.8313 139.369 60.6694 145.156 62.3446Z" fill="#89D99D"/>
</svg>
