<svg width="255" height="44" viewBox="0 0 255 44" fill="none" xmlns="http://www.w3.org/2000/svg">
<path id="Shape" fill-rule="evenodd" clip-rule="evenodd" d="M246.989 37.8447C246.667 37.6683 246.315 37.5537 245.951 37.5067C245.693 37.5128 245.432 37.517 245.171 37.5213C245.171 37.5213 223.366 33.3282 222.11 35.3711C222.931 35.2983 222.469 35.1392 223.143 35.7108C223.137 35.831 223.137 35.9487 223.137 36.0682C222.136 35.7382 221.075 35.6325 220.029 35.7588C219.267 34.7309 219.631 35.4105 219.532 33.9841C217.378 35.3875 217.43 35.0356 215.365 35.47C215.196 35.2376 215.023 35.0016 214.852 34.7692C215.418 34.1704 216.004 34.5908 216.685 33.6674C216.86 33.5442 217.031 33.4216 217.206 33.3046C217.206 33.1831 217.206 33.0619 217.209 32.9472C214.247 34.1096 212.061 35.1169 210.461 33.4064C209.894 34.399 210.305 33.4769 210.181 34.8372C209.172 33.8682 209.726 33.5964 208.392 32.7233C208.473 33.1996 208.554 33.671 208.635 34.1454C208.287 34.271 207.935 34.3931 207.591 34.5217C207.419 34.0441 207.26 33.5727 207.085 33.1019C206.448 33.5696 205.746 33.9403 205 34.2019C204.921 33.6091 204.845 33.0139 204.762 32.4217C204.203 33.2633 204.632 32.3798 204.492 33.4938C203.574 33.7111 202.623 33.2893 202.169 32.4624C201.727 32.9417 201.294 33.4235 200.848 33.9052C201.027 33.5442 201.209 33.1868 201.383 32.8295C198.207 33.345 194.973 33.3939 191.784 32.9745C191.701 32.7323 191.615 32.4994 191.535 32.2628C191.79 32.3823 192.051 32.4921 192.309 32.608C192.48 32.3707 192.662 32.1257 192.833 31.8873C192.397 31.4474 192.158 31.4272 191.812 30.8339C191.544 31.3121 191.28 31.7926 191.013 32.2718C190.279 32.9587 190.635 32.2392 190.507 31.2064C187.137 31.9176 185.799 32.8616 183.778 30.2375C183.683 30.715 183.59 31.1943 183.494 31.6712C183.234 31.9188 182.97 32.1505 182.711 32.3981C182.275 31.0433 182.439 31.9503 182.728 30.6155C182.467 30.9728 182.205 31.332 181.942 31.693C180.6 31.3502 180.068 32.2804 179.629 29.942C177.541 30.8114 175.453 31.677 173.366 32.5389C173.541 32.2949 173.719 32.0546 173.894 31.8125C172.985 30.9777 172.504 31.5396 171.034 32.2112C170.945 32.5722 170.857 32.9333 170.765 33.2881C170.687 32.4587 170.614 31.6293 170.535 30.7963C168.359 30.2575 159.259 32.1499 158.876 29.5404C157.829 30.2733 158.374 29.6271 158.335 30.9777C157.445 30.5759 156.656 29.9799 156.026 29.2333C155.845 29.7127 155.665 30.1865 155.491 30.6647C153.344 29.7042 145.596 29.0113 144.079 30.4772C143.649 29.7436 143.671 29.7849 143.584 28.3494C143.056 28.9482 142.529 29.5555 142.007 30.1581C140.775 29.6393 141.408 30.3734 141.242 28.7383C138.862 30.1483 134.373 29.7133 133.731 28.1394C132.505 28.6364 131.294 29.1266 130.078 29.6204C130.539 28.0581 130.918 29.4888 130.367 27.4774C145.85 26.6486 161.339 25.8213 176.835 24.9954C179.343 25.1974 181.849 25.3986 184.354 25.599C188.735 24.5536 195.261 25.7192 200.178 26.0736C212.57 26.963 228.403 27.529 241.169 26.1687C242.333 20.4224 239.224 18.8643 237.676 15.1698C235.626 14.6906 220.515 15.7391 220.29 15.4289C201.04 11.3669 184.713 16.7971 167.897 14.0772C168.148 14.667 168.4 15.2573 168.651 15.8482C168.216 16.0005 166.602 13.7374 166.602 13.7374C164.953 14.124 163.306 14.502 161.661 14.8848C156.142 14.3703 150.596 14.2171 145.057 14.426C144.979 14.1858 144.889 13.9491 144.803 13.7101C162.691 11.5902 182.181 8.26951 201.958 8.21856C201.787 7.86788 201.621 7.51116 201.453 7.15503C203.232 7.84902 201.803 7.64461 203.789 7.12099C203.699 7.59727 203.604 8.07291 203.508 8.55232C206.573 7.95339 217.559 8.90236 219.348 7.9565C221.082 6.9696 223.128 6.68433 225.066 7.15926C225.333 6.32312 225.606 5.48885 225.874 4.64799C209.541 -2.31436 186.191 4.02669 165.733 0.560369C160.457 0.522843 155.182 0.483412 149.906 0.442075C144.138 -1.08869 136.784 2.01047 131.751 0.00406286C129.263 2.51533 105.281 1.58824 100.324 2.61173C92.8718 3.55527 85.4218 4.49936 77.9745 5.44399C75.1182 5.48822 72.2631 5.5313 69.4091 5.57322C54.7957 10.1517 34.3046 10.0206 17.9877 9.55223C17.6244 10.8719 17.2588 12.1812 16.9016 13.4917C13.5751 13.8363 5.87998 13.6797 3.89812 15.8271C2.62284 17.2109 3.06437 19.147 1.25106 20.1494C1.2256 21.6941 1.20672 23.2376 1.18437 24.7836C1.90937 25.6625 2.90658 26.2744 4.01823 26.5225C3.33476 29.1702 1.77618 30.0167 0.833875 32.2743C0.30255 33.2081 0.236476 35.5828 0 36.9231C2.06246 40.6521 7.52835 39.3622 11.8911 39.9525C20.949 41.1878 33.7594 38.1219 42.2496 39.856C55.0462 42.4632 67.3793 38.2202 81.6879 39.6188C92.8918 40.7115 103.929 37.852 113.869 39.1353C117.009 39.54 122.833 40.8596 126.568 40.3718C132.369 39.6084 137.835 40.4082 142.395 40.1321C145.592 40.0841 148.793 40.0364 151.998 39.9889C152.558 38.9981 152.15 39.9155 152.274 38.5582C154.877 39.5453 158.004 41.0246 160.308 39.1462C160.302 39.6242 160.299 40.103 160.292 40.5726C166.685 39.1959 172.966 42.2453 180.545 39.2026C180.885 39.6716 181.222 40.1411 181.57 40.6163C180.926 39.1692 190.38 41.5494 190.38 41.5494C190.941 40.5587 190.533 41.4784 190.658 40.1205C192.397 41.5986 195.03 42.7393 197.392 40.7285C197.619 41.8078 197.625 40.8978 197.116 41.8061C199.022 43.156 200.335 41.9366 201.796 41.0228C201.621 41.3832 201.443 41.7394 201.268 42.0974C203.209 43.1512 205.179 42.6713 207.472 43.4357C207.483 42.8399 207.492 42.2441 207.495 41.6514C210.957 41.9375 214.359 42.7288 217.592 44C218.542 43.6214 219.501 43.2555 220.454 42.8806C224.091 42.5572 223.524 43.1434 227.981 43.1287C227.477 41.7072 227.932 42.4341 226.949 42.4316C226.777 42.0742 226.612 41.7194 226.443 41.3656C226.446 41.2442 226.45 41.1246 226.45 41.0137C227.932 41.5961 227.69 40.8365 228.515 41.692C229.953 41.4815 229.418 42.8666 230.306 43.8034C230.482 43.5656 230.656 43.3198 230.834 43.0868C230.896 42.5827 230.882 42.9971 230.576 42.7319C230.926 42.488 231.277 42.2441 231.623 42.0014C232.669 41.8145 233.747 41.9223 234.735 42.3127C235.534 40.6405 236.332 38.9629 237.131 37.2798C237.391 37.3964 237.647 37.5153 237.91 37.6269C238.166 37.8624 238.42 38.0947 238.681 38.3294C238.416 38.3368 238.155 38.3406 237.899 38.341C238.148 39.9862 238.747 41.5589 239.655 42.9527C239.575 42.2369 239.495 41.5276 239.425 40.8146C241.134 40.299 243.895 40.3147 244.096 40.7424C244.278 39.9077 244.461 39.0738 244.644 38.2409C246.147 39.8857 248.696 40.0066 250.349 38.5115C250.756 41.0167 253.495 40.0695 255 39.8669C252.812 36.6762 250.206 39.125 246.989 37.8447ZM221.807 17C221.318 16.5624 221.456 16.753 221.193 16C221.399 16.3338 221.602 16.6667 221.807 17ZM207.3 15.0708C207.436 15.2588 207.572 15.4492 207.71 15.6367C207.569 15.7334 207.431 15.8349 207.29 15.9292C207.292 15.6465 207.295 15.3569 207.3 15.0708ZM158.709 15.2122C158.64 15.4031 158.568 15.595 158.497 15.7878C158.425 15.5969 158.363 15.408 158.291 15.218C158.432 15.2136 158.571 15.2126 158.709 15.2122ZM153.399 15.0693C153.536 15.1675 153.676 15.2559 153.811 15.3516C153.674 15.5464 153.53 15.7397 153.388 15.9307C153.318 15.7422 153.253 15.5478 153.189 15.3613C153.256 15.2666 153.326 15.167 153.399 15.0693ZM147.607 15.2119C147.507 15.5274 147.781 15.4219 147.391 15.7881C147.461 15.5957 147.532 15.4036 147.607 15.2119ZM151.501 2.07459C151.568 2.07069 151.64 2.06869 151.711 2.07069C151.709 2.35679 151.701 2.64199 151.698 2.93009C151.561 2.73819 151.427 2.55019 151.289 2.36219C151.358 2.26647 151.43 2.16789 151.501 2.07459ZM140.71 2.2109C140.636 2.4077 140.562 2.5972 140.49 2.7891C140.423 2.5986 140.357 2.4087 140.29 2.2207C140.428 2.21728 140.563 2.21628 140.71 2.2109ZM140.234 14.1674C141.158 14.1547 142.079 14.14 143 14.1298C142.147 15.1957 141.484 14.8192 140 14.7469C140.079 14.5536 140.156 14.3588 140.234 14.1674ZM138.081 14.6455C138.155 14.4487 138.227 14.2583 138.299 14.0664C138.509 14.1582 138.716 14.2507 138.921 14.3438C138.642 14.5396 138.361 14.7362 138.079 14.9336C138.081 14.8359 138.081 14.7407 138.081 14.6455ZM133.502 14C134.667 14.0672 135.829 14.1378 137 14.2106C136.996 14.3772 136.994 14.5462 136.988 14.7144C135.807 14.6467 134.619 14.7436 133.488 15C133.321 14.7547 133.159 14.503 133 14.2547C133.168 14.1687 133.336 14.0814 133.502 14ZM133.645 15C134.093 15.2594 134.549 15.5154 135 15.7741C134.177 16.1834 133.351 16.5921 132.529 17C132.352 16.4739 132.182 15.9477 132 15.4208C133.279 15.9761 132.874 16.2928 133.645 15ZM131.408 15C131.825 15.5909 131.566 14.9876 131.82 15.987C131.815 16.1019 131.812 16.2111 131.812 16.3209C131.605 16.545 131.39 16.7731 131.18 17C131.256 16.3311 131.331 15.6655 131.408 15V15ZM106.19 29.2185C106.81 29.5803 106.441 29.2034 106.81 29.7815C106.19 29.4211 106.559 29.7991 106.19 29.2185ZM115.509 16.2107C115.575 16.4045 115.642 16.5901 115.708 16.7854C115.571 16.7854 115.428 16.7888 115.292 16.7893C115.363 16.5945 115.437 16.405 115.509 16.2107ZM110.997 28.2394C110.773 28.4892 110.548 28.7352 110.321 28.9833C109.88 28.9875 109.443 28.9941 109 29C109.002 28.9154 109.002 28.8357 109.002 28.7535C109.08 28.5095 109.158 28.2655 109.238 28.0199C109.824 28.0128 110.414 28.0062 111 28C110.997 28.0817 110.997 28.1622 110.997 28.2394ZM116.98 28.5434C115.65 28.6965 114.324 28.8457 113 29C113.003 28.4795 113.007 27.9634 113.017 27.4454C113.588 27.3042 114.153 27.173 114.723 27.0364C115.486 27.0185 116.242 27.0107 117 27C116.997 27.5161 116.987 28.0354 116.98 28.5434ZM116.293 16.2176C116.431 16.2147 116.569 16.2122 116.707 16.2127C116.636 16.4026 116.564 16.5931 116.492 16.7874C116.423 16.5989 116.356 16.408 116.293 16.2176ZM117 28C117.505 28.1299 118.009 28.257 118.513 28.3814C119.019 29.1718 118.787 28.5224 119 30C118.107 29.4639 117.743 29.6331 117 28V28ZM127.742 29.5713C125.561 28.5 121.424 27.9279 120.251 29.9973C120.166 29.9979 120.082 29.9979 120 30C120.006 29.3545 120.015 28.7036 120.027 28.0564C121.418 26.7578 124.67 27.9737 126.036 27C127.276 27.197 128.52 27.3954 129.768 27.5952C129.851 27.9158 129.924 28.2385 130 28.5634C129.281 29.1107 128.212 28.7201 127.742 29.5713ZM152.591 31C152.458 30.6689 152.325 30.3358 152.191 30.0047C152.327 30.0043 152.468 30.0013 152.607 30C152.673 30.1664 152.739 30.3328 152.809 30.4958C152.735 30.6638 152.665 30.8294 152.591 31ZM160.298 36.0708C160.71 36.5839 160.451 36.0625 160.702 36.9292C160.566 36.642 160.433 36.3588 160.298 36.0708ZM164.082 37.6121C164.156 37.0724 164.231 36.5351 164.306 36C164.472 36.6884 164.677 37.3571 164.918 38C164.639 37.8688 164.362 37.7411 164.082 37.6121ZM175.29 37.9316C175.29 37.6484 175.295 37.3593 175.298 37.0684C175.433 37.1651 175.572 37.2584 175.71 37.3507C175.572 37.542 175.426 37.7397 175.29 37.9316ZM181.288 36.9295C181.295 36.6428 181.298 36.3552 181.3 36.0705C181.716 36.5808 181.457 36.0593 181.712 36.9235C181.572 36.9217 181.429 36.9285 181.288 36.9295ZM182.391 34.9338C182.322 34.8406 182.252 34.7415 182.189 34.6472C182.255 34.4534 182.33 34.261 182.402 34.071C182.471 34.0681 182.539 34.0691 182.612 34.0662C182.678 34.2571 182.744 34.4456 182.811 34.6418C182.673 34.7366 182.532 34.8367 182.391 34.9338ZM185.424 34.7878C185.426 34.5936 185.428 34.4026 185.431 34.2122C185.616 34.7239 185.634 34.2829 185.424 34.7878ZM214.086 37.076C214.784 37.465 214.522 37.2375 214.914 37.924C214.637 37.6428 214.368 37.3591 214.086 37.076H214.086ZM217.285 41C217.29 40.6699 217.295 40.3356 217.301 40.0045C217.438 40.002 217.583 39.9991 217.715 40.0003C217.574 40.3322 217.431 40.6669 217.285 41ZM219.291 40.2209C219.429 40.218 219.57 40.2141 219.709 40.2107C219.639 40.4084 219.563 40.6018 219.494 40.7893C219.427 40.6018 219.355 40.4118 219.291 40.2209H219.291ZM220.815 42.3558C220.217 42.6448 220.708 42.8221 220.185 42.3636C220.395 42.3621 220.602 42.3587 220.815 42.3558ZM224.29 35.931C224.293 35.6428 224.295 35.3572 224.302 35.069C224.718 35.5813 224.457 35.0593 224.71 35.926C224.57 35.9266 224.431 35.926 224.29 35.931H224.29ZM226.396 41.9943C226.329 41.9943 226.266 41.9964 226.199 41.9964C226.137 41.9957 226.068 42.0012 226 41.9998C226.144 40.6674 226.287 39.3342 226.43 38C226.891 39.1456 226.779 37.835 227 39.5824C226.799 40.3848 226.595 41.1913 226.396 41.9943H226.396ZM228.287 39.9331C228.362 39.645 228.436 39.355 228.51 39.0669C228.577 39.1606 228.646 39.2559 228.713 39.3501C228.574 39.5439 228.431 39.7353 228.287 39.9331H228.287ZM228.296 37.0705C228.711 37.5793 228.453 37.0633 228.704 37.9295C228.568 37.6399 228.434 37.3582 228.296 37.0705H228.296ZM230.808 36C230.873 36.2518 230.938 36.4959 231 36.7461C230.799 36.8302 230.595 36.9142 230.393 37C229.868 36.3904 230.08 36.6768 230 36.0139C230.272 36.0106 230.54 36.0063 230.808 36H230.808ZM230.784 40C230.319 39.3014 229.524 39 229 38.4076C229.099 38.273 229.203 38.1373 229.307 38C230.201 38.3924 231.102 38.7799 232 39.1718C231.593 39.4517 231.191 39.7303 230.784 40H230.784ZM234.978 39.5601C234.841 39.7071 234.706 39.8575 234.577 40C234.658 37.6762 234.969 38.3219 234 37.4457C234.33 37.2951 234.665 37.1511 235 37C234.995 37.8551 234.983 38.7036 234.978 39.5601ZM235.588 39.9975C235.522 39.9962 235.453 40.0004 235.392 40C235.257 39.7518 235.127 39.5082 235 39.26C235.517 39.1458 235.1 39.4993 235.603 39.0034C235.733 39.0017 235.868 39.0013 236 39C235.863 39.3292 235.726 39.6642 235.588 39.9975ZM240.262 40.2959C240.17 39.6568 240.082 39.0247 240 38.3861C240.185 38.5114 240.379 38.6398 240.57 38.7613C240.574 38.5062 240.576 38.2557 240.576 38C241.635 38.111 242.691 38.2228 243.745 38.3354C243.83 39.2232 243.918 40.1162 244 41C242.324 39.3927 241.907 38.8118 240.262 40.2959H240.262ZM244.432 38C244.496 38.3358 244.563 38.6677 244.623 39C244.228 38.3541 244.427 38.7712 244.432 38ZM155.393 28.7893C155.771 28.403 155.512 28.4777 155.607 28.2107C155.536 28.403 155.461 28.5988 155.393 28.7893ZM165 29.9309C165.332 29.9265 165.663 29.9211 166 29.9143C165.624 29.0637 165.968 29.4367 165.206 29.0691C165.135 29.3552 165.069 29.6467 165 29.9309ZM193.711 31.2107C193.576 31.2122 193.432 31.2151 193.294 31.2151C193.291 31.4104 193.289 31.595 193.289 31.7893C193.43 31.5955 193.573 31.4046 193.711 31.2107ZM197.92 32.209C197.636 32.2109 197.359 32.2168 197.08 32.2197C197.218 32.4112 197.354 32.6011 197.493 32.791C197.631 32.5971 197.774 32.4038 197.92 32.209ZM205.91 33.7852C205.914 33.5947 205.918 33.4019 205.918 33.2129C205.639 33.2144 205.363 33.2197 205.082 33.2236C205.288 33.4107 205.494 33.5985 205.7 33.7871C205.77 33.7866 205.839 33.7852 205.91 33.7852ZM220.814 34.7819C220.68 34.5915 220.539 34.3981 220.404 34.2121C220.335 34.403 220.26 34.5964 220.186 34.7878C220.396 34.7883 220.606 34.7853 220.814 34.7819V34.7819ZM237.116 42C237.19 41.9949 237.257 41.9967 237.328 41.9943C237.684 40.3074 238.241 40.0441 237.567 39C237.418 39.9964 237.266 40.9998 237.116 42ZM238.074 43C238.286 42.9949 238.492 42.9949 238.702 42.9949C238.776 42.5438 238.852 42.1013 238.926 41.6576C238.72 41.4352 238.512 41.216 238.304 41C238.228 41.6678 238.15 42.3367 238.074 43ZM241.597 41.9263C241.669 41.9263 241.738 41.9248 241.81 41.9233C241.602 41.6392 241.397 41.3565 241.19 41.0737C241.326 41.3565 241.467 41.6416 241.597 41.9263ZM244.914 41.7813C244.639 41.5957 244.36 41.4067 244.086 41.2187C244.488 41.7975 244.157 41.5333 244.914 41.7813ZM234.609 42.2102C234.535 42.4051 234.461 42.6004 234.39 42.7898C234.776 42.4007 234.517 42.4822 234.609 42.2102Z" fill="url(#paint0_linear_0_390)" fill-opacity="0.6"/>
<defs>
<linearGradient id="paint0_linear_0_390" x1="-17.3115" y1="-103.839" x2="-28.8867" y2="41.0229" gradientUnits="userSpaceOnUse">
<stop stop-color="#7CC6A5"/>
<stop offset="1" stop-color="#3966CC"/>
</linearGradient>
</defs>
</svg>
