<svg width="339" height="231" viewBox="0 0 339 231" fill="none" xmlns="http://www.w3.org/2000/svg">
<rect width="339" height="231" rx="5" fill="url(#paint0_linear_70_1015)"/>
<path opacity="0.3" d="M121.745 212L105 202.197L170.255 164L187 173.799L121.745 212Z" fill="#16297A"/>
<ellipse opacity="0.3" cx="198.5" cy="194" rx="22.5" ry="13" fill="#16297A"/>
<path d="M175.873 19.54C175.866 19.5363 175.859 19.5326 175.851 19.5289C175.791 19.4956 175.728 19.4623 175.661 19.4364C175.65 19.4327 175.635 19.429 175.624 19.4217C175.601 19.4143 175.583 19.4069 175.56 19.3995C175.527 19.3884 175.497 19.3736 175.464 19.3662C175.426 19.3551 175.389 19.3477 175.356 19.3403C175.333 19.3366 175.311 19.3292 175.289 19.3255C175.277 19.3218 175.266 19.3181 175.251 19.3181C175.177 19.307 175.102 19.2959 175.024 19.2922C175.02 19.2922 175.013 19.2922 175.009 19.2922C174.99 19.2922 174.972 19.2922 174.953 19.2922C174.894 19.2885 174.834 19.2885 174.774 19.2922C174.756 19.2922 174.733 19.2959 174.711 19.2996C174.674 19.3033 174.637 19.307 174.596 19.3107C174.558 19.3144 174.525 19.3144 174.491 19.3218C174.461 19.3255 174.428 19.3366 174.398 19.3403C174.346 19.3514 174.294 19.3625 174.242 19.3736C174.212 19.381 174.186 19.3847 174.16 19.3921C174.134 19.3995 174.104 19.4143 174.074 19.4217C173.985 19.4475 173.899 19.4771 173.806 19.5141C173.772 19.5252 173.742 19.5326 173.713 19.5474C173.694 19.5548 173.675 19.5659 173.657 19.5733C173.5 19.6399 173.344 19.7138 173.18 19.81L115.863 52.6638C115.74 52.7341 115.621 52.8117 115.502 52.8931C115.465 52.919 115.424 52.9486 115.386 52.9745C115.304 53.0299 115.226 53.0891 115.148 53.152C115.103 53.1853 115.062 53.2223 115.018 53.2593C114.947 53.3184 114.872 53.3813 114.801 53.4442C114.757 53.4849 114.716 53.5218 114.675 53.5625C114.649 53.5884 114.619 53.6106 114.593 53.6365C114.567 53.6624 114.541 53.6957 114.511 53.7216C114.425 53.8066 114.339 53.8954 114.258 53.9879C114.231 54.0174 114.202 54.0433 114.176 54.0729C114.153 54.0988 114.135 54.1247 114.112 54.1506C114.064 54.2098 114.012 54.2689 113.963 54.3281C113.93 54.3688 113.896 54.4058 113.866 54.4465C113.84 54.4798 113.818 54.513 113.792 54.5463C113.758 54.5944 113.721 54.6388 113.688 54.6869C113.665 54.7202 113.639 54.7534 113.613 54.7867C113.572 54.8422 113.535 54.9014 113.498 54.9569C113.471 54.9938 113.449 55.0271 113.423 55.0641C113.412 55.0789 113.401 55.0937 113.393 55.1085C113.326 55.2121 113.259 55.3193 113.199 55.4266C113.196 55.434 113.192 55.4414 113.188 55.4488C113.177 55.471 113.162 55.4931 113.151 55.5153C113.106 55.593 113.065 55.667 113.021 55.7446C113.002 55.7816 112.983 55.8186 112.965 55.8519C112.946 55.8889 112.928 55.9259 112.905 55.9666C112.89 55.9998 112.872 56.0331 112.857 56.0627C112.812 56.1515 112.771 56.2402 112.734 56.3327C112.726 56.3475 112.719 56.3623 112.715 56.3771C112.711 56.3808 112.711 56.3845 112.708 56.3919C112.659 56.5028 112.611 56.6175 112.57 56.7284C112.562 56.7506 112.555 56.7691 112.548 56.7913C112.533 56.832 112.518 56.8727 112.503 56.9171C112.484 56.9725 112.462 57.028 112.443 57.0835C112.428 57.1279 112.417 57.1723 112.402 57.2166C112.387 57.2684 112.369 57.3202 112.354 57.372C112.343 57.4053 112.335 57.4349 112.324 57.4681C112.309 57.5273 112.294 57.5828 112.279 57.642C112.264 57.7048 112.246 57.7714 112.231 57.8343C112.227 57.8565 112.22 57.8787 112.216 57.9009C112.205 57.949 112.201 57.9933 112.194 58.0377C112.175 58.1376 112.156 58.2374 112.141 58.3373C112.138 58.3632 112.13 58.3928 112.127 58.4187C112.123 58.4445 112.123 58.4704 112.123 58.4963C112.097 58.7182 112.078 58.9401 112.078 59.1547L112.428 190.27C112.428 190.566 112.454 190.84 112.507 191.091C112.559 191.343 112.633 191.568 112.726 191.772C112.868 192.075 113.062 192.323 113.289 192.512C113.367 192.574 113.445 192.63 113.531 192.678L124.007 198.721C123.329 198.329 122.908 197.497 122.904 196.31L122.554 65.1943C122.554 64.9798 122.573 64.7579 122.599 64.536C122.606 64.4842 122.61 64.4287 122.618 64.3769C122.632 64.2771 122.651 64.1772 122.67 64.0774C122.685 64.0108 122.696 63.9405 122.711 63.8703C122.726 63.8074 122.74 63.7408 122.759 63.6779C122.781 63.5892 122.804 63.5004 122.83 63.4116C122.845 63.3599 122.86 63.3081 122.878 63.2563C122.912 63.1564 122.945 63.0566 122.979 62.9567C122.994 62.916 123.009 62.8754 123.024 62.8347C123.076 62.6978 123.132 62.5573 123.191 62.4204C123.199 62.4056 123.206 62.3909 123.214 62.3761C123.269 62.254 123.325 62.132 123.385 62.0099C123.404 61.9729 123.422 61.9359 123.441 61.899C123.5 61.7843 123.56 61.6733 123.623 61.5587C123.635 61.5365 123.646 61.5143 123.661 61.4921C123.735 61.3627 123.817 61.2332 123.899 61.1075C123.921 61.0705 123.948 61.0372 123.974 61.0002C124.033 60.9078 124.097 60.819 124.16 60.7302C124.193 60.6821 124.231 60.6341 124.264 60.5897C124.32 60.5157 124.376 60.4454 124.436 60.3715C124.484 60.3123 124.532 60.2531 124.581 60.1939C124.629 60.1385 124.678 60.0867 124.726 60.0312C124.808 59.9387 124.894 59.85 124.979 59.7649C125.032 59.7094 125.088 59.6577 125.14 59.6059C125.181 59.5652 125.225 59.5245 125.266 59.4875C125.337 59.4247 125.408 59.3618 125.482 59.3026C125.523 59.2656 125.568 59.2323 125.613 59.1953C125.691 59.1325 125.769 59.0733 125.851 59.0178C125.889 58.9919 125.926 58.9623 125.967 58.9365C126.086 58.8551 126.205 58.7774 126.328 58.7071L183.645 25.8533C183.805 25.7609 183.965 25.6869 184.122 25.6203C184.17 25.5981 184.222 25.5797 184.271 25.5612C184.36 25.5279 184.449 25.4946 184.539 25.4687C184.595 25.4539 184.651 25.4354 184.707 25.4206C184.759 25.4095 184.811 25.3984 184.863 25.3873C184.93 25.3762 184.997 25.3651 185.064 25.3577C185.101 25.354 185.142 25.3503 185.18 25.3467C185.262 25.3393 185.344 25.3393 185.422 25.343C185.44 25.343 185.459 25.343 185.478 25.343C185.575 25.3467 185.668 25.3614 185.757 25.3762C185.779 25.3799 185.802 25.3873 185.824 25.391C185.895 25.4058 185.966 25.428 186.033 25.4502C186.055 25.4576 186.078 25.465 186.096 25.4724C186.182 25.5057 186.264 25.5427 186.346 25.5908L175.873 19.54Z" fill="#76A3EE"/>
<path d="M122.882 183.017L112.402 176.97L112.104 64.1587L122.58 70.2057L122.882 183.017Z" fill="#1E499E"/>
<path d="M187.467 33.0137L187.769 145.825L122.882 183.018L122.58 70.2058L187.467 33.0137Z" fill="#375BB5"/>
<path d="M183.656 25.846C185.746 24.6477 187.445 25.6093 187.452 27.9948L187.467 33.0137L122.58 70.2058L122.878 183.018L187.765 145.825L187.802 159.107C187.81 161.489 186.118 164.396 184.032 165.594L126.715 198.448C124.625 199.646 122.927 198.681 122.919 196.299L122.569 65.1833C122.561 62.7977 124.249 59.8981 126.339 58.6961L183.656 25.846Z" fill="#BDD7FF"/>
<path d="M146.647 52.5528C146.647 51.9204 147.094 51.1474 147.649 50.833C148.201 50.5149 148.651 50.7738 148.651 51.4063C148.651 52.0387 148.204 52.8117 147.649 53.1261C147.098 53.4442 146.647 53.1853 146.647 52.5528Z" fill="#76A3EE"/>
<path d="M165.394 42.6112L150.462 51.1695C150.127 51.3619 149.858 51.1585 149.858 50.7146V50.7146C149.858 50.2708 150.13 49.7567 150.462 49.5681L165.394 41.0098C165.729 40.8174 165.997 41.0209 165.997 41.4647V41.4647C165.997 41.9048 165.725 42.4189 165.394 42.6112Z" fill="#76A3EE"/>
<path d="M214.628 146.349L214.761 148.301C214.761 148.301 214.702 149.405 214.698 149.958C214.694 150.371 214.613 150.984 214.198 150.763C214.198 150.763 213.75 150.818 213.003 150.456C213.003 150.456 212.322 150.423 211.885 149.91C211.885 149.91 211.837 149.847 211.685 149.434L211.574 149.63L211.156 149.504C211.156 149.504 210.568 149.15 210.279 148.416C209.698 146.94 211.193 147.39 211.193 147.39L211.371 146.135L214.628 146.349Z" fill="#EFB387"/>
<path d="M216.914 155.681L217.658 169.35L203.773 162.331L203.103 150.047L215.634 155.032L216.829 155.637L216.914 155.681Z" fill="#6E3816"/>
<path d="M217.658 169.35L218.721 169.294L218.41 167.663L216.863 167.471L217.658 169.35Z" fill="#6E3816"/>
<path d="M220.501 154.888C220.445 155.283 220.16 155.693 219.624 156.039C218.917 156.501 217.84 156.733 216.97 156.718C216.97 156.718 217 157.261 217.015 157.512L217.185 160.619L217.422 164.947L217.592 168.054C217.681 169.671 219.206 169.722 220.338 168.15C220.863 167.42 221.163 166.508 221.123 165.759L220.952 162.652L220.715 158.324L220.545 155.216C220.538 155.098 220.523 154.991 220.501 154.888Z" fill="#783C19"/>
<path d="M219.628 156.043C220.16 155.696 220.449 155.283 220.505 154.892C220.238 153.604 218.85 153.663 217.799 155.121C217.448 155.608 217.211 156.176 217.096 156.722C217.962 156.737 218.917 156.501 219.628 156.043Z" fill="#783C19"/>
<path fill-rule="evenodd" clip-rule="evenodd" d="M207.5 147.552L219.787 153.763C220.331 154.043 220.564 154.453 220.505 154.888C220.238 153.6 218.85 153.659 217.803 155.117C217.477 155.567 216.156 159.276 216.156 159.276C213.762 163.099 206.575 160.054 203.311 153.807C202.685 152.172 202.607 150.227 202.689 149.198C202.718 148.81 202.996 148.308 203.584 147.925C204.706 147.194 206.464 147.028 207.5 147.552Z" fill="#9E481D"/>
<path d="M207.641 159.283C207.589 158.346 208.229 157.932 209.065 158.357C209.902 158.781 210.623 159.881 210.675 160.818C210.727 161.752 210.087 162.169 209.25 161.744C208.414 161.32 207.692 160.22 207.641 159.283Z" fill="#E9AC23"/>
<path d="M209.987 147.895L210.682 147.493L210.82 149.829L210.121 150.231L209.987 147.895Z" fill="#7A3816"/>
<path d="M209.006 146.39L209.624 145.984L216.086 149.253L215.471 149.659L209.006 146.39Z" fill="#9E481D"/>
<path d="M215.471 149.659L215.645 153.043L214.738 152.585L214.616 150.246L209.968 147.895L210.086 150.231L209.18 149.774L209.006 146.39L215.471 149.659Z" fill="#783C19"/>
<path d="M215.483 149.659L216.179 149.253L216.38 152.641L215.68 153.043L215.483 149.659Z" fill="#9E481D"/>
<path d="M173.6 116.245C173.6 116.245 172.445 117.212 172.601 117.994C172.919 119.193 173.049 119.695 173.049 119.695L176.131 121.452L174.403 116.548L173.6 116.245Z" fill="#E89A64"/>
<path d="M173.852 123.256C173.852 123.256 173.8 124.887 174.07 125.806C174.34 126.725 175.606 127.463 176.294 126.315C176.986 125.171 173.852 123.256 173.852 123.256Z" fill="#E89A64"/>
<path d="M212.785 150.29C212.625 149.755 213.118 148.641 213.536 148.711C214.206 148.825 213.743 150.283 213.591 150.523C213.44 150.77 212.866 150.567 212.785 150.29Z" fill="#EFB387"/>
<path d="M211.918 149.951C211.759 149.416 212.251 148.301 212.67 148.371C213.339 148.486 212.877 149.943 212.725 150.183C212.573 150.43 211.996 150.227 211.918 149.951Z" fill="#EFB387"/>
<path d="M207.222 196.074H203.791L201.393 195.446L197.3 196.184L194.021 195.166L194.221 192.978L200.623 192.007L207.103 191.937L207.222 196.074Z" fill="#001829"/>
<path d="M202.822 197.727H199.391L196.989 197.1L192.9 197.838L189.621 196.819L189.817 194.631L196.223 193.657L202.7 193.59L202.822 197.727Z" fill="#001829"/>
<path d="M212.511 145.198L213.077 150.67L210.076 165.003L211.323 174.313L207.189 194.059L202.211 193.325L199.721 150.331L212.511 145.198Z" fill="url(#paint1_linear_70_1015)"/>
<path d="M190.894 146.888L190.328 155.069L195.609 173.125L196.223 193.657L202.703 193.587L202.977 160.202L203.003 157.231L203.617 156.744C205.952 154.888 207.573 152.29 208.21 149.379L208.798 146.685L190.894 146.888Z" fill="url(#paint2_linear_70_1015)"/>
<path d="M195.701 119.581L201.19 114.953L209.735 111.85L216.074 114.219L217.377 121.16L213.358 135.998L212.511 145.194L207.185 147.331C202.392 149.257 197.041 149.283 192.23 147.404L190.894 146.884L194.743 135.485L195.701 119.581Z" fill="url(#paint3_linear_70_1015)"/>
<path d="M198.736 101.772L198.325 103.289L198.529 103.986L198.003 105.307L199.328 111.636L200.213 111.968L201.057 112.068L203.159 108.78L203.462 105.056L200.142 103.396L198.736 101.772Z" fill="#EFB387"/>
<path d="M201.027 111.238L200.919 115.341C200.919 115.341 203.588 115.806 205.075 115.448C206.563 115.09 209.605 113.252 209.605 113.252L209.265 109.094L202.281 108.396L201.027 111.238Z" fill="#EFB387"/>
<path d="M211.038 102.425L209.424 110.356L203.462 112.924L201.127 110.082L201.934 108.237L201.171 107.267L201.153 107.245L199.991 108.307L199.095 107.603L199.813 104.865L199.006 104.2L197.915 102.566L198.351 101.027L202.422 98.8903H204.839L211.038 102.425Z" fill="#915236"/>
<path d="M211.038 102.425L209.424 110.356L203.462 112.924L201.127 110.082L201.934 108.237L201.171 107.267L201.475 105.879L211.038 102.425Z" fill="#713E23"/>
<path d="M203.813 126.747C203.813 126.747 193.836 139.349 190.816 140.371C187.796 141.393 176.131 126.747 176.131 126.747L179.662 123.559L187.774 130.47L195.705 119.577L203.813 126.747Z" fill="url(#paint4_linear_70_1015)"/>
<path d="M179.566 123.644L179.199 122.987C179.199 122.987 178.97 119.688 178.4 118.145C177.963 116.965 176.89 117.54 176.927 118.559C176.964 119.581 176.986 120.4 176.986 120.4C176.986 120.4 174.829 121.112 172.863 119.027C172.863 119.027 172.379 122.19 173.234 123.518C174.092 124.843 175.332 125.393 175.332 125.393L176.435 126.467L179.566 123.644Z" fill="#EFB387"/>
<path d="M176.058 114.869C176.058 114.869 177.216 117.097 177.405 117.979C177.593 118.865 176.365 122.537 176.143 122.876C175.921 123.216 174.777 122.928 175.069 120.681L175.103 119.71C175.103 119.71 173.685 118.197 173.567 116.717L173.312 115.817L176.058 114.869Z" fill="#E89A64"/>
<path d="M172.02 116.905L165.562 105.569L158.997 91.3402L163.978 80.3177C163.978 80.3177 168.907 98.285 169.999 101.075L176.394 114.536L172.02 116.905Z" fill="url(#paint5_linear_70_1015)"/>
<path d="M163.7 114.946L163.263 123.016L160.395 153.135H155.296C155.296 153.135 155.277 152.752 155.247 152.102C155.107 148.855 154.678 138.976 154.678 137.412C154.678 136.135 155.007 134.873 155.222 134.198L155.229 134.172C155.296 133.958 155.347 133.806 155.377 133.733L155.395 133.685L154.859 130.042L153.134 118.315L159.518 115.754L163.7 114.946Z" fill="url(#paint6_linear_70_1015)"/>
<path d="M146.532 159.15C146.532 159.15 146.31 162.962 146.31 163.697C146.31 164.431 148.775 166.483 148.775 166.483H151.68L152.213 163.567L150.906 160.984V159.15H146.532Z" fill="#04102D"/>
<path d="M155.247 152.755L155.103 155.936L156.905 156.464L158.419 156.191L160.443 158.191L165.18 158.969L165.876 157.445L159.696 152.394L155.247 152.102V152.755Z" fill="#04102D"/>
<path d="M159.837 116.972L158.072 120.522L156.24 124.404C156.24 124.404 153.779 137.002 153.619 138.784C153.46 140.57 151.147 160.043 151.147 160.043H146.447C146.447 160.043 145.333 144.707 145.207 143.438C145.085 142.165 146.447 137.559 146.447 137.559C146.447 137.559 146.077 132.784 145.737 128.684C145.533 126.197 145.341 123.954 145.252 123.175C145.015 121.109 145.811 117.529 145.811 117.529L159.837 116.972Z" fill="url(#paint7_linear_70_1015)"/>
<path d="M150.633 82.3953L160.118 79.3066L163.985 81.0373L163.197 103.898L163.697 114.946C163.697 114.946 155.573 119.692 151.817 119.441C148.686 119.19 145.855 117.57 145.855 117.57L147.061 106.772L149.26 83.1186L150.633 82.3953Z" fill="white"/>
<path d="M149.263 83.1185C149.263 83.1185 157.942 90.0412 158.419 94.9122C158.897 99.7795 156.876 117.319 155.399 120.503C155.399 120.503 145.559 120.773 142.617 119.452L146.499 107.894L143.327 88.5357C143.272 87.6648 143.205 86.4802 143.205 86.4802L149.263 83.1185Z" fill="url(#paint8_linear_70_1015)"/>
<path d="M160.443 78.5133L158.238 79.0225C158.238 79.0225 161.65 89.4952 161.931 91.0376C162.212 92.5838 162.353 118.145 162.353 118.145C162.353 118.145 165.436 116.256 165.906 113.854L163.7 96.0341L163.981 81.0374L160.443 78.5133Z" fill="url(#paint9_linear_70_1015)"/>
<path d="M158.959 71.2179C158.959 71.2179 159.725 72.967 159.759 73.2327C159.788 73.4984 159.759 74.373 159.759 74.373L160.292 75.6202L159.885 80.7089L157.975 81.6905L153.108 79.7384L151.717 76.6645V70.9301L158.959 71.2179Z" fill="#EFB387"/>
<path d="M159.23 70.4614L158.96 71.2179L153.675 72.919L152.901 74.277L153.168 77.0225L152.605 77.0852L151.321 80.1148H151.04L150.381 77.8343L147.28 76.528L145.933 71.4725L146.599 70.8784L150.57 67.3322C150.57 67.3322 156.239 67.5978 158.264 69.0185L158.349 69.0776L158.797 69.7824L159.23 70.4614Z" fill="#713E23"/>
<path d="M153.679 72.9228L152.905 74.277L153.172 77.0225L152.609 77.0852L151.325 80.1112H151.044L150.385 77.8343L147.284 76.528L145.937 71.4725L153.679 72.9228Z" fill="#915236"/>
<path d="M151.884 77.9303L150.633 82.3954L156.954 84.6427L158.549 80.1149L151.884 77.9303Z" fill="#EFB387"/>
<path d="M152.609 77.0852C152.609 77.0852 151.565 75.0851 150.966 75.0261C150.366 74.967 150.096 75.8232 150.192 76.6645C150.285 77.5059 151.073 77.7642 151.073 77.7642C151.073 77.7642 151.203 78.3952 151.613 78.6424C152.024 78.8897 152.727 78.7236 152.824 78.4542C152.912 78.1848 152.609 77.0852 152.609 77.0852Z" fill="#EFB387"/>
<path d="M145.396 127.633L146.14 141.301L132.254 134.282L131.584 122.002L144.115 126.983L145.311 127.592L145.396 127.633Z" fill="#6E3816"/>
<path d="M146.14 141.305L147.206 141.246L146.891 139.618L145.348 139.423L146.14 141.305Z" fill="#6E3816"/>
<path d="M148.982 126.843C148.927 127.238 148.642 127.648 148.105 127.994C147.398 128.456 146.321 128.688 145.452 128.673C145.452 128.673 145.481 129.216 145.496 129.467L145.666 132.574L145.903 136.902L146.073 140.01C146.162 141.626 147.687 141.678 148.819 140.106C149.345 139.375 149.645 138.463 149.604 137.714L149.434 134.607L149.197 130.279L149.027 127.172C149.019 127.05 149.004 126.943 148.982 126.843Z" fill="#783C19"/>
<path d="M148.109 127.994C148.642 127.647 148.931 127.234 148.986 126.843C148.72 125.555 147.332 125.614 146.281 127.072C145.929 127.559 145.692 128.127 145.578 128.673C146.447 128.692 147.402 128.456 148.109 127.994Z" fill="#783C19"/>
<path fill-rule="evenodd" clip-rule="evenodd" d="M135.981 119.507L148.268 125.718C148.812 125.994 149.045 126.404 148.986 126.843C148.72 125.555 147.332 125.614 146.284 127.072C145.959 127.522 144.637 131.231 144.637 131.231C142.243 135.054 135.056 132.009 131.792 125.762C131.167 124.127 131.089 122.182 131.17 121.153C131.2 120.765 131.477 120.264 132.066 119.88C133.187 119.149 134.945 118.983 135.981 119.507Z" fill="#9E481D"/>
<path d="M136.122 131.234C136.07 130.297 136.711 129.884 137.547 130.308C138.383 130.732 139.105 131.832 139.157 132.769C139.209 133.703 138.568 134.12 137.732 133.696C136.896 133.275 136.174 132.172 136.122 131.234Z" fill="#E9AC23"/>
<path d="M138.456 119.85L139.151 119.444L139.29 121.784L138.59 122.186L138.456 119.85Z" fill="#7A3816"/>
<path d="M137.487 118.341L138.105 117.939L144.567 121.208L143.953 121.61L137.487 118.341Z" fill="#9E481D"/>
<path d="M143.953 121.61L144.127 124.998L143.22 124.537L143.098 122.201L138.45 119.85L138.568 122.186L137.661 121.728L137.487 118.341L143.953 121.61Z" fill="#783C19"/>
<path d="M143.953 121.61L144.648 121.208L144.849 124.592L144.15 124.998L143.953 121.61Z" fill="#9E481D"/>
<path d="M139.852 116.906L139.397 118.186C139.397 118.186 139.268 119.393 139.183 119.979C139.116 120.419 139.094 121.123 139.538 121.208C139.538 121.208 139.963 121.607 140.755 121.791C140.755 121.791 141.425 122.271 141.936 122.061C141.936 122.061 141.992 122.031 142.21 121.71L142.288 122.002L142.717 122.186C142.717 122.186 143.35 122.256 143.753 121.699C144.564 120.581 143.142 118.832 143.142 118.832L143.294 117.525L139.852 116.906Z" fill="#EFB387"/>
<path d="M143.205 86.4766C141.118 91.0265 140.474 101.2 140.474 101.2L139.146 116.905L143.953 117.614L146.577 103.064L147.639 96.761L143.205 86.4766Z" fill="url(#paint10_linear_70_1015)"/>
<path d="M216.456 116.245C217.192 121.197 218.306 132.271 218.306 132.271L215.235 146.39L210.338 146.069L211.93 132.371L212.666 126.024L216.456 116.245Z" fill="url(#paint11_linear_70_1015)"/>
<path d="M213.725 150.633C213.443 150.087 213.651 148.733 214.073 148.696C214.75 148.637 214.65 150.368 214.565 150.67C214.476 150.98 213.869 150.914 213.725 150.633Z" fill="#EFB387"/>
<path d="M133.528 78.0349C133.603 78.005 133.677 77.9789 133.751 77.9565C133.8 77.9415 133.848 77.9266 133.893 77.9154C133.937 77.9042 133.978 77.8967 134.023 77.8892C134.079 77.878 134.134 77.8706 134.19 77.8631C134.22 77.8594 134.253 77.8556 134.283 77.8519C134.354 77.8482 134.424 77.8444 134.491 77.8482C134.506 77.8482 134.521 77.8482 134.532 77.8482C134.614 77.8519 134.692 77.8631 134.766 77.878C134.785 77.8818 134.804 77.8855 134.822 77.893C134.882 77.9079 134.941 77.9229 134.997 77.9453C135.016 77.9527 135.034 77.9565 135.049 77.9639C135.12 77.9938 135.19 78.0237 135.257 78.0647L132.375 76.3808C132.368 76.3771 132.364 76.3733 132.357 76.3696C132.305 76.3397 132.253 76.3136 132.197 76.2912C132.186 76.2875 132.178 76.2837 132.167 76.28C132.148 76.2725 132.13 76.2688 132.111 76.2613C132.082 76.2501 132.055 76.2389 132.026 76.2315C131.996 76.224 131.966 76.2165 131.936 76.2091C131.918 76.2053 131.899 76.1979 131.881 76.1941C131.87 76.1904 131.858 76.1904 131.847 76.1867C131.784 76.1755 131.721 76.168 131.654 76.1643C131.65 76.1643 131.646 76.1643 131.643 76.1643C131.628 76.1643 131.617 76.1643 131.602 76.1643C131.55 76.1643 131.498 76.1605 131.442 76.1643C131.427 76.1643 131.408 76.168 131.394 76.168C131.364 76.1717 131.33 76.1755 131.301 76.1792C131.271 76.1829 131.241 76.1829 131.208 76.1867C131.182 76.1904 131.156 76.1979 131.133 76.2016C131.089 76.2091 131.048 76.2203 131.003 76.2277C130.977 76.2352 130.955 76.2352 130.932 76.2427C130.91 76.2501 130.888 76.2613 130.862 76.2651C130.787 76.2875 130.717 76.3136 130.639 76.3435C130.613 76.3547 130.587 76.3584 130.561 76.3696C130.546 76.3771 130.531 76.3845 130.516 76.392C130.386 76.448 130.256 76.5115 130.122 76.5899L85.3098 102.614C85.2094 102.674 85.109 102.737 85.0086 102.805C84.9751 102.827 84.9454 102.849 84.9156 102.876C84.8487 102.924 84.7817 102.973 84.7185 103.025C84.6813 103.055 84.6479 103.085 84.6107 103.114C84.5512 103.167 84.4917 103.219 84.4322 103.271C84.395 103.305 84.3615 103.335 84.328 103.368C84.3057 103.387 84.2834 103.409 84.2648 103.428C84.2425 103.451 84.2202 103.477 84.1942 103.503C84.1235 103.577 84.0529 103.652 83.9822 103.727C83.9599 103.749 83.9376 103.772 83.9153 103.798C83.8967 103.82 83.8781 103.843 83.8595 103.865C83.8186 103.913 83.7777 103.966 83.733 104.018C83.707 104.052 83.681 104.082 83.6549 104.115C83.6326 104.145 83.614 104.175 83.5917 104.201C83.562 104.242 83.5322 104.283 83.5025 104.324C83.4839 104.35 83.4616 104.376 83.443 104.403C83.4095 104.451 83.376 104.5 83.3463 104.548C83.324 104.578 83.3054 104.608 83.2831 104.642C83.2756 104.653 83.2682 104.668 83.257 104.679C83.2012 104.769 83.1455 104.858 83.0934 104.951C83.0897 104.959 83.086 104.963 83.0822 104.97C83.0711 104.989 83.0599 105.007 83.0488 105.03C83.0116 105.093 82.9744 105.157 82.9409 105.224C82.926 105.254 82.9112 105.284 82.8963 105.314C82.8814 105.347 82.8628 105.377 82.848 105.411C82.8331 105.441 82.8182 105.467 82.807 105.497C82.7736 105.568 82.7401 105.638 82.7104 105.713C82.7029 105.728 82.6955 105.747 82.688 105.762C82.6843 105.765 82.6843 105.769 82.6806 105.777C82.6397 105.87 82.5988 105.967 82.5653 106.064C82.5579 106.079 82.5542 106.098 82.5467 106.113C82.5356 106.146 82.5207 106.184 82.5095 106.217C82.4909 106.266 82.4724 106.314 82.4575 106.367C82.4463 106.404 82.4352 106.438 82.424 106.475C82.4091 106.52 82.398 106.564 82.3831 106.606C82.3757 106.635 82.3645 106.662 82.3571 106.691C82.3459 106.74 82.3348 106.785 82.3236 106.833C82.3087 106.889 82.2976 106.942 82.2827 106.998C82.279 107.016 82.2715 107.039 82.2678 107.057C82.2604 107.095 82.2567 107.136 82.2492 107.173C82.2343 107.255 82.2195 107.341 82.2083 107.423C82.2046 107.446 82.2009 107.472 82.1972 107.494C82.1897 107.546 82.186 107.599 82.1823 107.647C82.1786 107.685 82.1748 107.722 82.1711 107.759C82.1637 107.875 82.1562 107.994 82.1562 108.106L82.186 117.997C82.1897 118.998 82.543 119.7 83.112 120.032L85.9941 121.716C85.4251 121.384 85.0718 120.678 85.0681 119.681L85.0383 109.79C85.0383 109.675 85.0421 109.559 85.0532 109.439C85.0569 109.402 85.0607 109.365 85.0644 109.327C85.0718 109.253 85.0792 109.174 85.0904 109.1C85.1016 109.018 85.1164 108.935 85.1313 108.85C85.1425 108.79 85.1536 108.734 85.1648 108.674C85.1759 108.622 85.1908 108.566 85.2057 108.513C85.2243 108.439 85.2429 108.364 85.2652 108.286C85.2763 108.241 85.2912 108.196 85.3061 108.155C85.3321 108.069 85.3619 107.983 85.3916 107.897C85.4028 107.864 85.4139 107.83 85.4288 107.797C85.4734 107.681 85.5181 107.561 85.5701 107.446C85.5776 107.431 85.585 107.416 85.5924 107.401C85.6371 107.3 85.6854 107.199 85.7338 107.098C85.7486 107.065 85.7672 107.035 85.7821 107.001C85.8305 106.904 85.8825 106.811 85.9346 106.718C85.9457 106.699 85.9569 106.68 85.968 106.662C86.0313 106.55 86.0982 106.441 86.1689 106.337C86.1875 106.307 86.2098 106.277 86.2284 106.247C86.2804 106.169 86.3325 106.094 86.3846 106.019C86.4143 105.978 86.4441 105.937 86.4738 105.9C86.5184 105.836 86.5668 105.777 86.6151 105.717C86.656 105.665 86.6969 105.612 86.7416 105.564C86.7825 105.515 86.8234 105.47 86.8643 105.426C86.9349 105.347 87.0019 105.273 87.0763 105.202C87.1209 105.157 87.1655 105.112 87.2101 105.067C87.2436 105.034 87.2808 105 87.3143 104.966C87.3738 104.914 87.4333 104.862 87.4928 104.81C87.53 104.78 87.5634 104.75 87.6006 104.72C87.6676 104.668 87.7308 104.619 87.7977 104.571C87.8312 104.548 87.8609 104.522 87.8944 104.5C87.9948 104.432 88.0915 104.365 88.1956 104.309L133.007 78.285C133.141 78.2066 133.272 78.1431 133.402 78.0871C133.446 78.0685 133.487 78.0498 133.528 78.0349Z" fill="#76A3EE"/>
<path d="M133.011 78.2813C134.752 77.2731 136.18 78.0908 136.187 80.0996L136.217 89.9903C136.224 92.0028 134.804 94.4708 133.063 95.4789L88.2516 121.503C86.5111 122.511 85.0831 121.694 85.0757 119.685L85.0459 109.794C85.0385 107.785 86.4591 105.317 88.1995 104.309L133.011 78.2813Z" fill="#8DC3FE"/>
<path d="M124.149 92.5293C124.16 92.4247 124.172 92.3202 124.186 92.2157C124.201 92.0999 124.224 91.9842 124.246 91.8647C124.261 91.7863 124.276 91.7041 124.294 91.6257C124.309 91.551 124.332 91.4764 124.35 91.4017C124.376 91.2971 124.402 91.1926 124.432 91.0881C124.451 91.0283 124.469 90.9686 124.488 90.9088C124.525 90.7931 124.562 90.6736 124.603 90.5579C124.622 90.5093 124.636 90.4608 124.655 90.4122C124.715 90.2517 124.778 90.0911 124.848 89.9306C124.856 89.9119 124.863 89.897 124.871 89.8783C124.934 89.7364 125.001 89.5908 125.072 89.4489C125.094 89.4041 125.116 89.3631 125.139 89.3183C125.205 89.1876 125.276 89.0569 125.35 88.9262C125.365 88.9001 125.38 88.8739 125.395 88.8478C125.484 88.6947 125.574 88.5454 125.67 88.3998C125.696 88.3587 125.726 88.3176 125.756 88.2728C125.826 88.1683 125.897 88.0637 125.972 87.9592C126.012 87.9032 126.053 87.8472 126.094 87.7949C126.157 87.709 126.224 87.6269 126.291 87.541C126.347 87.4701 126.403 87.4028 126.459 87.3356C126.514 87.2722 126.57 87.2087 126.626 87.1452C126.719 87.0407 126.816 86.9361 126.916 86.8353C126.979 86.7718 127.039 86.7084 127.102 86.6486C127.15 86.6001 127.199 86.5553 127.251 86.5105C127.333 86.4358 127.414 86.3649 127.496 86.2939C127.545 86.2529 127.597 86.2118 127.645 86.1707C127.734 86.0998 127.827 86.0288 127.92 85.9616C127.965 85.928 128.006 85.8944 128.05 85.8645C128.188 85.7712 128.326 85.6816 128.467 85.5994C128.601 85.521 128.735 85.4538 128.868 85.3904C128.902 85.3754 128.935 85.3568 128.973 85.3418C129.099 85.2858 129.225 85.2335 129.348 85.1887C129.356 85.185 129.363 85.185 129.371 85.1813C129.478 85.1439 129.583 85.1178 129.69 85.0917C129.75 85.0767 129.809 85.0655 129.869 85.0543C129.947 85.0394 130.025 85.0282 130.099 85.017C130.144 85.0132 130.189 85.0058 130.23 85.002C130.326 84.9946 130.419 84.9946 130.508 84.9983C130.531 84.9983 130.549 84.9983 130.572 84.9983C130.683 85.0058 130.791 85.0207 130.895 85.0394C130.921 85.0431 130.947 85.0506 130.973 85.0581C131.055 85.0767 131.137 85.0991 131.215 85.129C131.241 85.1365 131.263 85.1439 131.289 85.1551C131.39 85.1925 131.483 85.2373 131.576 85.2933L129.813 84.274C129.806 84.2702 129.798 84.2665 129.791 84.259C129.72 84.218 129.646 84.1844 129.571 84.1507C129.556 84.1433 129.542 84.1395 129.527 84.1358C129.501 84.1246 129.478 84.1171 129.452 84.1097C129.415 84.0947 129.378 84.0798 129.337 84.0686C129.296 84.0574 129.252 84.0499 129.211 84.0387C129.185 84.0313 129.159 84.0275 129.133 84.0201C129.118 84.0163 129.106 84.0126 129.092 84.0089C129.006 83.9939 128.917 83.9827 128.828 83.979C128.824 83.979 128.816 83.979 128.809 83.979C128.787 83.979 128.768 83.979 128.746 83.979C128.679 83.9753 128.608 83.9753 128.538 83.979C128.515 83.979 128.489 83.9865 128.467 83.9865C128.422 83.9902 128.381 83.9939 128.337 84.0014C128.296 84.0051 128.255 84.0089 128.214 84.0126C128.177 84.0163 128.14 84.0275 128.106 84.035C128.047 84.0462 127.987 84.0574 127.928 84.0723C127.894 84.0798 127.864 84.0835 127.831 84.0947C127.757 84.1134 127.682 84.1395 127.608 84.162C127.6 84.1657 127.593 84.1657 127.585 84.1694C127.496 84.1993 127.407 84.2329 127.318 84.2702C127.281 84.2852 127.247 84.3038 127.21 84.3188C127.176 84.3337 127.143 84.3486 127.106 84.3673C126.972 84.4308 126.842 84.498 126.704 84.5764C126.563 84.6585 126.425 84.7481 126.288 84.8415C126.243 84.8714 126.198 84.905 126.157 84.9386C126.064 85.0058 125.972 85.073 125.882 85.1477C125.834 85.1887 125.782 85.2298 125.734 85.2709C125.652 85.3418 125.57 85.4128 125.488 85.4874C125.44 85.5322 125.388 85.577 125.339 85.6256C125.31 85.6555 125.276 85.6816 125.246 85.7115C125.213 85.7451 125.183 85.7787 125.153 85.8123C125.057 85.9131 124.96 86.0176 124.863 86.1222C124.834 86.1558 124.8 86.1856 124.77 86.223C124.744 86.2529 124.722 86.2827 124.696 86.3126C124.64 86.3798 124.584 86.4507 124.529 86.5179C124.491 86.5628 124.454 86.6076 124.417 86.6524C124.387 86.6897 124.361 86.7308 124.332 86.7718C124.291 86.8278 124.25 86.8801 124.213 86.9361C124.186 86.9735 124.157 87.0108 124.131 87.0481C124.086 87.1153 124.041 87.1826 123.997 87.2498C123.971 87.2908 123.941 87.3319 123.915 87.373C123.904 87.3916 123.893 87.4066 123.882 87.4252C123.803 87.5485 123.729 87.6717 123.655 87.7949C123.651 87.8024 123.644 87.8136 123.64 87.821C123.625 87.8472 123.61 87.8733 123.595 87.8994C123.547 87.989 123.495 88.0749 123.446 88.1645C123.424 88.2056 123.402 88.2504 123.383 88.2915C123.361 88.3363 123.339 88.3774 123.316 88.4222C123.298 88.4595 123.279 88.4968 123.26 88.5342C123.212 88.6387 123.164 88.7433 123.119 88.8478C123.112 88.8665 123.104 88.8814 123.097 88.9001C123.093 88.9038 123.093 88.9075 123.089 88.915C123.034 89.0457 122.978 89.1764 122.93 89.3071C122.918 89.3332 122.911 89.3556 122.903 89.3817C122.885 89.4303 122.87 89.4788 122.851 89.5273C122.829 89.5908 122.803 89.658 122.781 89.7215C122.762 89.7738 122.751 89.8261 122.732 89.8783C122.714 89.9381 122.695 89.9978 122.677 90.0575C122.665 90.0949 122.654 90.1322 122.643 90.1696C122.625 90.2368 122.61 90.304 122.595 90.3712C122.576 90.4459 122.558 90.5205 122.539 90.5952C122.532 90.6213 122.524 90.6475 122.52 90.6736C122.509 90.7296 122.502 90.7819 122.494 90.8342C122.472 90.9499 122.45 91.0694 122.435 91.1851C122.431 91.2187 122.424 91.2486 122.42 91.2822C122.409 91.3569 122.405 91.4278 122.398 91.5025C122.394 91.5548 122.387 91.607 122.383 91.6556C122.372 91.8199 122.364 91.9804 122.364 92.141C122.368 93.3507 122.74 94.2431 123.357 94.7546C123.446 94.8293 123.539 94.8927 123.636 94.9488L125.399 95.9681C124.614 95.5126 124.131 94.538 124.127 93.1603C124.127 92.9997 124.134 92.8392 124.146 92.6749C124.138 92.6338 124.146 92.5816 124.149 92.5293Z" fill="#4848D8"/>
<path d="M128.463 85.6069C130.873 84.2105 132.833 85.3306 132.84 88.1123C132.848 90.8939 130.899 94.2767 128.489 95.6731C126.08 97.0696 124.12 95.9494 124.112 93.1678C124.109 90.3899 126.054 87.0034 128.463 85.6069Z" fill="#8681FF"/>
<path d="M130.04 87.0818L128.4 91.3121L127.455 91.2188L126.645 93.3358L129.017 93.4628L131.457 87.149L130.04 87.0818Z" fill="white"/>
<path d="M90.4458 107.957V109.671L118.192 93.5859V91.8759L90.4458 107.957Z" fill="white"/>
<path d="M95.9048 109.219V110.933L118.192 98.0104V96.3003L95.9048 109.219Z" fill="white"/>
<path opacity="0.56" d="M256.767 136.97L225.151 118.941V92.1897L256.767 110.223V136.97Z" fill="white"/>
<path d="M236.396 103.343L236.697 103.518V103.86L236.396 103.689V103.343Z" fill="white"/>
<path d="M239.411 105.169L236.874 103.722V103.618L239.411 105.065V105.169Z" fill="white"/>
<path d="M239.411 105.344L236.874 103.893V103.789L239.411 105.236V105.344Z" fill="white"/>
<path d="M239.042 105.303L236.874 104.068V103.96L239.042 105.199V105.303Z" fill="white"/>
<path d="M236.396 104.143L236.697 104.314V104.66L236.396 104.488V104.143Z" fill="white"/>
<path d="M239.411 105.969L236.874 104.522V104.414L239.411 105.864V105.969Z" fill="white"/>
<path d="M239.411 106.14L236.874 104.693V104.589L239.411 106.036V106.14Z" fill="white"/>
<path d="M239.042 106.102L236.874 104.864V104.76L239.042 105.998V106.102Z" fill="white"/>
<path d="M236.396 105.017L236.697 105.188V105.534L236.396 105.359V105.017Z" fill="white"/>
<path d="M239.411 106.843L236.874 105.392V105.288L239.411 106.735V106.843Z" fill="white"/>
<path d="M239.411 107.014L236.874 105.567V105.459L239.411 106.91V107.014Z" fill="white"/>
<path d="M239.042 106.976L236.874 105.738V105.634L239.042 106.869V106.976Z" fill="white"/>
<path d="M229.552 100.23C229.251 100.059 229.01 99.6426 229.01 99.3005C229.01 99.1852 229.036 99.0922 229.085 99.029L228.837 98.5641C228.716 98.6719 228.645 98.8505 228.645 99.0922C228.645 99.6649 229.051 100.36 229.552 100.647C229.717 100.743 229.876 100.781 230.011 100.766L229.763 100.301C229.695 100.297 229.623 100.275 229.552 100.23Z" fill="white"/>
<path d="M230.549 100.081C230.549 99.5087 230.143 98.8133 229.642 98.5269C229.352 98.3595 229.092 98.3707 228.927 98.5157L229.175 98.9806C229.269 98.8505 229.446 98.8281 229.646 98.9434C229.947 99.1145 230.188 99.531 230.188 99.8732C230.188 100.13 230.049 100.275 229.853 100.256L230.101 100.721C230.369 100.695 230.549 100.465 230.549 100.081Z" fill="white"/>
<path d="M234.212 102.023L230.613 99.9699V99.7021L234.212 101.755V102.023Z" fill="white"/>
<path d="M232.447 101.417L230.613 100.372V100.182L232.447 101.227V101.417Z" fill="white"/>
<path d="M232.115 101.539L230.613 100.684V100.494L232.115 101.35V101.539Z" fill="white"/>
<path d="M234.45 104.113L230.613 101.926V101.658L234.45 103.845V104.113Z" fill="white"/>
<path d="M232.447 103.369L230.613 102.324V102.134L232.447 103.179V103.369Z" fill="white"/>
<path d="M232.115 103.495L230.613 102.64V102.45L232.115 103.306V103.495Z" fill="white"/>
<path d="M229.006 101.584C229.006 101.242 229.251 101.104 229.548 101.275C229.71 101.368 229.857 101.532 229.955 101.714L230.297 101.736C230.135 101.372 229.86 101.037 229.548 100.859C229.047 100.572 228.641 100.803 228.641 101.376C228.641 101.457 228.648 101.547 228.667 101.632L229.01 101.655C229.006 101.629 229.006 101.606 229.006 101.584Z" fill="white"/>
<path d="M229.958 101.785C230.045 101.945 230.094 102.116 230.094 102.276C230.094 102.618 229.849 102.755 229.548 102.584C229.269 102.424 229.036 102.052 229.006 101.725L228.663 101.703C228.757 102.212 229.119 102.755 229.548 103.001C230.048 103.287 230.455 103.057 230.455 102.484C230.455 102.268 230.395 102.03 230.297 101.807L229.958 101.785Z" fill="white"/>
<path d="M239.506 117.579L234.63 117.713C235.553 120.238 237.39 122.648 239.506 123.857C241.094 124.764 242.525 124.813 243.53 124.158L239.506 117.579Z" fill="white"/>
<path d="M239.705 110.77C236.667 109.037 234.201 110.443 234.201 113.909C234.201 114.961 234.427 116.084 234.83 117.181L239.705 117.048L243.956 115.486C242.947 113.511 241.418 111.744 239.705 110.77Z" fill="white"/>
<path d="M244.539 115.82L240.289 117.382L244.313 123.961C245.232 123.362 245.793 122.18 245.793 120.521C245.793 119.008 245.322 117.349 244.539 115.82Z" fill="white"/>
<path d="M254.015 120.874L248.368 117.654L246.493 117.799L246.481 117.654L248.401 117.505L254.09 120.748L254.015 120.874Z" fill="white"/>
<path d="M236.343 108.929L234.453 106.623L228.799 103.399L228.87 103.272L234.559 106.523L236.456 108.84L236.343 108.929Z" fill="white"/>
<path d="M250.626 130.6L244.938 127.353L243.041 125.036L243.153 124.943L245.043 127.249L250.698 130.477L250.626 130.6Z" fill="white"/>
<path d="M254.248 122.901L248.748 119.762V118.643L254.248 121.782V122.901Z" fill="white"/>
<path d="M248.748 128.48L245.209 126.464V125.341L248.748 127.36V128.48Z" fill="white"/>
<path d="M253.119 123.418L248.748 120.923V120.361L253.119 122.857V123.418Z" fill="white"/>
<path d="M231.953 107.148L228.833 105.37V104.247L231.953 106.028V107.148Z" fill="white"/>
<path d="M233.855 109.39L232.108 108.393V107.836L233.855 108.829V109.39Z" fill="white"/>
<path d="M231.313 107.94L228.833 106.526V105.965L231.313 107.378V107.94Z" fill="white"/>
<path d="M251.188 128.16L246.813 125.664V125.103L251.188 127.598V128.16Z" fill="white"/>
<path d="M203.316 53.872L205.571 52.585L205.579 41.816L203.327 43.1067L203.316 53.872Z" fill="white"/>
<path d="M196.445 57.81L198.696 56.5194L198.703 46.9274L196.452 48.218L196.445 57.81Z" fill="white"/>
<path d="M192.828 59.878L195.083 58.591L195.087 51.76L192.836 53.0507L192.828 59.878Z" fill="white"/>
<path d="M189.215 61.946L191.47 60.659L191.478 49.89L189.226 51.1807L189.215 61.946Z" fill="white"/>
<path d="M185.603 64.0177L187.857 62.7271L187.865 50.4474L185.614 51.7381L185.603 64.0177Z" fill="white"/>
<path d="M181.989 66.0857L184.244 64.795L184.248 56.479L181.997 57.7697L181.989 66.0857Z" fill="white"/>
<path d="M199.884 55.841L202.135 54.5504L202.143 46.8174L199.892 48.108L199.884 55.841Z" fill="white"/>
<g opacity="0.37">
<path d="M186.761 49.8497L186.787 49.8277L191.024 46.0914L195.736 46.029L195.755 46.0034L199.936 40.9874L205.597 39.4914L205.564 39.3594L199.859 40.8664L199.844 40.8847L195.67 45.8934L190.972 45.9557L190.953 45.9704L186.72 49.703L182.019 48.6324L181.989 48.768L186.761 49.8497Z" fill="white"/>
</g>
<g opacity="0.37">
<path d="M182.716 54.9794L186.145 50.77L190.396 49.0797L194.312 43.8877L197.836 46.3627L202.15 38.7397L204.106 41.9004L204.221 41.827L202.146 38.472L202.087 38.571L197.792 46.1647L194.282 43.7007L190.307 48.9697L186.063 50.66L186.052 50.671L182.613 54.895L182.716 54.9794Z" fill="white"/>
</g>
<g opacity="0.37">
<path d="M181.55 52.4971L187.466 48.4271L188.758 50.6637L192.234 48.2987L193.71 50.8397L193.773 50.7517L197.751 45.0537L201.058 45.6807L201.08 45.6294L204.228 38.8094L204.103 38.7507L200.977 45.5267L197.692 44.9034L197.666 44.9401L193.721 50.5867L192.278 48.1044L188.806 50.4657L187.51 48.2291L181.473 52.3871L181.55 52.4971Z" fill="white"/>
</g>
<path opacity="0.56" d="M179.037 71.6481L209.642 54.0921V28.0477L179.037 45.6037V71.6481Z" fill="white"/>
<path d="M199.364 36.6681L199.073 36.8331V37.1704L199.364 37.0018V36.6681Z" fill="white"/>
<path d="M196.445 38.4428L198.899 37.0348V36.9321L196.445 38.3401V38.4428Z" fill="white"/>
<path d="M196.445 38.6114L198.899 37.2034V37.1007L196.445 38.5087V38.6114Z" fill="white"/>
<path d="M196.8 38.5747L198.9 37.3684V37.2657L196.8 38.4721V38.5747Z" fill="white"/>
<path d="M199.364 37.4454L199.073 37.6104V37.9478L199.364 37.7791V37.4454Z" fill="white"/>
<path d="M196.445 39.2238L198.899 37.8121V37.7095L196.445 39.1211V39.2238Z" fill="white"/>
<path d="M196.445 39.3887L198.899 37.9807V37.8781L196.445 39.2861V39.3887Z" fill="white"/>
<path d="M196.8 39.3521L198.9 38.1494V38.0468L196.8 39.2494V39.3521Z" fill="white"/>
<path d="M199.364 38.2925L199.073 38.4611V38.7985L199.364 38.6298V38.2925Z" fill="white"/>
<path d="M196.445 40.0708L198.899 38.6628V38.5602L196.445 39.9682V40.0708Z" fill="white"/>
<path d="M196.445 40.2394L198.899 38.8314V38.7288L196.445 40.1368V40.2394Z" fill="white"/>
<path d="M196.8 40.2028L198.9 38.9965V38.8938L196.8 40.1001V40.2028Z" fill="white"/>
<path d="M205.993 33.6357C206.284 33.467 206.52 33.0637 206.52 32.73C206.52 32.6163 206.495 32.5283 206.447 32.466L206.686 32.015C206.805 32.1177 206.871 32.2937 206.871 32.5283C206.871 33.0857 206.476 33.764 205.993 34.0427C205.83 34.1343 205.679 34.171 205.55 34.16L205.79 33.709C205.852 33.698 205.919 33.676 205.993 33.6357Z" fill="white"/>
<path d="M205.025 33.4891C205.025 32.9317 205.42 32.2534 205.904 31.9747C206.184 31.8134 206.435 31.8207 206.598 31.9637L206.358 32.4147C206.265 32.2901 206.096 32.2681 205.904 32.3781C205.612 32.5467 205.376 32.9501 205.376 33.2837C205.376 33.5331 205.509 33.6724 205.697 33.6541L205.457 34.1051C205.199 34.0867 205.025 33.8631 205.025 33.4891Z" fill="white"/>
<path d="M201.479 35.3774L204.959 33.3828V33.1224L201.479 35.1171V35.3774Z" fill="white"/>
<path d="M203.184 34.787L204.959 33.7714V33.5844L203.184 34.6037V34.787Z" fill="white"/>
<path d="M203.509 34.9118L204.959 34.0758V33.8925L203.509 34.7248V34.9118Z" fill="white"/>
<path d="M201.247 37.4161L204.959 35.2857V35.0254L201.247 37.1557V37.4161Z" fill="white"/>
<path d="M203.184 36.6938L204.959 35.6744V35.4911L203.184 36.5068V36.6938Z" fill="white"/>
<path d="M203.509 36.8147L204.959 35.9824V35.7954L203.509 36.6277V36.8147Z" fill="white"/>
<path d="M206.52 34.9521C206.52 34.6184 206.284 34.4828 205.993 34.6514C205.838 34.7431 205.694 34.9008 205.598 35.0804L205.266 35.1024C205.424 34.7468 205.69 34.4204 205.993 34.2481C206.48 33.9694 206.871 34.1968 206.871 34.7541C206.871 34.8348 206.864 34.9191 206.845 35.0034L206.513 35.0254C206.517 34.9961 206.52 34.9741 206.52 34.9521Z" fill="white"/>
<path d="M205.598 35.1463C205.517 35.3003 205.465 35.469 205.465 35.623C205.465 35.9567 205.701 36.0923 205.993 35.9237C206.262 35.7697 206.487 35.403 206.517 35.084L206.849 35.062C206.757 35.557 206.41 36.0887 205.993 36.327C205.505 36.6057 205.114 36.3783 205.114 35.821C205.114 35.6083 205.17 35.381 205.269 35.161L205.598 35.1463Z" fill="white"/>
<path opacity="0.56" d="M89.2549 154.933L119.76 137.289V111.118L89.2549 128.763V154.933Z" fill="white"/>
<path opacity="0.3" d="M117.804 128.848L114.405 130.815V129.569L117.801 127.602L117.804 128.848Z" fill="white"/>
<path opacity="0.3" d="M117.804 129.591L114.405 131.554V131.148L117.804 129.181V129.591Z" fill="white"/>
<path opacity="0.3" d="M117.804 130.271L114.405 132.235V131.828L117.804 129.861V130.271Z" fill="white"/>
<path opacity="0.22" d="M97.6654 132.922L106.142 132.053L109.903 124.23L108.445 123.875L112.985 119.079L112.346 124.817L111.305 124.566L107.069 133.377L98.5475 134.25L92.8826 144.703L91.6426 144.03L97.6654 132.922Z" fill="white"/>
<path d="M97.8391 142.687L95.813 143.859V140.964L97.8391 139.792V142.687Z" fill="white"/>
<path d="M102.227 140.151L100.197 141.323V136.42L102.227 135.248V140.151Z" fill="white"/>
<path d="M106.611 137.611L104.585 138.787V135.888L106.611 134.716V137.611Z" fill="white"/>
<path d="M110.999 135.074L108.973 136.246V130.438L110.999 129.266V135.074Z" fill="white"/>
<path d="M136.675 158.852L113.085 172.841V154.103L136.675 140.11V158.852Z" fill="#DEEBFF"/>
<path d="M130.243 149.733L126.34 152.047V151.607L130.243 149.293V149.733Z" fill="#019FFC"/>
<path d="M128.445 152.297L126.34 153.545V153.105L128.445 151.857V152.297Z" fill="#019FFC"/>
<path d="M130.885 150.848L128.781 152.096V151.66L130.885 150.408V150.848Z" fill="#019FFC"/>
<path d="M133.142 149.509L131.222 150.647V150.211L133.142 149.073V149.509Z" fill="#019FFC"/>
<path d="M131.639 148.902L130.527 149.562V149.126L131.639 148.466V148.902Z" fill="#019FFC"/>
<path d="M133.142 148.011L131.923 148.736V148.296L133.142 147.575V148.011Z" fill="#019FFC"/>
<path d="M127.452 152.127L126.34 152.787V152.347L127.452 151.687V152.127Z" fill="#019FFC"/>
<path d="M128.951 151.235L127.736 151.956V151.52L128.951 150.799V151.235Z" fill="#019FFC"/>
<path d="M130.243 152.017L126.34 154.33V153.894L130.243 151.58V152.017Z" fill="#019FFC"/>
<path d="M127.452 154.41L126.34 155.07V154.634L127.452 153.974V154.41Z" fill="#019FFC"/>
<path d="M128.951 153.522L127.736 154.243V153.807L128.951 153.082V153.522Z" fill="#019FFC"/>
<path d="M133.141 148.751L132.381 149.202V148.766L133.141 148.314V148.751Z" fill="#019FFC"/>
<path d="M131.776 149.562L129.309 151.023V150.587L131.776 149.122V149.562Z" fill="#019FFC"/>
<path d="M130.243 153.651L126.34 155.965V155.525L130.243 153.211V153.651Z" fill="#019FFC"/>
<path d="M128.445 156.216L126.34 157.463V157.027L128.445 155.776V156.216Z" fill="#019FFC"/>
<path d="M130.885 154.767L128.781 156.014V155.578L130.885 154.33V154.767Z" fill="#019FFC"/>
<path d="M131.639 152.821L130.527 153.481V153.045L131.639 152.385V152.821Z" fill="#019FFC"/>
<path d="M133.142 151.929L131.923 152.654V152.214L133.142 151.493V151.929Z" fill="#019FFC"/>
<path d="M127.452 156.045L126.34 156.705V156.265L127.452 155.605V156.045Z" fill="#019FFC"/>
<path d="M128.951 155.153L127.736 155.874V155.438L128.951 154.717V155.153Z" fill="#019FFC"/>
<path fill-rule="evenodd" clip-rule="evenodd" d="M117.194 158.988C117.194 156.618 118.815 153.735 120.813 152.551C122.81 151.368 124.431 152.328 124.431 154.698C124.431 157.069 122.81 159.952 120.813 161.135C118.815 162.319 117.194 161.359 117.194 158.988ZM118.284 158.343C118.284 159.997 119.417 160.669 120.813 159.842C122.208 159.015 123.338 157.001 123.342 155.343C123.342 153.689 122.208 153.018 120.813 153.845C119.417 154.672 118.284 156.686 118.284 158.343Z" fill="#019FFC"/>
<path d="M120.813 154.455C119.701 155.115 118.797 156.72 118.797 158.044C118.797 159.364 119.698 159.899 120.813 159.239C121.924 158.579 122.829 156.974 122.829 155.65C122.825 154.33 121.924 153.795 120.813 154.455Z" fill="#019FFC"/>
<path d="M125.838 162.497L123.966 164.689L121.466 160.084L123.338 157.892L125.838 162.497Z" fill="#019FFC"/>
<path d="M208.665 80.9461L181.033 96.6483V79.7784L208.665 64.0762V80.9461Z" fill="#DEEBFF"/>
<path d="M186.401 82.9115C186.512 82.8498 186.619 82.7628 186.715 82.6613L185.705 81.907C185.635 82.0847 185.591 82.2696 185.591 82.4401C185.591 82.955 185.956 83.1653 186.401 82.9115Z" fill="#1354FE"/>
<path d="M187.22 81.5299C187.223 81.0185 186.858 80.8082 186.413 81.0621C186.114 81.2289 185.853 81.5589 185.709 81.9143L186.718 82.6685C187.01 82.3603 187.22 81.9143 187.22 81.5299Z" fill="#1354FE"/>
<path d="M186.401 82.9115C185.952 83.1653 185.591 82.955 185.595 82.4437C185.595 82.2733 185.639 82.0883 185.709 81.9106L185.34 81.635C185.16 81.9976 185.049 82.3893 185.049 82.7483C185.046 83.6005 185.65 83.9523 186.398 83.5316C186.648 83.3902 186.88 83.1835 187.083 82.9369L186.715 82.6613C186.622 82.7628 186.516 82.8498 186.401 82.9115Z" fill="#1354FE"/>
<path d="M187.765 81.2217C187.768 80.3695 187.164 80.0177 186.416 80.4384C185.982 80.6813 185.595 81.1346 185.344 81.6351L185.713 81.9107C185.856 81.5589 186.118 81.2289 186.416 81.0585C186.866 80.8046 187.227 81.015 187.223 81.5263C187.223 81.9107 187.013 82.3567 186.722 82.6613L187.091 82.9369C187.488 82.4438 187.761 81.7946 187.765 81.2217Z" fill="#1354FE"/>
<path d="M193.372 77.704L188 80.7248V80.3223L193.372 77.3015V77.704Z" fill="#1354FE"/>
<path d="M190.734 79.7783L187.997 81.3195V81.0367L190.738 79.4955L190.734 79.7783Z" fill="#1354FE"/>
<path d="M190.237 80.529L187.997 81.7873V81.5044L190.237 80.2461V80.529Z" fill="#1354FE"/>
<path d="M203.168 71.6009L197.439 74.8211L197.443 74.4222L203.172 71.1984L203.168 71.6009Z" fill="#1354FE"/>
<path d="M200.177 73.8782L197.436 75.4158L197.439 75.1329L200.177 73.5953V73.8782Z" fill="#1354FE"/>
<path d="M199.676 74.6289L197.436 75.8873V75.6044L199.676 74.3461V74.6289Z" fill="#1354FE"/>
<path d="M195.848 75.7531C195.398 76.0069 195.033 76.6234 195.03 77.1347C195.03 77.171 195.03 77.2036 195.033 77.2326L196.452 75.7204C196.308 75.6153 196.091 75.6189 195.848 75.7531Z" fill="#1354FE"/>
<path d="M195.84 77.6062C196.29 77.3524 196.654 76.7359 196.658 76.2246C196.658 75.9888 196.584 75.8184 196.456 75.7241L195.037 77.2363C195.078 77.6751 195.42 77.8419 195.84 77.6062Z" fill="#1354FE"/>
<path d="M195.03 77.1347C195.033 76.6234 195.398 76.0033 195.848 75.7531C196.091 75.6153 196.304 75.6153 196.452 75.7241L196.964 75.1765C196.721 74.9082 196.312 74.8719 195.848 75.133C195.1 75.5536 194.488 76.5872 194.484 77.443C194.484 77.5663 194.495 77.6823 194.521 77.7839L195.033 77.2363C195.033 77.2036 195.03 77.171 195.03 77.1347Z" fill="#1354FE"/>
<path d="M196.455 75.7241C196.581 75.8148 196.658 75.9888 196.658 76.2245C196.654 76.7359 196.29 77.356 195.84 77.6062C195.42 77.8419 195.078 77.6751 195.037 77.2363L194.525 77.7839C194.665 78.3822 195.199 78.5853 195.84 78.2263C196.588 77.8056 197.2 76.7721 197.203 75.9163C197.203 75.5935 197.119 75.3397 196.971 75.1765L196.455 75.7241Z" fill="#1354FE"/>
<path d="M204.391 78.1755C204.24 78.2516 204.111 78.4511 204.097 78.6288L203.01 79.3432C202.984 79.2235 202.881 79.1764 202.756 79.238C202.708 79.2634 202.663 79.2997 202.619 79.3432L201.787 78.2009C201.827 78.1247 201.853 78.0449 201.86 77.9651C201.871 77.7838 201.753 77.7004 201.599 77.7766C201.444 77.8527 201.311 78.0594 201.304 78.2408C201.3 78.3133 201.319 78.3713 201.348 78.4076L199.046 83.3829C199.016 83.3829 198.983 83.3938 198.946 83.412V83.412L198.504 82.0738C198.567 81.9832 198.611 81.8744 198.618 81.7765C198.629 81.5951 198.511 81.5117 198.357 81.5879C198.202 81.664 198.069 81.8708 198.062 82.0521C198.058 82.121 198.073 82.1754 198.099 82.2116L196.71 84.5797C196.669 84.5651 196.614 84.5688 196.555 84.5942L196.017 82.2334C196.106 82.1355 196.168 82.0013 196.172 81.8816C196.183 81.7003 196.065 81.6169 195.91 81.6931C195.756 81.7692 195.623 81.9759 195.616 82.1572C195.612 82.2153 195.623 82.2624 195.641 82.2987L194.702 83.945C194.654 83.9197 194.591 83.9197 194.521 83.9523C194.44 83.9922 194.363 84.072 194.308 84.1626L193.04 83.8254C193.048 83.7964 193.051 83.7673 193.055 83.7383C193.066 83.557 192.948 83.4736 192.793 83.5498C192.639 83.6259 192.506 83.8326 192.499 84.0139C192.499 84.0212 192.499 84.0284 192.499 84.0321L191.379 85.1417C191.334 85.0837 191.253 85.0692 191.158 85.1164C191.003 85.1925 190.87 85.3992 190.863 85.5805C190.856 85.7038 190.907 85.78 190.988 85.7945L190.671 87.5206H190.668C190.524 87.5932 190.399 87.7781 190.377 87.9522L187.805 89.4209C187.787 89.2831 187.68 89.225 187.547 89.2939C187.496 89.3193 187.444 89.3628 187.4 89.4136L186.107 88.177C186.132 88.119 186.147 88.0573 186.151 87.9993C186.162 87.818 186.044 87.7346 185.889 87.8108C185.734 87.8869 185.602 88.0936 185.594 88.2749C185.591 88.3475 185.606 88.4018 185.635 88.4381L183.992 91.7091C183.962 91.7091 183.929 91.72 183.896 91.7381C183.741 91.8143 183.609 92.021 183.601 92.2023C183.59 92.3836 183.708 92.467 183.863 92.3909C184.018 92.3147 184.15 92.108 184.158 91.9267C184.161 91.8469 184.139 91.7853 184.102 91.749L185.738 88.4925C185.775 88.4961 185.812 88.4853 185.856 88.4635C185.911 88.4381 185.959 88.3946 186.003 88.3438L187.297 89.5804C187.271 89.6384 187.256 89.7001 187.252 89.7581C187.241 89.9394 187.359 90.0228 187.514 89.9467C187.639 89.885 187.75 89.7364 187.79 89.5877L190.388 88.1045C190.424 88.2024 190.517 88.235 190.634 88.177C190.789 88.1009 190.922 87.8942 190.929 87.7128C190.937 87.5895 190.885 87.5134 190.804 87.4989L191.121 85.7727C191.121 85.7727 191.121 85.7727 191.124 85.7727C191.279 85.6966 191.412 85.4899 191.419 85.3086C191.419 85.2977 191.419 85.2868 191.419 85.2723L192.532 84.1699C192.576 84.2351 192.661 84.2533 192.76 84.2061C192.841 84.1662 192.915 84.0901 192.97 84.0031L194.238 84.3403C194.23 84.3657 194.227 84.3947 194.227 84.4201C194.216 84.6014 194.333 84.6848 194.488 84.6087C194.643 84.5325 194.776 84.3258 194.783 84.1445C194.787 84.1082 194.783 84.0756 194.776 84.0502L195.733 82.3712C195.774 82.3821 195.826 82.3748 195.877 82.3494L195.881 82.3458L196.419 84.6993C196.327 84.7972 196.26 84.9387 196.253 85.0656C196.242 85.2469 196.36 85.3303 196.514 85.2542C196.669 85.178 196.802 84.9713 196.809 84.79C196.813 84.7428 196.806 84.6993 196.791 84.6667L198.194 82.2697C198.231 82.2733 198.272 82.266 198.32 82.2443C198.338 82.2334 198.357 82.2225 198.375 82.2116L198.81 83.5244C198.721 83.6223 198.659 83.7565 198.651 83.8798C198.64 84.0611 198.758 84.1445 198.913 84.0683C199.068 83.9922 199.2 83.7855 199.208 83.6042C199.211 83.5244 199.193 83.4627 199.152 83.4265L201.451 78.462C201.484 78.462 201.525 78.4547 201.566 78.4329C201.602 78.4148 201.639 78.3858 201.672 78.3568L202.512 79.51C202.483 79.5753 202.461 79.6442 202.461 79.7058C202.45 79.8871 202.568 79.9705 202.722 79.8944C202.855 79.8291 202.973 79.6659 203.006 79.5064L204.122 78.7775C204.163 78.8609 204.251 78.8862 204.362 78.8318C204.517 78.7557 204.649 78.549 204.657 78.3677C204.664 78.1827 204.546 78.0993 204.391 78.1755Z" fill="#1354FE"/>
<path d="M204.756 78.5128C204.708 78.5381 204.66 78.5744 204.616 78.6215L203.581 77.6497C203.633 77.5663 203.666 77.472 203.673 77.3849C203.684 77.2036 203.566 77.1202 203.411 77.1964C203.364 77.2218 203.319 77.258 203.275 77.3015L202.443 76.1592C202.483 76.0831 202.509 76.0033 202.516 75.9235C202.527 75.7422 202.409 75.6588 202.255 75.7349C202.129 75.7966 202.015 75.9489 201.975 76.1012L200.766 76.8809C200.729 76.7866 200.637 76.754 200.523 76.812C200.368 76.8881 200.236 77.0948 200.228 77.2762C200.225 77.3559 200.243 77.414 200.28 77.4502L199.127 79.5173C199.094 79.5173 199.053 79.5245 199.013 79.5426L198.559 77.8237C198.633 77.7295 198.681 77.6134 198.688 77.5046C198.699 77.3233 198.581 77.2399 198.427 77.316C198.272 77.3922 198.139 77.5989 198.132 77.7802C198.128 77.8346 198.139 77.8818 198.154 77.9144L196.728 79.6333C196.684 79.6152 196.629 79.6224 196.57 79.6514C196.415 79.7276 196.283 79.9343 196.275 80.1156C196.268 80.2208 196.305 80.2933 196.367 80.3187L195.303 83.8326C195.277 83.8363 195.247 83.8435 195.218 83.858C195.192 83.8689 195.17 83.887 195.148 83.9052L194.267 82.5199C194.315 82.4401 194.348 82.3458 194.352 82.2624C194.363 82.0811 194.245 81.9977 194.09 82.0738C193.936 82.15 193.803 82.3567 193.796 82.538C193.796 82.5453 193.796 82.5525 193.796 82.5562L192.676 83.6658C192.631 83.6078 192.55 83.5933 192.455 83.6404C192.3 83.7166 192.167 83.9233 192.16 84.1046C192.156 84.1699 192.171 84.2243 192.197 84.2606L191.486 85.4609C191.441 85.4464 191.39 85.4536 191.335 85.4826C191.265 85.5153 191.202 85.5769 191.15 85.6495L189.12 84.9133C189.143 84.8589 189.157 84.8009 189.161 84.7465C189.172 84.5652 189.054 84.4818 188.899 84.5579C188.745 84.6341 188.612 84.8408 188.605 85.0221C188.601 85.1128 188.627 85.178 188.675 85.2107L187.348 87.9377C187.326 87.9413 187.304 87.9486 187.278 87.9631C187.149 88.0284 187.035 88.1807 186.998 88.3366L184.81 89.7726C184.773 89.6747 184.681 89.6421 184.563 89.6965C184.408 89.7726 184.276 89.9793 184.268 90.1607C184.257 90.342 184.375 90.4254 184.53 90.3492C184.674 90.2767 184.799 90.0918 184.821 89.9213L186.987 88.4998C187.009 88.6267 187.113 88.6775 187.245 88.6158C187.4 88.5397 187.533 88.333 187.54 88.1517C187.544 88.0574 187.514 87.9921 187.466 87.9558L188.793 85.2324C188.818 85.2288 188.844 85.2215 188.87 85.207C188.925 85.178 188.98 85.1345 189.025 85.0765L191.066 85.8163C191.051 85.8598 191.044 85.8997 191.04 85.9396C191.029 86.1209 191.147 86.2043 191.301 86.1281C191.456 86.052 191.589 85.8453 191.596 85.664C191.6 85.6096 191.589 85.566 191.574 85.5298L192.296 84.3113C192.333 84.3149 192.377 84.3077 192.425 84.2859C192.58 84.2098 192.713 84.0031 192.72 83.8218C192.72 83.8109 192.72 83.7964 192.72 83.7855L193.833 82.6831C193.877 82.7484 193.961 82.7665 194.061 82.7193C194.09 82.7048 194.124 82.6831 194.149 82.6577L195.026 84.0357C194.971 84.1228 194.93 84.2207 194.927 84.3149C194.916 84.4963 195.034 84.5797 195.188 84.5035C195.343 84.4274 195.476 84.2207 195.483 84.0393C195.487 83.9559 195.465 83.8907 195.424 83.858L196.5 80.3114C196.515 80.3078 196.529 80.3006 196.544 80.2933C196.699 80.2171 196.831 80.0104 196.839 79.8291C196.843 79.7784 196.835 79.7385 196.82 79.7022L198.254 77.976C198.294 77.9869 198.346 77.9833 198.405 77.9543C198.416 77.947 198.427 77.9398 198.441 77.9325L198.891 79.6333C198.803 79.7312 198.736 79.869 198.729 79.9923C198.718 80.1736 198.836 80.257 198.99 80.1809C199.145 80.1047 199.278 79.898 199.285 79.7167C199.289 79.6442 199.274 79.5862 199.241 79.5499L200.398 77.4756C200.427 77.4756 200.464 77.4647 200.501 77.4466C200.648 77.3741 200.774 77.1855 200.796 77.0114L201.978 76.2499C201.997 76.3804 202.104 76.4348 202.236 76.3696C202.273 76.3514 202.31 76.3224 202.343 76.2934L203.183 77.4466C203.154 77.5119 203.135 77.5808 203.131 77.6424C203.12 77.8237 203.238 77.9071 203.393 77.831C203.423 77.8165 203.448 77.7984 203.474 77.7766L204.528 78.763C204.498 78.8246 204.48 78.8935 204.476 78.9552C204.465 79.1365 204.583 79.2199 204.738 79.1437C204.893 79.0676 205.025 78.8609 205.033 78.6796C205.025 78.5236 204.907 78.4366 204.756 78.5128Z" fill="#1354FE"/>
<path d="M217.249 78.0266C217.27 77.8119 217.292 77.6008 217.324 77.3823C217.357 77.1449 217.397 76.9075 217.443 76.6701C217.472 76.5081 217.501 76.3423 217.534 76.1803C217.566 76.0295 217.606 75.875 217.642 75.7243C217.692 75.5133 217.746 75.2985 217.804 75.0875C217.84 74.9632 217.876 74.8426 217.912 74.7182C217.984 74.4771 218.06 74.2397 218.143 74.0023C218.176 73.9043 218.208 73.8063 218.244 73.7084C218.363 73.3806 218.489 73.0527 218.623 72.7249C218.641 72.6872 218.659 72.6458 218.673 72.6081C218.796 72.3179 218.926 72.0316 219.063 71.7452C219.106 71.6548 219.149 71.5643 219.193 71.4777C219.326 71.2063 219.467 70.935 219.611 70.6713C219.64 70.6185 219.665 70.5695 219.694 70.5168C219.867 70.2078 220.047 69.9026 220.235 69.6011C220.289 69.5145 220.347 69.4278 220.401 69.3411C220.538 69.1263 220.678 68.9116 220.826 68.7043C220.906 68.5913 220.985 68.4782 221.064 68.3652C221.191 68.1919 221.32 68.0185 221.45 67.849C221.558 67.7058 221.67 67.5626 221.782 67.4232C221.89 67.2913 221.998 67.1632 222.107 67.0388C222.294 66.8203 222.485 66.6092 222.677 66.402C222.799 66.2739 222.918 66.1458 223.041 66.0214C223.138 65.9272 223.232 65.833 223.329 65.7388C223.488 65.5881 223.65 65.4411 223.813 65.2979C223.91 65.2113 224.007 65.1284 224.105 65.0455C224.281 64.8985 224.462 64.7591 224.646 64.6197C224.732 64.5556 224.819 64.484 224.905 64.4237C225.176 64.2316 225.446 64.0469 225.724 63.8811C225.908 63.7719 226.088 63.6701 226.269 63.5759C226.323 63.5495 226.373 63.5232 226.424 63.4968C226.561 63.429 226.698 63.3611 226.831 63.3008C226.878 63.2782 226.929 63.2556 226.976 63.2368C227.102 63.184 227.228 63.135 227.354 63.0861C227.387 63.0748 227.419 63.0597 227.448 63.0484C227.603 62.9919 227.758 62.9429 227.91 62.8977C227.931 62.8901 227.953 62.8863 227.975 62.8788C228.216 62.811 228.451 62.7582 228.685 62.7206H228.689C228.883 62.6904 229.075 62.6716 229.262 62.6603C229.302 62.6565 229.338 62.6565 229.377 62.6527C229.547 62.6452 229.713 62.6452 229.875 62.6565C229.904 62.6565 229.933 62.6603 229.958 62.664C230.088 62.6753 230.218 62.6904 230.344 62.713C230.384 62.7206 230.423 62.7243 230.463 62.7319C230.607 62.7582 230.752 62.7921 230.892 62.8336C230.899 62.8374 230.907 62.8374 230.914 62.8411C231.044 62.8826 231.174 62.9316 231.3 62.9843C231.336 62.9994 231.372 63.0182 231.408 63.0333C231.516 63.0823 231.621 63.135 231.722 63.1953C231.754 63.2142 231.79 63.233 231.826 63.2519L227.646 60.7348C227.632 60.7272 227.614 60.7159 227.599 60.7084C227.581 60.6971 227.563 60.6895 227.545 60.6782C227.444 60.6217 227.336 60.5652 227.232 60.5162C227.21 60.5087 227.192 60.4936 227.174 60.4861C227.156 60.4785 227.138 60.4748 227.123 60.4672C226.997 60.4145 226.871 60.3655 226.737 60.324C226.73 60.324 226.727 60.3203 226.719 60.3165H226.716C226.575 60.275 226.435 60.2411 226.287 60.2148C226.269 60.211 226.254 60.2072 226.236 60.2034C226.215 60.1997 226.189 60.1997 226.168 60.1959C226.041 60.1733 225.912 60.1582 225.782 60.1469C225.76 60.1469 225.742 60.1394 225.72 60.1394C225.713 60.1394 225.706 60.1394 225.699 60.1394C225.537 60.1281 225.371 60.1281 225.201 60.1356C225.183 60.1356 225.169 60.1356 225.154 60.1356C225.133 60.1356 225.111 60.1394 225.089 60.1432C224.902 60.1545 224.711 60.1733 224.516 60.2034V60.2034H224.512C224.281 60.2411 224.043 60.2939 223.802 60.3617C223.787 60.3655 223.773 60.3655 223.762 60.3692C223.755 60.373 223.748 60.373 223.737 60.3768C223.585 60.422 223.43 60.471 223.275 60.5275C223.243 60.5388 223.21 60.5539 223.181 60.5652C223.055 60.6104 222.929 60.6594 222.803 60.7159C222.785 60.7234 222.77 60.7272 222.752 60.7348C222.72 60.7498 222.691 60.7649 222.658 60.78C222.525 60.8403 222.388 60.9043 222.251 60.9759C222.2 61.0023 222.146 61.0287 222.096 61.055C221.916 61.1492 221.735 61.251 221.551 61.3603C221.274 61.5261 221.003 61.7107 220.733 61.9029C220.646 61.9669 220.559 62.0348 220.473 62.0988C220.293 62.2345 220.112 62.3739 219.936 62.5246C219.838 62.6075 219.741 62.6942 219.643 62.7771C219.481 62.9203 219.319 63.0672 219.16 63.2179C219.063 63.3121 218.965 63.4026 218.872 63.5006C218.81 63.5608 218.749 63.6174 218.691 63.6777C218.63 63.7417 218.572 63.8171 218.507 63.8811C218.313 64.0884 218.121 64.2994 217.937 64.5179C217.876 64.5858 217.815 64.6498 217.754 64.7214C217.703 64.7817 217.66 64.8458 217.609 64.9023C217.497 65.0417 217.386 65.1849 217.277 65.3281C217.205 65.4223 217.13 65.5127 217.057 65.6069C217 65.6861 216.946 65.7652 216.892 65.8443C216.812 65.9574 216.733 66.0666 216.654 66.1834C216.599 66.2626 216.542 66.3379 216.488 66.4171C216.397 66.549 216.315 66.6846 216.228 66.8203C216.174 66.9069 216.116 66.9936 216.062 67.0803C216.04 67.1179 216.015 67.1519 215.994 67.1895C215.842 67.4382 215.694 67.6907 215.55 67.9469C215.539 67.962 215.532 67.9808 215.525 67.9959C215.496 68.0449 215.471 68.0977 215.442 68.1504C215.341 68.335 215.243 68.5159 215.146 68.7006C215.103 68.7872 215.063 68.8701 215.02 68.9568C214.977 69.0472 214.933 69.1339 214.89 69.2243C214.854 69.3034 214.811 69.3826 214.775 69.4617C214.677 69.669 214.587 69.88 214.5 70.0872C214.482 70.1249 214.464 70.1663 214.45 70.204C214.446 70.2153 214.439 70.2266 214.436 70.2379C214.324 70.5055 214.219 70.773 214.122 71.0406C214.104 71.0895 214.089 71.1385 214.071 71.1875C214.035 71.2855 214.003 71.3834 213.97 71.4814C213.923 71.6171 213.873 71.749 213.833 71.8846C213.801 71.9901 213.772 72.0919 213.743 72.1974C213.707 72.3217 213.671 72.4423 213.635 72.5666C213.613 72.642 213.588 72.7211 213.566 72.7965C213.53 72.9321 213.501 73.0678 213.469 73.2072C213.433 73.3579 213.393 73.5124 213.361 73.6632C213.35 73.7159 213.336 73.7687 213.325 73.8252C213.303 73.9345 213.292 74.0437 213.271 74.153C213.227 74.3904 213.188 74.6278 213.152 74.8652C213.141 74.9292 213.126 74.9971 213.119 75.0649C213.101 75.2156 213.09 75.3626 213.076 75.5095C213.065 75.615 213.054 75.7206 213.047 75.8261C213.022 76.1577 213.007 76.4892 213.007 76.8171C213.015 79.6394 213.97 81.6252 215.507 82.5597L219.687 85.0768C218.147 84.1423 217.195 82.1565 217.187 79.3342C217.187 79.0101 217.202 78.6785 217.227 78.3432C217.227 78.2377 217.241 78.1321 217.249 78.0266Z" fill="#9BABCE"/>
<path d="M225.728 63.8698C230.463 61.0136 234.311 63.3046 234.326 68.9907C234.34 74.673 230.517 81.595 225.782 84.4513C221.046 87.3075 217.195 85.0165 217.18 79.3342C217.166 73.6481 220.996 66.726 225.728 63.8698Z" fill="#C3D4FB"/>
<path d="M229.179 76.851L231.307 75.5698V71.7866L229.179 73.0715V76.851Z" fill="white"/>
<path d="M225.555 79.0402L227.683 77.7553V72.8718L225.555 74.1568V79.0402Z" fill="white"/>
<path d="M221.93 81.2258L224.058 79.9446V73.049L221.93 74.3339V81.2258Z" fill="white"/>
<path d="M231.743 69.4654L228.97 68.2295L226.027 70.4376L223.455 69.3298L223.859 68.4707L221.375 69.5295L222.301 71.7828L222.637 71.0744L225.609 72.3556L228.544 70.155L230.874 71.195L231.743 69.4654Z" fill="white"/>
<path d="M89.7061 176.667C89.7285 176.455 89.751 176.247 89.7846 176.031C89.8182 175.797 89.8593 175.562 89.9078 175.328C89.9377 175.168 89.9676 175.004 90.0012 174.844C90.0348 174.696 90.0759 174.543 90.1133 174.394C90.1656 174.186 90.2216 173.974 90.2813 173.766C90.3187 173.643 90.356 173.524 90.3934 173.401C90.4681 173.163 90.5465 172.928 90.6324 172.694C90.6661 172.597 90.6997 172.501 90.737 172.404C90.8603 172.08 90.991 171.757 91.1292 171.433C91.1479 171.396 91.1666 171.355 91.1815 171.318C91.3085 171.031 91.443 170.748 91.5849 170.466C91.6297 170.376 91.6745 170.287 91.7194 170.202C91.8576 169.934 92.0032 169.666 92.1526 169.405C92.1825 169.353 92.2087 169.305 92.2386 169.253C92.4178 168.948 92.6046 168.647 92.7988 168.349C92.8548 168.263 92.9146 168.178 92.9706 168.092C93.1126 167.88 93.2582 167.668 93.4114 167.463C93.4936 167.352 93.5757 167.24 93.6579 167.129C93.7886 166.958 93.9231 166.786 94.0576 166.619C94.1696 166.478 94.2854 166.336 94.4012 166.199C94.5132 166.068 94.6253 165.942 94.7374 165.819C94.9316 165.603 95.1295 165.395 95.3275 165.19C95.4545 165.064 95.5778 164.937 95.7048 164.815C95.8056 164.722 95.9027 164.629 96.0036 164.536C96.1679 164.387 96.336 164.242 96.5041 164.1C96.6049 164.015 96.7058 163.933 96.8066 163.851C96.9896 163.706 97.1764 163.568 97.3669 163.431C97.4565 163.368 97.5462 163.301 97.6358 163.237C97.9159 163.048 98.1961 162.865 98.4837 162.702C98.6742 162.594 98.8609 162.493 99.044 162.4C99.0962 162.374 99.1523 162.348 99.2046 162.322C99.3465 162.255 99.4884 162.188 99.6266 162.129C99.6752 162.106 99.7275 162.084 99.776 162.066C99.9068 162.013 100.038 161.965 100.168 161.917C100.202 161.906 100.235 161.891 100.265 161.879C100.426 161.824 100.587 161.775 100.743 161.734C100.766 161.727 100.788 161.723 100.811 161.716C101.061 161.649 101.304 161.597 101.546 161.56H101.55C101.752 161.53 101.95 161.511 102.144 161.5C102.185 161.496 102.223 161.496 102.264 161.493C102.439 161.485 102.611 161.485 102.779 161.496C102.809 161.496 102.839 161.5 102.865 161.504C102.999 161.515 103.134 161.53 103.265 161.552C103.306 161.56 103.347 161.563 103.388 161.571C103.537 161.597 103.687 161.63 103.832 161.671C103.84 161.675 103.847 161.675 103.855 161.679C103.989 161.72 104.124 161.768 104.254 161.82C104.292 161.835 104.329 161.853 104.367 161.868C104.479 161.917 104.587 161.969 104.691 162.028C104.725 162.047 104.762 162.066 104.8 162.084L100.471 159.599C100.456 159.588 100.437 159.58 100.422 159.573C100.404 159.562 100.385 159.554 100.366 159.543C100.262 159.487 100.15 159.432 100.038 159.383C100.015 159.376 99.9964 159.361 99.9777 159.353C99.9591 159.346 99.9404 159.342 99.9254 159.335C99.7947 159.283 99.664 159.234 99.5258 159.194C99.5183 159.194 99.5146 159.19 99.5071 159.186H99.5034C99.3577 159.145 99.212 159.112 99.0589 159.086C99.0402 159.082 99.0253 159.078 99.0066 159.074C98.9842 159.071 98.958 159.071 98.9356 159.067C98.8049 159.045 98.6704 159.03 98.536 159.019C98.5136 159.019 98.4949 159.011 98.4725 159.011C98.465 159.011 98.4575 159.011 98.4501 159.011C98.282 159 98.1102 159 97.9346 159.008C97.9159 159.008 97.901 159.008 97.8861 159.008C97.8637 159.008 97.8412 159.011 97.8188 159.015C97.6246 159.026 97.4266 159.045 97.2249 159.074V159.074H97.2212C96.9822 159.112 96.7356 159.164 96.4854 159.231C96.4705 159.234 96.4555 159.234 96.4443 159.238C96.4368 159.242 96.4294 159.242 96.4182 159.246C96.2613 159.29 96.1007 159.339 95.9401 159.394C95.9064 159.406 95.8728 159.42 95.843 159.432C95.7122 159.476 95.5815 159.525 95.4508 159.58C95.4321 159.588 95.4171 159.592 95.3985 159.599C95.3649 159.614 95.335 159.629 95.3014 159.644C95.1632 159.703 95.0212 159.766 94.8793 159.837C94.827 159.863 94.771 159.889 94.7187 159.915C94.5319 160.008 94.3452 160.109 94.1547 160.217C93.8671 160.38 93.5869 160.563 93.3068 160.752C93.2172 160.816 93.1275 160.882 93.0379 160.946C92.8511 161.08 92.6644 161.217 92.4813 161.366C92.3805 161.448 92.2796 161.534 92.1788 161.615C92.0107 161.757 91.8426 161.902 91.6783 162.051C91.5774 162.144 91.4766 162.233 91.3795 162.33C91.316 162.389 91.2525 162.445 91.1927 162.504C91.1292 162.568 91.0657 162.642 91.0022 162.705C90.8005 162.91 90.6026 163.118 90.4121 163.334C90.3486 163.401 90.2851 163.464 90.2216 163.535C90.1693 163.595 90.1245 163.658 90.0722 163.714C89.9564 163.851 89.8406 163.993 89.7285 164.134C89.6538 164.227 89.5754 164.316 89.5007 164.409C89.4409 164.487 89.3849 164.565 89.3289 164.644C89.2467 164.755 89.1645 164.863 89.0824 164.978C89.0263 165.057 88.9666 165.131 88.9106 165.209C88.8172 165.339 88.7313 165.473 88.6416 165.607C88.5856 165.693 88.5258 165.778 88.4698 165.864C88.4474 165.901 88.4213 165.935 88.3988 165.972C88.242 166.217 88.0888 166.466 87.9394 166.719C87.9282 166.734 87.9207 166.753 87.9133 166.768C87.8834 166.816 87.8572 166.868 87.8274 166.92C87.7228 167.103 87.6219 167.281 87.5211 167.463C87.4763 167.549 87.4352 167.631 87.3904 167.716C87.3455 167.806 87.3007 167.891 87.2559 167.981C87.2185 168.059 87.1737 168.137 87.1364 168.215C87.0355 168.42 86.9459 168.628 86.8525 168.833C86.8338 168.87 86.8151 168.911 86.8002 168.948C86.7965 168.959 86.789 168.97 86.7853 168.981C86.6695 169.245 86.5612 169.51 86.4603 169.774C86.4416 169.822 86.4267 169.87 86.408 169.919C86.3707 170.016 86.337 170.112 86.3034 170.209C86.2549 170.343 86.2026 170.473 86.1615 170.607C86.1279 170.711 86.098 170.812 86.0681 170.916C86.0308 171.039 85.9934 171.158 85.9561 171.28C85.9337 171.355 85.9075 171.433 85.8851 171.507C85.8477 171.641 85.8179 171.775 85.7842 171.913C85.7469 172.062 85.7058 172.214 85.6722 172.363C85.661 172.415 85.646 172.467 85.6348 172.523C85.6124 172.631 85.6012 172.739 85.5788 172.847C85.534 173.081 85.4892 173.315 85.4556 173.55C85.4444 173.613 85.4294 173.68 85.4219 173.747C85.4033 173.896 85.3921 174.041 85.3771 174.186C85.3659 174.29 85.3547 174.394 85.3472 174.498C85.3211 174.826 85.3062 175.153 85.3062 175.477C85.3136 178.263 86.3034 180.224 87.8946 181.146L92.2236 183.631C90.6287 182.709 89.6426 180.748 89.6352 177.962C89.6352 177.642 89.6501 177.315 89.6763 176.983C89.6837 176.876 89.6949 176.771 89.7061 176.667Z" fill="#74BB86"/>
<path d="M98.4876 162.69C103.392 159.871 107.377 162.132 107.392 167.746C107.407 173.356 103.448 180.19 98.5436 183.01C93.6394 185.83 89.6502 183.568 89.6353 177.958C89.6204 172.344 93.5833 165.51 98.4876 162.69Z" fill="#89D99D"/>
<path d="M88.4748 79.7081C88.4969 79.4961 88.519 79.2878 88.5522 79.072C88.5854 78.8376 88.6259 78.6032 88.6738 78.3689C88.7033 78.2089 88.7328 78.0452 88.766 77.8853C88.7992 77.7364 88.8397 77.5839 88.8766 77.4351C88.9282 77.2268 88.9835 77.0147 89.0424 76.8064C89.0793 76.6836 89.1161 76.5646 89.153 76.4418C89.2267 76.2037 89.3041 75.9694 89.3889 75.735C89.4221 75.6383 89.4552 75.5415 89.4921 75.4448C89.6137 75.1211 89.7427 74.7975 89.8791 74.4738C89.8976 74.4366 89.916 74.3957 89.9307 74.3585C90.056 74.0721 90.1887 73.7893 90.3288 73.5066C90.373 73.4173 90.4173 73.328 90.4615 73.2425C90.5979 72.9746 90.7416 72.7067 90.8891 72.4463C90.9185 72.3942 90.9444 72.3459 90.9738 72.2938C91.1508 71.9887 91.3351 71.6874 91.5267 71.3898C91.582 71.3042 91.641 71.2187 91.6963 71.1331C91.8363 70.9211 91.9801 70.709 92.1312 70.5044C92.2123 70.3928 92.2934 70.2812 92.3745 70.1696C92.5035 69.9984 92.6362 69.8273 92.7689 69.6599C92.8794 69.5185 92.9937 69.3772 93.108 69.2395C93.2186 69.1093 93.3291 68.9828 93.4397 68.8601C93.6314 68.6443 93.8267 68.436 94.0221 68.2314C94.1474 68.1049 94.269 67.9784 94.3944 67.8556C94.4939 67.7626 94.5897 67.6696 94.6892 67.5766C94.8514 67.4278 95.0173 67.2827 95.1831 67.1413C95.2827 67.0558 95.3822 66.9739 95.4817 66.8921C95.6623 66.747 95.8466 66.6094 96.0346 66.4717C96.123 66.4085 96.2115 66.3415 96.3 66.2783C96.5764 66.0885 96.8528 65.9062 97.1367 65.7425C97.3246 65.6347 97.5089 65.5342 97.6895 65.4412C97.7448 65.4152 97.7964 65.3891 97.848 65.3631C97.9881 65.2961 98.1282 65.2292 98.2645 65.1696C98.3125 65.1473 98.3641 65.125 98.412 65.1064C98.541 65.0543 98.67 65.0059 98.799 64.9576C98.8322 64.9464 98.8653 64.9315 98.8948 64.9204C99.0533 64.8646 99.2118 64.8162 99.3666 64.7753C99.3887 64.7679 99.4109 64.7641 99.433 64.7567C99.6799 64.6897 99.9195 64.6377 100.159 64.6004H100.163C100.362 64.5707 100.557 64.5521 100.749 64.5409C100.789 64.5372 100.826 64.5372 100.867 64.5335C101.04 64.526 101.21 64.526 101.375 64.5372C101.405 64.5372 101.434 64.5409 101.46 64.5446C101.593 64.5558 101.726 64.5707 101.855 64.593C101.895 64.6004 101.936 64.6042 101.976 64.6116C102.124 64.6377 102.271 64.6711 102.415 64.7121C102.422 64.7158 102.43 64.7158 102.437 64.7195C102.57 64.7604 102.702 64.8088 102.831 64.8609C102.868 64.8757 102.905 64.8943 102.942 64.9092C103.053 64.9576 103.159 65.0097 103.263 65.0692C103.296 65.0878 103.333 65.1064 103.37 65.125L99.0976 62.6399C99.0828 62.6287 99.0644 62.6213 99.0496 62.6139C99.0312 62.6027 99.0128 62.5953 98.9944 62.5841C98.8911 62.5283 98.7806 62.4725 98.6737 62.4241C98.6516 62.4167 98.6331 62.4018 98.6147 62.3944C98.5963 62.3869 98.5778 62.3832 98.5631 62.3758C98.4341 62.3237 98.3051 62.2753 98.1687 62.2344C98.1613 62.2344 98.1577 62.2307 98.1503 62.227H98.1466C98.0028 62.186 97.8591 62.1526 97.708 62.1265C97.6895 62.1228 97.6748 62.1191 97.6564 62.1154C97.6343 62.1116 97.6085 62.1116 97.5863 62.1079C97.4573 62.0856 97.3246 62.0707 97.1919 62.0596C97.1698 62.0596 97.1514 62.0521 97.1293 62.0521C97.1219 62.0521 97.1145 62.0521 97.1072 62.0521C96.9413 62.041 96.7718 62.041 96.5985 62.0484C96.5801 62.0484 96.5653 62.0484 96.5506 62.0484C96.5285 62.0484 96.5064 62.0521 96.4843 62.0558C96.2926 62.067 96.0972 62.0856 95.8982 62.1154V62.1154H95.8945C95.6586 62.1526 95.4153 62.2046 95.1684 62.2716C95.1536 62.2753 95.1426 62.2753 95.1278 62.2791C95.1205 62.2828 95.1131 62.2828 95.102 62.2865C94.9472 62.3311 94.7887 62.3795 94.6302 62.4353C94.5971 62.4465 94.5639 62.4613 94.5344 62.4725C94.4054 62.5171 94.2801 62.5655 94.1474 62.6213C94.129 62.6287 94.1142 62.6325 94.0958 62.6399C94.0626 62.6548 94.0331 62.6697 94 62.6846C93.8636 62.7441 93.7235 62.8073 93.5835 62.878C93.5319 62.904 93.4766 62.9301 93.425 62.9561C93.2407 63.0491 93.0564 63.1496 92.8684 63.2575C92.5846 63.4211 92.3081 63.6034 92.0317 63.7932C91.9432 63.8564 91.8548 63.9234 91.7663 63.9866C91.582 64.1205 91.3977 64.2582 91.2171 64.407C91.1176 64.4888 91.0181 64.5744 90.9185 64.6563C90.7527 64.7976 90.5868 64.9427 90.4246 65.0915C90.3251 65.1845 90.2256 65.2738 90.1298 65.3705C90.0671 65.4301 90.0044 65.4859 89.9455 65.5454C89.8828 65.6086 89.8202 65.683 89.7575 65.7463C89.5585 65.9509 89.3631 66.1592 89.1714 66.375C89.1088 66.4419 89.0461 66.5052 88.9835 66.5759C88.9319 66.6354 88.8876 66.6986 88.836 66.7544C88.7218 66.8921 88.6075 67.0335 88.4969 67.1748C88.4232 67.2678 88.3458 67.3571 88.2721 67.4501C88.2131 67.5282 88.1578 67.6064 88.1025 67.6845C88.0214 67.7961 87.9403 67.904 87.8593 68.0193C87.804 68.0974 87.745 68.1718 87.6897 68.25C87.5976 68.3802 87.5128 68.5141 87.4243 68.648C87.369 68.7336 87.3101 68.8191 87.2548 68.9047C87.2327 68.9419 87.2069 68.9754 87.1847 69.0126C87.0299 69.2581 86.8788 69.5074 86.7314 69.7604C86.7203 69.7752 86.7129 69.7938 86.7056 69.8087C86.6761 69.8571 86.6503 69.9092 86.6208 69.9612C86.5176 70.1435 86.4181 70.3221 86.3185 70.5044C86.2743 70.59 86.2338 70.6718 86.1895 70.7574C86.1453 70.8466 86.1011 70.9322 86.0569 71.0215C86.02 71.0996 85.9758 71.1777 85.9389 71.2559C85.8394 71.4605 85.7472 71.6688 85.6588 71.8734C85.6403 71.9106 85.6219 71.9515 85.6072 71.9887C85.6035 71.9999 85.5961 72.0111 85.5924 72.0222C85.4782 72.2864 85.3713 72.5505 85.2718 72.8146C85.2533 72.863 85.2386 72.9114 85.2202 72.9597C85.1833 73.0564 85.1501 73.1532 85.1169 73.2499C85.069 73.3838 85.0174 73.514 84.9769 73.648C84.9437 73.7521 84.9142 73.8526 84.8847 73.9567C84.8479 74.0795 84.811 74.1985 84.7742 74.3213C84.752 74.3957 84.7262 74.4738 84.7041 74.5482C84.6673 74.6822 84.6378 74.8161 84.6046 74.9537C84.5677 75.1025 84.5272 75.2551 84.494 75.4039C84.483 75.456 84.4682 75.508 84.4572 75.5639C84.4351 75.6717 84.424 75.7796 84.4019 75.8875C84.3577 76.1219 84.3134 76.3563 84.2802 76.5906C84.2729 76.6539 84.2544 76.7208 84.2471 76.7878C84.2286 76.9366 84.2176 77.0817 84.2028 77.2268C84.1918 77.3309 84.1807 77.4351 84.1734 77.5393C84.1476 77.8666 84.1328 78.194 84.1328 78.5177C84.1402 81.3041 85.1169 83.2646 86.6871 84.1873L90.9591 86.6723C89.3852 85.7497 88.4121 83.7892 88.4048 81.0028C88.4048 80.6828 88.4195 80.3555 88.4453 80.0244C88.449 79.9165 88.4637 79.8123 88.4748 79.7081Z" fill="#3F3E9D"/>
<path d="M97.1404 65.7314C101.98 62.9115 105.913 65.1733 105.928 70.7871C105.942 76.3972 102.035 83.2311 97.1957 86.0511C92.3561 88.871 88.4196 86.6091 88.4048 80.999C88.3864 75.3853 92.3008 68.5513 97.1404 65.7314Z" fill="#4F4DC4"/>
<path d="M93.1777 82.7177L103.133 76.9142V68.7037L93.1777 74.5072V82.7177Z" fill="white"/>
<path fill-rule="evenodd" clip-rule="evenodd" d="M103.362 68.3094L92.9531 74.3734V83.1121L103.362 77.0482V68.3094ZM93.3991 74.6338L102.909 69.0944V76.784L93.3991 82.3234V74.6338Z" fill="#4F4DC4"/>
<path d="M92.9715 74.3845V75.0133L103.222 69.0386L98.0949 76.2521L92.9678 75.0133V75.7833L98.0949 77.0222L103.34 69.6413V68.3392L92.9715 74.3845Z" fill="#4F4DC4"/>
<path fill-rule="evenodd" clip-rule="evenodd" d="M92.9531 83.1084V82.7252L98.1576 74.6189L103.362 76.6613V77.0445L92.9531 83.1084ZM98.1576 75.3034L93.7972 82.0965L102.518 77.0147L98.1576 75.3034Z" fill="#4F4DC4"/>
<path d="M101.401 71.6056L98.0948 76.2558L94.6484 75.4225L101.401 71.6056Z" fill="white"/>
<defs>
<linearGradient id="paint0_linear_70_1015" x1="339" y1="5.5163e-06" x2="-2.0206e-05" y2="5.2942e-05" gradientUnits="userSpaceOnUse">
<stop stop-color="#D4DDFA"/>
<stop offset="0.506879" stop-color="#F0F3FA"/>
<stop offset="1" stop-color="#D4DDFA"/>
</linearGradient>
<linearGradient id="paint1_linear_70_1015" x1="199.721" y1="194.056" x2="213.076" y2="194.056" gradientUnits="userSpaceOnUse">
<stop stop-color="#000F1C"/>
<stop offset="1" stop-color="#012A45"/>
</linearGradient>
<linearGradient id="paint2_linear_70_1015" x1="190.327" y1="193.655" x2="208.795" y2="193.655" gradientUnits="userSpaceOnUse">
<stop stop-color="#000F1C"/>
<stop offset="1" stop-color="#012A45"/>
</linearGradient>
<linearGradient id="paint3_linear_70_1015" x1="190.893" y1="148.796" x2="217.376" y2="148.796" gradientUnits="userSpaceOnUse">
<stop stop-color="#000F1C"/>
<stop offset="1" stop-color="#012A45"/>
</linearGradient>
<linearGradient id="paint4_linear_70_1015" x1="176.131" y1="140.422" x2="203.814" y2="140.422" gradientUnits="userSpaceOnUse">
<stop stop-color="#000F1C"/>
<stop offset="1" stop-color="#012A45"/>
</linearGradient>
<linearGradient id="paint5_linear_70_1015" x1="158.997" y1="116.908" x2="176.395" y2="116.908" gradientUnits="userSpaceOnUse">
<stop stop-color="#000F1C"/>
<stop offset="1" stop-color="#012A45"/>
</linearGradient>
<linearGradient id="paint6_linear_70_1015" x1="153.135" y1="153.133" x2="163.699" y2="153.133" gradientUnits="userSpaceOnUse">
<stop stop-color="#000F1C"/>
<stop offset="1" stop-color="#012A45"/>
</linearGradient>
<linearGradient id="paint7_linear_70_1015" x1="145.2" y1="160.045" x2="159.836" y2="160.045" gradientUnits="userSpaceOnUse">
<stop stop-color="#000F1C"/>
<stop offset="1" stop-color="#012A45"/>
</linearGradient>
<linearGradient id="paint8_linear_70_1015" x1="142.618" y1="120.521" x2="158.488" y2="120.521" gradientUnits="userSpaceOnUse">
<stop stop-color="#000F1C"/>
<stop offset="1" stop-color="#012A45"/>
</linearGradient>
<linearGradient id="paint9_linear_70_1015" x1="165.598" y1="116.507" x2="165.598" y2="80.0532" gradientUnits="userSpaceOnUse">
<stop stop-color="#000F1C"/>
<stop offset="1" stop-color="#012A45"/>
</linearGradient>
<linearGradient id="paint10_linear_70_1015" x1="136.081" y1="128.396" x2="149.3" y2="128.119" gradientUnits="userSpaceOnUse">
<stop stop-color="#000F1C"/>
<stop offset="1" stop-color="#012A45"/>
</linearGradient>
<linearGradient id="paint11_linear_70_1015" x1="222.611" y1="112.246" x2="209.616" y2="111.683" gradientUnits="userSpaceOnUse">
<stop stop-color="#000F1C"/>
<stop offset="1" stop-color="#012A45"/>
</linearGradient>
</defs>
</svg>
