<svg width="1440" height="837" viewBox="0 0 1440 837" fill="none" xmlns="http://www.w3.org/2000/svg">
<path d="M0 134.824C0 134.824 375.232 307.782 656.534 153.314C1199.82 -145.015 1440 137.166 1440 137.166V836H0L0 134.824Z" fill="#8EA6DE" fill-opacity="0.26"/>
<path d="M0 136.242C0 136.242 365.029 380.438 683.534 223.26C1252.27 -57.4037 1440 202.238 1440 202.238V836.468H0L0 136.242Z" fill="#2667FF" fill-opacity="0.400158"/>
<path opacity="0.987554" d="M12.0798 836.482C12.0798 836.482 134 715.943 292 715.943C624.787 715.943 695 742.054 772 595.686C1005.88 151.11 1440 264.856 1440 264.856V836.482H12.0798Z" fill="url(#paint0_linear_8_2)"/>
<defs>
<linearGradient id="paint0_linear_8_2" x1="-267.497" y1="424.501" x2="-70.5514" y2="1193.63" gradientUnits="userSpaceOnUse">
<stop stop-color="#2667FF" stop-opacity="0.11"/>
<stop offset="1" stop-color="#2667FF" stop-opacity="0.26"/>
</linearGradient>
</defs>
</svg>
