<svg width="1440" height="541" viewBox="0 0 1440 541" fill="none" xmlns="http://www.w3.org/2000/svg">
<rect width="2140" height="1193" transform="translate(-427 -450)" fill="white"/>
<path d="M260.06 64V47.2H268.268C270.38 47.2 271.964 47.6 273.02 48.4C274.092 49.2 274.628 50.256 274.628 51.568C274.628 52.448 274.412 53.216 273.98 53.872C273.548 54.512 272.956 55.008 272.204 55.36C271.452 55.712 270.588 55.888 269.612 55.888L270.068 54.904C271.124 54.904 272.06 55.08 272.876 55.432C273.692 55.768 274.324 56.272 274.772 56.944C275.236 57.616 275.468 58.44 275.468 59.416C275.468 60.856 274.9 61.984 273.764 62.8C272.628 63.6 270.956 64 268.748 64H260.06ZM263.924 61.072H268.46C269.468 61.072 270.228 60.912 270.74 60.592C271.268 60.256 271.532 59.728 271.532 59.008C271.532 58.304 271.268 57.784 270.74 57.448C270.228 57.096 269.468 56.92 268.46 56.92H263.636V54.088H267.788C268.732 54.088 269.452 53.928 269.948 53.608C270.46 53.272 270.716 52.768 270.716 52.096C270.716 51.44 270.46 50.952 269.948 50.632C269.452 50.296 268.732 50.128 267.788 50.128H263.924V61.072ZM278.148 64V51.088H281.892V64H278.148ZM280.02 49.288C279.332 49.288 278.772 49.088 278.34 48.688C277.908 48.288 277.692 47.792 277.692 47.2C277.692 46.608 277.908 46.112 278.34 45.712C278.772 45.312 279.332 45.112 280.02 45.112C280.708 45.112 281.268 45.304 281.7 45.688C282.132 46.056 282.348 46.536 282.348 47.128C282.348 47.752 282.132 48.272 281.7 48.688C281.284 49.088 280.724 49.288 280.02 49.288ZM284.479 64V61.744L292.111 52.72L292.759 53.968H284.647V51.088H295.783V53.344L288.151 62.368L287.479 61.12H295.999V64H284.479ZM304.642 64.192C303.17 64.192 301.874 63.904 300.754 63.328C299.65 62.752 298.794 61.968 298.186 60.976C297.578 59.968 297.274 58.824 297.274 57.544C297.274 56.248 297.57 55.104 298.162 54.112C298.77 53.104 299.594 52.32 300.634 51.76C301.674 51.184 302.85 50.896 304.162 50.896C305.426 50.896 306.562 51.168 307.57 51.712C308.594 52.24 309.402 53.008 309.994 54.016C310.586 55.008 310.882 56.2 310.882 57.592C310.882 57.736 310.874 57.904 310.858 58.096C310.842 58.272 310.826 58.44 310.81 58.6H300.322V56.416H308.842L307.402 57.064C307.402 56.392 307.266 55.808 306.994 55.312C306.722 54.816 306.346 54.432 305.866 54.16C305.386 53.872 304.826 53.728 304.186 53.728C303.546 53.728 302.978 53.872 302.482 54.16C302.002 54.432 301.626 54.824 301.354 55.336C301.082 55.832 300.946 56.424 300.946 57.112V57.688C300.946 58.392 301.098 59.016 301.402 59.56C301.722 60.088 302.162 60.496 302.722 60.784C303.298 61.056 303.97 61.192 304.738 61.192C305.426 61.192 306.026 61.088 306.538 60.88C307.066 60.672 307.546 60.36 307.978 59.944L309.97 62.104C309.378 62.776 308.634 63.296 307.738 63.664C306.842 64.016 305.81 64.192 304.642 64.192ZM322.067 64L328.835 48.688L329.843 50.368H320.795L322.523 48.544V53.104H319.067V47.2H332.531V49.72L326.291 64H322.067ZM331.62 66.4L339.54 43.792H342.876L334.956 66.4H331.62ZM342.603 64V61.48L349.083 55.36C349.595 54.896 349.971 54.48 350.211 54.112C350.451 53.744 350.611 53.408 350.691 53.104C350.787 52.8 350.835 52.52 350.835 52.264C350.835 51.592 350.603 51.08 350.139 50.728C349.691 50.36 349.027 50.176 348.147 50.176C347.443 50.176 346.787 50.312 346.179 50.584C345.587 50.856 345.083 51.28 344.667 51.856L341.835 50.032C342.475 49.072 343.371 48.312 344.523 47.752C345.675 47.192 347.003 46.912 348.507 46.912C349.755 46.912 350.843 47.12 351.771 47.536C352.715 47.936 353.443 48.504 353.955 49.24C354.483 49.976 354.747 50.856 354.747 51.88C354.747 52.424 354.675 52.968 354.531 53.512C354.403 54.04 354.131 54.6 353.715 55.192C353.315 55.784 352.723 56.448 351.939 57.184L346.563 62.248L345.819 60.832H355.299V64H342.603ZM356.453 60.472V57.856L364.373 47.2H368.453L360.701 57.856L358.805 57.304H372.029V60.472H356.453ZM365.501 64V60.472L365.621 57.304V54.16H369.293V64H365.501ZM386.229 64.192C385.157 64.192 384.197 63.984 383.349 63.568C382.517 63.152 381.869 62.52 381.405 61.672C380.941 60.808 380.709 59.712 380.709 58.384V51.088H384.453V57.832C384.453 58.904 384.677 59.696 385.125 60.208C385.589 60.704 386.237 60.952 387.069 60.952C387.645 60.952 388.157 60.832 388.605 60.592C389.053 60.336 389.405 59.952 389.661 59.44C389.917 58.912 390.045 58.256 390.045 57.472V51.088H393.789V64H390.237V60.448L390.885 61.48C390.453 62.376 389.813 63.056 388.965 63.52C388.133 63.968 387.221 64.192 386.229 64.192ZM397.257 64V46.192H401.001V64H397.257ZM412.396 64V61.48L412.156 60.928V56.416C412.156 55.616 411.908 54.992 411.412 54.544C410.932 54.096 410.188 53.872 409.18 53.872C408.492 53.872 407.812 53.984 407.14 54.208C406.484 54.416 405.924 54.704 405.46 55.072L404.116 52.456C404.82 51.96 405.668 51.576 406.66 51.304C407.652 51.032 408.66 50.896 409.684 50.896C411.652 50.896 413.18 51.36 414.268 52.288C415.356 53.216 415.9 54.664 415.9 56.632V64H412.396ZM408.46 64.192C407.452 64.192 406.588 64.024 405.868 63.688C405.148 63.336 404.596 62.864 404.212 62.272C403.828 61.68 403.636 61.016 403.636 60.28C403.636 59.512 403.82 58.84 404.188 58.264C404.572 57.688 405.172 57.24 405.988 56.92C406.804 56.584 407.868 56.416 409.18 56.416H412.612V58.6H409.588C408.708 58.6 408.1 58.744 407.764 59.032C407.444 59.32 407.284 59.68 407.284 60.112C407.284 60.592 407.468 60.976 407.836 61.264C408.22 61.536 408.74 61.672 409.396 61.672C410.02 61.672 410.58 61.528 411.076 61.24C411.572 60.936 411.932 60.496 412.156 59.92L412.732 61.648C412.46 62.48 411.964 63.112 411.244 63.544C410.524 63.976 409.596 64.192 408.46 64.192ZM423.633 64.192C422.529 64.192 421.465 64.064 420.441 63.808C419.433 63.536 418.633 63.2 418.041 62.8L419.289 60.112C419.881 60.48 420.577 60.784 421.377 61.024C422.193 61.248 422.993 61.36 423.777 61.36C424.641 61.36 425.249 61.256 425.601 61.048C425.969 60.84 426.153 60.552 426.153 60.184C426.153 59.88 426.009 59.656 425.721 59.512C425.449 59.352 425.081 59.232 424.617 59.152C424.153 59.072 423.641 58.992 423.081 58.912C422.537 58.832 421.985 58.728 421.425 58.6C420.865 58.456 420.353 58.248 419.889 57.976C419.425 57.704 419.049 57.336 418.761 56.872C418.489 56.408 418.353 55.808 418.353 55.072C418.353 54.256 418.585 53.536 419.049 52.912C419.529 52.288 420.217 51.8 421.113 51.448C422.009 51.08 423.081 50.896 424.329 50.896C425.209 50.896 426.105 50.992 427.017 51.184C427.929 51.376 428.689 51.656 429.297 52.024L428.049 54.688C427.425 54.32 426.793 54.072 426.153 53.944C425.529 53.8 424.921 53.728 424.329 53.728C423.497 53.728 422.889 53.84 422.505 54.064C422.121 54.288 421.929 54.576 421.929 54.928C421.929 55.248 422.065 55.488 422.337 55.648C422.625 55.808 423.001 55.936 423.465 56.032C423.929 56.128 424.433 56.216 424.977 56.296C425.537 56.36 426.097 56.464 426.657 56.608C427.217 56.752 427.721 56.96 428.169 57.232C428.633 57.488 429.009 57.848 429.297 58.312C429.585 58.76 429.729 59.352 429.729 60.088C429.729 60.888 429.489 61.6 429.009 62.224C428.529 62.832 427.833 63.312 426.921 63.664C426.025 64.016 424.929 64.192 423.633 64.192ZM423.033 69.568C422.617 69.568 422.209 69.52 421.809 69.424C421.425 69.328 421.089 69.208 420.801 69.064L421.377 67.456C421.617 67.568 421.865 67.656 422.121 67.72C422.377 67.784 422.649 67.816 422.937 67.816C423.385 67.816 423.705 67.744 423.897 67.6C424.089 67.456 424.185 67.272 424.185 67.048C424.185 66.84 424.089 66.672 423.897 66.544C423.721 66.416 423.425 66.352 423.009 66.352H422.193L422.817 63.808H424.809L424.473 65.2C425.193 65.28 425.721 65.504 426.057 65.872C426.393 66.256 426.561 66.696 426.561 67.192C426.561 67.912 426.241 68.488 425.601 68.92C424.961 69.352 424.105 69.568 423.033 69.568ZM439.959 64V61.48L439.719 60.928V56.416C439.719 55.616 439.471 54.992 438.975 54.544C438.495 54.096 437.751 53.872 436.743 53.872C436.055 53.872 435.375 53.984 434.703 54.208C434.047 54.416 433.487 54.704 433.023 55.072L431.679 52.456C432.383 51.96 433.231 51.576 434.223 51.304C435.215 51.032 436.223 50.896 437.247 50.896C439.215 50.896 440.743 51.36 441.831 52.288C442.919 53.216 443.463 54.664 443.463 56.632V64H439.959ZM436.023 64.192C435.015 64.192 434.151 64.024 433.431 63.688C432.711 63.336 432.159 62.864 431.775 62.272C431.391 61.68 431.199 61.016 431.199 60.28C431.199 59.512 431.383 58.84 431.751 58.264C432.135 57.688 432.735 57.24 433.551 56.92C434.367 56.584 435.431 56.416 436.743 56.416H440.175V58.6H437.151C436.271 58.6 435.663 58.744 435.327 59.032C435.007 59.32 434.847 59.68 434.847 60.112C434.847 60.592 435.031 60.976 435.399 61.264C435.783 61.536 436.303 61.672 436.959 61.672C437.583 61.672 438.143 61.528 438.639 61.24C439.135 60.936 439.495 60.496 439.719 59.92L440.295 61.648C440.023 62.48 439.527 63.112 438.807 63.544C438.087 63.976 437.159 64.192 436.023 64.192ZM454.483 64.192C453.347 64.192 452.371 63.952 451.555 63.472C450.739 62.992 450.115 62.264 449.683 61.288C449.251 60.296 449.035 59.048 449.035 57.544C449.035 56.024 449.259 54.776 449.707 53.8C450.171 52.824 450.811 52.096 451.627 51.616C452.443 51.136 453.395 50.896 454.483 50.896C455.699 50.896 456.787 51.168 457.747 51.712C458.723 52.256 459.491 53.024 460.051 54.016C460.627 55.008 460.915 56.184 460.915 57.544C460.915 58.888 460.627 60.056 460.051 61.048C459.491 62.04 458.723 62.816 457.747 63.376C456.787 63.92 455.699 64.192 454.483 64.192ZM446.851 64V46.192H450.595V53.704L450.355 57.52L450.427 61.36V64H446.851ZM453.835 61.12C454.459 61.12 455.011 60.976 455.491 60.688C455.987 60.4 456.379 59.992 456.667 59.464C456.971 58.92 457.123 58.28 457.123 57.544C457.123 56.792 456.971 56.152 456.667 55.624C456.379 55.096 455.987 54.688 455.491 54.4C455.011 54.112 454.459 53.968 453.835 53.968C453.211 53.968 452.651 54.112 452.155 54.4C451.659 54.688 451.267 55.096 450.979 55.624C450.691 56.152 450.547 56.792 450.547 57.544C450.547 58.28 450.691 58.92 450.979 59.464C451.267 59.992 451.659 60.4 452.155 60.688C452.651 60.976 453.211 61.12 453.835 61.12ZM463.421 64V51.088H467.165V64H463.421ZM465.293 49.288C464.605 49.288 464.045 49.088 463.613 48.688C463.181 48.288 462.965 47.792 462.965 47.2C462.965 46.608 463.181 46.112 463.613 45.712C464.045 45.312 464.605 45.112 465.293 45.112C465.981 45.112 466.541 45.304 466.973 45.688C467.405 46.056 467.621 46.536 467.621 47.128C467.621 47.752 467.405 48.272 466.973 48.688C466.557 49.088 465.997 49.288 465.293 49.288ZM470.64 64V46.192H474.384V64H470.64ZM477.859 64V51.088H481.603V64H477.859ZM479.731 49.288C479.043 49.288 478.483 49.088 478.051 48.688C477.619 48.288 477.403 47.792 477.403 47.2C477.403 46.608 477.619 46.112 478.051 45.712C478.483 45.312 479.043 45.112 479.731 45.112C480.419 45.112 480.979 45.304 481.411 45.688C481.843 46.056 482.059 46.536 482.059 47.128C482.059 47.752 481.843 48.272 481.411 48.688C480.995 49.088 480.435 49.288 479.731 49.288ZM485.078 64V51.088H488.654V54.736L488.15 53.68C488.534 52.768 489.15 52.08 489.998 51.616C490.846 51.136 491.878 50.896 493.094 50.896V54.352C492.934 54.336 492.79 54.328 492.662 54.328C492.534 54.312 492.398 54.304 492.254 54.304C491.23 54.304 490.398 54.6 489.758 55.192C489.134 55.768 488.822 56.672 488.822 57.904V64H485.078ZM499.758 64.192C498.654 64.192 497.59 64.064 496.566 63.808C495.558 63.536 494.758 63.2 494.166 62.8L495.414 60.112C496.006 60.48 496.702 60.784 497.502 61.024C498.318 61.248 499.118 61.36 499.902 61.36C500.766 61.36 501.374 61.256 501.726 61.048C502.094 60.84 502.278 60.552 502.278 60.184C502.278 59.88 502.134 59.656 501.846 59.512C501.574 59.352 501.206 59.232 500.742 59.152C500.278 59.072 499.766 58.992 499.206 58.912C498.662 58.832 498.11 58.728 497.55 58.6C496.99 58.456 496.478 58.248 496.014 57.976C495.55 57.704 495.174 57.336 494.886 56.872C494.614 56.408 494.478 55.808 494.478 55.072C494.478 54.256 494.71 53.536 495.174 52.912C495.654 52.288 496.342 51.8 497.238 51.448C498.134 51.08 499.206 50.896 500.454 50.896C501.334 50.896 502.23 50.992 503.142 51.184C504.054 51.376 504.814 51.656 505.422 52.024L504.174 54.688C503.55 54.32 502.918 54.072 502.278 53.944C501.654 53.8 501.046 53.728 500.454 53.728C499.622 53.728 499.014 53.84 498.63 54.064C498.246 54.288 498.054 54.576 498.054 54.928C498.054 55.248 498.19 55.488 498.462 55.648C498.75 55.808 499.126 55.936 499.59 56.032C500.054 56.128 500.558 56.216 501.102 56.296C501.662 56.36 502.222 56.464 502.782 56.608C503.342 56.752 503.846 56.96 504.294 57.232C504.758 57.488 505.134 57.848 505.422 58.312C505.71 58.76 505.854 59.352 505.854 60.088C505.854 60.888 505.614 61.6 505.134 62.224C504.654 62.832 503.958 63.312 503.046 63.664C502.15 64.016 501.054 64.192 499.758 64.192ZM508.164 64V51.088H511.908V64H508.164ZM510.036 49.288C509.348 49.288 508.788 49.088 508.356 48.688C507.924 48.288 507.708 47.792 507.708 47.2C507.708 46.608 507.924 46.112 508.356 45.712C508.788 45.312 509.348 45.112 510.036 45.112C510.724 45.112 511.284 45.304 511.716 45.688C512.148 46.056 512.364 46.536 512.364 47.128C512.364 47.752 512.148 48.272 511.716 48.688C511.3 49.088 510.74 49.288 510.036 49.288ZM523.23 50.896C524.254 50.896 525.166 51.104 525.966 51.52C526.782 51.92 527.422 52.544 527.886 53.392C528.35 54.224 528.582 55.296 528.582 56.608V64H524.838V57.184C524.838 56.144 524.606 55.376 524.142 54.88C523.694 54.384 523.054 54.136 522.222 54.136C521.63 54.136 521.094 54.264 520.614 54.52C520.15 54.76 519.782 55.136 519.51 55.648C519.254 56.16 519.126 56.816 519.126 57.616V64H515.382V51.088H518.958V54.664L518.286 53.584C518.75 52.72 519.414 52.056 520.278 51.592C521.142 51.128 522.126 50.896 523.23 50.896ZM531.976 64V51.088H535.72V64H531.976ZM533.848 49.288C533.16 49.288 532.6 49.088 532.168 48.688C531.736 48.288 531.52 47.792 531.52 47.2C531.52 46.608 531.736 46.112 532.168 45.712C532.6 45.312 533.16 45.112 533.848 45.112C534.536 45.112 535.096 45.304 535.528 45.688C535.96 46.056 536.176 46.536 536.176 47.128C536.176 47.752 535.96 48.272 535.528 48.688C535.112 49.088 534.552 49.288 533.848 49.288ZM538.307 64V61.744L545.939 52.72L546.587 53.968H538.475V51.088H549.611V53.344L541.979 62.368L541.307 61.12H549.827V64H538.307ZM552.49 58.168L551.746 47.2H556.21L555.466 58.168H552.49ZM553.978 64.192C553.306 64.192 552.754 63.976 552.322 63.544C551.89 63.112 551.674 62.6 551.674 62.008C551.674 61.4 551.89 60.896 552.322 60.496C552.754 60.08 553.306 59.872 553.978 59.872C554.666 59.872 555.218 60.08 555.634 60.496C556.066 60.896 556.282 61.4 556.282 62.008C556.282 62.6 556.066 63.112 555.634 63.544C555.218 63.976 554.666 64.192 553.978 64.192Z" fill="white"/>
<path d="M0 -160.176C0 -160.176 375.232 12.7821 656.534 -141.686C1199.82 -440.015 1440 -157.834 1440 -157.834V541H0L0 -160.176Z" fill="#8EA6DE" fill-opacity="0.26"/>
<path d="M0 -158.759C0 -158.759 365.029 85.4371 683.534 -71.7412C1252.27 -352.405 1440 -92.7636 1440 -92.7636V541.467H0L0 -158.759Z" fill="#2667FF" fill-opacity="0.400158"/>
<path opacity="0.987554" d="M12 541C12 541 133.927 431.566 291.936 431.566C624.742 431.566 694.958 455.271 771.963 322.389C1005.86 -81.2284 1440 22.0384 1440 22.0384V541H12Z" fill="url(#paint0_linear_99_6)"/>
<defs>
<linearGradient id="paint0_linear_99_6" x1="-267.593" y1="166.975" x2="-103.498" y2="872.887" gradientUnits="userSpaceOnUse">
<stop stop-color="#2667FF" stop-opacity="0.11"/>
<stop offset="1" stop-color="#2667FF" stop-opacity="0.26"/>
</linearGradient>
</defs>
</svg>
