<svg width="1440" height="285" viewBox="0 0 1440 285" fill="none" xmlns="http://www.w3.org/2000/svg">
<rect width="2140" height="1193" transform="translate(-427 -165)" fill="white"/>
<path d="M0 124.824C0 124.824 375.232 297.782 656.534 143.314C1199.82 -155.015 1440 127.166 1440 127.166V826H0L0 124.824Z" fill="#8EA6DE" fill-opacity="0.26"/>
<path d="M0 126.241C0 126.241 365.029 370.437 683.534 213.259C1252.27 -67.405 1440 192.236 1440 192.236V826.467H0L0 126.241Z" fill="#2667FF" fill-opacity="0.400158"/>
<path opacity="0.987554" d="M12 826C12 826 133.927 716.566 291.936 716.566C624.742 716.566 694.958 740.271 771.963 607.389C1005.86 203.772 1440 307.038 1440 307.038V826H12Z" fill="url(#paint0_linear_99_6)"/>
<defs>
<linearGradient id="paint0_linear_99_6" x1="-267.593" y1="451.975" x2="-103.498" y2="1157.89" gradientUnits="userSpaceOnUse">
<stop stop-color="#2667FF" stop-opacity="0.11"/>
<stop offset="1" stop-color="#2667FF" stop-opacity="0.26"/>
</linearGradient>
</defs>
</svg>
