<svg width="138" height="231" viewBox="0 0 138 231" fill="none" xmlns="http://www.w3.org/2000/svg">
<path fill-rule="evenodd" clip-rule="evenodd" d="M76.2273 1.38424C77.7979 0.662009 79.4453 0.419808 81.011 0.680927C86.9908 0.972941 92.6641 2.91446 97.607 6.3604C108.413 13.4358 116.215 24.1499 122.437 36.7065C128.923 49.7794 133.319 64.4159 135.429 79.964C138.198 100.207 137.723 120.752 131.297 141.548C124.166 164.643 111.733 182.436 93.0449 193.416C75.0984 203.955 57.4403 204.873 40.2584 197.901C30.9031 194.1 22.9008 187.785 15.4306 180.511C14.5042 179.61 13.5689 178.721 12.1038 177.307C12.7469 179.471 13.6259 181.492 14.72 183.323C20.7513 195.516 27.3936 207.198 34.6155 218.315C36.0995 220.371 37.3686 222.65 38.4 225.109C39.1341 227.08 38.6194 229.017 37.226 230.021C35.9479 230.938 34.7091 230.527 33.7022 228.771C27.627 218.15 20.9117 208.116 15.2947 197.068C10.8697 188.375 6.4841 179.649 2.35316 170.715C2.05157 170.061 1.73712 169.416 1.46667 168.741C0.387054 166.053 0.418008 164.672 1.56534 163.348C2.76075 161.97 5.9364 160.915 7.16848 161.935C15.1597 168.521 25.1252 168.558 34.5785 170.294C37.6375 170.861 40.7622 171.135 43.8426 171.604C44.8015 171.732 45.7291 172.001 46.6054 172.407C47.731 172.926 48.2917 174.387 47.9445 175.897C47.7037 177.263 46.803 178.415 45.6801 178.794C44.4828 179.199 43.2613 179.327 42.083 179.173C36.6527 179.042 31.3066 178.313 26.1096 176.996C25.1162 176.744 24.0938 176.588 23.1389 176.398C22.8487 177.14 23.1018 177.368 23.3289 177.577C35.4975 188.762 49.2621 195.603 65.8716 194.537C93.946 192.734 118.028 169.401 126.807 135.569C130.738 119.998 131.941 104.011 130.333 88.6901C128.54 68.1054 122.818 48.8851 113.598 32.4754C108.762 23.6283 102.502 16.139 95.1282 10.3764C90.0041 6.3881 84.1927 3.66903 77.9814 2.3536C77.3781 2.22947 76.6337 2.38619 76.2273 1.38424Z" fill="#89D99D"/>
</svg>
