<svg width="184" height="39" viewBox="0 0 184 39" fill="none" xmlns="http://www.w3.org/2000/svg">
<path fill-rule="evenodd" clip-rule="evenodd" d="M176.16 15.0531C174.797 14.9343 174.392 14.1946 173.407 14.1175C172.572 14.0515 164.186 14.6885 161.148 14.901C161.877 14.0981 162.581 13.9279 162.511 12.6451C163.331 12.6679 164.155 12.6913 164.974 12.7165C165.209 12.4869 165.441 12.258 165.679 12.0292C164.19 12.1281 162.695 12.0263 161.234 11.7265C161.928 10.6809 163.757 10.5741 165.087 10.0466C165.177 10.2086 165.266 10.3697 165.355 10.5317C165.031 10.5559 164.704 10.5809 164.378 10.6052C166.162 11.0171 167.405 10.2558 169.783 10.4568C169.69 10.2538 169.598 10.0492 169.507 9.84295C171.14 10.0567 172.791 10.104 174.434 9.98412C174.105 9.9665 173.773 9.9497 173.443 9.93055C173.442 9.88866 173.44 9.8468 173.439 9.80336C174.276 9.4899 173.552 9.65637 174.421 9.73062C174.501 9.72434 174.583 9.7197 174.664 9.71267C174.572 9.50889 174.48 9.30481 174.388 9.10041C170.12 9.03723 165.854 8.9745 161.588 8.91222C161.497 8.70677 161.404 8.50382 161.312 8.29756C161.309 8.25581 161.306 8.21394 161.304 8.1729C162.506 8.25982 162.511 8.39592 163.252 7.77316C163.263 7.98322 163.274 8.19486 163.284 8.40659C165.12 7.92585 167.005 7.65725 168.902 7.60608C168.811 7.48763 168.725 7.36591 168.639 7.24575C166.89 7.23922 163.727 7.44506 162.215 6.70985C162.908 6.41584 163.656 6.27381 164.408 6.29337C164.648 6.19127 164.888 6.08761 165.129 5.98516C165.114 5.69177 165.099 5.39681 165.085 5.10101C161.974 4.05419 155.073 4.49486 150.3 4.55236C150.297 4.51174 150.295 4.46946 150.293 4.42726C153.55 3.97447 156.808 3.52046 160.067 3.06523C159.733 2.96554 159.4 2.86339 159.066 2.76174C161.947 2.62722 163.099 1.94978 165.441 2.28554C165.791 1.78805 165.713 2.15146 165.409 1.6545C165.567 1.60059 165.729 1.54621 165.892 1.49306C166.139 1.51571 166.384 1.54005 166.631 1.56437C166.476 1.74384 166.323 1.92411 166.168 2.10564C166.17 2.14832 166.171 2.18981 166.174 2.23282C168.646 1.83729 169.711 1.06386 172.759 1.10897C172.592 1.03701 172.425 0.964606 172.256 0.892571C169.319 -0.0231577 149.391 1.97681 142.054 1.99856C131.701 2.02906 71.817 4.69306 59.4491 5.11112C53.732 5.49409 48.0125 5.87708 42.2905 6.26008C40.5117 6.50576 31.3672 7.48867 30.047 7.42593C26.5735 7.25857 20.7167 7.15137 17.001 7.25367C17.1004 7.5842 17.1991 7.91489 17.2971 8.24577C12.7471 8.54345 7.95154 8.62237 5.83556 10.2406C6.18267 11.7715 7.19617 12.2741 8.92327 12.9247C8.5956 12.9481 8.26681 12.9732 7.93998 12.9974C7.85894 13.0037 7.77676 13.0108 7.69818 13.0162C8.14257 13.743 8.5889 14.4702 9.03715 15.1975C9.58904 15.6769 13.5113 16.2125 15.4836 16.2393C15.4852 16.282 15.4883 16.3239 15.4891 16.3665C8.61637 18.531 2.40444 17.5671 0.0310622 22.0794C0.207542 22.7779 0.462215 22.8999 1.07474 23.2694C2.13743 23.1912 3.19904 23.1123 4.25955 23.0326C4.29617 23.7907 4.33402 24.5481 4.37309 25.3046C5.1121 25.2934 5.84908 25.2797 6.58485 25.2677C6.58726 25.3111 6.58955 25.3521 6.59153 25.3948C2.81699 27.1692 0.198727 27.9826 1.44692 30.7198C8.01249 30.9097 14.5817 31.0971 21.1544 31.282C28.2169 31.4785 36.3325 29.5026 41.7457 29.8794C44.5409 30.0739 45.0775 30.5519 48.154 30.1623C48.2409 30.2405 48.3261 30.3179 48.4122 30.3962C46.5417 31.2642 42.5233 30.2936 40.5655 30.8529C37.9425 31.6036 34.3724 31.243 31.753 31.7624C28.7653 32.3332 25.7163 32.5169 22.6815 32.309C22.0097 32.2627 16.328 33.0595 12.3881 33.0759C11.1838 34.0821 8.97116 34.6958 8.59804 36.021C7.70338 36.1293 6.80418 36.2376 5.9083 36.3467C5.67075 36.491 5.4299 36.6354 5.19194 36.7797C4.741 37.2072 5.11091 37.3167 4.99727 37.8085C9.27769 39.2418 19.5019 37.6754 24.6669 37.6134C36.1771 37.4769 57.3304 36.0685 69.0507 34.8208C69.0877 34.3046 69.1286 34.4747 68.767 34.0799C68.7654 34.0364 68.7635 33.9945 68.762 33.9527C69.4627 34.1306 69.5048 34.3667 70.0261 34.6201C70.2616 34.4743 70.5024 34.3307 70.7404 34.1872C70.83 34.3491 70.922 34.5111 71.01 34.673C71.2597 34.7388 71.511 34.8053 71.7567 34.8711C72.3042 34.6651 72.8781 34.5373 73.4614 34.4917C73.459 34.4483 73.4574 34.408 73.4543 34.3662C73.3805 33.6988 74.2818 33.8974 75.6298 33.5686C76.0407 33.6218 76.4545 33.6782 76.8686 33.7306C76.0036 34.0196 75.089 34.1312 74.1797 34.0587C74.1856 34.1842 74.191 34.3106 74.1984 34.4369C74.9354 34.424 75.6732 34.412 76.4082 34.3992C76.7253 34.1213 77.0373 33.8453 77.3529 33.5691C77.9207 33.4826 125.05 32.5859 125.621 32.5011C125.951 32.5621 126.284 32.6216 126.613 32.6834C125.98 33.1134 78.9457 33.9521 77.3778 34.0737C77.3026 34.2475 77.2293 34.4227 77.1557 34.5964C77.9559 34.4132 125.871 33.2217 127.633 33.3673C127.621 33.1146 127.608 32.8626 127.597 32.6083C129.549 32.5887 130.638 32.0929 132.723 31.8462C132.732 32.0579 132.743 32.2679 132.753 32.4797C133.006 32.3585 133.272 32.2668 133.546 32.2064C133.523 32.1935 133.5 32.182 133.475 32.1722C133.58 32.1631 133.678 32.1574 133.779 32.15C136.632 31.4783 143.866 30.8292 148.883 30.339C148.876 30.2303 148.872 30.1216 148.866 30.0129C148.947 30.0067 149.029 30.0004 149.11 29.9958C149.047 30.1089 148.982 30.222 148.915 30.3351C151.233 30.1094 153.075 29.9186 153.77 29.776C153.534 29.9186 153.294 30.0638 153.056 30.2073C153.235 30.2259 172.751 28.5545 173.617 28.172C173.517 27.8411 173.42 27.5101 173.322 27.1792C172.313 26.7303 171.192 26.5931 170.104 26.7851C170.098 26.6594 170.093 26.5331 170.086 26.4076C173.775 26.058 176.812 25.1616 180.329 24.6298C181.547 23.3881 181.484 23.2515 181.169 21.7796C181.739 21.6956 182.311 21.6115 182.879 21.5258C184.163 17.9204 177.09 17.4719 176.16 15.0531ZM165.04 0.992711C165.138 0.9837 165.237 0.978578 165.336 0.968558C165.246 1.13035 165.153 1.29109 165.064 1.45338C165.054 1.29723 165.046 1.14554 165.04 0.992711ZM163.04 1.02938C163.14 1.01982 163.238 1.01323 163.337 1.0052C163.246 1.1664 163.153 1.32726 163.064 1.48653C163.055 1.33435 163.047 1.18069 163.04 1.02938ZM49.1797 30.1686C49.5104 30.194 49.8484 30.2164 50.1811 30.238C49.2177 30.2792 49.8848 30.3965 49.1797 30.1686ZM53.1832 30.332C53.2353 30.2226 53.2884 30.1153 53.3397 30.006C53.6171 30.0255 53.8969 30.0422 54.1786 30.0596C53.8441 30.1515 53.5141 30.2413 53.1832 30.332ZM65.2473 33.9022C64.9196 34.0427 64.5932 34.1833 64.266 34.3257C64.2578 34.1227 64.251 33.9177 64.2439 33.7137C64.5203 33.6796 64.7979 33.6473 65.0722 33.6152C65.128 33.6602 65.1855 33.7031 65.2406 33.748C65.2431 33.8008 65.2445 33.8495 65.2473 33.9022ZM67.4591 34.709C68.0706 34.9405 67.676 34.6896 68.0718 35.1241C67.8701 34.985 67.6641 34.848 67.4591 34.709ZM68.2962 33.7797C68.598 33.8614 68.8997 33.9392 69.1994 34.0188C68.303 33.8861 68.8431 34.0534 68.2962 33.7797ZM160.75 7.35389C159.771 7.56731 160.399 7.55536 159.843 7.11619C160.144 7.19645 160.445 7.27521 160.75 7.35389ZM155.82 8.62348C156 8.4054 156.183 8.18737 156.36 7.96935C158.169 8.19975 159.998 8.2137 161.81 8.01094C161.162 9.11231 157.315 8.58077 155.82 8.62348ZM166.392 23.6936C166.286 23.4345 166.181 23.1761 166.071 22.9187C167.456 22.8202 168.838 22.7229 170.218 22.6266C170.502 22.7848 170.792 22.941 171.075 23.0991C169.514 23.297 167.953 23.4951 166.392 23.6936ZM172.137 23.2719C172.232 23.1609 172.325 23.0518 172.419 22.9418C172.614 22.9277 172.814 22.9134 173.012 22.8992C172.49 23.2473 173.028 23.0113 172.137 23.2719ZM173.045 21.3906C173.093 21.1817 173.142 20.9708 173.191 20.76C173.359 20.7922 173.528 20.8225 173.697 20.8547C173.812 20.8918 173.926 20.9298 174.038 20.967C173.734 21.2531 173.393 21.3987 173.045 21.3906ZM169.797 7.17272C170.354 7.72268 170.776 7.27473 171.797 7.15541C171.796 7.10262 171.793 7.05385 171.79 7.0031C171.368 6.93626 170.949 6.86835 170.529 6.79948C170.206 7.34331 170.686 7.03997 169.797 7.17272ZM175.399 8.71916C175.311 8.92972 175.221 9.14133 175.135 9.35376C175.495 8.99292 175.667 9.03392 175.399 8.71916ZM133.824 32.9333C133.896 32.9272 133.967 32.9201 134.037 32.9129C134.102 32.8054 134.168 32.6948 134.235 32.5863C133.968 32.6124 133.705 32.6385 133.438 32.6656C133.367 32.6864 133.3 32.711 133.237 32.7326C133.515 32.9387 133.217 32.813 133.824 32.9333ZM135.238 32.7749C133.239 32.7218 131.238 32.6705 129.235 32.6208C130.483 33.2046 132.608 33.0513 135.238 32.7749ZM134.433 32.6325C134.368 32.6913 134.305 32.7491 134.239 32.805C134.242 32.8566 134.243 32.9074 134.246 32.9601C134.447 32.9898 134.65 33.0224 134.849 33.0532L135.237 32.7064C135.1 32.6151 134.962 32.5276 134.825 32.4382C134.693 32.503 134.565 32.5677 134.433 32.6325ZM136.235 32.5921C136.787 33.3843 136.81 32.8468 138.024 32.8871C138.096 32.7774 138.162 32.6678 138.235 32.5581C137.713 32.5057 137.192 32.452 136.67 32.397C136.525 32.463 136.378 32.528 136.235 32.5921Z" fill="url(#paint0_linear_0_15389)" fill-opacity="0.6"/>
<defs>
<linearGradient id="paint0_linear_0_15389" x1="24.1935" y1="-82.8568" x2="13.0504" y2="40.3943" gradientUnits="userSpaceOnUse">
<stop stop-color="#7CC6A5"/>
<stop offset="1" stop-color="#3966CC"/>
</linearGradient>
</defs>
</svg>
