<svg width="118" height="14" viewBox="0 0 118 14" fill="none" xmlns="http://www.w3.org/2000/svg">
<path fill-rule="evenodd" clip-rule="evenodd" d="M17.4075 8.73648C15.8508 8.78124 14.2884 8.71939 12.7493 8.88851C10.3594 9.15428 7.99241 9.5694 5.34987 9.96232C5.48235 9.50772 5.47784 8.99616 5.69347 8.86488C6.44887 8.36384 7.26977 7.96903 8.13303 7.69156C10.3859 7.07743 12.6678 6.59045 15.2451 5.97691C13.984 5.46105 13.0794 6.21033 12.1403 6.19183C11.1716 6.20315 10.2042 6.26925 9.24298 6.38983C8.22478 6.48993 7.21184 6.64826 6.1969 6.76953C5.23329 6.88693 4.27089 7.01496 3.30403 7.0951C2.28421 7.19074 1.2635 7.23004 0.24651 7.29272C-0.155778 6.14011 -0.142338 6.05447 0.870186 5.86072C3.00484 5.45743 5.14359 5.0598 7.29377 4.7409C9.5597 4.40738 11.8472 4.18741 14.1205 3.88606C16.5157 3.56349 18.8986 3.18279 21.2958 2.87143C24.017 2.51857 26.7412 2.19304 29.4685 1.89486C32.7632 1.51636 36.0527 1.06239 39.3503 0.838347C43.4215 0.548953 47.5066 0.426678 51.5836 0.286274C55.4404 0.149496 59.299 -0.0305833 63.1546 0.00442391C66.6621 0.03393 70.1627 0.295026 73.6649 0.515196C76.1917 0.66902 78.71 0.922156 81.2339 1.13645C85.0268 1.45898 88.82 1.79517 92.6125 2.11382C94.5356 2.27623 96.4755 2.3234 98.3872 2.57329C102.375 3.09181 106.364 3.64651 110.332 4.30381C112.643 4.68535 114.918 5.2826 117.206 5.79966C117.486 5.91535 117.753 6.0624 118 6.23801C115.386 6.1454 112.994 6.1509 110.613 5.95841C107.37 5.70098 104.145 5.25697 100.905 4.95907C98.739 4.75982 96.5603 4.71994 94.3974 4.52236C90.7432 4.19879 87.0999 3.7497 83.4403 3.47843C77.6783 3.03705 71.9097 2.56762 66.1326 2.35274C60.3596 2.13703 54.5731 2.03505 48.8037 2.56983C48.4063 2.6521 48.0174 2.77084 47.642 2.92453C46.3698 2.60709 45.6133 2.64635 44.648 3.29223C45.643 3.15245 46.6362 3.01096 47.6277 2.86777C49.484 2.92636 51.3472 3.03443 53.2063 3.02892C60.2699 3.011 67.3249 3.1622 74.3538 3.98046C76.1542 4.18783 77.9811 4.16729 79.7848 4.34207C83.2553 4.6831 86.7225 5.09131 90.188 5.45376C92.2354 5.66214 94.2903 5.78483 96.3287 6.03592C99.3275 6.40242 102.313 6.85276 105.306 7.25305C106.436 7.40729 107.588 7.43209 108.704 7.65372C110.183 7.94999 111.633 8.38141 113.091 8.75886C113.266 8.80587 113.497 8.83925 113.592 8.9589C114.689 10.4208 116.441 10.8048 117.93 11.4663C117.938 13.7811 117.261 14.2577 115.222 13.8873C111.485 13.1983 107.728 12.6049 103.971 12.0435C100.03 11.4541 96.0844 10.9089 92.1331 10.4078C90.2773 10.177 88.401 10.1129 86.5317 9.97128C83.2842 9.72139 80.0404 9.41858 76.786 9.23404C73.6592 9.04621 70.5279 8.92594 67.3921 8.87322C62.9328 8.81137 58.4703 8.8826 54.013 8.81525C51.6121 8.77799 49.2382 9.10197 46.8459 9.17278C45.654 9.20512 44.4512 9.1211 43.2593 9.1852C42.0568 9.25701 40.8645 9.46642 39.6707 9.58403C33.5992 10.1837 27.5233 10.7352 21.4613 11.3955C15.9324 11.9964 10.4153 12.7294 4.89128 13.3779C4.25459 13.4048 3.61679 13.3858 2.98285 13.321C2.94086 11.9051 3.80746 11.5284 4.6948 11.3416C7.52205 10.7334 10.3647 10.2065 13.1973 9.63025C14.6007 9.34594 15.9972 9.00612 17.3933 8.69701C18.0092 8.76824 18.6173 8.84171 19.2304 8.91148C18.6316 8.72935 18.0173 7.90423 17.4075 8.73648Z" fill="url(#paint0_linear_0_15477)" fill-opacity="0.59"/>
<defs>
<linearGradient id="paint0_linear_0_15477" x1="16.7587" y1="-34.4063" x2="13.4368" y2="15.1606" gradientUnits="userSpaceOnUse">
<stop stop-color="#7CC6A5"/>
<stop offset="1" stop-color="#3966CC"/>
</linearGradient>
</defs>
</svg>
