<svg width="1106" height="1064" viewBox="0 0 1106 1064" fill="none" xmlns="http://www.w3.org/2000/svg">
<g id="Group 9">
<path id="Path" d="M1112.96 749.611C1112.96 749.611 815.111 611.003 781.879 512.374C748.323 413.995 762.289 278.943 694.245 207.179C625.878 135.665 458.159 113.733 394.99 65.2971C364.584 41.9822 329.795 -3.66783 329.795 -3.66783L1108.01 1.24995L1112.96 749.611Z" fill="#2667FF" fill-opacity="0.26"/>
<path id="Path_2" d="M1113.4 817.397C1113.4 817.397 778.49 674.053 743.046 568.848C707.256 463.909 722.161 319.848 649.581 243.301C576.656 167.021 417.111 157.587 330.368 91.9702C281.094 54.3956 249.14 -4.17751 249.14 -4.17751L1108.02 2.35296L1113.4 817.397Z" fill="#2667FF" fill-opacity="0.26"/>
<path id="Path_3" d="M1113.85 851.446C1113.85 851.446 754.415 718.829 716.609 606.596C678.435 494.648 694.348 340.961 616.922 259.304C539.128 177.932 379.09 207.904 286.554 137.909C225.954 91.7005 180.949 -4.60834 180.949 -4.60834L1108.01 1.24998L1113.85 851.446Z" fill="#2667FF" fill-opacity="0.26"/>
<path id="Path_4" d="M1114.18 901.536C1114.18 901.536 748.88 757.592 704.468 645.958C659.7 534.632 694.48 384.694 611.729 306.005C528.621 227.623 356.083 226.087 258.71 159.964C208.465 125.561 138.408 -5.35923 138.408 -5.35923L1108.23 1.25136L1114.18 901.536Z" fill="#8EA6DE" fill-opacity="0.26"/>
</g>
</svg>
