<svg width="367" height="50" viewBox="0 0 367 50" fill="none" xmlns="http://www.w3.org/2000/svg">
<path id="Shape" fill-rule="evenodd" clip-rule="evenodd" d="M8.42143 36.6843C18.2669 35.9359 28.1113 35.1911 37.9546 34.45C40.3183 34.6762 42.6834 34.9051 45.0498 35.1367C53.4122 33.2472 61.98 32.4421 70.5449 32.741C80.2834 33.3961 85.7351 33.4389 92.6404 32.1317C93.3188 32.2171 93.9895 32.2964 94.6626 32.3771C94.5228 32.7045 94.3751 33.0416 94.2259 33.3739C93.7397 33.7221 93.2686 34.0669 92.7873 34.4168C94.7481 33.684 96.7124 32.9461 98.6801 32.203C99.8259 33.2584 98.8702 32.1998 98.7626 33.51C100.932 32.9008 100.088 32.7045 102.233 32.7045C104.59 32.5653 103.266 33.3502 105.83 33.8644C106 33.8629 106.159 33.8503 106.328 33.844C106.142 32.6428 106.584 33.4974 105.241 32.5796C105.231 32.4704 105.23 32.3628 105.223 32.2505C105.716 32.1207 106.204 31.9893 106.704 31.8644C106.913 32.5115 107.125 33.154 107.331 33.8012C108.632 33.2963 109.97 32.8974 111.334 32.6081C111.16 32.7441 110.981 32.8659 110.801 32.9989C110.984 33.2125 111.169 33.4167 111.352 33.6302C111.85 33.7172 112.363 33.8028 112.876 33.8914C113.362 33.76 113.862 33.6335 114.359 33.5021C114 33.089 113.647 32.6825 113.289 32.2725C118.668 31.5019 124.024 32.0938 129.317 31.5606C129.374 33.249 129.117 32.4799 130.961 33.453C131.124 33.4483 131.284 33.4389 131.454 33.434C133.374 32.3216 132.438 31.9402 135.857 31.6128C135.665 31.1808 135.466 30.7551 135.273 30.3263C108.127 28.7044 80.1578 32.3801 54.2082 29.1822C44.6752 28.0097 30.3119 32.0685 24.0325 29.1586C23.1547 28.6457 22.2861 28.1363 21.4113 27.6299C22.2068 22.8243 27.1268 18.9379 32.2689 16.7052C38.3457 18.3192 46.8545 17.278 54.388 16.4266C53.2507 15.4251 29.9083 13.9678 28.0456 13.6165C27.539 7.52589 33.7036 2.55238 41.8419 1.59037C64.6151 1.05712 87.3854 0.526993 110.153 0C131.788 0.0617371 153.421 0.125576 175.051 0.191525C189.506 0.669365 203.957 1.14775 218.405 1.62667C241.777 3.5019 267.544 4.95455 288.126 6.19671C288.671 6.82476 289.214 7.45346 289.757 8.0828C284.882 10.4722 280.009 12.8589 275.137 15.2431C281.898 16.0596 296.044 18.5645 298.356 16.5485C299.219 18.028 331.155 21.1026 336.867 20.8003C338.8 24.8939 339.018 26.8134 337.547 31.2378C337.555 31.3454 337.565 31.4544 337.571 31.5636C343.922 32.3668 350.336 32.5337 356.72 32.0621C355.885 32.2014 355.058 32.3485 354.235 32.4926C355.756 32.7504 357.289 33.0163 358.811 33.2773C358.974 33.2695 359.141 33.2695 359.313 33.2663C359.191 32.4292 359.338 32.8771 358.722 31.9799C360.075 32.1364 361.429 32.2957 362.783 32.4577C365.006 31.8675 369.734 39.762 364.903 41.8538C363.415 43.96 351.771 42.9789 347.874 42.9014C324.366 42.3665 300.857 41.8348 277.347 41.3063C262.108 40.1116 241.73 43.0801 224.063 41.9329C202.545 40.5357 167.392 41.1576 148.71 43.4917C133.585 45.3762 117.891 43.6704 103.543 45.0787C70.9563 48.2672 32.4417 42.9173 2.76097 50C-4.49059 45.9127 4.37781 39.9266 8.42143 36.6843ZM310.524 30.7061C310.618 30.5694 310.712 30.4335 310.81 30.2939C310.602 30.3018 310.392 30.3076 310.19 30.3194C310.298 30.4492 310.409 30.5772 310.524 30.7061ZM307.812 29.7896C307.798 29.5874 307.789 29.3853 307.775 29.1841C307.579 29.394 307.386 29.603 307.188 29.8159C307.397 29.8022 307.606 29.7974 307.812 29.7896ZM290.498 29.8906C290.665 29.8848 290.83 29.8799 291 29.878C290.976 29.7432 290.97 29.6064 290.952 29.4736C290.443 29.3515 289.938 29.2325 289.428 29.1094C288.614 29.2647 287.808 29.4219 287 29.5791C288.164 29.6825 289.33 29.7864 290.498 29.8906ZM282.528 29.708C282.62 29.5693 282.718 29.4306 282.812 29.292C282.605 29.2988 282.394 29.3076 282.188 29.3154C282.301 29.4482 282.414 29.5771 282.528 29.708ZM280 27.7896C279.828 27.5961 279.66 27.4048 279.487 27.2104C279.324 27.2201 279.166 27.2299 279 27.2377C279.335 27.4223 279.67 27.6049 280 27.7896ZM274.058 27.8144C274.368 27.7353 274.674 27.6553 274.98 27.5742C274.869 27.4433 274.752 27.3153 274.642 27.1856C274.436 27.1924 274.229 27.2022 274.02 27.2129C274.03 27.4121 274.049 27.6133 274.058 27.8144ZM273.955 27.2788C273.042 27.5767 273.581 27.2886 273.045 27.7212C273.35 27.5767 273.655 27.4263 273.955 27.2788ZM269.967 27.3524C269.656 27.3621 269.346 27.3758 269.033 27.3895C269.796 27.5907 269.475 27.87 269.967 27.3524ZM266.208 27.496C266.469 27.4203 266.739 27.3464 267 27.2745C266.994 27.2101 266.989 27.1458 266.987 27.0823C265.408 27.3369 264.768 27.6513 263.317 27C263.213 27.3284 263.104 27.6607 263 27.9854C264.11 28.0533 265.223 27.8835 266.208 27.496ZM254.046 27.6259C254.263 27.6845 254.472 27.7431 254.686 27.8037C254.78 27.664 254.874 27.5253 254.97 27.3876C254.864 27.3233 254.754 27.2607 254.645 27.1963C254.44 27.2734 254.236 27.3476 254.03 27.4277C254.038 27.4941 254.042 27.5595 254.046 27.6259H254.046ZM253.619 27.7017C253.607 27.5669 253.599 27.4321 253.591 27.2983C253.325 27.6694 253.288 27.3628 253.619 27.7017H253.619ZM250.528 27.7085C250.623 27.5679 250.719 27.4292 250.81 27.2915C250.606 27.3003 250.398 27.3111 250.19 27.3189C250.302 27.4458 250.415 27.5767 250.528 27.7085H250.528ZM247.526 27.708C247.621 27.5673 247.72 27.4297 247.813 27.292C247.604 27.2988 247.397 27.3105 247.187 27.3193C247.3 27.4472 247.412 27.5761 247.526 27.708H247.526ZM232.94 27.0776C232.029 27.5015 232.422 27.1343 232.06 27.9224C232.352 27.6392 232.65 27.356 232.94 27.0776H232.94ZM226.982 26.6826C226.972 26.6153 226.968 26.5459 226.964 26.4795C226.646 26.4238 226.333 26.3701 226.018 26.3174C226.16 26.4278 225.873 26.5615 226.982 26.6826ZM190.527 26.7061C190.624 26.5683 190.718 26.4317 190.811 26.2939C190.605 26.2979 190.395 26.3067 190.189 26.3163C190.302 26.4463 190.414 26.5762 190.527 26.7061ZM176.524 30.7099C176.62 30.5704 176.716 30.4304 176.812 30.2901C176.602 30.3008 176.391 30.3076 176.188 30.3165C176.301 30.4454 176.412 30.5802 176.524 30.7099H176.524ZM173.685 30.8095C173.779 30.6035 173.869 30.3975 173.962 30.1905C173.65 30.2705 173.343 30.3515 173.038 30.4326C173.255 30.5566 173.471 30.6806 173.685 30.8095ZM151.119 29C149.326 29.2769 149.434 29.2062 149 29.8773C149.3 29.9178 149.61 29.9609 149.91 30C150.944 29.8848 151.966 29.7722 153 29.6584C151.93 29.3685 151.835 29.4859 151.119 29H151.119ZM166.61 30.9107C166.742 30.8375 166.87 30.7593 167 30.6821C166.926 30.483 166.85 30.2915 166.774 30.0893C166.516 30.2446 166.263 30.3969 166 30.5464C166.205 30.6684 166.406 30.7915 166.61 30.9107ZM161.521 31C162.195 30.9806 162.869 30.9632 163.538 30.9458C163.696 30.8083 163.845 30.6718 164 30.5343C163.139 30.3533 162.282 30.179 161.42 30C161.271 30.27 161.136 30.5401 161 30.8103C161.171 30.8741 161.347 30.9342 161.521 31H161.521ZM159.009 30.3389C159.26 30.5243 159.51 30.7167 159.762 30.9023C159.839 30.8974 159.919 30.8916 160 30.8857C159.907 30.625 159.811 30.3613 159.719 30.0977C159.48 30.1094 159.239 30.122 159 30.1367C159.003 30.205 159.005 30.2724 159.009 30.3389H159.009ZM153.816 31C153.955 30.9953 154.088 30.9923 154.219 30.9866C155.139 30.885 156.07 30.7929 157 30.698C155.971 29.8753 155.677 30.2618 154.186 30.5935C154.168 30.3931 154.149 30.1984 154.135 30C152.964 30.4199 153.468 30.0517 153 30.8245C153.272 30.8812 153.544 30.9426 153.816 31H153.816ZM146.73 32.885C148.444 32.3365 150.316 32.3773 152 33C151.133 32.2305 149.961 31.8235 148.759 31.8745C148.712 31.2511 148.665 30.6234 148.625 30C147.748 30.0349 146.877 30.0682 146 30.106C147.504 31.5022 147.047 30.9078 146.73 32.885H146.73ZM142.786 33C143.359 31.4577 142.656 32.2647 142.15 30C141.846 30.1368 141.551 30.2621 141.251 30.3823C139.801 31.1811 140.021 31.0185 140.002 32.7951C140.93 32.8634 141.856 32.9334 142.786 33H142.786ZM137.025 30.465C137.72 30.6446 138.412 30.8229 139.103 31C140.168 30.3743 139.98 30.6456 139.997 30C139.043 30.2202 138.02 30.3118 137 30.2684C137.009 30.3374 137.015 30.3989 137.025 30.465H137.025ZM134.831 32.7959C134.712 32.5986 134.595 32.3974 134.48 32.2041C134.377 32.209 134.274 32.2129 134.169 32.2158C134.611 32.7998 134.174 32.458 134.831 32.7959H134.831ZM117.733 32.7944C117.614 32.5932 117.498 32.4028 117.377 32.2056C117.153 32.7084 117.27 32.3823 117.733 32.7944H117.733ZM77.031 33.4252C77.2458 33.5522 77.4641 33.6763 77.6833 33.8022C77.782 33.729 77.8791 33.6586 77.9807 33.5854C77.864 33.4575 77.7527 33.3256 77.6438 33.1978C77.4358 33.2075 77.2248 33.2153 77.0193 33.225C77.0241 33.2875 77.028 33.3589 77.031 33.4252H77.031ZM73 33.7886C72.8268 33.5972 72.6585 33.4057 72.486 33.2114C72.3219 33.2212 72.163 33.227 72 33.2378C72.4489 33.6929 72.2574 33.5708 73 33.7886H73ZM309.637 17.3052C309.75 17.4321 309.866 17.564 309.982 17.6948C309.659 17.5718 309.337 17.4507 309.018 17.3315C309.226 17.3227 309.433 17.3169 309.637 17.3052ZM132.053 30.8223C132.348 30.6064 132.648 30.3935 132.947 30.1777C132.699 30.6504 133.09 30.3672 132.053 30.8223ZM113.218 30.4248C113.475 30.4121 113.734 30.3994 113.99 30.3867C113.994 30.3929 113.997 30.3994 114 30.4062C113.669 30.4648 113.335 30.5303 113 30.6133C113.074 30.5527 113.147 30.4883 113.218 30.4248Z" fill="url(#paint0_linear_0_2175)" fill-opacity="0.6"/>
<defs>
<linearGradient id="paint0_linear_0_2175" x1="-508.72" y1="59.8706" x2="-498.045" y2="-87.7074" gradientUnits="userSpaceOnUse">
<stop stop-color="#7CC6A5"/>
<stop offset="1" stop-color="#3966CC"/>
</linearGradient>
</defs>
</svg>
